<svg width="689" height="666" viewBox="0 0 689 666" fill="none" xmlns="http://www.w3.org/2000/svg">
<path d="M682.95 341.979C673.427 314.559 655.26 289.612 647.849 260.137C635.261 210.076 655.391 154.941 647.265 103.261C640.149 58.0055 609.387 21.3378 575.77 18.0435C547.825 15.3036 521.33 33.1741 493.601 37.7954C447.081 45.5468 401.621 15.9 355.201 5.23053C313.415 -4.37421 269.938 1.73208 230.78 22.7028C205.308 36.3443 179.235 60.9636 175.514 98.2197C172.661 126.778 183.846 156.489 178.384 184.268C174.278 205.149 161.345 220.658 147.26 230.294C133.175 239.929 117.624 244.865 102.861 252.42C71.2261 268.613 42.3593 298.604 28.1324 340.544C13.9055 382.483 16.864 436.885 40.1131 471.279C51.2146 487.703 65.8904 498.66 78.2047 513.371C94.2024 532.484 93.8704 563.432 103.313 587.545C113.048 612.4 130.576 628.754 148.212 641.895C170.256 658.32 195.829 666.052 220.625 662.019C256.065 656.255 288.143 629.224 323.692 624.693C359.728 620.1 395.074 638.953 430.292 651.462C469.23 665.293 510.419 671.484 549.276 658.867C588.134 646.248 624.438 612.758 641.167 563.2C653.651 526.216 654.678 483.182 667.628 446.508C675.397 424.506 687.529 404.306 688.871 379.813C689.609 366.348 687.101 353.929 682.95 341.979Z" fill="url(#paint0_linear_789_3017)"/>
<path d="M560.237 164.041C542.191 155.734 558.462 146.014 569.788 142.136C578.951 138.999 601.897 133.883 592.584 114.954C582.829 95.1272 573.485 119.615 565.725 122.38C548.382 128.56 566.429 102.231 570.737 95.2102C576.639 85.5919 589.054 65.9404 573.723 62.6658C561.325 60.0174 548.483 80.9252 543.34 91.3451C539.673 98.7753 530.656 133.57 521.272 125.855C514.168 120.015 521.517 85.1769 504.557 110.078C497.661 120.204 498.774 136.473 495.664 148.055C491.11 165.02 489.191 172.051 476.749 167.695C470.301 165.437 470.092 155.643 462.134 162.259C458.037 165.664 456.822 181.341 456.858 186.783C457.178 236.788 473.697 270.278 481.49 274.596C492.04 280.441 511.646 271.998 520.667 265.726C525.153 262.608 533.334 257.455 532.759 249.551C532.112 240.682 520.795 241.955 520.376 236.747C519.185 221.971 541.643 236.087 547.863 233.98C555.916 231.252 569.258 213.838 560.807 204.625C559.939 203.678 524.836 200.603 544.917 187.077C556.035 179.588 567.958 200.366 578.684 185.615C594.121 164.385 567.003 167.156 560.237 164.041Z" fill="url(#paint1_linear_789_3017)"/>
<path d="M557.222 171.907C549.468 167.946 541.455 164.369 533.012 163.5C538.952 154.519 545.175 145.623 549.693 135.652C550.968 132.84 547.17 130.897 545.905 133.691C545.353 134.907 544.74 136.088 544.143 137.278C543.492 134.23 544.273 129.679 544.508 127.247C545.117 120.968 547.072 115.326 549.112 109.567C550.158 106.617 546.371 104.651 545.323 107.605C542.675 115.077 540.587 122.214 540.121 130.38C539.891 134.394 539.694 138.744 541.618 142.066C535.233 153.535 527.279 164.096 520.621 175.221C517.775 169.762 515.685 164.079 514.723 157.613C513.674 150.571 514.385 143.411 513.782 136.322C513.511 133.129 509.419 133.743 509.692 136.943C510.417 145.467 509.592 153.84 511.363 162.247C512.697 168.582 515.091 174.182 518.063 179.592C510.409 192.983 503.342 206.906 497.533 221.605C495.604 226.487 493.843 231.465 492.136 236.473C488.292 229.52 485.108 222.268 482.895 214.275C481.664 209.831 480.298 205.123 479.806 200.47C479.433 196.944 479.74 193.617 478.593 190.272C477.576 187.307 473.749 189.157 474.768 192.128C476.173 196.223 475.699 201.564 476.589 205.944C477.449 210.171 478.515 214.37 479.728 218.469C482.209 226.855 485.861 234.466 490.074 241.734C490.136 241.84 490.216 241.883 490.281 241.972C487.402 250.624 484.589 259.313 481.388 267.776C481.132 268.016 480.905 268.324 480.755 268.782C480.446 269.733 479.84 271.042 479.638 272.194C473.916 289.675 468.152 307.144 462.614 324.711C461.672 327.7 465.456 329.679 466.403 326.672C471.921 309.168 477.664 291.757 483.367 274.339C483.403 274.263 483.451 274.22 483.484 274.137C485.314 269.574 486.993 264.924 488.612 260.239C496.109 262.546 504.443 259.895 511.435 256.494C513.899 255.297 512.367 250.666 509.901 251.866C503.821 254.821 496.784 257.119 490.214 255.551C493.819 244.837 497.215 234 501.322 223.565C502.957 219.412 504.706 215.334 506.531 211.308C506.667 211.425 506.776 211.561 506.952 211.646C517.173 216.667 528.204 218.678 539.145 216.597C541.759 216.099 541.261 211.148 538.632 211.648C528.38 213.596 518.158 211.768 508.573 207.06C508.553 207.051 508.536 207.056 508.517 207.047C514.147 195.16 520.49 183.768 527.153 172.696C528.288 170.811 529.469 168.949 530.668 167.093C530.903 167.78 531.382 168.331 532.206 168.41C540.398 169.202 548.085 172.654 555.599 176.493C558.043 177.741 559.669 173.158 557.222 171.907Z" fill="#F46D6D"/>
<path d="M449.499 382.425C460.019 368.772 469.009 354.228 480.153 341.569C470.522 323.104 466.752 288.457 469.202 284.835C474.706 276.698 481.651 289.377 483.021 295.545C485.501 306.709 484.166 330.065 482.558 338.91C483.881 337.482 485.226 336.073 486.62 334.705C489.676 331.704 492.732 328.686 495.789 325.67C492.943 319.13 486.297 305.573 489.997 283.511C490.617 279.812 491.722 274.958 494.981 273.525C499.505 271.535 499.838 277.671 499.96 281.555C500.168 288.213 499.586 311.07 499.81 321.707C505.927 315.667 512.053 309.63 518.2 303.636C514.749 289.945 510.624 273.329 515.689 259.419C519.001 250.321 524.919 257.904 526.234 263.92C528.591 274.694 526.85 287.325 523.68 298.322C526.587 295.51 529.495 292.695 532.417 289.917C532.939 289.421 533.471 288.936 533.996 288.444C531.824 281.896 529.154 275.866 528.943 268.564C528.734 261.373 531.326 254.824 535.146 249.484C536.83 247.13 538.605 243.989 541.423 243.591C545.377 243.033 543.719 248.15 542.975 251.272C541.395 257.914 540.098 264.789 539.127 271.571C538.591 275.315 537.992 278.805 537.205 282.364C537.003 283.283 536.88 284.56 536.757 285.867C540.949 281.987 545.21 278.184 549.54 274.481C549.27 262.396 549.015 247.779 555.711 237.84C560.103 231.321 563.521 239.117 563.475 244.38C563.405 252.544 560.572 261.011 556.809 268.398C558.722 266.836 560.642 265.289 562.575 263.767C565.856 250.171 569.758 233.269 580.218 225.156C586.873 219.995 588.309 230.087 586.73 235.839C585.17 241.516 582.358 246.822 578.915 251.582C579.831 250.933 580.745 250.271 581.664 249.631C583.825 248.133 586.016 246.745 588.229 245.444C589.711 233.454 591.547 218.909 599.613 210.5C604.878 205.009 607.118 213.407 606.314 218.581C605.037 226.794 600.865 234.707 595.946 241.277C599.406 239.549 602.906 237.961 606.432 236.453C608.873 227.007 611.879 215.608 619.242 210.06C624.072 206.422 625.012 213.558 623.823 217.621C622.097 223.517 618.439 228.84 614.262 233.198C618.143 231.621 622.037 230.057 625.919 228.422C628.167 224.883 630.759 221.361 633.07 218.36C635.802 214.814 639.292 211.377 643.583 211.82C649.236 212.405 650.345 217.243 647.175 222.58C645.727 225.019 643.791 226.631 641.614 227.792C643.812 228.29 645.855 229.302 647.214 230.84C650.933 235.046 647.526 239.115 643.489 240.051C638.996 241.092 634.367 239.041 630.009 238.01C626.781 237.246 623.366 237.631 620.132 237.27C617.556 238.321 614.982 239.366 612.417 240.43C619.11 239.922 626.457 240.888 631.985 244.847C635.051 247.043 638.11 253.247 632.475 254.203C623.432 255.737 614.655 248.543 607.582 243.05L607.501 242.52C600.291 245.643 593.184 249.094 586.303 253.511C588.613 253.507 590.879 253.79 593.034 254.449C596.964 255.648 601.956 261.222 596.061 264.465C588.491 268.63 579.618 266.625 571.667 264.001C564.512 269.422 557.478 275.128 550.6 281.074C558.103 277.888 566.641 276.143 573.988 278.384C578.201 279.67 583.553 285.648 577.235 289.125C567.095 294.702 554.771 289.96 544.927 286.495L544.796 286.184C541.605 289.043 538.443 291.943 535.333 294.898C533.829 296.328 532.35 297.798 530.859 299.245C541.124 294.578 552.734 291.745 562.565 294.257C568.193 295.696 575.165 303.247 566.498 308.212C552.642 316.149 536.286 310.719 523.176 306.752C518.907 310.985 514.648 315.233 510.385 319.475C520.564 319.043 541.635 316.627 548.485 316.525C551.689 316.481 559.202 317.4 557.4 323.642C556.399 327.099 550.603 330.033 547.815 330.834C541.599 332.626 518.738 330.059 503.794 325.99C500.753 328.971 497.703 331.936 494.612 334.848C493.468 335.927 492.354 337.025 491.255 338.134C506.283 335.895 535.838 333.901 542.953 336.738C546.573 338.181 552.187 341.656 551.287 347.239C550.357 353.021 543.042 352.685 539.289 353.619C530.645 355.767 503.27 350.139 498.336 348.22C494.517 346.734 490.814 344.193 487.128 342.482C484.687 345.151 482.34 347.888 480.064 350.682C491.883 353.632 518.912 358.088 527.368 360.361C531.213 361.398 539.992 365.054 536.386 371.912C534.384 375.709 526.766 377.25 523.24 377.262C515.781 377.292 491.274 367.513 474.313 358.003C467.301 367.227 460.674 376.858 453.373 386.331C451.166 389.191 447.284 385.299 449.499 382.425Z" fill="url(#paint2_linear_789_3017)"/>
<path d="M149.375 147.862C167.42 139.555 151.152 129.835 139.824 125.957C130.661 122.82 107.715 117.704 117.028 98.775C126.783 78.948 136.127 103.436 143.887 106.201C161.23 112.381 143.183 86.0518 138.875 79.031C132.972 69.4128 120.558 49.7612 135.888 46.4866C148.287 43.8382 161.128 64.746 166.272 75.166C169.937 82.5943 178.954 117.389 188.34 109.676C195.444 103.836 188.095 68.9978 205.054 93.897C211.951 104.023 210.838 120.292 213.948 131.874C218.502 148.839 220.42 155.87 232.863 151.514C239.311 149.258 239.519 139.463 247.478 146.078C251.575 149.485 252.789 165.16 252.754 170.602C252.434 220.608 235.914 254.097 228.121 258.415C217.571 264.261 197.966 255.817 188.945 249.545C184.459 246.427 176.278 241.274 176.853 233.37C177.5 224.501 188.817 225.776 189.236 220.566C190.427 205.791 167.969 219.906 161.749 217.799C153.695 215.071 140.355 197.657 148.804 188.444C149.673 187.497 184.775 184.423 164.694 170.896C153.577 163.407 141.654 184.185 130.927 169.434C115.491 148.204 142.607 150.977 149.375 147.862Z" fill="url(#paint3_linear_789_3017)"/>
<path d="M152.354 155.728C160.108 151.767 168.121 148.19 176.564 147.321C170.624 138.34 164.401 129.444 159.882 119.473C158.608 116.661 162.406 114.718 163.671 117.511C164.223 118.728 164.836 119.909 165.433 121.099C166.084 118.051 165.303 113.499 165.066 111.068C164.457 104.788 162.502 99.1465 160.462 93.3876C159.416 90.4374 163.204 88.4719 164.251 91.4258C166.899 98.8975 168.988 106.035 169.454 114.201C169.683 118.215 169.881 122.565 167.956 125.887C174.342 137.355 182.295 147.917 188.953 159.042C191.799 153.581 193.889 147.9 194.851 141.434C195.9 134.39 195.189 127.232 195.793 120.143C196.064 116.949 200.155 117.564 199.882 120.763C199.158 129.288 199.982 137.661 198.211 146.068C196.877 152.404 194.483 158.003 191.511 163.413C199.165 176.804 206.232 190.726 212.041 205.426C213.97 210.308 215.732 215.286 217.438 220.294C221.282 213.341 224.466 206.088 226.679 198.096C227.911 193.654 229.276 188.944 229.768 184.29C230.141 180.765 229.834 177.437 230.981 174.093C231.999 171.128 235.825 172.978 234.807 175.949C233.403 180.044 233.877 185.386 232.987 189.764C232.127 193.991 231.062 198.19 229.849 202.289C227.368 210.676 223.716 218.287 219.503 225.555C219.441 225.662 219.362 225.704 219.296 225.793C222.175 234.445 224.988 243.133 228.19 251.597C228.444 251.837 228.673 252.144 228.822 252.603C229.131 253.553 229.737 254.862 229.94 256.015C235.661 273.495 241.425 290.964 246.963 308.531C247.906 311.523 244.122 313.5 243.174 310.493C237.656 292.988 231.913 275.58 226.21 258.16C226.174 258.086 226.126 258.041 226.093 257.958C224.263 253.395 222.585 248.745 220.965 244.06C213.469 246.366 205.135 243.716 198.143 240.315C195.679 239.117 197.211 234.487 199.675 235.686C205.755 238.642 212.792 240.94 219.362 239.372C215.757 228.658 212.36 217.821 208.254 207.386C206.62 203.234 204.87 199.156 203.045 195.129C202.909 195.246 202.8 195.382 202.624 195.467C192.403 200.488 181.372 202.499 170.431 200.418C167.817 199.92 168.314 194.969 170.944 195.468C181.196 197.417 191.418 195.589 201.003 190.881C201.023 190.872 201.04 190.877 201.059 190.868C195.429 178.98 189.086 167.589 182.423 156.514C181.288 154.63 180.107 152.768 178.908 150.912C178.671 151.599 178.194 152.15 177.37 152.229C169.178 153.019 161.491 156.473 153.977 160.312C151.535 161.56 149.907 156.979 152.354 155.728Z" fill="#F46D6D"/>
<path d="M260.138 366.244C249.617 352.591 240.627 338.048 229.483 325.389C239.114 306.924 242.884 272.277 240.434 268.655C234.93 260.518 227.985 273.197 226.615 279.365C224.136 290.53 225.47 313.885 227.078 322.729C225.755 321.302 224.41 319.892 223.017 318.525C219.959 315.524 216.904 312.506 213.847 309.49C216.693 302.95 223.339 289.393 219.639 267.331C219.019 263.632 217.914 258.778 214.655 257.345C210.132 255.355 209.798 261.491 209.676 265.375C209.468 272.033 210.051 294.89 209.826 305.526C203.709 299.487 197.583 293.45 191.436 287.456C194.887 273.765 199.013 257.149 193.947 243.239C190.635 234.142 184.717 241.723 183.402 247.738C181.047 258.512 182.788 271.143 185.958 282.14C183.049 279.328 180.143 276.513 177.22 273.735C176.698 273.239 176.167 272.754 175.641 272.262C177.814 265.714 180.484 259.684 180.694 252.382C180.903 245.191 178.311 238.642 174.491 233.302C172.808 230.948 171.033 227.807 168.215 227.409C164.261 226.851 165.919 231.969 166.662 235.09C168.243 241.732 169.54 248.608 170.511 255.389C171.047 259.133 171.645 262.623 172.432 266.182C172.635 267.101 172.758 268.378 172.881 269.685C168.689 265.805 164.427 262.002 160.098 258.299C160.367 246.214 160.623 231.597 153.927 221.658C149.535 215.139 146.117 222.933 146.162 228.198C146.232 236.362 149.066 244.829 152.828 252.216C150.916 250.654 148.996 249.107 147.061 247.585C143.781 233.989 139.878 217.088 129.418 208.975C122.763 203.814 121.327 213.905 122.906 219.657C124.466 225.334 127.278 230.641 130.721 235.4C129.805 234.751 128.891 234.089 127.972 233.449C125.812 231.95 123.62 230.563 121.407 229.26C119.925 217.271 118.089 202.725 110.023 194.316C104.758 188.825 102.518 197.223 103.323 202.397C104.599 210.61 108.771 218.523 113.69 225.093C110.23 223.363 106.73 221.777 103.204 220.27C100.763 210.823 97.7568 199.424 90.394 193.879C85.5624 190.24 84.6241 197.376 85.8133 201.439C87.5387 207.335 91.1967 212.659 95.3737 217.016C91.4913 215.439 87.5995 213.875 83.717 212.24C81.4695 208.701 78.8776 205.179 76.5662 202.178C73.834 198.632 70.3443 195.195 66.0534 195.639C60.4004 196.223 59.2907 201.062 62.4609 206.398C63.9088 208.837 65.8446 210.45 68.022 211.61C65.8243 212.108 63.781 213.121 62.4219 214.658C58.7031 218.865 62.1102 222.933 66.147 223.869C70.6404 224.91 75.2694 222.86 79.6273 221.828C82.8551 221.064 86.27 221.449 89.5041 221.09C92.0804 222.141 94.6537 223.186 97.2191 224.25C90.5281 223.742 83.1793 224.706 77.6509 228.668C74.5852 230.863 71.5257 237.067 77.1616 238.024C86.203 239.557 94.981 232.363 102.054 226.87L102.133 226.34C109.343 229.464 116.451 232.914 123.332 237.331C121.022 237.328 118.756 237.61 116.6 238.267C112.671 239.467 107.679 245.041 113.573 248.283C121.144 252.448 130.017 250.443 137.967 247.819C145.123 253.24 152.157 258.946 159.035 264.892C151.532 261.706 142.994 259.961 135.646 262.204C131.433 263.489 126.081 269.466 132.4 272.945C142.54 278.522 154.864 273.78 164.708 270.315L164.839 270.004C168.029 272.863 171.192 275.763 174.301 278.718C175.805 280.148 177.284 281.618 178.776 283.064C168.511 278.396 156.901 275.565 147.069 278.077C141.44 279.516 134.468 287.067 143.137 292.032C156.993 299.969 173.349 294.537 186.458 290.572C190.727 294.805 194.987 299.053 199.249 303.295C189.07 302.863 168 300.447 161.15 300.345C157.947 300.301 150.433 301.22 152.234 307.462C153.235 310.919 159.031 313.853 161.82 314.654C168.035 316.448 190.897 313.881 205.841 309.81C208.882 312.791 211.932 315.756 215.022 318.668C216.166 319.747 217.282 320.845 218.381 321.954C203.353 319.715 173.798 317.721 166.683 320.558C163.064 322.001 157.45 325.476 158.349 331.059C159.279 336.841 166.595 336.505 170.347 337.439C178.991 339.587 206.366 333.959 211.301 332.04C215.119 330.554 218.822 328.013 222.508 326.302C224.949 328.971 227.296 331.708 229.572 334.502C217.753 337.452 190.724 341.907 182.269 344.18C178.424 345.218 169.644 348.873 173.251 355.732C175.252 359.529 182.87 361.07 186.396 361.082C193.855 361.112 218.363 351.333 235.322 341.822C242.334 351.046 248.961 360.678 256.261 370.151C258.47 373.01 262.352 369.119 260.138 366.244Z" fill="url(#paint4_linear_789_3017)"/>
<path d="M499.512 366.158C499.512 400.723 483.209 432.044 456.793 454.931C454.6 456.819 452.357 458.677 450.017 460.446C448.652 461.478 447.288 462.482 445.875 463.455C445.437 463.81 444.997 464.104 444.534 464.428C441.952 466.228 439.319 467.939 436.59 469.561C434.544 470.8 432.447 471.979 430.328 473.1C427.209 474.811 424.017 476.403 420.75 477.878C415.73 480.207 410.515 482.273 405.13 484.042C404.594 484.248 404.033 484.425 403.497 484.602C397.526 486.549 391.361 488.171 385.024 489.41C380.199 490.414 375.252 491.18 370.256 491.77C367.016 492.125 363.749 492.419 360.461 492.566C359.998 492.596 359.56 492.625 359.095 492.655C356.195 492.832 353.271 492.891 350.322 492.891H348.567C267.004 492.095 201.158 435.676 201.158 366.16C201.158 296.203 267.953 239.488 350.322 239.488C432.715 239.486 499.512 296.201 499.512 366.158Z" fill="url(#paint5_linear_789_3017)"/>
<path d="M448.701 366.17C448.701 388.962 437.952 409.615 420.533 424.706C419.086 425.95 417.609 427.175 416.066 428.342C415.166 429.023 414.266 429.683 413.333 430.327C413.044 430.561 412.755 430.755 412.45 430.968C410.746 432.154 409.011 433.282 407.211 434.352C405.862 435.169 404.479 435.946 403.081 436.685C401.024 437.813 398.92 438.864 396.766 439.836C393.455 441.371 390.017 442.733 386.465 443.9C386.111 444.036 385.742 444.153 385.388 444.27C381.451 445.555 377.386 446.622 373.207 447.441C370.026 448.103 366.764 448.609 363.469 448.997C361.332 449.231 359.178 449.425 357.009 449.522C356.703 449.54 356.415 449.561 356.11 449.58C354.197 449.697 352.269 449.735 350.324 449.735H349.168C295.387 449.21 251.969 412.007 251.969 366.172C251.969 320.042 296.013 282.646 350.324 282.646C404.658 282.645 448.701 320.04 448.701 366.17Z" fill="url(#paint6_linear_789_3017)"/>
<path d="M375.738 342.438L418.119 378.491L424.034 377.563L382.744 342.438H375.738Z" fill="#E0E7EE"/>
<path d="M371.898 385.481L414.28 421.534L420.194 420.604L378.904 385.481H371.898Z" fill="#E0E7EE"/>
<path d="M419.304 344.6L414.901 369.571L414.097 374.141L376.834 342.442L382.105 314.069L374.424 306.29L349.164 449.73H350.321C352.264 449.73 354.194 449.691 356.106 449.576C356.412 449.557 356.701 449.536 357.005 449.517L359.624 435.359L373.202 447.435C377.381 446.618 381.446 445.549 385.383 444.264C385.736 444.147 386.106 444.03 386.46 443.894L361.907 423.007L367.049 395.334L404.505 428.608L403.074 436.679C404.472 435.94 405.855 435.163 407.204 434.346C409.005 433.276 411.623 431.507 413.327 430.321L426.985 352.377L419.304 344.6ZM406.915 414.959L369.346 382.988L374.552 354.75L411.703 387.772L406.915 414.959Z" fill="white"/>
<path d="M433.172 352.381L420.558 424.705C419.112 425.95 417.635 427.174 416.092 428.342C415.192 429.023 414.291 429.683 413.359 430.326L427.017 352.383H433.172V352.381Z" fill="#E0E7EE"/>
<path d="M426.952 352.377L419.277 344.598H425.435L433.11 352.377H426.952Z" fill="#E0E7EE"/>
<path d="M382.12 314.061H388.279L380.605 306.282H374.445L382.12 314.061Z" fill="#E0E7EE"/>
<path d="M382.046 314.061H388.206L382.949 342.438H376.789L382.046 314.061Z" fill="#E0E7EE"/>
<mask id="mask0_789_3017" style="mask-type:luminance" maskUnits="userSpaceOnUse" x="250" y="182" width="206" height="268">
<path d="M451.176 363.414C446.708 386.321 440.218 408.291 422.463 423.879C420.988 425.165 419.481 426.429 417.908 427.635C416.99 428.338 416.074 429.021 415.123 429.683C414.829 429.925 414.534 430.125 414.222 430.345C412.486 431.571 410.717 432.735 408.882 433.841C407.506 434.684 406.097 435.487 404.673 436.251C402.576 437.417 400.43 438.502 398.236 439.505C394.861 441.091 391.356 442.499 387.737 443.704C387.377 443.845 387 443.964 386.64 444.085C382.626 445.411 378.482 446.516 374.224 447.36C370.981 448.042 367.656 448.565 364.297 448.967C362.118 449.208 359.924 449.408 357.712 449.51C357.401 449.531 357.106 449.55 356.794 449.57C354.845 449.691 352.879 449.731 350.898 449.731H349.718C294.895 449.189 252.853 410.683 250.637 363.412C245.707 258.227 304.237 182.551 359.601 182.551C414.983 182.553 472.336 254.937 451.176 363.414Z" fill="white"/>
</mask>
<g mask="url(#mask0_789_3017)">
<path d="M381.455 244.072C378.903 234.043 373.662 225.971 369.589 216.866C368.54 214.521 367.259 212.286 366.311 209.864C365.936 208.904 363.958 204.222 361.922 199.42C359.089 192.738 353.029 189.835 347.613 192.567C344.355 194.21 341.793 197.671 340.618 202.049C338.718 209.13 334.895 218.46 332.759 221.452C328.793 227.009 323.972 232.328 321.026 238.947C319.321 242.78 319.304 247.064 318.344 251.183C319.329 247.611 322.736 244.817 325.057 242.744C325.404 245.857 324.059 250.497 323.793 253.7C323.352 259.004 323.998 263.918 325.432 268.883C328.637 279.974 335.192 287.548 340.465 296.949C341.706 299.16 342.536 301.559 343.914 303.666C344.394 304.4 345.256 306.301 345.965 306.279C346.96 306.246 349.474 302.285 350.152 301.491C356.768 293.757 365.173 289.143 370.014 279.101C373.264 272.361 374.188 264.825 376.356 257.644C377.511 261.683 377.023 266.259 377.909 270.352C380.867 261.754 383.797 253.283 381.455 244.072Z" fill="#323BB4"/>
<path d="M395.035 395.324C395.033 395.321 395.03 395.317 395.028 395.313C393.722 393.08 392.468 391.129 391.322 389.464C388.668 384.522 387.318 379.544 388.037 374.509L351.645 374.256L334.309 371.308C334.527 372.251 334.733 373.196 334.946 374.139H334.924C334.924 374.139 333.574 385.295 341.913 409.875C352.89 476.993 352.683 546.2 344.168 619.374L356.115 619.822C371.243 540.533 372.052 469.731 367.011 403.02L367.7 402.832C400.931 445.283 388.099 487.849 367.932 535.467L377.38 544.823C426.945 471.199 408.504 418.377 395.035 395.324Z" fill="url(#paint7_linear_789_3017)"/>
<path d="M374.907 259.34C372.572 261.415 372.493 265.12 372.884 268.002C373.152 269.975 373.708 271.858 374.443 273.648C376.893 279.622 385.982 301.144 393.104 309.676C396.233 313.426 401.037 314.137 404.82 311.406C413.194 305.362 427.199 294.806 430.967 289.204C430.458 288.395 430.639 288.649 429.953 287.606C429.268 286.561 427.838 284.139 426.9 282.907C421.615 288.044 401.13 292.571 401.13 292.571C401.13 292.571 389.114 270.796 386.59 262.173C385.088 257.356 380.839 254.07 374.907 259.34Z" fill="url(#paint8_linear_789_3017)"/>
<path d="M430.989 289.181C437.89 284.703 443.518 279.227 445.094 269.383C445.37 267.655 442.7 265.686 440.549 267.464C438.398 269.243 435.238 273.57 434.078 277.024C433.78 275.741 434.293 273.463 433.942 272.314C433.592 271.165 433.364 269.494 431.619 271.339C429.871 273.184 427.657 279.369 427.002 282.802C428.266 285.031 429.687 286.982 430.989 289.181Z" fill="#FAB9B5"/>
<path d="M351.842 257.964C353.998 260.307 353.775 264.002 353.153 266.826C352.726 268.758 352.02 270.565 351.142 272.261C348.219 277.914 337.425 298.252 329.646 305.897C326.227 309.259 321.389 309.393 317.846 306.225C310.002 299.216 296.922 287.046 293.629 281.023C294.201 280.277 294 280.51 294.767 279.553C295.534 278.595 297.153 276.356 298.188 275.239C303.03 280.979 323.049 287.921 323.049 287.921C323.049 287.921 336.775 267.679 339.986 259.4C341.87 254.778 346.365 252.015 351.842 257.964Z" fill="url(#paint9_linear_789_3017)"/>
<path d="M293.6 280.996C287.095 275.72 281.939 269.601 281.171 259.617C281.035 257.864 283.853 256.223 285.85 258.247C287.846 260.273 290.639 264.955 291.514 268.531C291.914 267.29 291.59 264.96 292.031 263.859C292.474 262.757 292.835 261.122 294.423 263.165C296.012 265.208 297.714 271.627 298.086 275.12C296.648 277.189 295.075 278.962 293.6 280.996Z" fill="#FAB9B5"/>
<path d="M389.153 378.59C384.755 382.214 379.905 384.441 374.729 385.588C360.717 388.695 344.554 383.902 330.115 377.058C330.115 377.058 332.592 366.161 336.347 356.207C340.598 344.829 345.67 333.749 345.151 320.941C344.909 314.971 343.337 308.754 341.502 303.304C339.995 298.881 339.462 294.374 340.095 289.63C340.561 286.107 341.465 282.666 342.045 279.176C342.955 273.274 348.946 255.484 348.946 255.484L352.243 257.386L355.742 259.383C356.438 259.285 357.964 258.704 358.298 257.886C358.349 257.776 358.376 257.667 358.382 257.527L358.276 255.032L369.197 255.207L369.367 257.286C369.512 258.833 369.301 260.023 370.662 260.104C371.722 260.166 373.033 259.77 374.278 259.257C376.323 258.401 378.196 257.225 378.449 257.241C378.517 257.244 386.13 289.938 384.867 298.224C383.411 307.869 379.333 315.007 378.507 325.079C378.243 328.167 378.733 333.145 379.562 336.075C384.594 354.381 389.153 378.59 389.153 378.59Z" fill="url(#paint10_linear_789_3017)"/>
<path d="M363.439 282.519C363.439 282.519 351.406 282.975 352.217 257.384L355.716 259.381C356.413 259.283 357.938 258.702 358.272 257.884C358.323 257.774 358.35 257.665 358.356 257.525L358.25 255.03L369.171 255.205L369.341 257.284C369.486 258.831 369.276 260.021 370.636 260.102C371.696 260.164 373.007 259.768 374.252 259.255C375.499 270.599 371.052 282.217 363.439 282.519Z" fill="#FAB9B5"/>
<path d="M358.369 257.525C363.243 258.951 366.664 257.865 369.171 255.194L368.581 245.189L357.643 248.245L358.369 257.525Z" fill="#F7ADAB"/>
<path d="M381.712 221.135C380.975 221.052 380.133 221.372 379.309 221.949C378.252 215.998 375.668 209.651 372.466 205.275C371.124 203.103 369.578 201.683 367.89 200.823C366.979 200.281 366.054 199.916 365.129 199.81C364.493 199.74 363.865 199.708 363.244 199.714C362.624 199.699 361.996 199.719 361.358 199.78C360.431 199.868 359.504 200.221 358.587 200.747C356.891 201.579 355.333 202.975 353.971 205.124C350.729 209.447 348.085 215.753 346.972 221.687C346.153 221.097 345.314 220.763 344.575 220.835C342.102 221.072 341.273 225.756 341.937 229.315C342.778 233.829 345.613 235.265 348.246 236.183C349.44 239.175 351.134 242.11 353.095 244.568C355.144 247.496 357.797 249.676 360.83 250.582C360.919 250.61 361.009 250.634 361.098 250.659C361.274 250.708 361.446 250.774 361.625 250.812C361.745 250.838 361.868 250.838 361.99 250.857C362.092 250.872 362.194 250.883 362.297 250.895C362.532 250.921 362.767 250.94 363.004 250.94C363.241 250.944 363.476 250.927 363.712 250.906C363.813 250.895 363.916 250.887 364.017 250.872C364.139 250.855 364.262 250.857 364.382 250.832C364.561 250.797 364.733 250.732 364.91 250.687C364.999 250.663 365.09 250.64 365.178 250.614C368.221 249.757 370.894 247.618 372.971 244.723C374.954 242.297 376.676 239.39 377.897 236.419C380.537 235.542 383.386 234.154 384.27 229.653C384.968 226.107 384.182 221.412 381.712 221.135Z" fill="#FAB9B5"/>
<path d="M355.772 228.211C355.824 229.212 356.541 229.976 357.373 229.916C358.205 229.855 358.838 228.993 358.785 227.99C358.734 226.986 358.017 226.224 357.185 226.285C356.354 226.347 355.721 227.207 355.772 228.211Z" fill="#323BB4"/>
<path d="M368.069 228.309C368.122 229.31 368.838 230.074 369.67 230.014C370.502 229.954 371.135 229.091 371.082 228.088C371.031 227.084 370.314 226.322 369.481 226.383C368.651 226.445 368.018 227.307 368.069 228.309Z" fill="#323BB4"/>
<path d="M354.272 224.773C354.256 224.768 354.242 224.76 354.227 224.753C354.001 224.634 353.9 224.319 353.999 224.049C355.189 220.835 357.623 220.971 358.753 221.474C358.982 221.58 359.096 221.887 359.01 222.161C358.924 222.438 358.692 222.582 358.437 222.472C358.359 222.436 355.957 221.399 354.816 224.481C354.722 224.734 354.486 224.856 354.272 224.773Z" fill="#323BB4"/>
<path d="M367.245 220.405C367.237 220.39 367.23 220.371 367.222 220.354C367.111 220.09 367.198 219.769 367.418 219.637C370.043 218.06 371.854 220.013 372.46 221.263C372.582 221.518 372.507 221.842 372.295 221.988C372.081 222.137 371.826 222.071 371.686 221.791C371.645 221.705 370.337 219.079 367.82 220.592C367.616 220.716 367.368 220.631 367.245 220.405Z" fill="#323BB4"/>
<path d="M358.18 238.219C358.169 238.198 358.16 238.177 358.15 238.157C358.015 237.834 358.122 237.44 358.392 237.278C361.614 235.34 363.838 237.74 364.581 239.271C364.731 239.584 364.639 239.982 364.379 240.162C364.117 240.343 363.803 240.264 363.63 239.922C363.581 239.815 361.975 236.591 358.886 238.449C358.635 238.6 358.33 238.498 358.18 238.219Z" fill="#323BB4"/>
<path d="M364.665 235.739C364.426 235.737 364.236 235.507 364.234 235.22C364.236 234.935 364.428 234.703 364.666 234.703C364.674 234.703 365.498 234.684 365.712 234.154C365.812 233.909 365.91 233.149 364.719 231.349C364.571 231.125 364.604 230.8 364.791 230.623C364.978 230.448 365.249 230.485 365.399 230.708C366.513 232.394 366.872 233.669 366.491 234.609C366.035 235.731 364.724 235.741 364.668 235.739H364.665Z" fill="#323BB4"/>
<path d="M380.646 209.922C379.499 203.798 375.579 198.175 370.216 195.969C364.954 193.806 358.179 194.255 353.383 197.592C347.32 201.809 342.866 212.324 345.983 220.774C346.981 223.479 347.721 227.463 349.493 229.576C350.327 226.475 349.851 223.11 350.904 220.175C352.783 219.826 354.705 219.054 356.446 218.318C359.097 217.2 361.836 215.114 363.979 212.914C365.704 211.145 366.846 209.262 368.132 207.093C367.118 209.734 368.689 214.683 370.199 216.653C371.519 218.371 373.539 218.977 374.872 220.78C376.016 222.327 376.331 224.224 376.398 226.26C376.452 227.933 376.274 229.597 375.889 231.157C376.02 230.623 376.912 229.808 377.203 229.31C377.652 228.54 378.033 227.71 378.368 226.86C379.05 225.126 379.561 223.253 379.903 221.378C380.522 217.949 381.265 213.233 380.646 209.922Z" fill="#323BB4"/>
</g>
<path d="M193.192 541.582H196.808C197.181 541.582 197.491 541.672 197.736 541.854C197.992 542.024 198.163 542.259 198.248 542.558L202.184 556.398C202.28 556.739 202.365 557.112 202.44 557.518C202.525 557.912 202.605 558.334 202.68 558.782C202.765 558.334 202.856 557.912 202.952 557.518C203.059 557.112 203.171 556.739 203.288 556.398L207.832 542.558C207.917 542.312 208.083 542.088 208.328 541.886C208.584 541.683 208.893 541.582 209.256 541.582H210.52C210.893 541.582 211.203 541.672 211.448 541.854C211.693 542.024 211.864 542.259 211.96 542.558L216.472 556.398C216.707 557.08 216.909 557.838 217.08 558.67C217.155 558.254 217.229 557.854 217.304 557.47C217.389 557.086 217.475 556.728 217.56 556.398L221.496 542.558C221.571 542.291 221.736 542.062 221.992 541.87C222.248 541.678 222.557 541.582 222.92 541.582H226.296L219.112 564.718H215.224L210.168 548.91C210.104 548.707 210.035 548.488 209.96 548.254C209.896 548.019 209.832 547.768 209.768 547.502C209.704 547.768 209.635 548.019 209.56 548.254C209.496 548.488 209.432 548.707 209.368 548.91L204.264 564.718H200.376L193.192 541.582ZM234.74 548.046C235.774 548.046 236.724 548.211 237.588 548.542C238.462 548.872 239.214 549.358 239.844 549.998C240.473 550.627 240.964 551.406 241.316 552.334C241.668 553.251 241.844 554.302 241.844 555.486C241.844 555.784 241.828 556.035 241.796 556.238C241.774 556.43 241.726 556.584 241.652 556.702C241.588 556.808 241.497 556.888 241.38 556.942C241.262 556.984 241.113 557.006 240.932 557.006H230.788C230.905 558.691 231.358 559.928 232.148 560.718C232.937 561.507 233.982 561.902 235.284 561.902C235.924 561.902 236.473 561.827 236.932 561.678C237.401 561.528 237.806 561.363 238.148 561.182C238.5 561 238.804 560.835 239.06 560.686C239.326 560.536 239.582 560.462 239.828 560.462C239.988 560.462 240.126 560.494 240.244 560.558C240.361 560.622 240.462 560.712 240.548 560.83L241.7 562.27C241.262 562.782 240.772 563.214 240.228 563.566C239.684 563.907 239.113 564.184 238.516 564.398C237.929 564.6 237.326 564.744 236.708 564.83C236.1 564.915 235.508 564.958 234.932 564.958C233.79 564.958 232.729 564.771 231.748 564.398C230.766 564.014 229.913 563.454 229.188 562.718C228.462 561.971 227.892 561.054 227.476 559.966C227.06 558.867 226.852 557.598 226.852 556.158C226.852 555.038 227.033 553.987 227.396 553.006C227.758 552.014 228.276 551.155 228.948 550.43C229.63 549.694 230.457 549.112 231.428 548.686C232.409 548.259 233.513 548.046 234.74 548.046ZM234.82 550.878C233.668 550.878 232.766 551.203 232.116 551.854C231.465 552.504 231.049 553.427 230.868 554.622H238.292C238.292 554.11 238.222 553.63 238.084 553.182C237.945 552.723 237.732 552.323 237.444 551.982C237.156 551.64 236.793 551.374 236.356 551.182C235.918 550.979 235.406 550.878 234.82 550.878ZM262.773 551.774C262.656 551.923 262.538 552.04 262.421 552.126C262.314 552.211 262.154 552.254 261.941 552.254C261.738 552.254 261.541 552.195 261.349 552.078C261.157 551.95 260.928 551.811 260.661 551.662C260.394 551.502 260.074 551.363 259.701 551.246C259.338 551.118 258.885 551.054 258.341 551.054C257.648 551.054 257.04 551.182 256.517 551.438C255.994 551.683 255.557 552.04 255.205 552.51C254.864 552.979 254.608 553.55 254.437 554.222C254.266 554.883 254.181 555.635 254.181 556.478C254.181 557.352 254.272 558.131 254.453 558.814C254.645 559.496 254.917 560.072 255.269 560.542C255.621 561 256.048 561.352 256.549 561.598C257.05 561.832 257.616 561.95 258.245 561.95C258.874 561.95 259.381 561.875 259.765 561.726C260.16 561.566 260.49 561.395 260.757 561.214C261.024 561.022 261.253 560.851 261.445 560.702C261.648 560.542 261.872 560.462 262.117 560.462C262.437 560.462 262.677 560.584 262.837 560.83L263.973 562.27C263.536 562.782 263.061 563.214 262.549 563.566C262.037 563.907 261.504 564.184 260.949 564.398C260.405 564.6 259.84 564.744 259.253 564.83C258.666 564.915 258.085 564.958 257.509 564.958C256.496 564.958 255.541 564.771 254.645 564.398C253.749 564.014 252.965 563.459 252.293 562.734C251.632 562.008 251.104 561.123 250.709 560.078C250.325 559.022 250.133 557.822 250.133 556.478C250.133 555.272 250.304 554.158 250.645 553.134C250.997 552.099 251.509 551.208 252.181 550.462C252.853 549.704 253.685 549.112 254.677 548.686C255.669 548.259 256.81 548.046 258.101 548.046C259.328 548.046 260.4 548.243 261.317 548.638C262.245 549.032 263.077 549.598 263.813 550.334L262.773 551.774ZM279.351 564.718H277.575C277.202 564.718 276.908 564.664 276.695 564.558C276.482 564.44 276.322 564.211 276.215 563.87L275.863 562.702C275.447 563.075 275.036 563.406 274.631 563.694C274.236 563.971 273.826 564.206 273.399 564.398C272.972 564.59 272.519 564.734 272.039 564.83C271.559 564.926 271.026 564.974 270.439 564.974C269.746 564.974 269.106 564.883 268.519 564.702C267.932 564.51 267.426 564.227 266.999 563.854C266.583 563.48 266.258 563.016 266.023 562.462C265.788 561.907 265.671 561.262 265.671 560.526C265.671 559.907 265.831 559.299 266.151 558.702C266.482 558.094 267.026 557.55 267.783 557.07C268.54 556.579 269.548 556.174 270.807 555.854C272.066 555.534 273.628 555.352 275.495 555.31V554.35C275.495 553.251 275.26 552.44 274.791 551.918C274.332 551.384 273.66 551.118 272.775 551.118C272.135 551.118 271.602 551.192 271.175 551.342C270.748 551.491 270.375 551.662 270.055 551.854C269.746 552.035 269.458 552.2 269.191 552.35C268.924 552.499 268.631 552.574 268.311 552.574C268.044 552.574 267.815 552.504 267.623 552.366C267.431 552.227 267.276 552.056 267.159 551.854L266.439 550.59C268.327 548.862 270.604 547.998 273.271 547.998C274.231 547.998 275.084 548.158 275.831 548.478C276.588 548.787 277.228 549.224 277.751 549.79C278.274 550.344 278.668 551.011 278.935 551.79C279.212 552.568 279.351 553.422 279.351 554.35V564.718ZM271.671 562.254C272.076 562.254 272.45 562.216 272.791 562.142C273.132 562.067 273.452 561.955 273.751 561.806C274.06 561.656 274.354 561.475 274.631 561.262C274.919 561.038 275.207 560.776 275.495 560.478V557.71C274.343 557.763 273.378 557.864 272.599 558.014C271.831 558.152 271.212 558.334 270.743 558.558C270.274 558.782 269.938 559.043 269.735 559.342C269.543 559.64 269.447 559.966 269.447 560.318C269.447 561.011 269.65 561.507 270.055 561.806C270.471 562.104 271.01 562.254 271.671 562.254ZM283.237 564.718V548.302H285.653C286.165 548.302 286.501 548.542 286.661 549.022L286.933 550.318C287.264 549.976 287.61 549.667 287.973 549.39C288.346 549.112 288.736 548.872 289.141 548.67C289.557 548.467 290 548.312 290.469 548.206C290.938 548.099 291.45 548.046 292.005 548.046C292.901 548.046 293.696 548.2 294.389 548.51C295.082 548.808 295.658 549.235 296.117 549.79C296.586 550.334 296.938 550.99 297.173 551.758C297.418 552.515 297.541 553.352 297.541 554.27V564.718H293.589V554.27C293.589 553.267 293.354 552.494 292.885 551.95C292.426 551.395 291.733 551.118 290.805 551.118C290.122 551.118 289.482 551.272 288.885 551.582C288.288 551.891 287.722 552.312 287.189 552.846V564.718H283.237ZM309.953 541.326L306.001 545.502C305.798 545.715 305.601 545.864 305.409 545.95C305.227 546.024 304.987 546.062 304.689 546.062H302.321L304.593 542.174C304.753 541.896 304.939 541.688 305.153 541.55C305.366 541.4 305.686 541.326 306.113 541.326H309.953ZM317.035 564.974C315.617 564.974 314.523 564.574 313.755 563.774C312.987 562.963 312.603 561.848 312.603 560.43V551.262H310.939C310.726 551.262 310.539 551.192 310.379 551.054C310.23 550.915 310.155 550.707 310.155 550.43V548.862L312.795 548.43L313.627 543.95C313.67 543.736 313.766 543.571 313.915 543.454C314.075 543.336 314.273 543.278 314.507 543.278H316.555V548.446H320.875V551.262H316.555V560.158C316.555 560.67 316.683 561.07 316.939 561.358C317.195 561.646 317.537 561.79 317.963 561.79C318.209 561.79 318.411 561.763 318.571 561.71C318.742 561.646 318.886 561.582 319.003 561.518C319.131 561.454 319.243 561.395 319.339 561.342C319.435 561.278 319.531 561.246 319.627 561.246C319.745 561.246 319.841 561.278 319.915 561.342C319.99 561.395 320.07 561.48 320.155 561.598L321.339 563.518C320.763 563.998 320.102 564.36 319.355 564.606C318.609 564.851 317.835 564.974 317.035 564.974ZM330.91 564.718V551.278L329.486 551.054C329.176 551 328.926 550.894 328.734 550.734C328.552 550.574 328.462 550.35 328.462 550.062V548.446H330.91V547.918C330.91 546.915 331.075 545.987 331.406 545.134C331.736 544.27 332.238 543.523 332.91 542.894C333.582 542.264 334.43 541.774 335.454 541.422C336.478 541.059 337.688 540.878 339.086 540.878C339.534 540.878 339.992 540.904 340.462 540.958C340.931 541 341.336 541.075 341.678 541.182L341.55 543.23C341.528 543.475 341.395 543.624 341.15 543.678C340.904 543.72 340.6 543.742 340.238 543.742C339.203 543.742 338.334 543.832 337.63 544.014C336.936 544.195 336.371 544.467 335.934 544.83C335.507 545.182 335.198 545.63 335.006 546.174C334.824 546.707 334.734 547.331 334.734 548.046V548.446H344.91V564.718H340.958V551.262H334.862V564.718H330.91ZM349.424 564.718V548.302H351.841C352.353 548.302 352.689 548.542 352.849 549.022L353.121 550.318C353.451 549.976 353.798 549.667 354.161 549.39C354.534 549.112 354.923 548.872 355.329 548.67C355.745 548.467 356.187 548.312 356.657 548.206C357.126 548.099 357.638 548.046 358.193 548.046C359.089 548.046 359.883 548.2 360.577 548.51C361.27 548.808 361.846 549.235 362.305 549.79C362.774 550.334 363.126 550.99 363.361 551.758C363.606 552.515 363.729 553.352 363.729 554.27V564.718H359.777V554.27C359.777 553.267 359.542 552.494 359.073 551.95C358.614 551.395 357.921 551.118 356.993 551.118C356.31 551.118 355.67 551.272 355.073 551.582C354.475 551.891 353.91 552.312 353.377 552.846V564.718H349.424ZM379.164 564.718C378.652 564.718 378.316 564.478 378.156 563.998L377.836 562.414C377.495 562.798 377.137 563.144 376.764 563.454C376.391 563.763 375.985 564.03 375.548 564.254C375.121 564.478 374.657 564.648 374.156 564.766C373.665 564.894 373.132 564.958 372.556 564.958C371.66 564.958 370.839 564.771 370.092 564.398C369.345 564.024 368.7 563.486 368.156 562.782C367.623 562.067 367.207 561.187 366.908 560.142C366.62 559.096 366.476 557.902 366.476 556.558C366.476 555.342 366.641 554.211 366.972 553.166C367.303 552.12 367.777 551.214 368.396 550.446C369.015 549.678 369.756 549.08 370.62 548.654C371.484 548.216 372.455 547.998 373.532 547.998C374.449 547.998 375.233 548.147 375.884 548.446C376.535 548.734 377.116 549.123 377.628 549.614V540.942H381.58V564.718H379.164ZM373.9 561.822C374.721 561.822 375.42 561.651 375.996 561.31C376.572 560.968 377.116 560.483 377.628 559.854V552.494C377.18 551.95 376.689 551.566 376.156 551.342C375.633 551.118 375.068 551.006 374.46 551.006C373.863 551.006 373.319 551.118 372.828 551.342C372.348 551.566 371.937 551.907 371.596 552.366C371.265 552.814 371.009 553.39 370.828 554.094C370.647 554.787 370.556 555.608 370.556 556.558C370.556 557.518 370.631 558.334 370.78 559.006C370.94 559.667 371.164 560.211 371.452 560.638C371.74 561.054 372.092 561.358 372.508 561.55C372.924 561.731 373.388 561.822 373.9 561.822ZM397.442 564.974C396.023 564.974 394.93 564.574 394.161 563.774C393.394 562.963 393.01 561.848 393.01 560.43V551.262H391.346C391.132 551.262 390.946 551.192 390.786 551.054C390.636 550.915 390.562 550.707 390.562 550.43V548.862L393.202 548.43L394.034 543.95C394.076 543.736 394.172 543.571 394.322 543.454C394.482 543.336 394.679 543.278 394.914 543.278H396.962V548.446H401.282V551.262H396.962V560.158C396.962 560.67 397.09 561.07 397.346 561.358C397.602 561.646 397.943 561.79 398.37 561.79C398.615 561.79 398.818 561.763 398.977 561.71C399.148 561.646 399.292 561.582 399.41 561.518C399.538 561.454 399.65 561.395 399.746 561.342C399.842 561.278 399.938 561.246 400.034 561.246C400.151 561.246 400.247 561.278 400.322 561.342C400.396 561.395 400.476 561.48 400.562 561.598L401.746 563.518C401.17 563.998 400.508 564.36 399.762 564.606C399.015 564.851 398.242 564.974 397.442 564.974ZM404.424 564.718V540.942H408.377V550.078C409.017 549.47 409.721 548.979 410.489 548.606C411.257 548.232 412.158 548.046 413.193 548.046C414.089 548.046 414.883 548.2 415.577 548.51C416.27 548.808 416.846 549.235 417.305 549.79C417.774 550.334 418.126 550.99 418.361 551.758C418.606 552.515 418.729 553.352 418.729 554.27V564.718H414.777V554.27C414.777 553.267 414.542 552.494 414.073 551.95C413.614 551.395 412.921 551.118 411.993 551.118C411.31 551.118 410.67 551.272 410.073 551.582C409.475 551.891 408.91 552.312 408.377 552.846V564.718H404.424ZM429.396 548.046C430.431 548.046 431.38 548.211 432.244 548.542C433.119 548.872 433.871 549.358 434.5 549.998C435.129 550.627 435.62 551.406 435.972 552.334C436.324 553.251 436.5 554.302 436.5 555.486C436.5 555.784 436.484 556.035 436.452 556.238C436.431 556.43 436.383 556.584 436.308 556.702C436.244 556.808 436.153 556.888 436.036 556.942C435.919 556.984 435.769 557.006 435.588 557.006H425.444C425.561 558.691 426.015 559.928 426.804 560.718C427.593 561.507 428.639 561.902 429.94 561.902C430.58 561.902 431.129 561.827 431.588 561.678C432.057 561.528 432.463 561.363 432.804 561.182C433.156 561 433.46 560.835 433.716 560.686C433.983 560.536 434.239 560.462 434.484 560.462C434.644 560.462 434.783 560.494 434.9 560.558C435.017 560.622 435.119 560.712 435.204 560.83L436.356 562.27C435.919 562.782 435.428 563.214 434.884 563.566C434.34 563.907 433.769 564.184 433.172 564.398C432.585 564.6 431.983 564.744 431.364 564.83C430.756 564.915 430.164 564.958 429.588 564.958C428.447 564.958 427.385 564.771 426.404 564.398C425.423 564.014 424.569 563.454 423.844 562.718C423.119 561.971 422.548 561.054 422.132 559.966C421.716 558.867 421.508 557.598 421.508 556.158C421.508 555.038 421.689 553.987 422.052 553.006C422.415 552.014 422.932 551.155 423.604 550.43C424.287 549.694 425.113 549.112 426.084 548.686C427.065 548.259 428.169 548.046 429.396 548.046ZM429.476 550.878C428.324 550.878 427.423 551.203 426.772 551.854C426.121 552.504 425.705 553.427 425.524 554.622H432.948C432.948 554.11 432.879 553.63 432.74 553.182C432.601 552.723 432.388 552.323 432.1 551.982C431.812 551.64 431.449 551.374 431.012 551.182C430.575 550.979 430.063 550.878 429.476 550.878ZM445.893 570.078V548.302H448.309C448.565 548.302 448.784 548.36 448.965 548.478C449.147 548.595 449.264 548.776 449.317 549.022L449.637 550.542C450.299 549.784 451.056 549.171 451.909 548.702C452.773 548.232 453.781 547.998 454.933 547.998C455.829 547.998 456.645 548.184 457.381 548.558C458.128 548.931 458.768 549.475 459.301 550.19C459.845 550.894 460.261 551.768 460.549 552.814C460.848 553.848 460.997 555.038 460.997 556.382C460.997 557.608 460.832 558.744 460.501 559.79C460.171 560.835 459.696 561.742 459.077 562.51C458.469 563.278 457.728 563.88 456.853 564.318C455.989 564.744 455.019 564.958 453.941 564.958C453.013 564.958 452.224 564.819 451.573 564.542C450.933 564.254 450.357 563.859 449.845 563.358V570.078H445.893ZM453.573 551.118C452.752 551.118 452.048 551.294 451.461 551.646C450.885 551.987 450.347 552.472 449.845 553.102V560.462C450.293 561.016 450.779 561.406 451.301 561.63C451.835 561.843 452.405 561.95 453.013 561.95C453.611 561.95 454.149 561.838 454.629 561.614C455.12 561.39 455.531 561.048 455.861 560.59C456.203 560.131 456.464 559.555 456.645 558.862C456.827 558.158 456.917 557.331 456.917 556.382C456.917 555.422 456.837 554.611 456.677 553.95C456.528 553.278 456.309 552.734 456.021 552.318C455.733 551.902 455.381 551.598 454.965 551.406C454.56 551.214 454.096 551.118 453.573 551.118ZM476.851 564.718H475.075C474.702 564.718 474.408 564.664 474.195 564.558C473.982 564.44 473.822 564.211 473.715 563.87L473.363 562.702C472.947 563.075 472.536 563.406 472.131 563.694C471.736 563.971 471.326 564.206 470.899 564.398C470.472 564.59 470.019 564.734 469.539 564.83C469.059 564.926 468.526 564.974 467.939 564.974C467.246 564.974 466.606 564.883 466.019 564.702C465.432 564.51 464.926 564.227 464.499 563.854C464.083 563.48 463.758 563.016 463.523 562.462C463.288 561.907 463.171 561.262 463.171 560.526C463.171 559.907 463.331 559.299 463.651 558.702C463.982 558.094 464.526 557.55 465.283 557.07C466.04 556.579 467.048 556.174 468.307 555.854C469.566 555.534 471.128 555.352 472.995 555.31V554.35C472.995 553.251 472.76 552.44 472.291 551.918C471.832 551.384 471.16 551.118 470.275 551.118C469.635 551.118 469.102 551.192 468.675 551.342C468.248 551.491 467.875 551.662 467.555 551.854C467.246 552.035 466.958 552.2 466.691 552.35C466.424 552.499 466.131 552.574 465.811 552.574C465.544 552.574 465.315 552.504 465.123 552.366C464.931 552.227 464.776 552.056 464.659 551.854L463.939 550.59C465.827 548.862 468.104 547.998 470.771 547.998C471.731 547.998 472.584 548.158 473.331 548.478C474.088 548.787 474.728 549.224 475.251 549.79C475.774 550.344 476.168 551.011 476.435 551.79C476.712 552.568 476.851 553.422 476.851 554.35V564.718ZM469.171 562.254C469.576 562.254 469.95 562.216 470.291 562.142C470.632 562.067 470.952 561.955 471.251 561.806C471.56 561.656 471.854 561.475 472.131 561.262C472.419 561.038 472.707 560.776 472.995 560.478V557.71C471.843 557.763 470.878 557.864 470.099 558.014C469.331 558.152 468.712 558.334 468.243 558.558C467.774 558.782 467.438 559.043 467.235 559.342C467.043 559.64 466.947 559.966 466.947 560.318C466.947 561.011 467.15 561.507 467.555 561.806C467.971 562.104 468.51 562.254 469.171 562.254ZM486.417 548.014C487.121 548.014 487.782 548.088 488.401 548.238C489.02 548.376 489.585 548.584 490.097 548.862H494.817V550.334C494.817 550.579 494.753 550.771 494.625 550.91C494.497 551.048 494.278 551.144 493.969 551.198L492.497 551.47C492.604 551.747 492.684 552.04 492.737 552.35C492.801 552.659 492.833 552.984 492.833 553.326C492.833 554.136 492.668 554.872 492.337 555.534C492.017 556.184 491.569 556.739 490.993 557.198C490.428 557.656 489.75 558.014 488.961 558.27C488.182 558.515 487.334 558.638 486.417 558.638C485.798 558.638 485.196 558.579 484.609 558.462C484.097 558.771 483.841 559.118 483.841 559.502C483.841 559.832 483.99 560.078 484.289 560.238C484.598 560.387 484.998 560.494 485.489 560.558C485.99 560.622 486.556 560.664 487.185 560.686C487.814 560.696 488.46 560.728 489.121 560.782C489.782 560.835 490.428 560.931 491.057 561.07C491.686 561.198 492.246 561.406 492.737 561.694C493.238 561.982 493.638 562.376 493.937 562.878C494.246 563.368 494.401 564.003 494.401 564.782C494.401 565.507 494.22 566.211 493.857 566.894C493.505 567.576 492.988 568.184 492.305 568.718C491.633 569.251 490.806 569.678 489.825 569.998C488.844 570.328 487.724 570.494 486.465 570.494C485.217 570.494 484.134 570.371 483.217 570.126C482.3 569.891 481.537 569.571 480.929 569.166C480.332 568.771 479.884 568.312 479.585 567.79C479.286 567.267 479.137 566.723 479.137 566.158C479.137 565.39 479.372 564.744 479.841 564.222C480.31 563.699 480.961 563.283 481.793 562.974C481.388 562.75 481.062 562.451 480.817 562.078C480.572 561.704 480.449 561.219 480.449 560.622C480.449 560.376 480.492 560.126 480.577 559.87C480.662 559.603 480.79 559.342 480.961 559.086C481.142 558.83 481.366 558.59 481.633 558.366C481.9 558.131 482.214 557.923 482.577 557.742C481.745 557.294 481.089 556.696 480.609 555.95C480.14 555.203 479.905 554.328 479.905 553.326C479.905 552.515 480.065 551.784 480.385 551.134C480.716 550.472 481.169 549.912 481.745 549.454C482.332 548.984 483.02 548.627 483.809 548.382C484.609 548.136 485.478 548.014 486.417 548.014ZM490.753 565.454C490.753 565.134 490.657 564.872 490.465 564.67C490.273 564.467 490.012 564.312 489.681 564.206C489.35 564.088 488.961 564.003 488.513 563.95C488.076 563.896 487.606 563.859 487.105 563.838C486.614 563.806 486.102 563.779 485.569 563.758C485.046 563.726 484.54 563.678 484.049 563.614C483.601 563.859 483.238 564.152 482.961 564.494C482.694 564.824 482.561 565.208 482.561 565.646C482.561 565.934 482.63 566.2 482.769 566.446C482.918 566.702 483.148 566.92 483.457 567.102C483.777 567.283 484.188 567.422 484.689 567.518C485.19 567.624 485.804 567.678 486.529 567.678C487.265 567.678 487.9 567.619 488.433 567.502C488.966 567.395 489.404 567.24 489.745 567.038C490.097 566.846 490.353 566.611 490.513 566.334C490.673 566.067 490.753 565.774 490.753 565.454ZM486.417 556.11C486.908 556.11 487.334 556.046 487.697 555.918C488.06 555.779 488.358 555.592 488.593 555.358C488.838 555.123 489.02 554.84 489.137 554.51C489.265 554.179 489.329 553.816 489.329 553.422C489.329 552.611 489.084 551.971 488.593 551.502C488.113 551.022 487.388 550.782 486.417 550.782C485.446 550.782 484.716 551.022 484.225 551.502C483.745 551.971 483.505 552.611 483.505 553.422C483.505 553.806 483.564 554.163 483.681 554.494C483.809 554.824 483.99 555.112 484.225 555.358C484.47 555.592 484.774 555.779 485.137 555.918C485.51 556.046 485.937 556.11 486.417 556.11ZM504.084 548.046C505.118 548.046 506.068 548.211 506.932 548.542C507.806 548.872 508.558 549.358 509.188 549.998C509.817 550.627 510.308 551.406 510.66 552.334C511.012 553.251 511.188 554.302 511.188 555.486C511.188 555.784 511.172 556.035 511.14 556.238C511.118 556.43 511.07 556.584 510.996 556.702C510.932 556.808 510.841 556.888 510.724 556.942C510.606 556.984 510.457 557.006 510.276 557.006H500.132C500.249 558.691 500.702 559.928 501.492 560.718C502.281 561.507 503.326 561.902 504.628 561.902C505.268 561.902 505.817 561.827 506.276 561.678C506.745 561.528 507.15 561.363 507.492 561.182C507.844 561 508.148 560.835 508.404 560.686C508.67 560.536 508.926 560.462 509.172 560.462C509.332 560.462 509.47 560.494 509.588 560.558C509.705 560.622 509.806 560.712 509.892 560.83L511.044 562.27C510.606 562.782 510.116 563.214 509.572 563.566C509.028 563.907 508.457 564.184 507.86 564.398C507.273 564.6 506.67 564.744 506.052 564.83C505.444 564.915 504.852 564.958 504.276 564.958C503.134 564.958 502.073 564.771 501.092 564.398C500.11 564.014 499.257 563.454 498.532 562.718C497.806 561.971 497.236 561.054 496.82 559.966C496.404 558.867 496.196 557.598 496.196 556.158C496.196 555.038 496.377 553.987 496.74 553.006C497.102 552.014 497.62 551.155 498.292 550.43C498.974 549.694 499.801 549.112 500.772 548.686C501.753 548.259 502.857 548.046 504.084 548.046ZM504.164 550.878C503.012 550.878 502.11 551.203 501.46 551.854C500.809 552.504 500.393 553.427 500.212 554.622H507.636C507.636 554.11 507.566 553.63 507.428 553.182C507.289 552.723 507.076 552.323 506.788 551.982C506.5 551.64 506.137 551.374 505.7 551.182C505.262 550.979 504.75 550.878 504.164 550.878ZM520.277 562.542C520.277 562.211 520.335 561.896 520.453 561.598C520.581 561.299 520.751 561.043 520.965 560.83C521.189 560.616 521.45 560.446 521.749 560.318C522.047 560.19 522.367 560.126 522.709 560.126C523.039 560.126 523.354 560.19 523.653 560.318C523.951 560.446 524.207 560.616 524.421 560.83C524.634 561.043 524.805 561.299 524.933 561.598C525.061 561.896 525.125 562.211 525.125 562.542C525.125 562.883 525.061 563.203 524.933 563.502C524.805 563.79 524.634 564.04 524.421 564.254C524.207 564.467 523.951 564.632 523.653 564.75C523.354 564.878 523.039 564.942 522.709 564.942C522.367 564.942 522.047 564.878 521.749 564.75C521.45 564.632 521.189 564.467 520.965 564.254C520.751 564.04 520.581 563.79 520.453 563.502C520.335 563.203 520.277 562.883 520.277 562.542ZM520.277 551.134C520.277 550.803 520.335 550.488 520.453 550.19C520.581 549.891 520.751 549.635 520.965 549.422C521.189 549.208 521.45 549.038 521.749 548.91C522.047 548.782 522.367 548.718 522.709 548.718C523.039 548.718 523.354 548.782 523.653 548.91C523.951 549.038 524.207 549.208 524.421 549.422C524.634 549.635 524.805 549.891 524.933 550.19C525.061 550.488 525.125 550.803 525.125 551.134C525.125 551.475 525.061 551.795 524.933 552.094C524.805 552.382 524.634 552.632 524.421 552.846C524.207 553.059 523.951 553.23 523.653 553.358C523.354 553.475 523.039 553.534 522.709 553.534C522.367 553.534 522.047 553.475 521.749 553.358C521.45 553.23 521.189 553.059 520.965 552.846C520.751 552.632 520.581 552.382 520.453 552.094C520.335 551.795 520.277 551.475 520.277 551.134ZM532.058 554.686C532.058 556.883 532.324 559.043 532.858 561.166C533.391 563.288 534.154 565.283 535.146 567.15C535.22 567.288 535.268 567.416 535.29 567.534C535.322 567.651 535.338 567.758 535.338 567.854C535.338 568.067 535.284 568.238 535.178 568.366C535.071 568.504 534.943 568.616 534.794 568.702L533.034 569.774C532.244 568.558 531.572 567.336 531.018 566.11C530.463 564.883 530.01 563.646 529.658 562.398C529.306 561.15 529.044 559.886 528.874 558.606C528.714 557.326 528.634 556.019 528.634 554.686C528.634 553.352 528.714 552.046 528.874 550.766C529.044 549.475 529.306 548.206 529.658 546.958C530.01 545.71 530.463 544.478 531.018 543.262C531.572 542.035 532.244 540.814 533.034 539.598L534.794 540.654C534.943 540.739 535.071 540.851 535.178 540.99C535.284 541.118 535.338 541.283 535.338 541.486C535.338 541.688 535.268 541.928 535.13 542.206C534.148 544.072 533.391 546.072 532.858 548.206C532.324 550.328 532.058 552.488 532.058 554.686Z" fill="#F5F5F5"/>
<path d="M656.5 427.96L686.636 313.713L614.862 306.364L501.351 413.664L490.693 446.299L594.577 462.099L587.294 489.925L584.357 501.079L636.865 507.128L647.226 470.396L671.996 471.936L683.486 431.752L665.965 429.298L656.5 427.96ZM611.796 393.881L604.568 420.185L587.459 417.737L559.574 413.74L623.568 351.032L611.796 393.881Z" fill="url(#paint11_linear_789_3017)"/>
<path d="M490.693 446.3L492.801 475.549L587.293 489.928L594.577 462.101L490.693 446.3ZM559.571 413.741L587.456 417.738L611.793 393.882L623.564 351.032L559.571 413.741ZM671.995 471.938L647.226 470.399L636.865 507.131L584.357 501.082L586.464 530.331L638.972 536.38L649.333 499.648L674.103 501.187L685.592 461.006L683.485 431.757L671.995 471.938ZM656.498 427.961L665.965 429.301L688.741 342.963L686.634 313.714L656.498 427.961Z" fill="url(#paint12_linear_789_3017)"/>
<path d="M164.365 412.265L187.921 295.775L115.9 294.432L8.77176 410.948L0 444.394L104.536 451.489L98.8553 479.857L96.5611 491.229L149.288 492.883L157.533 455.374L182.332 454.844L191.506 413.798L173.888 412.812L164.365 412.265ZM117.826 381.997L112.113 408.841L94.9058 407.826L66.859 406.167L127.128 338.267L117.826 381.997Z" fill="url(#paint13_linear_789_3017)"/>
<path d="M0 444.397L3.76869 473.4L98.8555 479.859L104.537 451.491L0 444.397ZM66.8591 406.167L94.906 407.827L117.827 381.996L127.128 338.268L66.8591 406.167ZM182.331 454.845L157.532 455.375L149.287 492.884L96.5597 491.23L100.327 520.231L153.054 521.886L161.299 484.377L186.098 483.847L195.272 442.801L191.503 413.797L182.331 454.845ZM164.365 412.265L173.886 412.811L191.69 324.777L187.923 295.773L164.365 412.265Z" fill="url(#paint14_linear_789_3017)"/>
<defs>
<linearGradient id="paint0_linear_789_3017" x1="354.253" y1="564.479" x2="354.253" y2="-56.2173" gradientUnits="userSpaceOnUse">
<stop offset="0.002" stop-color="#102F64"/>
<stop offset="0.3434" stop-color="#E1E8F3"/>
<stop offset="0.9968" stop-color="#F2F2F2"/>
</linearGradient>
<linearGradient id="paint1_linear_789_3017" x1="456.858" y1="169.499" x2="594.765" y2="169.499" gradientUnits="userSpaceOnUse">
<stop stop-color="#FFAE2A"/>
<stop offset="0.3827" stop-color="#FFCC16"/>
<stop offset="0.7627" stop-color="#FFE306"/>
<stop offset="1" stop-color="#FFEC00"/>
</linearGradient>
<linearGradient id="paint2_linear_789_3017" x1="448.838" y1="298.017" x2="648.918" y2="298.017" gradientUnits="userSpaceOnUse">
<stop offset="0.0045" stop-color="#008DA2"/>
<stop offset="0.4104" stop-color="#1BABC0"/>
<stop offset="1" stop-color="#47DCF2"/>
</linearGradient>
<linearGradient id="paint3_linear_789_3017" x1="223.789" y1="233.415" x2="98.9497" y2="47.5162" gradientUnits="userSpaceOnUse">
<stop stop-color="#FFAE2A"/>
<stop offset="0.3827" stop-color="#FFCC16"/>
<stop offset="0.7627" stop-color="#FFE306"/>
<stop offset="1" stop-color="#FFEC00"/>
</linearGradient>
<linearGradient id="paint4_linear_789_3017" x1="60.7184" y1="281.836" x2="260.798" y2="281.836" gradientUnits="userSpaceOnUse">
<stop offset="0.0045" stop-color="#008DA2"/>
<stop offset="0.4104" stop-color="#1BABC0"/>
<stop offset="1" stop-color="#47DCF2"/>
</linearGradient>
<linearGradient id="paint5_linear_789_3017" x1="249.461" y1="519.855" x2="440.059" y2="321.598" gradientUnits="userSpaceOnUse">
<stop offset="0.0019" stop-color="#574DFF"/>
<stop offset="0.1796" stop-color="#6A6DFF"/>
<stop offset="0.4238" stop-color="#8093FF"/>
<stop offset="0.6499" stop-color="#90AFFF"/>
<stop offset="0.8491" stop-color="#9ABFFF"/>
<stop offset="1" stop-color="#9DC5FF"/>
</linearGradient>
<linearGradient id="paint6_linear_789_3017" x1="344.035" y1="376.893" x2="599.731" y2="79.966" gradientUnits="userSpaceOnUse">
<stop offset="0.0019" stop-color="#574DFF"/>
<stop offset="0.1796" stop-color="#6A6DFF"/>
<stop offset="0.4238" stop-color="#8093FF"/>
<stop offset="0.6499" stop-color="#90AFFF"/>
<stop offset="0.8491" stop-color="#9ABFFF"/>
<stop offset="1" stop-color="#9DC5FF"/>
</linearGradient>
<linearGradient id="paint7_linear_789_3017" x1="372.077" y1="517.381" x2="372.077" y2="358.091" gradientUnits="userSpaceOnUse">
<stop offset="0.0013" stop-color="#FF2C6E"/>
<stop offset="0.1454" stop-color="#F7296B"/>
<stop offset="0.365" stop-color="#E22261"/>
<stop offset="0.6328" stop-color="#C01552"/>
<stop offset="0.936" stop-color="#90043D"/>
<stop offset="1" stop-color="#850038"/>
</linearGradient>
<linearGradient id="paint8_linear_789_3017" x1="401.835" y1="361.448" x2="401.835" y2="228.126" gradientUnits="userSpaceOnUse">
<stop stop-color="#FFAE2A"/>
<stop offset="0.3827" stop-color="#FFCC16"/>
<stop offset="0.7627" stop-color="#FFE306"/>
<stop offset="1" stop-color="#FFEC00"/>
</linearGradient>
<linearGradient id="paint9_linear_789_3017" x1="323.605" y1="361.448" x2="323.605" y2="228.125" gradientUnits="userSpaceOnUse">
<stop stop-color="#FFAE2A"/>
<stop offset="0.3827" stop-color="#FFCC16"/>
<stop offset="0.7627" stop-color="#FFE306"/>
<stop offset="1" stop-color="#FFEC00"/>
</linearGradient>
<linearGradient id="paint10_linear_789_3017" x1="359.635" y1="361.448" x2="359.635" y2="228.126" gradientUnits="userSpaceOnUse">
<stop stop-color="#FFAE2A"/>
<stop offset="0.3827" stop-color="#FFCC16"/>
<stop offset="0.7627" stop-color="#FFE306"/>
<stop offset="1" stop-color="#FFEC00"/>
</linearGradient>
<linearGradient id="paint11_linear_789_3017" x1="542.271" y1="536.726" x2="693.931" y2="317.706" gradientUnits="userSpaceOnUse">
<stop offset="0.0019" stop-color="#574DFF"/>
<stop offset="0.1796" stop-color="#6A6DFF"/>
<stop offset="0.4238" stop-color="#8093FF"/>
<stop offset="0.6499" stop-color="#90AFFF"/>
<stop offset="0.8491" stop-color="#9ABFFF"/>
<stop offset="1" stop-color="#9DC5FF"/>
</linearGradient>
<linearGradient id="paint12_linear_789_3017" x1="656.974" y1="318.346" x2="957.509" y2="-109.198" gradientUnits="userSpaceOnUse">
<stop offset="0.0019" stop-color="#574DFF"/>
<stop offset="0.1796" stop-color="#6A6DFF"/>
<stop offset="0.4238" stop-color="#8093FF"/>
<stop offset="0.6499" stop-color="#90AFFF"/>
<stop offset="0.8491" stop-color="#9ABFFF"/>
<stop offset="1" stop-color="#9DC5FF"/>
</linearGradient>
<linearGradient id="paint13_linear_789_3017" x1="58.2027" y1="503.98" x2="183.039" y2="341.771" gradientUnits="userSpaceOnUse">
<stop offset="0.0019" stop-color="#574DFF"/>
<stop offset="0.1796" stop-color="#6A6DFF"/>
<stop offset="0.4238" stop-color="#8093FF"/>
<stop offset="0.6499" stop-color="#90AFFF"/>
<stop offset="0.8491" stop-color="#9ABFFF"/>
<stop offset="1" stop-color="#9DC5FF"/>
</linearGradient>
<linearGradient id="paint14_linear_789_3017" x1="337.836" y1="43.0367" x2="671.209" y2="-348.488" gradientUnits="userSpaceOnUse">
<stop offset="0.0019" stop-color="#574DFF"/>
<stop offset="0.1796" stop-color="#6A6DFF"/>
<stop offset="0.4238" stop-color="#8093FF"/>
<stop offset="0.6499" stop-color="#90AFFF"/>
<stop offset="0.8491" stop-color="#9ABFFF"/>
<stop offset="1" stop-color="#9DC5FF"/>
</linearGradient>
</defs>
</svg>
