<svg width="608" height="461" viewBox="0 0 608 461" fill="none" xmlns="http://www.w3.org/2000/svg">
<path opacity="0.2" d="M107.857 381.232C150.381 381.232 184.853 375.038 184.853 367.397C184.853 359.756 150.381 353.561 107.857 353.561C65.3326 353.561 30.86 359.756 30.86 367.397C30.86 375.038 65.3326 381.232 107.857 381.232Z" fill="#909DD6"/>
<path d="M94.0398 124.777C90.7536 123.446 85.9121 123.082 84.3555 126.349C81.7625 131.552 88.3335 136.028 95.0775 132.399L94.0398 124.777Z" fill="#99785F"/>
<path d="M126.376 129.978C129.661 127.559 134.504 129.736 134.675 132.762C134.848 137.721 122.917 140.868 120.324 135.424L126.376 129.978Z" fill="#99785F"/>
<path d="M125.166 109.653C117.038 104.935 104.761 107.113 98.5354 112.436C91.7914 118.243 91.4455 125.865 93.694 133.003C95.0365 137.072 98.1867 139.966 102.906 142.006C102.652 142.479 102.423 142.991 102.168 143.528C100.611 146.916 98.5354 150.545 96.6343 153.813C94.3858 153.692 91.9658 153.935 89.5444 153.935L110.641 170.509C114.099 172.203 121.189 156.232 121.708 153.935C119.459 153.572 118.596 153.692 116.349 153.451C113.409 153.088 112.717 152.725 112.544 150.668C112.41 147.959 112.685 145.177 112.66 142.38C116.376 141.756 120.065 139.859 122.054 138.207C126.03 134.819 128.452 129.496 130.008 125.261C131.735 120.421 131.218 113.162 125.166 109.653Z" fill="#C1946F"/>
<path d="M92.4605 124.915C91.2498 125.036 90.2347 123.931 89.1984 123.568C85.0474 121.873 88.1621 119.454 89.8902 117.76C86.2595 115.218 86.7784 113.404 90.5807 111.469C87.1229 111.106 84.8744 108.808 85.7406 106.387C86.604 103.967 89.8902 103.242 93.0021 103.363C86.4311 98.5232 101.128 92.5954 104.242 98.4022C103.55 96.1039 107.699 95.1358 110.295 95.4988C113.407 95.8609 114.964 97.7971 115.137 99.8544C116.693 95.3778 127.068 95.1358 125.338 100.581C125.857 98.6452 129.834 98.0392 132.082 99.0073C134.331 100.096 135.023 102.758 134.156 104.572C136.751 103.121 141.592 103.121 142.976 105.54C144.533 108.444 141.248 109.775 138.826 111.348C141.767 110.864 144.706 111.831 143.668 114.13C142.803 116.551 139.345 117.276 136.405 117.881C141.419 119.937 136.751 123.084 133.12 123.689C135.196 125.866 132.947 129.253 128.971 129.132C125.513 129.132 127.414 124.898 129.835 123.93C125.686 123.567 127.933 118.243 129.662 116.913C126.722 118.002 125.513 114.614 126.378 113.162C123.783 114.977 116.003 113.766 116.868 110.622C115.83 113.888 108.913 113.404 107.875 110.259C107.702 112.316 103.034 112.921 100.612 112.316C100.958 114.252 99.4016 116.551 96.1168 116.429C97.672 119.333 95.9197 123.219 92.4605 124.915Z" fill="black"/>
<path d="M105.02 136.452C106.46 135.879 108.101 135.791 109.625 135.774C111.176 135.787 112.63 135.881 114.228 136.089C112.787 136.663 111.147 136.751 109.625 136.766C108.074 136.751 106.619 136.657 105.02 136.452Z" fill="#7A6251"/>
<path d="M106.058 133.185C108.031 133.602 110.073 134.11 111.924 133.93C112.827 133.819 113.637 133.546 114.242 133.065C114.867 132.603 115.366 132.006 115.577 131.411C116.126 130.208 115.216 128.934 114.258 127.66C113.787 127.015 113.309 126.333 113.065 125.585C112.841 124.838 112.922 124.026 113.45 123.386C112.928 124.872 114.126 126.082 115.217 127.275C115.783 127.88 116.353 128.515 116.754 129.256C117.148 129.993 117.263 130.872 116.944 131.67C116.614 132.469 116.018 133.16 115.19 133.726C114.367 134.299 113.184 134.671 112.03 134.698C109.69 134.747 107.811 133.933 106.058 133.185Z" fill="#7A6251"/>
<path d="M102.556 117.669C102.58 117.101 103.089 116.572 103.696 116.201C104.308 115.816 105.051 115.561 105.821 115.398C106.598 115.253 107.411 115.19 108.218 115.278C109.008 115.357 109.844 115.584 110.338 116.035C109.552 115.952 108.879 115.993 108.198 116.052C107.523 116.123 106.859 116.214 106.212 116.35C105.557 116.469 104.93 116.643 104.317 116.837C103.707 117.047 103.124 117.279 102.556 117.669Z" fill="black"/>
<path d="M118.638 116.398C119.157 116.062 119.968 115.977 120.671 116.075C121.393 116.163 122.035 116.418 122.577 116.734C123.101 117.066 123.542 117.467 123.786 117.941C124.034 118.397 124.104 118.98 123.695 119.393C123.498 118.927 123.161 118.623 122.815 118.311C122.452 118.013 122.071 117.73 121.648 117.483C121.241 117.223 120.795 117.003 120.321 116.807C119.838 116.618 119.327 116.465 118.638 116.398Z" fill="black"/>
<path d="M105.933 124.078C105.621 125.006 104.633 125.637 103.728 125.487C102.822 125.338 102.339 124.465 102.649 123.54C102.961 122.613 103.948 121.981 104.855 122.131C105.761 122.279 106.243 123.152 105.933 124.078Z" fill="black"/>
<path d="M121.964 126.378C121.652 127.304 120.666 127.935 119.758 127.786C118.852 127.637 118.37 126.764 118.681 125.838C118.991 124.912 119.979 124.281 120.887 124.429C121.794 124.578 122.276 125.451 121.964 126.378Z" fill="black"/>
<path d="M63.3863 367.643C66.6655 368.198 69.9347 368.602 73.4959 368.399C76.8956 368.205 79.9876 367.715 83.1944 367C86.1276 366.407 89.2126 365.917 92.1458 365.326C94.7005 364.733 97.2197 363.772 99.7517 363.007L99.9119 364.537C99.9119 364.537 69.2074 371.967 62.496 369.559C62.496 369.559 61.2045 368.515 63.3863 367.643Z" fill="#BABABA"/>
<path d="M99.5107 360.705L99.3717 359.388C99.3349 358.874 99.2909 358.311 99.2555 357.724C99.1903 356.791 99.1236 355.76 99.0499 354.658L85.8752 355.412C85.8029 356.744 85.5988 357.577 85.2245 357.803C85.0685 357.896 84.8658 358.008 84.6276 358.138C82.3551 359.388 76.3029 362.288 71.0376 364.592C68.1469 365.858 65.4887 366.95 63.8413 367.48C63.6726 367.531 63.528 367.588 63.3848 367.643C66.664 368.198 69.9332 368.602 73.4944 368.399C74.1026 368.364 74.6938 368.311 75.2822 368.255C77.9956 368.011 80.5588 367.582 83.1929 366.999C86.1261 366.406 89.2111 365.916 92.1443 365.325C94.699 364.732 97.2182 363.771 99.7502 363.006L99.5107 360.705Z" fill="#373A3A"/>
<path d="M153.719 367.596C150.443 368.16 147.175 368.574 143.614 368.379C140.211 368.192 137.117 367.712 133.907 367.005C130.971 366.42 127.883 365.942 124.947 365.354C122.391 364.771 119.866 363.816 117.33 363.057L117.177 364.59C117.177 364.59 147.917 371.936 154.617 369.511C154.617 369.511 155.907 368.462 153.719 367.596Z" fill="#BABABA"/>
<path d="M153.263 367.436C151.614 366.907 148.949 365.826 146.053 364.566C140.777 362.277 134.711 359.391 132.431 358.151C132.192 358.019 131.989 357.905 131.833 357.814C131.459 357.589 131.249 356.754 131.172 355.425L117.995 354.706C117.927 355.808 117.866 356.839 117.805 357.771C117.772 358.36 117.731 358.924 117.694 359.438L117.564 360.755L117.333 363.056C119.869 363.816 122.394 364.771 124.95 365.353C127.886 365.941 130.974 366.419 133.91 367.004C136.547 367.581 139.111 368.006 141.828 368.24C142.416 368.295 143.007 368.344 143.617 368.378C147.178 368.573 150.445 368.159 153.722 367.595C153.575 367.541 153.43 367.484 153.263 367.436Z" fill="#373A3A"/>
<path d="M138.258 220.608C138.258 220.608 135.313 285.725 135.313 298.301C135.313 298.301 136.474 356.085 135.665 358.083C131.85 358.53 123.797 359.491 115.419 357.959L107.041 246.784L104.379 245.976L102.479 356.79C102.479 356.79 88.4257 360.756 83.1504 356.713C83.1504 356.713 80.9558 318.463 80.617 312.08C80.2781 305.687 73.3116 226.001 75.7415 220.608H138.258Z" fill="#A2CDDD"/>
<path d="M84.9948 224.669C85.4229 225.709 85.4499 226.825 85.2471 227.904C85.0529 228.989 84.5964 230.042 84.0052 231.047C83.3885 232.044 82.6329 233 81.7086 233.869C80.7927 234.74 79.7323 235.542 78.4847 236.178C80.1122 234.359 81.5554 232.564 82.6995 230.661C83.8564 228.762 84.6857 226.804 84.9948 224.669Z" fill="#86AAB5"/>
<path d="M128.752 224.938C129.163 226.98 130.126 228.811 131.413 230.569C132.69 232.332 134.27 233.968 135.987 235.644C134.725 235.1 133.62 234.39 132.648 233.606C131.668 232.823 130.842 231.947 130.15 231.019C129.484 230.082 128.953 229.088 128.685 228.052C128.41 227.022 128.374 225.944 128.752 224.938Z" fill="#86AAB5"/>
<path d="M104.885 225.742C105.359 228.496 105.194 231.233 105.319 233.94C105.352 235.294 105.441 236.642 105.662 237.969C105.787 238.63 105.941 239.289 106.235 239.913C106.5 240.546 106.947 241.144 107.779 241.532C106.786 241.351 106.087 240.719 105.597 240.107C105.116 239.472 104.802 238.793 104.575 238.108C104.114 236.737 103.962 235.345 103.904 233.963C103.874 232.579 103.945 231.201 104.127 229.832C104.281 228.461 104.59 227.106 104.885 225.742Z" fill="#86AAB5"/>
<path d="M107.974 223.623C108.264 225.43 108.602 227.223 108.819 229.029C109.062 230.833 109.209 232.646 109.263 234.467C109.289 236.286 109.225 238.113 108.916 239.93C108.624 241.743 108.074 243.557 107.101 245.249C107.539 243.455 107.706 241.663 107.813 239.871C107.892 238.077 107.896 236.281 107.845 234.482C107.813 230.885 107.481 227.257 107.974 223.623Z" fill="#86AAB5"/>
<path d="M97.652 244.746C101.293 244.617 104.946 245.056 108.418 245.816C111.889 246.6 115.185 247.672 118.264 249.028C114.734 248.39 111.387 247.5 107.99 246.762C104.604 245.989 101.174 245.394 97.652 244.746Z" fill="#86AAB5"/>
<path d="M111.394 249.562C113.007 250.143 114.317 250.966 115.468 251.899C116.583 252.847 117.544 253.93 117.904 255.182C116.568 254.325 115.492 253.439 114.384 252.537C113.311 251.617 112.217 250.697 111.394 249.562Z" fill="#86AAB5"/>
<path d="M138.258 219.533V223.652C138.258 223.652 98.419 227.817 75.207 223.138L75.0057 218.052C75.0057 218.052 97.6251 222.721 138.258 219.533Z" fill="#2E2F33"/>
<path d="M129.54 225.827C129.621 225.57 129.54 217.628 129.54 217.628L126.882 219.044V226.49L129.54 225.827Z" fill="#A2CDDD"/>
<path d="M86.1602 226.545V218.346H82.9165V227.207H85.5109" fill="#A2CDDD"/>
<path d="M136.405 173.111C137.961 175.833 139.776 178.374 141.592 181.096C143.408 184.181 146.261 190.352 150.41 192.347C155.079 194.707 160.266 188.173 162.601 185.633C165.972 181.459 169.863 177.829 173.495 173.837C176.089 171.296 178.942 168.755 181.017 166.033C183.351 162.584 180.498 161.315 176.088 163.674C168.307 167.848 161.304 173.474 154.56 178.374C151.447 176.377 149.373 171.841 147.298 169.844L136.405 173.111Z" fill="#C1946F"/>
<path d="M174.402 164.608C175.698 163.155 175.96 160.951 179.072 160.317C182.185 159.59 188.41 161.042 191.132 162.221C191.651 160.86 195.283 152.603 197.747 153.238C200.73 154.054 196.45 160.95 196.191 162.494C197.617 160.679 198.914 158.955 200.081 157.14C200.6 156.414 202.545 153.148 204.361 153.511C207.344 154.055 200.988 162.313 200.471 163.855C202.416 162.312 203.323 160.044 204.751 158.23C205.399 157.413 207.603 153.239 209.29 154.509C210.457 155.416 208.474 158.685 208.085 159.684C207.047 161.589 206.049 163.402 204.622 165.217C204.622 165.217 207.383 160.959 209.421 158.049C210.164 156.987 211.496 156.325 212.144 157.777C212.534 158.866 211.367 160.499 210.848 161.497C209.94 163.131 208.254 167.486 205.919 168.303C203.455 169.301 198.657 168.212 196.063 167.94C192.692 167.577 189.189 167.668 185.946 167.213C184.001 167.032 180.242 167.032 178.814 166.397L174.402 164.608Z" fill="#C1946F"/>
<path d="M76.3086 173.111C74.752 175.833 72.9373 178.374 71.1213 181.096C69.3052 184.181 66.4514 190.352 62.3018 192.347C57.6333 194.707 52.4459 188.173 50.111 185.633C46.7397 181.459 42.8495 177.829 39.2174 173.837C36.6244 171.296 33.7706 168.755 31.695 166.033C29.3615 162.584 32.2139 161.315 36.6244 163.674C44.4061 167.848 51.4096 173.474 58.1521 178.374C61.264 176.377 63.3395 171.841 65.415 169.844L76.3086 173.111Z" fill="#C1946F"/>
<path d="M38.31 164.608C37.0142 163.155 36.7534 160.951 33.6401 160.317C30.5283 159.59 24.3031 161.042 21.5797 162.221C21.0609 160.86 17.4301 152.603 14.9662 153.238C11.9833 154.054 16.2634 160.95 16.5228 162.494C15.0966 160.679 13.7994 158.955 12.6312 157.14C12.1123 156.414 10.1673 153.148 8.35118 153.511C5.36834 154.055 11.7225 162.313 12.2413 163.855C10.2963 162.312 9.38752 160.044 7.96131 158.23C7.312 157.413 5.1089 153.239 3.42184 154.509C2.25507 155.416 4.23702 158.685 4.62688 159.684C5.66464 161.589 6.66554 163.402 8.09174 165.217C8.09174 165.217 5.33006 160.959 3.29283 158.049C2.54995 156.987 1.21731 156.325 0.569425 157.777C0.180975 158.866 1.34774 160.499 1.86662 161.497C2.77395 163.131 4.46101 167.486 6.79455 168.303C9.25851 169.301 14.0574 168.212 16.6504 167.94C20.0217 167.577 23.5248 167.668 26.7657 167.213C28.7108 167.032 32.4719 167.032 33.8981 166.397L38.31 164.608Z" fill="#C1946F"/>
<path d="M134.848 211.402C134.329 209.406 136.145 208.137 136.405 206.321C136.405 204.325 134.589 202.873 133.551 201.058C132.515 199.062 132.515 197.61 132.515 195.614C132.255 189.081 130.699 181.822 131.477 175.288C138.48 176.377 145.482 172.203 150.671 169.481C144.706 164.581 142.371 158.048 136.405 153.148C131.415 149.158 124.417 151.75 117.92 153.034L104.906 165.489C104.906 165.489 99.4568 157.393 94.9145 152.707C90.161 151.736 86.4962 151.101 81.6775 150.062C74.6754 148.429 72.0811 153.147 69.2272 157.139C66.3748 160.95 64.0399 164.943 60.928 168.572C60.1497 169.662 59.6308 170.751 58.3336 171.657C62.7427 175.105 71.0419 177.102 77.7859 177.102C78.5642 184.724 80.1208 194.706 75.7118 201.42C73.6377 204.506 74.9335 204.868 75.9712 207.591C77.009 210.312 75.4523 211.221 74.1566 213.398C72.5999 215.938 69.7475 223.38 72.3405 225.013C74.1566 226.102 80.9006 226.281 83.4935 226.464C87.3851 226.827 91.2753 227.008 94.906 227.19C102.688 227.733 109.949 227.19 117.731 226.644C123.437 226.101 129.143 225.737 135.109 225.192C138.999 224.648 138.999 225.375 139.778 223.017C140.296 221.382 140.296 217.934 139.518 216.3C138.479 214.306 135.627 213.399 134.848 211.402Z" fill="#FF9900"/>
<path d="M126.858 202.642C126.42 203.221 125.676 203.644 124.897 204.002C124.085 204.321 123.233 204.595 122.351 204.803C120.593 205.233 118.776 205.521 116.955 205.768C115.134 206.009 113.296 206.182 111.483 206.384C109.688 206.603 107.857 206.841 106.059 207.093C102.442 207.608 98.8287 208.12 95.0718 208.37C93.192 208.448 91.3702 208.442 89.6406 208.673C87.9252 208.886 86.3232 209.429 85.7448 210.457L85.4939 209.856C86.9428 210.488 88.7971 210.823 90.633 211.04C92.4817 211.261 94.3715 211.376 96.2656 211.443C100.059 211.58 103.874 211.473 107.682 211.345C111.492 211.198 115.3 210.946 119.081 210.567C120.975 210.391 122.863 210.185 124.734 209.919C126.596 209.634 128.481 209.362 130.231 208.81C128.547 209.463 126.671 209.829 124.822 210.18C122.962 210.521 121.082 210.804 119.194 211.056C115.41 211.53 111.595 211.874 107.763 212.116C103.931 212.361 100.075 212.44 96.2103 212.35C94.2779 212.298 92.3428 212.197 90.409 211.981C88.4866 211.753 86.5189 211.475 84.7056 210.67C84.4207 210.544 84.3172 210.294 84.4448 210.084L84.4547 210.069C84.8743 209.379 85.6612 208.787 86.5656 208.429C87.4687 208.061 88.4427 207.871 89.394 207.75C91.3022 207.512 93.192 207.539 94.9925 207.476C98.5906 207.273 102.228 206.759 105.869 206.356C107.702 206.145 109.51 205.954 111.36 205.774C113.2 205.617 115.027 205.478 116.848 205.299C118.667 205.124 120.48 204.911 122.239 204.557C123.959 204.195 125.802 203.735 126.858 202.642Z" fill="#FF9900"/>
<path d="M87.1241 213.942C88.3391 215.064 89.9595 215.906 91.7544 216.45C93.5307 217.023 95.4489 217.36 97.3897 217.56C101.274 217.949 105.272 217.925 109.209 217.773C113.086 217.558 116.977 216.88 120.6 215.85C122.411 215.327 124.145 214.656 125.609 213.757C127.099 212.888 128.269 211.707 128.624 210.313C128.596 211.738 127.496 213.08 126.087 214.11C124.636 215.136 122.88 215.914 121.054 216.544C117.371 217.786 113.396 218.511 109.305 218.763C105.265 218.893 101.203 218.894 97.1969 218.309C95.2079 218.009 93.2358 217.575 91.441 216.882C89.6746 216.168 88.0712 215.191 87.1241 213.942Z" fill="#FF9900"/>
<path d="M77.9631 160.348C78.5344 163.47 79.1043 166.542 79.531 169.661C79.9152 172.77 80.1577 175.948 79.4488 179.069L78.119 169.75C77.7391 166.644 77.4187 163.485 77.9631 160.348Z" fill="#FF9900"/>
<path d="M71.521 166.242C72.9146 166.994 74.0034 167.872 74.9844 168.84C75.9215 169.817 76.7551 170.903 76.9706 172.137C75.7457 171.254 74.776 170.354 73.8163 169.403C72.9004 168.44 71.9917 167.437 71.521 166.242Z" fill="#FF9900"/>
<path d="M132.964 161.735C133.466 163.884 133.43 166.036 133.326 168.169C133.177 170.304 132.957 172.418 132.468 174.563C131.831 172.43 131.802 170.265 131.909 168.127C132.062 165.985 132.347 163.864 132.964 161.735Z" fill="#FF9900"/>
<path opacity="0.2" d="M607.936 365.388C607.936 373.029 573.463 379.224 530.941 379.224C488.415 379.224 453.941 373.029 453.941 365.388C453.941 357.747 488.414 351.553 530.941 351.553C573.462 351.552 607.936 357.747 607.936 365.388Z" fill="#909DD6"/>
<path d="M540.955 140.994C540.955 136.681 541.223 131.242 539.884 127.117C551.675 125.053 555.427 112.49 554.089 105.364C552.48 97.1116 538.813 87.9223 526.481 92.7987C518.71 95.9868 519.245 105.551 516.296 110.989C514.688 113.989 514.152 116.427 516.028 119.615C517.904 122.428 520.315 125.803 524.872 126.178C524.872 130.679 522.46 135.743 521.387 140.054L540.955 140.994Z" fill="#FFC9AE"/>
<path d="M551.228 115.053C555.338 113.303 559.626 114.928 560.164 118.178C560.88 122.554 550.335 125.055 548.013 120.803L551.228 115.053Z" fill="#FFC9AE"/>
<path d="M552.123 115.178C556.946 111.427 563.378 109.052 566.059 103.801C569.454 97.6751 559.626 95.9253 552.657 95.8003C551.587 90.175 546.941 82.1741 536.756 84.9237C534.611 85.4237 532.646 86.0496 530.68 86.7995C529.608 87.1744 526.573 89.1752 525.32 89.0502C522.281 88.6752 519.246 81.7991 515.315 82.924C511.919 83.7989 514.599 89.0502 515.492 90.3C517.28 92.8007 520.854 95.6763 524.606 96.6762C532.289 98.5509 540.866 96.3012 548.549 96.8012C548.907 99.8018 547.655 104.802 553.194 106.052L552.123 115.178Z" fill="#825D44"/>
<path d="M536.04 122.929C535.405 122.599 534.787 122.426 534.143 122.256C533.497 122.1 532.842 121.956 532.167 121.832C530.819 121.559 529.454 121.335 528 120.929C528.739 120.726 529.512 120.661 530.276 120.661C531.043 120.657 531.803 120.737 532.551 120.877C533.29 121.034 534.026 121.244 534.673 121.58C535.31 121.902 535.908 122.371 536.04 122.929Z" fill="#DD9778"/>
<path d="M535.326 108.177C535.245 108.83 534.808 109.461 534.218 110.001C533.606 110.531 532.842 110.957 532.069 111.328C530.539 112.078 528.898 112.663 527.946 113.579C527.46 114.029 527.106 114.553 527.299 114.911C527.415 115.307 528.162 115.66 528.912 115.942C530.459 116.504 532.303 116.864 533.897 117.554C532.107 117.222 530.273 117.144 528.457 116.647C527.586 116.399 526.529 116.076 526.03 115.217C525.772 114.795 525.892 114.333 526.055 113.962C526.252 113.602 526.503 113.276 526.811 112.987C528.105 111.816 529.926 111.268 531.491 110.671C533.066 110.081 534.587 109.407 535.326 108.177Z" fill="#DD9778"/>
<path d="M546.226 104.426C545.867 103.301 544.26 102.675 542.652 102.551" stroke="#664A36" stroke-miterlimit="10" stroke-linecap="round" stroke-linejoin="round"/>
<path d="M531.932 100.244C530.678 99.4944 528.716 99.3694 527.284 99.9944" stroke="#664A36" stroke-miterlimit="10" stroke-linecap="round" stroke-linejoin="round"/>
<path d="M543.686 110.706C543.364 111.664 542.346 112.316 541.409 112.161C540.472 112.008 539.973 111.106 540.296 110.149C540.619 109.191 541.637 108.539 542.573 108.693C543.51 108.847 544.009 109.749 543.686 110.706Z" fill="black"/>
<path d="M528.248 108.456C527.927 109.413 526.907 110.064 525.97 109.911C525.033 109.756 524.535 108.855 524.856 107.897C525.178 106.94 526.2 106.287 527.136 106.442C528.07 106.597 528.567 107.498 528.248 108.456Z" fill="black"/>
<path d="M494.574 225.775C492.758 230.31 492.239 236.298 493.795 241.018C494.314 242.833 497.947 251.906 501.577 251.543C505.208 251.181 500.021 243.015 499.5 241.38C498.465 236.843 512.211 225.592 498.465 224.322L494.574 225.775Z" fill="#FF9900"/>
<path d="M497.167 239.749C497.946 241.745 498.204 243.922 498.983 246.099C499.762 248.821 503.132 253.903 504.43 248.642C505.467 244.284 504.948 234.485 502.096 230.854L497.167 239.749Z" fill="#FF9900"/>
<path d="M498.205 231.218C498.205 234.302 497.167 238.477 498.465 241.38C499.763 244.829 501.837 243.922 502.354 240.835C502.615 239.204 502.615 236.48 501.837 235.028C504.949 233.213 508.581 225.229 503.912 223.595" fill="#FF9900"/>
<path d="M498.205 231.218C498.366 233.06 498.216 234.908 498.234 236.732C498.23 238.562 498.463 240.357 499.4 242.007C499.601 242.41 499.906 242.799 500.219 243.018C500.388 243.114 500.463 243.137 500.474 243.11C500.521 243.085 500.688 243.025 500.817 242.859C501.372 242.235 501.592 241.309 501.702 240.448C501.868 238.689 501.918 236.788 501.214 235.191L501.207 235.174C501.125 234.988 501.214 234.792 501.411 234.67C502.393 234.068 503.155 233.142 503.792 232.23C504.431 231.306 504.963 230.33 505.312 229.323C505.658 228.318 505.873 227.284 505.805 226.257C505.728 225.248 505.236 224.171 503.912 223.594C505.365 224.021 506.103 225.164 506.325 226.215C506.582 227.294 506.443 228.391 506.174 229.454C505.903 230.52 505.445 231.558 504.856 232.567C504.231 233.565 503.521 234.546 502.264 235.385L502.459 234.865C502.968 235.825 503.082 236.772 503.171 237.714C503.239 238.656 503.233 239.593 503.104 240.535C502.943 241.485 502.784 242.443 501.947 243.394C501.745 243.623 501.393 243.892 500.827 244.015C500.514 244.074 500.211 244.05 499.927 243.974C499.693 243.896 499.454 243.789 499.316 243.679C498.724 243.232 498.456 242.765 498.23 242.304C497.283 240.496 497.282 238.541 497.433 236.714C497.591 234.866 498.012 233.055 498.205 231.218Z" fill="#FF9900"/>
<path d="M506.144 138.544C496.115 141.204 492.311 149.916 491.274 157.174C490.582 162.256 491.619 167.581 491.274 172.662C491.274 175.565 490.236 177.743 489.544 180.405C489.198 181.615 488.16 183.066 488.506 184.276C488.852 185.97 490.582 186.695 491.274 188.148C491.965 191.293 488.852 192.987 488.506 195.649C488.162 198.311 490.582 200.247 490.236 202.908C489.545 207.505 484.705 212.587 488.162 217.425C489.199 218.636 491.274 217.91 491.967 219.12C492.657 220.087 491.621 222.024 491.967 222.992C492.657 226.136 492.657 226.379 497.154 227.105C506.145 228.313 505.801 224.443 504.762 219.603C513.753 217.425 508.567 199.036 508.221 193.954C507.875 185.727 506.491 177.5 506.491 169.273L506.144 138.544Z" fill="#FF9900"/>
<path d="M492.701 219.634C494.782 219.231 496.931 219.319 498.981 219.479C501.046 219.669 503.026 219.932 505.089 220.327C503.002 220.72 500.859 220.623 498.81 220.463C496.749 220.27 494.768 220.014 492.701 219.634Z" fill="#FF9900"/>
<path d="M495.674 220.673C496.234 221.554 496.275 222.446 496.315 223.289C496.318 224.148 496.267 224.927 496.17 225.873C495.188 225.175 494.928 224.183 494.898 223.3C494.907 222.396 495.115 221.541 495.674 220.673Z" fill="#FF9900"/>
<path d="M501.62 221.02C502.178 221.714 502.305 222.407 502.329 223.1C502.307 223.794 502.183 224.487 501.62 225.18C501.058 224.487 500.932 223.794 500.911 223.1C500.935 222.407 501.061 221.714 501.62 221.02Z" fill="#FF9900"/>
<path d="M550.685 365.635C555.678 365.248 559.163 364.481 561.556 363.58L561.377 365.312C561.377 365.312 550.807 367.726 536.714 368.426C524.051 369.061 521.249 368.578 523.454 366.521C530.016 368.76 545.305 366.077 550.685 365.635Z" fill="#375E97"/>
<path d="M528.801 363.225C526.873 364.211 525.249 365.11 524.36 365.77C523.994 366.045 523.705 366.284 523.454 366.52C526.638 367.603 531.876 367.528 537.035 367.118C534.751 365.29 531.655 363.657 528.801 363.225Z" fill="#375E97"/>
<path d="M562.201 357.109L561.603 357.074C558.874 358.745 555.474 361.955 554.893 365.152C557.701 364.745 559.913 364.198 561.556 363.58L562.201 357.109Z" fill="#375E97"/>
<path d="M543.805 356.566C544.027 355.745 543.995 352.849 544.047 350.586L543.67 356.391C543.67 356.391 537.8 358.899 532.408 361.461L532.767 361.693C536.027 361.597 543.805 356.566 543.805 356.566Z" fill="#375E97"/>
<path d="M551.214 358.7C551.436 358.468 551.717 353.7 552.086 350.061C546.425 350.259 544.094 349.817 544.094 349.817L544.046 350.586C543.993 352.848 544.026 355.745 543.803 356.566C543.803 356.566 536.027 361.597 532.765 361.693L532.407 361.46C531.148 362.059 529.923 362.65 528.801 363.225C531.655 363.657 534.75 365.29 537.037 367.119C538.348 367.018 539.65 366.891 540.918 366.759C540.808 365.899 540.672 364.952 541.089 364.225C542.618 361.595 548.866 361.109 551.214 358.7Z" fill="#375E97"/>
<path d="M561.603 357.074L562.201 357.109L563.001 349.191C558.462 349.726 554.879 349.97 552.086 350.061C551.717 353.7 551.436 358.468 551.214 358.7C548.866 361.11 542.618 361.596 541.089 364.225C540.672 364.951 540.808 365.899 540.918 366.759C544.946 366.325 548.581 365.802 550.685 365.635C552.252 365.517 553.615 365.343 554.893 365.151C555.474 361.954 558.875 358.743 561.603 357.074Z" fill="#375E97"/>
<path d="M517.156 363.585C522.127 363.083 525.578 362.233 527.928 361.282L527.826 363.016C527.826 363.016 517.373 365.674 503.318 366.699C490.691 367.627 487.87 367.211 489.979 365.107C496.637 367.191 511.797 364.155 517.156 363.585Z" fill="#375E97"/>
<path d="M495.175 361.687C493.292 362.715 491.709 363.651 490.851 364.335C490.497 364.614 490.219 364.86 489.978 365.106C493.21 366.112 498.44 365.913 503.579 365.387C501.214 363.611 498.046 362.049 495.175 361.687Z" fill="#375E97"/>
<path d="M528.281 354.798L527.683 354.776C525.029 356.508 521.775 359.796 521.334 363.006C524.126 362.531 526.311 361.937 527.927 361.282L528.281 354.798Z" fill="#375E97"/>
<path d="M509.872 354.68C510.058 353.856 509.893 350.962 509.844 348.699L509.726 354.509C509.726 354.509 503.972 357.153 498.699 359.837L499.068 360.064C502.323 359.893 509.872 354.68 509.872 354.68Z" fill="#375E97"/>
<path d="M517.372 356.644C517.582 356.406 517.653 351.631 517.857 347.987C512.21 348.316 509.86 347.927 509.86 347.927L509.844 348.697C509.892 350.96 510.057 353.854 509.872 354.678C509.872 354.678 502.323 359.891 499.068 360.062L498.699 359.835C497.467 360.463 496.27 361.085 495.175 361.685C498.046 362.047 501.214 363.609 503.579 365.385C504.886 365.251 506.179 365.096 507.445 364.933C507.296 364.077 507.119 363.133 507.503 362.397C508.911 359.737 515.132 359.105 517.372 356.644Z" fill="#375E97"/>
<path d="M527.683 354.776L528.281 354.798L528.726 346.864C524.214 347.504 520.641 347.831 517.855 347.988C517.653 351.633 517.582 356.406 517.37 356.645C515.13 359.105 508.91 359.739 507.5 362.401C507.116 363.137 507.293 364.08 507.442 364.937C511.45 364.413 515.058 363.806 517.155 363.587C518.714 363.433 520.068 363.227 521.334 363.008C521.777 359.796 525.029 356.508 527.683 354.776Z" fill="#375E97"/>
<path d="M565.228 219.955C565.228 219.955 563.535 282.125 563.535 294.716C563.535 294.716 564.577 354.938 563.748 356.937C563.748 356.937 549.8 358.848 542.859 356.065L534.417 243.147L530.359 241.476L529.765 354.646C529.765 354.646 516.396 357.02 509.297 354.26C509.297 354.26 500.88 225.355 503.382 219.956H565.228V219.955Z" fill="#375E97"/>
<path d="M516.65 238.125C518.631 238.493 520.592 238.82 522.554 239.161C524.52 239.492 526.498 239.851 528.446 240.33C530.385 240.821 532.278 241.441 534.011 242.227C535.758 242.999 537.34 243.927 538.782 244.943C537.001 244.232 535.245 243.537 533.464 242.901C531.675 242.274 529.853 241.723 527.968 241.264C526.095 240.784 524.156 240.387 522.235 239.9C520.309 239.429 518.42 238.847 516.65 238.125Z" fill="#375E97"/>
<path d="M525.239 222.407C525.514 223.421 525.552 224.442 525.599 225.444C525.647 226.448 525.655 227.442 525.758 228.418C525.841 229.391 525.99 230.363 526.411 231.237C526.822 232.101 527.696 232.853 529.203 233.039C528.848 233.053 528.461 233.095 528.08 233.064C527.727 232.98 527.286 232.962 526.977 232.785C526.631 232.638 526.303 232.466 526.062 232.242C525.769 232.039 525.587 231.796 525.4 231.554C524.672 230.574 524.459 229.509 524.343 228.481C524.173 226.403 524.622 224.399 525.239 222.407Z" fill="#375E97"/>
<path d="M530.524 222.407C531.332 225.619 531.627 228.861 531.752 232.1C531.834 235.341 531.744 238.584 531.184 241.822C530.623 238.585 530.457 235.354 530.335 232.122C530.256 228.889 530.219 225.66 530.524 222.407Z" fill="#375E97"/>
<path d="M559.099 221.367L559.986 254.906L560.691 288.447C560.804 299.629 560.951 310.811 560.89 321.994C560.823 333.178 560.66 344.362 560.09 355.539L559.991 338.767L559.799 321.997L559.275 288.458L558.901 254.915C558.842 243.733 558.818 232.549 559.099 221.367Z" fill="#375E97"/>
<path d="M550.675 222.753C551.17 224.513 551.68 226.18 552.453 227.793C552.83 228.598 553.295 229.376 553.862 230.112C554.445 230.844 555.141 231.526 556.125 232.114C554.856 231.896 553.754 231.268 552.942 230.543C552.11 229.814 551.538 228.97 551.107 228.109C550.708 227.239 550.447 226.345 550.366 225.443C550.281 224.543 550.339 223.628 550.675 222.753Z" fill="#375E97"/>
<path d="M504.098 228.995C504.493 228.523 504.679 228.075 504.909 227.609L505.562 226.201C506.054 225.268 506.565 224.297 507.567 223.448C507.635 224.534 507.377 225.536 506.899 226.53C506.638 227.019 506.339 227.508 505.894 227.955C505.465 228.391 504.875 228.845 504.098 228.995Z" fill="#375E97"/>
<path d="M518.466 247.715C518.758 246.657 519.698 245.773 520.828 245.096C521.985 244.436 523.373 243.953 524.908 243.902C523.842 244.67 522.771 245.236 521.737 245.856C520.677 246.458 519.701 247.086 518.466 247.715Z" fill="#375E97"/>
<path d="M543.738 299.72C544.756 300.056 545.442 300.589 546.045 301.161C546.611 301.752 547.094 302.388 547.207 303.187C546.164 302.829 545.492 302.311 544.901 301.745C544.345 301.163 543.876 300.54 543.738 299.72Z" fill="#375E97"/>
<path d="M564.973 217.043V221.13C564.973 221.13 526.444 225.887 503.765 221.247V216.485C503.765 216.485 525.27 220.207 564.973 217.043Z" fill="#375E97"/>
<path d="M553.712 223.709C553.794 223.45 553.712 215.581 553.712 215.581L551.114 216.98V224.365L553.712 223.709Z" fill="#375E97"/>
<path d="M510.585 223.709V215.581H507.414V224.365H509.952" fill="#375E97"/>
<path d="M504.241 213.373C501.909 214.643 500.337 217.366 500.857 219.18C502.153 223.717 508.652 223.537 514.616 223.717C526.028 224.443 537.96 224.988 549.372 224.988C553.525 224.988 561.821 224.806 564.936 222.448C567.011 220.995 567.53 213.555 563.121 213.735L504.241 213.373Z" fill="#FF9900"/>
<path d="M506.578 216.094C504.241 215.551 502.168 214.28 501.129 212.645C499.315 210.287 500.093 207.928 501.129 205.569C502.425 202.483 502.425 201.576 501.39 198.672C499.832 194.68 501.39 190.687 501.39 186.331C501.39 181.794 501.648 177.258 501.39 172.72C501.129 164.736 500.352 156.568 499.574 148.765C499.315 144.591 499.574 140.78 505.279 138.783C509.949 137.15 515.914 136.061 520.842 135.154C520.583 133.883 520.583 132.612 520.325 131.343C520.325 131.343 531.737 130.072 537.703 130.072C539.26 130.072 544.966 129.528 546.002 130.253C547.817 131.343 545.483 135.154 547.04 136.424C547.817 136.969 553.264 137.332 554.82 137.695C557.413 138.421 560.786 138.783 563.12 139.872C569.345 142.594 570.122 148.765 570.642 153.302C571.939 163.465 569.864 174.354 568.827 184.516C568.565 188.872 567.79 192.864 568.308 197.038C568.566 199.397 569.604 201.211 570.382 203.39C570.901 205.023 571.162 206.838 570.901 208.471C568.827 217.726 552.745 216.456 542.631 216.093C532.774 215.73 521.621 215.368 511.766 216.457L506.578 216.094Z" fill="#FF9900"/>
<path d="M559.229 138.785C576.175 140.237 575.483 159.474 577.212 167.944C578.076 172.541 581.882 180.648 577.212 184.397C569.087 190.688 560.44 184.276 556.808 178.833C553.869 174.235 554.733 167.944 553.869 162.983C553.35 160.321 552.831 157.781 552.311 155.119C551.967 153.063 552.14 149.675 551.275 148.223" fill="#FF9900"/>
<path d="M503.21 214.679C502.309 214.127 501.538 213.452 501.013 212.682L501.017 212.688C500.067 211.56 499.686 210.209 499.804 208.899C499.892 207.583 500.419 206.306 500.911 205.082C501.377 203.848 501.79 202.61 501.613 201.389C501.454 200.149 500.863 198.969 500.466 197.655C499.743 195.033 500.202 192.396 500.471 189.853C500.619 188.572 500.722 187.312 500.701 186.038C500.698 184.748 500.694 183.46 500.738 182.174C500.807 179.602 500.881 177.035 500.824 174.474L500.507 166.768C500.314 161.628 500.152 156.485 500.131 151.334C500.714 156.462 501.155 161.6 501.566 166.74C501.786 169.311 501.981 171.876 502.099 174.455C502.197 177.037 502.164 179.616 502.136 182.187L502.075 186.04C502.076 187.338 501.949 188.649 501.779 189.93C501.454 192.493 501.003 195.044 501.621 197.51C501.919 198.719 502.492 200.004 502.598 201.339C502.724 202.701 502.208 204.007 501.681 205.236C501.131 206.472 500.557 207.673 500.358 208.93C500.15 210.177 500.403 211.469 501.237 212.604L501.241 212.609L501.243 212.61C501.695 213.375 502.364 214.084 503.21 214.679Z" fill="#FF9900"/>
<path d="M562.072 141.281C560.627 142.091 559.487 143.1 558.603 144.208C557.684 145.3 556.968 146.474 556.378 147.677C555.207 150.085 554.381 152.578 553.739 155.094C553.074 157.61 552.624 160.157 552.193 162.708C551.978 163.985 551.802 165.265 551.653 166.548C551.456 167.83 551.341 169.115 551.173 170.404C550.896 167.824 550.922 165.233 551.107 162.647C551.285 160.06 551.701 157.479 552.345 154.919C553.033 152.367 553.913 149.82 555.366 147.405C556.098 146.202 556.947 145.025 558.023 143.948C559.127 142.892 560.442 141.906 562.072 141.281Z" fill="#FF9900"/>
<path d="M523.423 137.813C526.54 137.856 529.539 137.933 532.571 137.88C535.601 137.86 538.636 137.719 541.756 137.813C538.795 138.496 535.71 138.821 532.595 138.871C529.488 138.895 526.326 138.626 523.423 137.813Z" fill="#FF9900"/>
<path d="M525.899 132.959C526.397 133.513 526.534 133.988 526.637 134.482C526.696 134.979 526.71 135.463 526.396 136.08C525.633 135.692 525.335 135.142 525.229 134.591C525.162 134.038 525.28 133.455 525.899 132.959Z" fill="#FF9900"/>
<path d="M533.332 133.307C533.773 133.938 533.887 134.468 533.982 135.016C534.038 135.567 534.062 136.09 533.828 136.773C533.001 136.359 532.672 135.724 532.571 135.108C532.51 134.488 532.662 133.837 533.332 133.307Z" fill="#FF9900"/>
<path d="M542.747 131.573C542.754 132.533 542.625 133.334 542.516 134.182C542.366 135.02 542.25 135.87 541.756 136.773C541.125 135.915 540.985 134.993 541.107 134.074C541.264 133.168 541.717 132.228 542.747 131.573Z" fill="#FF9900"/>
<path d="M496.169 160.349C497.002 161.748 497.686 163.087 498.465 164.418C498.838 165.084 499.248 165.737 499.668 166.389C500.101 167.037 500.554 167.672 501.124 168.323C500.144 167.972 499.357 167.396 498.716 166.783C498.064 166.167 497.569 165.486 497.151 164.789C496.758 164.083 496.447 163.358 496.271 162.612C496.091 161.869 496.013 161.106 496.169 160.349Z" fill="#FF9900"/>
<path d="M512.52 199.178C515.244 199.525 518.032 199.495 520.798 199.565L529.115 199.745C531.89 199.793 534.662 199.919 537.438 200.051C540.214 200.197 542.988 200.354 545.775 200.697C546.471 200.791 547.168 200.902 547.868 201.05C548.568 201.228 549.276 201.324 550.024 201.862C550.203 201.999 550.38 202.253 550.355 202.512C550.346 202.665 550.309 202.71 550.285 202.78L550.203 202.981C550.115 203.254 549.905 203.499 549.734 203.749C549.315 204.224 548.765 204.623 548.159 204.945C546.925 205.572 545.53 205.922 544.145 206.172C542.754 206.422 541.342 206.543 539.934 206.6C537.12 206.713 534.32 206.611 531.549 206.382C528.796 206.1 526.011 205.801 523.422 205.071C526.098 205.583 528.864 205.779 531.614 205.897C534.363 206.025 537.127 206.038 539.844 205.838C542.516 205.608 545.32 205.278 547.38 204.223C547.872 203.953 548.285 203.637 548.591 203.283C548.706 203.094 548.867 202.918 548.921 202.712L548.979 202.563C549.001 202.516 549.025 202.446 549.011 202.476C549.009 202.493 549.033 202.506 548.981 202.465C548.762 202.293 548.071 202.095 547.471 201.979C546.841 201.852 546.181 201.756 545.515 201.67C540.144 200.981 534.568 200.821 529.056 200.504L520.759 200.048C519.376 199.952 517.994 199.852 516.615 199.732C515.24 199.603 513.839 199.499 512.52 199.178Z" fill="#FF9900"/>
<path d="M533.812 132.373C534.156 128.622 534.33 122.574 527.24 122.936C525.509 123.057 522.916 123.662 524.819 124.992C525.855 125.718 528.45 124.871 529.316 125.718C530.7 126.807 529.833 131.647 530.179 132.735V132.614L533.812 132.373Z" fill="#DD9778"/>
<path d="M545.568 149.311C541.419 146.529 539.689 141.81 537.617 138.06C536.752 136.607 535.368 132.132 533.466 131.406C532.082 130.922 523.956 131.406 523.091 132.132C522.573 132.615 522.745 133.584 523.091 134.188C520.325 133.825 521.188 136.003 521.88 137.092C519.286 136.971 522.053 143.745 523.091 144.955C524.995 147.013 526.03 146.045 526.03 144.108C526.03 142.414 524.993 140.962 524.3 139.39C525.511 139.632 526.722 139.632 528.105 139.632C527.932 142.777 531.736 147.013 536.579 146.77C537.271 148.464 538.653 150.641 539.345 151.852L545.568 149.311Z" fill="#FFC9AE"/>
<path d="M520.973 137.6C520.961 137.311 521.275 137.007 521.682 136.854C522.087 136.704 522.518 136.635 522.923 136.604C523.33 136.562 523.722 136.561 524.083 136.546L525.2 136.494C525.981 136.478 526.772 136.512 527.551 136.628C528.18 136.753 529.166 136.727 529.762 137.198C528.986 137.145 528.333 137.406 527.469 137.416C526.72 137.452 525.98 137.471 525.233 137.478C524.87 137.466 524.49 137.499 524.056 137.462C523.652 137.434 523.281 137.395 522.922 137.353C522.205 137.297 521.55 137.166 520.973 137.6Z" fill="#DD9778"/>
<path d="M521.202 134.974C521.054 134.665 521.405 134.29 521.83 134.129C522.251 133.958 522.705 133.87 523.143 133.824C523.607 133.765 523.975 133.774 524.388 133.733C524.806 133.708 525.233 133.71 525.653 133.707C527.341 133.75 528.933 133.951 530.568 134.346C528.909 134.741 527.218 134.715 525.616 134.697L524.412 134.664C524.002 134.653 523.547 134.62 523.189 134.588C522.807 134.567 522.43 134.544 522.079 134.575C521.73 134.601 521.401 134.684 521.202 134.974Z" fill="#DD9778"/>
<path d="M549.892 152.457C547.642 150.521 546.779 147.738 542.455 149.311C540.898 149.795 536.922 151.125 536.058 152.215C534.673 154.15 537.787 155.239 538.65 156.933C533.464 158.627 538.823 164.071 540.727 166.008C544.01 169.637 545.741 173.751 548.853 177.38C553.349 182.582 559.747 190.567 569.947 189.6C579.114 188.753 581.88 181.736 577.729 176.775C573.408 171.572 568.219 166.612 563.377 161.773C560.957 159.111 558.536 156.449 556.115 153.908C555.254 152.94 550.756 150.399 549.892 152.457Z" fill="#FF9900"/>
<path d="M574.691 173.293L568.66 167.437C566.664 165.479 564.636 163.537 562.696 161.553L556.995 155.539L555.576 154.051C555.138 153.636 554.474 153.244 553.832 152.911C552.6 152.256 550.678 151.663 550.484 152.577L550.291 153.483L549.415 152.727C548.711 152.12 548.157 151.471 547.586 150.869C547.019 150.275 546.412 149.698 545.665 149.453C544.939 149.186 544.042 149.31 543.151 149.591C542.217 149.887 541.263 150.201 540.356 150.541C539.448 150.884 538.549 151.248 537.763 151.669C537.377 151.876 536.998 152.109 536.77 152.332C536.569 152.53 536.417 152.851 536.411 153.111C536.362 153.653 536.869 154.212 537.506 154.779C538.128 155.345 538.878 155.954 539.311 156.768L539.538 157.196L538.946 157.377C537.899 157.697 537.264 158.303 537.174 159.079C537.065 159.852 537.381 160.701 537.822 161.504C538.725 163.143 540.158 164.597 541.597 166.146C544.336 169.322 545.989 172.789 548.334 175.975C550.845 179.102 553.413 182.29 556.723 185.028C558.38 186.391 560.274 187.639 562.518 188.507C564.747 189.376 567.36 189.805 569.947 189.598C567.383 189.907 564.68 189.569 562.35 188.733C560.001 187.907 557.987 186.682 556.218 185.34C554.452 183.988 552.931 182.495 551.496 180.977C550.081 179.438 548.692 177.936 547.396 176.326C544.857 173.116 543.188 169.646 540.513 166.618C539.122 165.142 537.56 163.596 536.576 161.845C536.092 160.968 535.686 160.021 535.812 158.98C535.854 158.461 536.148 157.935 536.584 157.479C536.827 157.27 537.116 157.08 537.395 156.897L538.355 156.488L537.992 157.097C537.682 156.516 537.041 155.976 536.387 155.376C535.762 154.796 534.968 154.04 535.032 153.068C535.075 152.595 535.257 152.181 535.656 151.774C536.054 151.401 536.495 151.154 536.943 150.912C537.842 150.442 538.782 150.071 539.733 149.717C540.69 149.366 541.65 149.055 542.642 148.749C543.633 148.435 545.024 148.206 546.226 148.646C547.399 149.061 548.039 149.77 548.636 150.384C549.222 151.015 549.749 151.638 550.372 152.183L549.303 152.334C549.488 151.989 549.765 151.566 550.406 151.377C550.998 151.204 551.596 151.24 552.073 151.332C553.047 151.519 553.812 151.871 554.538 152.249C555.253 152.645 555.919 153.042 556.492 153.602L557.881 155.138L563.369 161.24C567.159 165.252 570.957 169.26 574.691 173.293Z" fill="#9B4343"/>
<path d="M539.278 156.534C539.865 155.48 541.07 154.705 542.344 154.11C543.652 153.538 545.106 153.11 546.711 153.068C545.549 153.834 544.329 154.379 543.113 154.943C541.872 155.489 540.686 156.017 539.278 156.534Z" fill="#9B4343"/>
<path d="M538.783 153.068C539.462 153.271 539.745 153.485 539.988 153.739C540.197 154.007 540.34 154.285 540.269 154.802C539.523 154.828 539.067 154.565 538.775 154.251C538.517 153.923 538.395 153.513 538.783 153.068Z" fill="#9B4343"/>
<path d="M542.251 150.641C542.947 150.897 543.249 151.183 543.504 151.503C543.721 151.837 543.866 152.178 543.738 152.721C542.953 152.637 542.519 152.31 542.237 151.947C541.993 151.57 541.878 151.13 542.251 150.641Z" fill="#9B4343"/>
<path d="M545.224 149.947C545.972 149.977 546.412 150.22 546.768 150.504C547.09 150.809 547.332 151.162 547.206 151.681C546.419 151.621 546.001 151.397 545.662 151.123C545.357 150.831 545.136 150.495 545.224 149.947Z" fill="#9B4343"/>
<path d="M569.503 167.282C570.412 166.891 571.321 166.803 572.228 166.786C573.137 166.801 574.046 166.888 574.953 167.282C574.044 167.675 573.135 167.763 572.228 167.778C571.321 167.761 570.412 167.673 569.503 167.282Z" fill="#9B4343"/>
<path opacity="0.2" d="M250.704 460.817C297.927 460.817 336.208 453.938 336.208 445.452C336.208 436.967 297.927 430.088 250.704 430.088C203.481 430.088 165.2 436.967 165.2 445.452C165.2 453.938 203.481 460.817 250.704 460.817Z" fill="#909DD6"/>
<path d="M246.702 441.199L246.652 439.572L244.75 413.602C243.05 390.705 238.678 376.416 239.694 373.688C239.761 373.508 255.022 313.472 255.022 313.472L220.007 312.085C220.007 312.085 216.302 366.042 218.047 371.654C219.295 375.665 225.232 403.465 232.209 421.756L237.945 443.174L246.702 441.199Z" fill="#FFC9AE"/>
<path d="M240.569 439.821C240.569 439.821 240.199 433.46 237.59 432.202C234.982 430.944 234.127 433.688 234.127 433.688C233.763 436.013 233.289 437.425 232.685 437.689C232.505 437.767 232.26 437.867 231.976 437.976C229.304 439.012 222.278 441.366 216.2 443.193C218.551 444.143 219.883 445.602 220.056 447.325C223.014 447.337 225.835 447.159 228.76 446.819C232.024 446.505 235.426 446.302 238.674 445.987C241.526 445.639 244.401 444.912 247.265 444.374C247.265 444.374 247.591 440.81 246.798 438.77C246.801 438.77 244.371 439.625 240.569 439.821Z" fill="#394042"/>
<path d="M207.42 445.54C207.579 445.5 207.753 445.462 207.939 445.421C209.805 445.045 212.856 444.205 216.202 443.193C218.552 444.143 219.885 445.602 220.058 447.325C219.414 447.321 218.769 447.317 218.11 447.294C214.254 447.156 210.828 446.423 207.42 445.54Z" fill="#EFF9FF"/>
<path d="M207.42 445.54C210.83 446.422 214.254 447.154 218.111 447.293C221.793 447.426 225.198 447.227 228.761 446.818C232.026 446.504 235.427 446.301 238.675 445.986C241.527 445.638 244.402 444.911 247.266 444.373L247.148 445.949C247.148 445.949 212.843 450.499 206.102 447.396C206.102 447.398 204.912 446.213 207.42 445.54Z" fill="#BABABA"/>
<path d="M234.934 441.49C234.704 441.483 234.483 441.395 234.359 441.245C232.95 439.542 231.432 439.164 229.287 439.087C228.897 439.073 228.598 438.84 228.618 438.567C228.638 438.294 228.971 438.084 229.361 438.098C231.517 438.175 233.764 438.551 235.581 440.747C235.777 440.983 235.661 441.286 235.325 441.423C235.202 441.475 235.065 441.495 234.934 441.49Z" fill="#EFF9FF"/>
<path d="M231.93 442.708C231.7 442.7 231.479 442.613 231.355 442.463C229.946 440.76 228.428 440.382 226.283 440.304C225.893 440.29 225.594 440.058 225.615 439.785C225.635 439.511 225.968 439.301 226.358 439.315C228.514 439.393 230.761 439.769 232.579 441.964C232.774 442.2 232.66 442.504 232.322 442.641C232.197 442.691 232.061 442.713 231.93 442.708Z" fill="#EFF9FF"/>
<path d="M228.5 443.684C228.27 443.676 228.049 443.589 227.926 443.438C226.518 441.737 225 441.359 222.853 441.281C222.464 441.267 222.164 441.035 222.186 440.762C222.206 440.489 222.539 440.279 222.927 440.292C225.085 440.37 227.333 440.745 229.149 442.941C229.345 443.177 229.229 443.479 228.891 443.616C228.768 443.667 228.632 443.689 228.5 443.684Z" fill="#EFF9FF"/>
<path d="M293.77 326.98C294.206 321.717 294.949 316.244 293.044 311.147C292.033 308.442 290.224 307.753 286.935 306.215C286.935 306.215 259.525 295.218 260.366 310.931C260.4 311.572 261.357 327.921 261.432 328.56C261.785 331.554 262.139 334.549 262.494 337.544C263.018 341.987 263.544 346.43 264.069 350.874C264.633 355.646 265.196 360.418 265.76 365.19C266.231 369.17 266.7 373.149 267.171 377.128C267.329 378.47 267.488 379.813 267.647 381.155C267.7 381.604 267.756 382.051 267.806 382.499C267.823 382.654 267.872 382.821 267.863 382.975C267.806 383.874 268.044 384.582 268.191 385.485C268.598 387.965 277.932 439.027 278.443 442.433C278.644 443.774 277.269 446.107 277.469 447.448L287.967 445.624L288.75 443.187C288.844 438.046 288.48 412.296 288.457 407.519C288.425 400.099 286.318 385.667 285.636 383.194C284.849 380.308 293.246 334.372 293.668 328.317C293.697 327.87 293.733 327.426 293.77 326.98Z" fill="#FFC9AE"/>
<path d="M282.152 443.618C282.152 443.618 281.752 437.257 279.138 436.002C276.523 434.746 275.681 437.491 275.681 437.491C275.328 439.817 274.86 441.229 274.258 441.495C274.078 441.572 273.834 441.672 273.55 441.782C270.884 442.821 263.867 445.184 257.8 447.017C260.153 447.964 261.493 449.422 261.674 451.145C264.632 451.153 267.451 450.974 270.373 450.629C273.637 450.312 277.037 450.106 280.283 449.786C283.134 449.435 286.005 448.705 288.867 448.164L289.032 445.814L289.128 444.453C289.152 444.227 289.243 443.378 289.352 442.366C289.355 442.367 285.954 443.417 282.152 443.618Z" fill="#394042"/>
<path d="M249.031 449.374C249.19 449.335 249.364 449.296 249.55 449.255C251.414 448.877 254.461 448.033 257.801 447.018C260.154 447.965 261.494 449.423 261.676 451.146C261.032 451.143 260.387 451.14 259.729 451.116C255.872 450.981 252.445 450.253 249.031 449.374Z" fill="#EFF9FF"/>
<path d="M249.031 449.375C252.444 450.254 255.872 450.983 259.729 451.117C263.411 451.245 266.816 451.043 270.376 450.631C273.64 450.313 277.039 450.107 280.286 449.787C283.137 449.436 286.008 448.706 288.87 448.166L288.759 449.742C288.759 449.742 254.478 454.329 247.723 451.236C247.723 451.236 246.529 450.05 249.031 449.375Z" fill="#BABABA"/>
<path d="M276.525 445.294C276.295 445.286 276.074 445.198 275.949 445.049C274.533 443.347 273.013 442.97 270.867 442.896C270.477 442.882 270.176 442.65 270.196 442.377C270.216 442.105 270.546 441.894 270.936 441.908C273.092 441.984 275.341 442.356 277.17 444.55C277.365 444.786 277.252 445.089 276.916 445.227C276.793 445.278 276.656 445.299 276.525 445.294Z" fill="#EFF9FF"/>
<path d="M273.526 446.515C273.297 446.507 273.075 446.42 272.951 446.27C271.534 444.568 270.015 444.192 267.868 444.117C267.478 444.104 267.178 443.871 267.198 443.599C267.217 443.325 267.548 443.116 267.938 443.128C270.094 443.204 272.342 443.577 274.171 445.771C274.367 446.007 274.253 446.311 273.917 446.448C273.794 446.498 273.659 446.519 273.526 446.515Z" fill="#EFF9FF"/>
<path d="M270.102 447.495C269.873 447.487 269.652 447.399 269.527 447.249C268.111 445.55 266.592 445.173 264.444 445.098C264.055 445.084 263.754 444.852 263.774 444.579C263.794 444.307 264.124 444.096 264.514 444.109C266.672 444.185 268.922 444.557 270.746 446.752C270.942 446.988 270.828 447.29 270.491 447.428C270.37 447.478 270.234 447.499 270.102 447.495Z" fill="#EFF9FF"/>
<path d="M301.703 335.839C301.445 330.902 295.75 314.165 294.785 311.383C288.368 292.885 284.798 285.567 282.941 283.939C282.593 283.085 279.561 285.737 278.4 284.923C246.519 291.021 234.147 287.383 228.859 285.93C227.684 287.495 228.341 282.846 227.935 283.886C228.635 278.921 216.335 296.78 212.079 334.272C212.079 334.272 215.857 340.639 260.905 340.379C260.905 340.379 287.747 339.92 301.703 335.839Z" fill="#639AAC"/>
<path d="M227.683 288.657C231.985 289.555 236.378 290.123 240.801 290.408C245.227 290.679 249.676 290.726 254.116 290.563C258.558 290.421 262.987 290.068 267.403 289.631C269.612 289.414 271.816 289.159 274.012 288.866C276.223 288.618 278.407 288.278 280.616 287.994C278.49 288.496 276.332 288.93 274.163 289.34C271.988 289.732 269.793 290.072 267.587 290.383C263.176 291.001 258.691 291.386 254.187 291.553C249.683 291.695 245.147 291.62 240.675 291.163C236.208 290.716 231.788 289.941 227.683 288.657Z" fill="#4F7F99"/>
<path d="M278.147 285.274C280.873 289.329 282.656 293.656 284.38 297.959C286.081 302.273 287.464 306.642 288.843 311.008C290.106 315.392 291.348 319.779 292.362 324.194C293.334 328.61 294.386 333.034 294.663 337.51C294.27 335.292 293.68 333.099 293.086 330.906C292.516 328.709 291.915 326.518 291.289 324.33C290.054 319.952 288.826 315.572 287.457 311.214C286.196 306.84 284.796 302.487 283.327 298.148C282.595 295.978 281.842 293.81 280.979 291.665C280.199 289.498 279.22 287.382 278.147 285.274Z" fill="#467F8C"/>
<path d="M248.416 286.198C248.24 288.429 248.349 290.667 248.373 292.901L248.461 299.61C248.463 301.849 248.515 304.081 248.376 306.335C248.213 308.569 248.069 310.794 248.003 313.025C247.9 317.484 247.83 321.942 248.063 326.407C248.172 330.873 248.423 335.343 248.417 339.821C247.764 335.367 247.265 330.909 246.876 326.439C246.593 321.967 246.386 317.479 246.651 312.998C246.764 310.758 246.961 308.518 247.168 306.288C247.351 304.076 247.445 301.836 247.533 299.603C247.628 297.369 247.673 295.132 247.811 292.898C247.964 290.664 247.988 288.419 248.416 286.198Z" fill="#467F8C"/>
<path d="M215.382 332.886C218.59 333.966 222.001 334.695 225.452 335.25C227.173 335.541 228.911 335.786 230.648 336.015C232.402 336.192 234.138 336.436 235.902 336.556C237.666 336.671 239.418 336.849 241.183 336.939L246.481 337.195C250.022 337.25 253.562 337.346 257.105 337.24C260.649 337.259 264.188 337.07 267.728 336.94C271.268 336.792 274.787 336.451 278.328 336.271L288.894 335.306C292.406 334.924 295.912 334.508 299.439 334.154C295.976 334.727 292.489 335.239 289.01 335.785L278.464 337.028C271.39 337.662 264.276 338.149 257.128 338.231C249.988 338.308 242.816 338.092 235.747 337.308C233.975 337.142 232.23 336.85 230.474 336.628C228.731 336.349 226.989 336.065 225.272 335.718L222.714 335.157L220.199 334.509C218.549 334.036 216.895 333.551 215.382 332.886Z" fill="#467F8C"/>
<path d="M297.276 210.471L291.05 206.599C290.706 206.356 290.706 206.115 290.359 205.873C291.05 201.76 292.78 193.533 283.097 193.533C282.751 197.888 282.059 202.97 283.097 207.084C284.135 211.439 288.976 212.407 293.472 215.311L297.276 210.471Z" fill="#FFC9AE"/>
<path d="M290.065 235.637C291.014 234.849 291.924 234.038 292.804 233.225C295.258 230.959 297.691 228.114 296.312 225.44C295.414 223.702 292.988 222.328 292.983 220.48C292.979 219.295 293.999 218.234 294.351 217.075C295.659 212.754 289.209 207.866 288.124 203.564C286.762 198.153 288.321 192.733 286.227 187.326C284.411 182.634 279.176 178.753 272.388 177.536C269.316 176.985 266.032 177.464 263.042 176.804C259.578 176.037 257.132 174.205 253.308 173.957C234.208 172.718 232.407 184.824 230.668 195.054C230.019 198.874 228.655 202.827 224.986 205.694C223.442 206.9 221.543 207.868 220.031 209.093C218.517 210.318 217.381 211.932 217.818 213.522C218.568 216.253 223.616 218.076 222.963 220.82C222.584 222.412 220.404 223.417 218.578 224.403C216.752 225.39 214.955 226.941 215.741 228.459C216.657 230.232 220.116 230.365 222.798 230.18C221.466 233.319 222.673 236.923 225.859 239.322C225.77 237.773 226.734 236.211 228.405 235.193C228.18 237.667 228.751 240.589 231.832 241.815C235.135 243.13 239.259 241.725 243.05 241.919C245.956 242.068 248.569 243.16 251.353 243.764C255.458 244.656 259.858 244.473 264.147 244.281C268.464 244.089 272.856 243.884 276.903 242.815C282.173 241.421 286.402 238.687 290.065 235.637Z" fill="#9B4343"/>
<path d="M276.803 202.714C277.226 203.892 278.131 204.905 278.772 206.061C279.428 207.218 279.465 208.585 278.962 209.797C277.944 212.257 275.661 214.12 274.704 216.38C274.398 216.933 274.193 217.416 274.363 217.843C274.512 218.27 275.028 218.739 275.551 219.178C276.084 219.629 276.709 220.102 277.167 220.695C277.639 221.283 277.828 221.99 277.795 222.637C277.71 223.941 277.083 225.086 276.647 226.236C276.183 227.358 275.763 228.591 276.632 229.68C276.067 229.215 275.799 228.584 275.763 227.967C275.717 227.346 275.83 226.73 275.968 226.128C276.281 224.935 276.761 223.761 276.702 222.64C276.655 222.086 276.467 221.581 276.081 221.119C275.694 220.658 275.123 220.249 274.531 219.791C273.953 219.32 273.329 218.83 273.017 218.084C272.717 217.324 273.078 216.586 273.375 216.032C274.451 213.649 276.81 211.719 277.921 209.57C278.488 208.49 278.587 207.338 278.108 206.207C277.727 205.066 276.91 203.936 276.803 202.714Z" fill="#873333"/>
<path d="M264.463 180.716C266.054 181.573 268.045 181.827 269.847 182.453C271.638 183.084 273.294 183.891 274.781 184.844C277.669 186.805 279.919 189.239 281.114 191.971C281.705 193.325 281.943 194.823 281.64 196.242C281.39 197.65 280.898 198.993 280.954 200.297C280.979 200.946 281.151 201.575 281.504 202.158C281.867 202.763 282.332 203.378 282.785 203.988C283.704 205.204 284.665 206.504 285.093 207.947C285.297 208.652 285.392 209.418 285.279 210.153C285.205 210.893 284.94 211.591 284.677 212.28C284.101 213.644 283.34 214.93 282.744 216.225C282.139 217.513 281.714 218.843 282 220.101C282.047 220.417 282.228 220.71 282.354 221.01L282.991 221.886C283.221 222.213 283.487 222.526 283.68 222.862L284.19 223.89C285.255 226.729 284.324 229.646 282.814 232.212C281.196 234.778 279.017 237.138 276.462 239.258C278.762 237.003 280.799 234.607 282.169 232.033C283.524 229.487 284.247 226.669 283.143 224.102L282.634 223.177C282.445 222.875 282.184 222.597 281.966 222.306C281.752 222.04 281.474 221.657 281.237 221.335C281.073 220.979 280.859 220.62 280.793 220.248C280.432 218.749 280.915 217.289 281.514 215.955C282.679 213.294 284.58 210.715 283.705 208.147C283.345 206.859 282.492 205.654 281.583 204.421C281.134 203.799 280.676 203.184 280.282 202.509C279.871 201.811 279.682 201.055 279.665 200.319C279.634 198.838 280.174 197.468 280.423 196.132C280.708 194.803 280.554 193.484 280.066 192.174C279.07 189.573 276.987 187.15 274.298 185.19C272.934 184.219 271.371 183.365 269.672 182.684C267.982 182.023 265.959 181.659 264.463 180.716Z" fill="#873333"/>
<path d="M264.802 179.533C266.427 179.501 268.058 179.502 269.699 179.665C271.332 179.822 272.992 180.176 274.445 180.823C275.919 181.455 277.099 182.36 278.032 183.347C278.963 184.341 279.604 185.407 280.289 186.415L279.527 186.171C279.99 186.099 280.453 186.016 281.019 185.988C281.301 185.978 281.627 185.987 281.955 186.068C282.282 186.151 282.549 186.294 282.75 186.439C283.147 186.734 283.389 187.033 283.63 187.326C283.871 187.629 284.085 187.947 284.246 188.269C284.898 189.56 285.011 190.858 285.763 192.072C284.647 190.992 284.193 189.64 283.403 188.516C283.199 188.235 282.988 187.969 282.739 187.714C282.485 187.454 282.214 187.198 281.942 187.033C281.66 186.868 281.497 186.837 281.115 186.865C280.747 186.896 280.303 186.984 279.859 187.072C279.559 187.132 279.248 187.033 279.111 186.845L279.098 186.828C278.348 185.809 277.686 184.792 276.854 183.883C276.02 182.98 274.995 182.16 273.755 181.55C272.517 180.928 271.064 180.516 269.533 180.228C268.003 179.928 266.398 179.753 264.802 179.533Z" fill="#873333"/>
<path d="M263.618 182.135C265.162 183.38 266.385 184.69 267.914 185.773C269.404 186.882 271.237 187.734 273.084 188.758C270.786 188.456 268.583 187.675 266.896 186.462C265.234 185.233 264.162 183.727 263.618 182.135Z" fill="#873333"/>
<path d="M258.209 180.125C255.28 181.441 251.731 181.78 248.42 182.29C245.104 182.754 241.682 183.347 239.275 184.923C237.989 185.636 237.52 186.685 237.405 187.828C237.3 188.956 237.459 190.204 237.368 191.403C237.286 193.775 237.354 196.296 235.953 198.665C234.528 200.962 232.249 202.817 231.167 204.991C230.608 206.05 230.642 207.133 231.46 208.101C232.249 209.076 233.437 209.977 234.311 211.082C234.765 211.645 235.053 212.315 235.016 212.988C234.992 213.664 234.643 214.28 234.263 214.837C233.456 215.947 232.538 216.911 231.948 218.027C231.31 219.121 230.829 220.268 230.574 221.441C230.357 222.606 230.301 223.84 230.995 224.95C230.156 223.883 230.07 222.609 230.201 221.411C230.356 220.202 230.743 219.011 231.297 217.857C231.827 216.696 232.765 215.62 233.451 214.574C233.777 214.045 234.038 213.507 234.024 212.975C234.021 212.445 233.775 211.931 233.366 211.461C232.522 210.486 231.31 209.63 230.391 208.519C229.931 207.967 229.599 207.311 229.538 206.637C229.468 205.963 229.661 205.302 229.946 204.697C231.116 202.304 233.391 200.405 234.649 198.278C235.946 196.183 235.966 193.767 236.081 191.379C236.194 190.182 236.051 189.029 236.185 187.761C236.258 187.138 236.427 186.49 236.819 185.884C237.191 185.28 237.854 184.726 238.554 184.357C241.339 182.685 244.95 182.19 248.3 181.815C251.681 181.459 255.134 181.238 258.209 180.125Z" fill="#873333"/>
<path d="M240.461 187.339C241.071 187.435 241.574 187.448 242.096 187.482L243.644 187.558C244.16 187.597 244.68 187.618 245.208 187.666L246.883 187.811C246.467 188.149 245.875 188.33 245.303 188.437C244.721 188.55 244.123 188.572 243.53 188.546C242.939 188.502 242.347 188.414 241.794 188.223C241.254 188.042 240.695 187.759 240.461 187.339Z" fill="#873333"/>
<path d="M242.489 178.587C243.647 177.921 244.75 177.248 246.091 176.709C247.401 176.156 249.106 175.849 250.733 176.053C252.318 176.281 253.671 176.708 255.007 177.182C256.334 177.655 257.589 178.177 258.886 178.705C257.391 178.567 255.96 178.227 254.575 177.894C253.195 177.573 251.806 177.201 250.492 177.03C249.194 176.855 247.884 177.035 246.57 177.403C245.257 177.768 243.93 178.28 242.489 178.587Z" fill="#873333"/>
<path d="M242.827 215.842C242.022 217.806 239.618 219.222 238.479 220.899C237.846 221.729 237.919 222.552 238.489 223.4C239.012 224.248 239.849 225.089 240.332 226.135C240.758 227.17 240.855 228.243 240.617 229.296C240.361 230.341 239.805 231.332 239.048 232.211C238.265 233.104 237.444 233.838 236.897 234.739C236.612 235.174 236.38 235.631 236.327 236.103C236.286 236.565 236.497 237.057 237.08 237.366C236.414 237.16 235.994 236.631 235.952 236.107C235.896 235.581 236.044 235.064 236.245 234.57C236.65 233.589 237.456 232.672 238.075 231.842C239.319 230.136 239.762 228.197 238.978 226.425C238.62 225.564 237.822 224.742 237.253 223.758C236.978 223.265 236.764 222.711 236.789 222.13C236.792 221.553 237.127 220.976 237.505 220.539C239.025 218.69 241.523 217.642 242.827 215.842Z" fill="#873333"/>
<path d="M238.094 200.585C237.972 201.464 237.623 202.304 237.28 203.12C236.943 203.938 236.56 204.734 236.299 205.531C236.014 206.324 235.838 207.117 235.898 207.897C235.954 208.68 236.354 209.439 237.08 210.165C235.96 209.762 235.088 208.939 234.806 208.019C234.488 207.1 234.637 206.162 234.922 205.296C235.555 203.551 236.772 202.057 238.094 200.585Z" fill="#873333"/>
<path d="M226.432 209.337C225.877 209.646 225.367 209.981 225.11 210.376C224.824 210.759 224.82 211.177 224.913 211.601C225.146 212.456 225.741 213.325 226.24 214.241C226.725 215.159 227.177 216.118 227.349 217.13C227.53 218.133 227.4 219.202 226.771 220.1C226.895 218.11 225.901 216.4 224.915 214.592C224.463 213.689 223.864 212.759 223.815 211.665C223.792 211.126 224.005 210.524 224.536 210.105C225.058 209.684 225.743 209.452 226.432 209.337Z" fill="#873333"/>
<path d="M251.044 223.964C251.793 221.872 251.945 219.676 252.335 217.457C251.063 217.04 248.325 216.141 247.391 215.605C238.766 210.876 240.967 206.062 240.967 199.048C240.967 195.933 243.063 190.387 245.189 187.91C250.475 187.621 255.567 186.131 258.971 183.353C262.267 188.641 268.761 190.04 274.123 192.649C274.123 195.936 273.766 200.851 277.286 203.443C275.894 208.246 271.839 214.986 264.796 217.016C265.58 221.93 265.09 228.016 274.125 227.715L271.713 237.339C268.685 242.557 256.64 246.146 249.647 242.232C245.216 239.622 243.352 233.26 242.886 229.347C247.779 228.369 249.878 227.553 251.044 223.964Z" fill="#FFC9AE"/>
<path d="M268.791 195.873C268.496 195.387 268.112 195.057 267.648 194.818C267.183 194.585 266.659 194.407 266.086 194.284C265.521 194.147 264.912 194.064 264.284 193.996C263.651 193.939 263.01 193.905 262.263 193.914C262.772 193.523 263.513 193.308 264.256 193.222C265.006 193.131 265.783 193.181 266.528 193.343C267.259 193.522 267.983 193.821 268.459 194.296C268.954 194.757 269.1 195.391 268.791 195.873Z" fill="#8E3838"/>
<path d="M252.94 194.568C252.473 194.822 251.976 194.977 251.438 195.071C250.904 195.171 250.324 195.188 249.734 195.116C249.153 195.029 248.572 194.841 248.148 194.544C247.718 194.255 247.428 193.889 247.346 193.48C248.432 193.814 249.156 194.04 250.008 194.144C250.849 194.279 251.838 194.282 252.94 194.568Z" fill="#8E3838"/>
<path d="M255.737 200.44C255.724 200.935 255.356 201.436 254.862 201.807C254.375 202.188 253.809 202.482 253.314 202.764L253.351 202.744C253.046 202.946 252.68 203.078 252.373 203.17C252.062 203.258 251.814 203.363 251.841 203.367C251.844 203.32 251.8 203.418 251.86 203.595C251.901 203.708 251.886 203.69 251.933 203.759C251.962 203.811 252.042 203.879 252.122 203.943C252.475 204.206 252.985 204.465 253.493 204.713C254.016 204.953 254.542 205.206 255.115 205.442C254.44 205.47 253.773 205.379 253.133 205.246C252.492 205.103 251.855 204.933 251.257 204.591C251.108 204.5 250.956 204.408 250.818 204.27C250.673 204.157 250.557 203.92 250.524 203.817C250.445 203.573 250.294 203.164 250.725 202.757C251.163 202.407 251.568 202.374 251.834 202.283C252.115 202.202 252.334 202.137 252.523 202.051L252.561 202.03C253.772 201.503 254.923 201.257 255.737 200.44Z" fill="#DD9778"/>
<path d="M256.671 211.422C255.577 211.423 254.742 211.328 253.832 211.17C252.95 210.99 252.028 210.77 251.232 210.225C252.286 210.004 253.238 210.048 254.199 210.212C255.127 210.403 256.123 210.735 256.671 211.422Z" fill="#DD9778"/>
<path d="M262.397 200.847C262.288 201.728 262.901 202.485 263.761 202.535C264.623 202.586 265.409 201.914 265.515 201.033C265.623 200.152 265.012 199.397 264.151 199.344C263.289 199.294 262.504 199.966 262.397 200.847Z" fill="black"/>
<path d="M247.996 199.249C247.89 200.13 248.501 200.886 249.363 200.937C250.225 200.989 251.01 200.317 251.117 199.436C251.224 198.555 250.613 197.798 249.753 197.747C248.891 197.696 248.105 198.368 247.996 199.249Z" fill="black"/>
<path d="M268.709 232.086C268.709 232.086 260.917 234.312 243.759 232.086L255.791 255.859L268.709 232.086Z" fill="white"/>
<path d="M215.226 274.184C216.783 276.628 220.154 279.244 222.749 281.34C228.195 285.18 227.676 285.876 224.046 290.415C221.193 293.905 219.637 298.616 216.523 301.932C214.449 304.202 213.412 303.503 209.779 302.107C206.927 301.235 204.333 300.885 203.814 298.791C203.035 296.001 205.37 290.939 206.407 288.146C210.039 288.321 208.223 295.127 207.704 296.872C210.816 292.857 214.967 289.716 219.895 286.572C214.967 284.13 212.114 281.863 208.484 278.547L215.226 274.184Z" fill="#FFC9AE"/>
<path d="M194.477 255.338C199.924 250.8 218.339 232.127 226.381 230.033C231.568 228.637 237.534 228.113 242.98 228.113C243.919 228.113 244.892 228.11 245.878 228.106L256.294 245.39C256.294 245.39 265.057 233.032 269.849 226.976C272.355 226.679 274.757 226.312 276.957 225.845C282.663 224.797 289.148 226.193 295.373 225.845C301.079 225.669 310.418 225.496 310.418 225.496C304.738 222.627 301.269 221.072 287.333 214.152C289.148 212.582 294.077 208.045 296.93 207.869C299.004 207.694 338.102 224.532 338.102 229.961C338.102 230.739 336.378 232.875 335.46 233.184C328.19 235.635 321.805 236.358 314.152 238.17C309.605 239.246 305.045 240.294 300.474 241.324C298.486 241.771 296.314 242.073 294.381 242.543C290.554 243.472 290.057 246.388 289.711 248.753C288.724 255.511 286.193 262.229 284.383 268.9C283.86 270.829 283.344 272.784 283.517 274.744C283.802 277.977 285.706 281.183 286.817 284.299C287.717 286.823 292.594 292.873 290.12 295.408C289.516 296.026 290.147 297.044 289.134 297.283C267.122 302.464 240.79 301.275 219.203 295.284C219.933 285.333 231.131 277.78 228.761 267.413C227.723 262.876 225.343 261.271 225.86 256.735C226.379 252.197 229.422 246.521 229.422 246.521C224.494 250.535 211.855 259.351 210.298 261.446C209.52 263.017 210.298 265.984 206.149 264.938C207.705 266.334 209.52 268.951 211.077 270.346C212.114 271.22 216.783 273.838 216.783 274.884C217.042 276.282 209.002 282.737 206.668 282.562C203.814 282.388 185.398 267.904 184.879 265.111C184.36 262.492 192.142 257.256 194.477 255.338Z" fill="#375E97"/>
<path d="M237.446 280.876C240.352 282.304 243.721 283.14 247.168 283.561C248.891 283.785 250.635 283.938 252.387 284.057C254.162 284.169 255.87 284.315 257.614 284.249C261.124 284.152 264.674 284.031 268.241 284.079C270.026 284.113 271.819 284.181 273.621 284.394C274.521 284.509 275.426 284.653 276.318 284.91C277.202 285.132 278.131 285.637 278.694 286.127C278.993 286.395 279.291 286.662 279.52 286.997C279.754 287.317 279.931 287.727 279.845 288.172C279.783 288.639 279.327 289.003 278.914 289.245C278.475 289.481 278.013 289.64 277.558 289.75C275.728 290.193 273.92 290.265 272.124 290.323C268.535 290.387 264.982 290.23 261.453 289.907C257.963 289.472 254.47 289.374 250.925 289.164C249.16 289.047 247.394 288.909 245.644 288.69C243.899 288.472 242.153 288.165 240.558 287.623C243.894 288.474 247.459 288.579 250.971 288.679C254.478 288.788 258.073 288.806 261.575 289.148C265.073 289.349 268.594 289.53 272.075 289.42C273.796 289.356 275.568 289.248 277.082 288.863C277.828 288.672 278.457 288.355 278.474 288.034C278.563 287.697 278.113 287.185 277.612 286.764C277.053 286.298 276.553 286.023 275.78 285.8C275.042 285.58 274.217 285.437 273.382 285.323C271.699 285.109 269.954 285.026 268.207 284.979C264.704 284.887 261.185 285.028 257.627 285.007C255.829 285.03 254.022 284.831 252.285 284.675C250.527 284.507 248.765 284.315 247.027 284.032C243.57 283.448 240.161 282.485 237.446 280.876Z" fill="#375E97"/>
<path d="M235.37 289.484C238.304 291.779 242.187 293.302 246.298 294.135C250.426 294.966 254.755 295.247 259.07 295.209C263.393 295.188 267.712 294.826 272.007 294.361C274.156 294.126 276.295 293.839 278.427 293.515C280.571 293.224 282.688 292.848 284.825 292.509C280.735 293.612 276.508 294.466 272.206 295.111C267.907 295.76 263.513 296.156 259.086 296.2C254.67 296.214 250.178 295.898 245.963 294.857C244.907 294.613 243.911 294.246 242.888 293.946C241.893 293.601 240.969 293.154 240.018 292.759C239.134 292.289 238.322 291.752 237.481 291.256C236.746 290.68 236.058 290.075 235.37 289.484Z" fill="#375E97"/>
<path d="M228.927 232.072C229.999 234.307 230.561 236.626 230.774 238.972C230.946 241.314 230.746 243.704 229.753 245.963C229.629 243.609 229.566 241.328 229.361 239.028C229.198 236.729 228.894 234.431 228.927 232.072Z" fill="#375E97"/>
<path d="M280.789 227.183C281.565 230.03 282.537 232.782 283.735 235.505C284.923 238.231 286.328 240.885 288.058 243.519C285.363 241.29 283.622 238.563 282.381 235.796C281.199 233.013 280.45 230.09 280.789 227.183Z" fill="#375E97"/>
<path d="M311.511 225.627C313.727 225.731 315.775 226.225 317.773 226.704C319.772 227.213 321.687 227.728 323.733 228.294C321.521 228.509 319.324 228.126 317.296 227.637C315.265 227.115 313.355 226.469 311.511 225.627Z" fill="#375E97"/>
<path d="M315.475 225.071C315.564 224.653 315.755 224.531 315.969 224.478C316.195 224.455 316.444 224.504 316.796 224.849C316.707 225.268 316.517 225.391 316.301 225.442C316.076 225.463 315.826 225.414 315.475 225.071Z" fill="#375E97"/>
<path d="M292.352 215.181C293.322 214.026 294.48 213.05 295.787 212.125C297.114 211.23 298.618 210.392 300.446 209.957C299.289 211.025 298.069 211.925 296.781 212.833C295.469 213.712 294.087 214.595 292.352 215.181Z" fill="#375E97"/>
<path d="M193.085 259.411C195.764 259.923 198.278 260.67 200.705 261.577C201.905 262.045 203.086 262.547 204.189 263.134C204.742 263.421 205.277 263.74 205.786 264.057C206.288 264.38 206.846 264.734 207.124 265.19C206.592 264.872 206.007 264.673 205.39 264.458L203.593 263.785L200.026 262.447C197.669 261.528 195.266 260.623 193.085 259.411Z" fill="#375E97"/>
<path d="M202.83 256.077C203.964 256.684 204.739 257.463 205.426 258.274C206.072 259.102 206.631 259.968 206.794 260.967C205.637 260.338 204.873 259.574 204.198 258.77C203.563 257.951 203.017 257.1 202.83 256.077Z" fill="#375E97"/>
<path d="M204.481 279.303C205.291 278.848 205.841 278.298 206.468 277.758C207.06 277.205 207.765 276.656 208.471 276.161C209.924 275.17 211.415 274.293 213.07 273.413C212.294 274.787 210.87 275.871 209.469 276.865C208.732 277.354 208.051 277.826 207.257 278.296C206.476 278.747 205.553 279.222 204.481 279.303Z" fill="#375E97"/>
<path d="M246.764 261.522C250.793 261.618 254.743 262.106 258.647 262.674C262.548 263.271 266.405 263.95 270.217 264.856C266.191 264.721 262.253 264.212 258.351 263.643C254.455 263.045 250.596 262.386 246.764 261.522Z" fill="#375E97"/>
<path opacity="0.2" d="M478.001 438.438C478.001 445.327 446.918 450.914 408.575 450.914C370.229 450.914 339.146 445.327 339.146 438.438C339.146 431.549 370.229 425.963 408.575 425.963C446.918 425.963 478.001 431.549 478.001 438.438Z" fill="#909DD6"/>
<path d="M380.667 217.246C376.518 215.068 373.06 212.89 372.714 209.261C372.714 205.631 376.173 204.421 376.865 201.276C377.556 198.613 373.06 197.404 374.098 194.985C375.136 192.323 381.707 192.323 381.361 188.693C381.015 184.821 376.271 181.011 382.398 179.498C388.276 178.047 384.473 171.029 390.352 167.158C401.072 159.898 425.281 159.656 433.234 170.062C436.694 174.901 434.618 178.773 437.039 183.612C438.077 185.065 439.114 185.306 439.114 187.242C439.114 188.693 437.039 190.146 437.039 191.113C437.039 193.292 438.077 194.017 438.769 195.227C439.459 196.437 441.189 196.437 440.845 198.373C440.497 199.825 436.348 201.518 436.695 202.487C437.039 204.18 439.805 203.696 441.535 204.906C445.686 207.569 444.302 212.165 440.845 214.343C433.236 219.666 422.86 220.15 413.177 217.973L380.667 217.246Z" fill="black"/>
<path d="M422.434 198.212C425.736 195.658 425.389 191.764 425.736 188.48C426.054 185.31 426.641 180.794 425.962 176.864C425.358 176.623 424.754 176.407 424.151 176.2C424.188 174.471 424.155 172.605 422.891 171.129C422.695 171.633 422.402 174.269 422.191 175.577C420.448 175.076 418.711 174.703 417.003 174.434C417.073 172.768 417.22 170.545 416.096 169.34C415.3 170.759 415.743 172.735 414.682 174.031C414.508 172.919 414.332 168.845 412.476 168.475C412.211 169.834 412.123 171.192 412.036 172.549C412.036 172.84 411.989 173.414 411.953 173.925C407.799 173.73 403.922 174.075 400.602 174.624L400.12 169.523C398.379 170.689 397.357 173.303 397.099 175.309C395.375 175.702 393.888 176.119 392.709 176.489C391.383 182.131 392.376 186.881 392.519 191.885C392.623 195.446 396.22 199.938 401.193 201.322C401.217 204.807 401.577 208.783 397.91 211.349C395.128 213.295 391.998 213.173 388.522 213.173L387.825 217.431C387.653 220.229 390.954 223.878 393.737 225.823C397.041 228.257 404.169 227.77 408.69 227.405C414.426 226.919 419.992 226.31 422.946 222.418C424.859 219.742 425.902 216.214 425.033 213.173C421.73 213.295 418.601 212.443 417.383 210.376C415.991 208.186 415.644 205.509 415.644 203.077C415.644 202.788 415.761 202.005 415.828 201.21C418.987 200.461 421.103 199.211 422.434 198.212Z" fill="#C1946F"/>
<path d="M406.26 195.901C407.184 195.511 408.091 195.394 409.046 195.376C409.984 195.388 411.006 195.508 411.821 196.022C410.812 196.284 409.967 196.353 409.048 196.367C408.144 196.351 407.195 196.292 406.26 195.901Z" fill="#7A6251"/>
<path d="M408.868 183.006C409.175 183.87 409.291 184.75 409.917 185.362C410.534 186.023 411.457 186.581 412.136 187.482C412.423 187.928 412.654 188.51 412.354 189.1C412.026 189.679 411.308 190.026 410.653 190.179C409.316 190.503 408.005 190.402 406.783 190.183C408.013 189.998 409.254 189.847 410.198 189.474C411.185 189.086 411.342 188.589 410.856 187.905C410.418 187.255 409.489 186.596 408.943 185.722C408.344 184.79 408.605 183.849 408.868 183.006Z" fill="#7A6251"/>
<path d="M397.561 179.474C397.392 178.963 397.61 178.395 398.065 177.948C398.513 177.49 399.185 177.163 399.9 176.955C401.329 176.565 403.081 176.673 404.167 177.406C402.706 177.434 401.535 177.57 400.42 177.877C399.866 178.021 399.357 178.222 398.878 178.469C398.403 178.724 397.976 179.042 397.561 179.474Z" fill="black"/>
<path d="M413.035 179.961C414.534 179.995 415.801 179.982 417.132 179.919C418.463 179.865 419.721 179.758 421.205 179.596C420.754 180.031 420.099 180.336 419.41 180.544C418.719 180.761 417.971 180.867 417.223 180.908C416.473 180.931 415.713 180.893 414.987 180.741C414.267 180.596 413.56 180.354 413.035 179.961Z" fill="black"/>
<path d="M404.462 183.888C404.14 184.845 403.121 185.498 402.185 185.344C401.248 185.19 400.749 184.289 401.071 183.331C401.394 182.373 402.414 181.722 403.349 181.875C404.286 182.029 404.785 182.931 404.462 183.888Z" fill="black"/>
<path d="M419.572 184.45C419.25 185.408 418.231 186.06 417.295 185.906C416.358 185.751 415.859 184.85 416.181 183.892C416.504 182.935 417.523 182.282 418.459 182.437C419.396 182.591 419.894 183.493 419.572 184.45Z" fill="black"/>
<path d="M401.688 349.397C402.181 338.27 402.777 313.081 400.311 303.63L371.479 319.129C372.049 323.489 375.106 338.218 377.526 349.403C378.864 355.591 380.007 360.698 380.424 362.351C381.277 365.727 381.026 372.514 380.119 375.852C377.666 384.93 386.446 414.865 387.769 423.823C387.821 425.931 388.93 428.116 385.023 429.792C383.462 430.461 372.519 433.53 370.456 434.415C370.338 434.457 370.215 434.5 370.1 434.541C370.118 434.543 370.138 434.545 370.157 434.547C368.227 435.409 367.31 436.162 368.956 436.529C371.777 437.226 393.045 435.291 398.033 434.126C398.417 433.711 398.553 432.78 398.627 431.937C398.969 431.856 399.312 431.772 399.651 431.683C399.651 431.683 399.747 424.18 399.651 421.537C399.764 417.094 398.994 379.227 399.272 378.144C399.598 375.355 401.084 362.958 401.688 349.397Z" fill="#C1946F"/>
<path d="M370.1 434.541C379.699 435.486 390.435 434.066 399.651 431.683V435.333C399.651 435.333 366.892 440.933 359.562 438.287C359.562 438.287 357.93 437.301 370.1 434.541Z" fill="#380E16"/>
<path d="M369.566 435.015C368.759 435.119 365.169 434.928 364.849 434.844C364.679 434.804 364.567 434.682 364.52 434.577C364.422 434.357 364.523 434.245 364.829 434.146C365.595 433.906 366.384 433.695 367.189 433.51C368.677 433.165 369.524 433.488 371.451 434.004C370.678 434.223 370.005 434.5 369.339 434.777L369.566 435.015Z" fill="#681925"/>
<path d="M370.299 435.294C371.523 435.487 373.711 436.351 374.906 436.3C375.928 436.255 378.191 434.96 378.426 434.393C376.484 434.046 374.864 434.042 372.882 434.251L370.299 435.294Z" fill="#681925"/>
<path d="M368.254 435.054C368.954 435.119 369.082 435.193 370.997 435.462C370.997 435.462 373.164 434.67 373.736 434.184C372.952 433.818 371.834 433.749 370.877 433.79C370.768 433.798 370.582 433.897 370.487 433.934C370.337 433.984 370.184 434.037 370.036 434.092C369.747 434.201 369.47 434.321 369.222 434.466C368.893 434.659 368.579 434.86 368.254 435.054Z" fill="#AF7E1C"/>
<path d="M414.726 349.397C414.23 338.271 413.609 320.582 413.609 308.494L444.935 319.13C444.363 323.49 441.304 338.219 438.887 349.404C437.55 355.592 436.404 360.699 435.989 362.352C435.134 365.728 435.386 372.515 436.294 375.853C438.749 384.931 429.964 414.866 428.642 423.824C428.591 425.932 427.48 428.117 431.39 429.793C432.951 430.462 443.891 433.531 445.954 434.416C446.074 434.458 446.196 434.501 446.31 434.542C446.291 434.544 446.273 434.546 446.256 434.548C448.183 435.41 449.1 436.164 447.452 436.53C444.634 437.227 423.364 435.292 418.375 434.127C417.995 433.712 417.857 432.781 417.783 431.938C417.441 431.857 417.098 431.773 416.759 431.684C416.759 431.684 416.666 424.181 416.759 421.538C416.646 417.095 417.416 379.228 417.139 378.145C416.812 375.355 415.327 362.958 414.726 349.397Z" fill="#C1946F"/>
<path d="M446.31 434.541C436.709 435.486 425.974 434.066 416.759 431.683V435.333C416.759 435.333 449.517 440.933 456.849 438.287C456.849 438.287 458.479 437.301 446.31 434.541Z" fill="#380E16"/>
<path d="M446.846 435.015C447.65 435.119 451.241 434.928 451.56 434.844C451.734 434.804 451.843 434.682 451.888 434.577C451.988 434.357 451.887 434.245 451.578 434.146C450.815 433.906 450.024 433.695 449.222 433.51C447.732 433.165 446.883 433.488 444.956 434.004C445.734 434.223 446.403 434.5 447.073 434.777L446.846 435.015Z" fill="#681925"/>
<path d="M446.111 435.294C444.889 435.487 442.699 436.351 441.504 436.3C440.485 436.255 438.222 434.96 437.984 434.393C439.926 434.046 441.548 434.042 443.528 434.251L446.111 435.294Z" fill="#681925"/>
<path d="M448.158 435.054C447.457 435.119 447.326 435.193 445.415 435.462C445.415 435.462 443.246 434.67 442.676 434.184C443.457 433.818 444.577 433.749 445.534 433.79C445.643 433.798 445.829 433.897 445.926 433.934C446.073 433.984 446.226 434.037 446.374 434.092C446.664 434.201 446.941 434.321 447.187 434.466C447.518 434.659 447.832 434.86 448.158 435.054Z" fill="#AF7E1C"/>
<path d="M379.891 271.869C379.891 271.869 406.976 275.893 434.067 271.869C434.067 271.869 447.81 288.403 448.601 302.378C448.985 309.176 442.688 396.423 442.688 396.423C441.687 399.191 411.643 398.498 411.758 397.461C411.872 396.423 408.728 322.111 408.728 322.111L402.127 397.919C402.127 397.919 386.111 399.821 372.948 397.919C372.948 397.919 369.047 317.17 369.981 308.85C371.718 293.403 379.891 271.869 379.891 271.869Z" fill="#498CAD"/>
<path d="M378.379 282.912C380.904 283.16 383.422 283.397 385.953 283.566C388.476 283.768 391.005 283.926 393.536 284.059C398.597 284.312 403.665 284.474 408.732 284.491C413.801 284.548 418.866 284.401 423.923 284.161L427.715 283.958L431.494 283.643C434.034 283.508 436.514 283.119 439.053 282.913C434.132 283.825 429.11 284.554 424.025 284.922C418.95 285.343 413.832 285.519 408.721 285.484C403.612 285.442 398.502 285.253 393.431 284.817C388.364 284.391 383.314 283.813 378.379 282.912Z" fill="#1F637A"/>
<path d="M408.69 279.655C408.999 283.115 409.153 286.576 409.284 290.037C409.43 293.498 409.465 296.959 409.501 300.419C409.502 303.88 409.501 307.341 409.389 310.8L409.217 315.989C409.108 317.718 409.047 319.448 408.895 321.176C408.727 319.444 408.649 317.713 408.522 315.982L408.298 310.791C408.152 307.33 408.117 303.87 408.084 300.411C408.084 296.953 408.086 293.493 408.199 290.034C408.294 286.575 408.415 283.115 408.69 279.655Z" fill="#1F637A"/>
<path d="M393.987 320.979C398.518 320.986 403.006 321.089 407.513 321.444C411.982 321.833 416.572 322.432 420.597 323.951C416.204 323.177 411.805 322.794 407.349 322.429C402.907 322.047 398.396 321.761 393.987 320.979Z" fill="#1F637A"/>
<path d="M415.248 284.94C415.408 285.995 415.502 287.047 415.645 288.1L415.92 291.261C416.094 293.371 416.13 295.486 416.058 297.608C416.002 298.666 415.906 299.736 415.771 300.786C415.617 301.83 415.529 302.906 415.135 303.97C414.772 305.023 414.081 306.117 412.854 306.851C411.609 307.564 410.082 307.918 408.575 307.996C410.022 307.7 411.42 307.249 412.372 306.5C413.361 305.783 413.849 304.812 414.067 303.815C414.28 302.812 414.362 301.774 414.433 300.716C414.526 299.663 414.61 298.628 414.641 297.577C414.749 295.482 414.749 293.38 414.834 291.272C414.905 289.166 414.962 287.051 415.248 284.94Z" fill="#1F637A"/>
<path d="M389.911 324.674C391.28 324.025 392.799 323.716 394.304 323.473C395.828 323.26 397.337 323.12 398.978 323.197C397.637 323.878 396.112 324.201 394.601 324.442C393.071 324.655 391.548 324.783 389.911 324.674Z" fill="#1F637A"/>
<path d="M372.765 293.713C374.581 294.047 376.383 294.316 378.198 294.366C380.011 294.423 381.907 294.402 383.785 294.543L383.022 295.004C383.068 293.095 383.467 291.219 383.907 289.376L384.583 286.616C384.816 285.696 384.999 284.773 385.174 283.836C385.5 285.713 385.362 287.621 385.111 289.487C384.855 291.356 384.512 293.198 384.39 295.036L384.356 295.556L383.628 295.497C382.716 295.424 381.807 295.339 380.886 295.283C379.964 295.225 379.031 295.153 378.089 295.052C377.15 294.935 376.212 294.782 375.327 294.54C374.444 294.3 373.583 294.035 372.765 293.713Z" fill="#1F637A"/>
<path d="M431.953 284.424C433.634 288.034 435.023 291.646 436.915 295.136L436.316 294.836C438.008 294.904 439.777 294.875 441.515 294.814C442.388 294.792 443.259 294.739 444.127 294.678C444.986 294.596 445.876 294.537 446.622 294.202C446.016 294.687 445.076 294.863 444.243 295.063C443.384 295.258 442.502 295.373 441.621 295.488C439.849 295.688 438.084 295.811 436.247 295.789L435.822 295.784L435.649 295.489C434.612 293.723 433.791 291.901 433.176 290.051C432.557 288.199 432.141 286.319 431.953 284.424Z" fill="#1F637A"/>
<path d="M406.617 323.05C407.421 323.037 408.182 323.151 408.908 323.294C409.64 323.433 410.33 323.629 411.013 323.823C412.379 324.24 413.616 324.702 414.972 325.261C414.185 325.383 413.382 325.329 412.63 325.221C411.87 325.117 411.151 324.934 410.453 324.734C409.068 324.302 407.809 323.776 406.617 323.05Z" fill="#1F637A"/>
<path d="M440.497 273.383C439.46 269.027 438.681 264.672 437.645 260.317C435.829 252.695 436.348 244.347 437.384 236.543C438.164 230.555 443.869 218.939 438.68 213.677C435.301 210.13 428.736 210.148 422.277 210.752C422.342 213.508 420.83 216.667 418.709 218.396C414.819 221.299 410.411 222.388 404.703 221.663C397.161 220.673 391.991 216.533 391.496 211.428C389.14 211.369 386.789 211.318 384.473 211.318C377.471 211.318 373.493 211.251 372.714 216.514C372.195 220.688 373.06 225.292 373.839 229.284C375.653 237.994 377.988 246.525 379.545 255.235C381.101 263.945 377.987 271.569 375.394 279.917C374.355 283.001 373.059 285.906 372.282 288.991C378.766 289.899 385.248 290.261 391.476 291.533C398.478 292.984 404.703 294.617 412.226 294.797C419.228 294.98 424.416 293.348 430.383 290.988C434.272 289.355 439.719 286.451 444.128 286.087C443.611 282.093 441.535 277.375 440.497 273.383Z" fill="#375E97"/>
<path d="M386.894 274.351C390.316 275.287 394.034 275.452 397.642 275.242C401.267 275.033 404.825 274.468 408.388 273.917C411.948 273.357 415.517 272.759 419.181 272.424C422.826 272.099 426.635 272.019 430.287 272.731L430.725 272.816L430.731 273.141C430.745 273.905 430.405 274.696 429.775 275.329C429.151 275.968 428.307 276.454 427.419 276.836C425.627 277.596 423.666 278.01 421.72 278.333C417.811 278.968 413.83 279.164 409.953 279.477C406.144 279.848 402.312 280.576 398.416 281.084C394.526 281.602 390.426 281.873 386.431 281.322L387.188 280.851C387.325 282.235 388.498 283.451 390.393 284C392.228 284.6 394.367 284.781 396.475 284.844C400.728 284.935 405.025 284.492 409.244 283.901C413.469 283.298 417.647 282.511 421.782 281.633C425.899 280.72 430.038 279.79 433.929 278.462C430.134 279.936 426.023 280.958 421.944 281.979C417.847 282.981 413.672 283.831 409.427 284.501C405.184 285.162 400.861 285.681 396.442 285.656C394.243 285.63 391.981 285.446 389.864 284.779C389.321 284.64 388.849 284.374 388.352 284.158C388.118 284.031 387.912 283.874 387.692 283.732C387.464 283.595 387.266 283.438 387.11 283.252C386.327 282.583 386.078 281.722 385.912 280.913L385.79 280.326L386.669 280.442C390.445 280.942 394.341 280.673 398.159 280.146C402.001 279.628 405.784 278.867 409.79 278.512C413.735 278.215 417.644 278.04 421.429 277.444C423.306 277.144 425.172 276.749 426.763 276.082C428.358 275.433 429.55 274.388 429.514 273.138L429.958 273.547C426.539 272.879 422.89 272.856 419.303 273.132C415.705 273.404 412.135 273.944 408.552 274.452C404.973 274.965 401.346 275.426 397.67 275.551C394.012 275.681 390.244 275.413 386.894 274.351Z" fill="#375E97"/>
<path d="M433.234 283.063C431.347 284.708 428.835 285.971 426.201 287.006C423.557 288.045 420.71 288.822 417.779 289.371C414.841 289.897 411.809 290.225 408.761 290.167C407.241 290.14 405.72 290.026 404.234 289.795C402.755 289.546 401.326 289.157 400.033 288.627C400.765 288.766 401.451 288.96 402.174 289.071C402.91 289.149 403.612 289.304 404.356 289.317C405.813 289.444 407.283 289.47 408.747 289.404C411.671 289.284 414.577 288.944 417.416 288.413C420.264 287.904 423.027 287.178 425.708 286.329C427.048 285.901 428.35 285.417 429.605 284.871C430.259 284.624 430.84 284.306 431.468 284.024C432.072 283.722 432.629 283.379 433.234 283.063Z" fill="#375E97"/>
<path d="M420.591 254.377C428.479 254.398 432.981 255.873 435.323 260.978C437.081 264.931 441.047 269.112 442.441 273.074C443.431 275.755 441.963 275.775 437.951 276.599C435.038 277.407 432.867 278.462 430.264 277.215C426.734 275.595 422.933 270.769 420.662 268.231C423.366 266.525 429.397 272.349 430.907 273.869C428.766 269.407 428.28 265.049 428.333 260.299C428.333 260.299 417.882 261.582 411.814 261.021" fill="#C1946F"/>
<path d="M382.743 230.917C382.57 233.701 383.952 236.725 384.646 239.507C385.51 243.619 386.548 247.855 387.24 251.969C391.561 251.849 396.577 252.453 400.9 252.575C404.705 252.695 408.335 253.179 411.966 253.542C415.425 253.906 418.885 254.268 422.341 254.511C427.53 254.993 428.739 256.686 423.897 258.743C417.155 261.406 385.337 263.341 377.903 264.672C376.692 261.528 368.911 232.491 367.874 232.733L382.743 230.917Z" fill="#C1946F"/>
<path d="M445.166 226.562C445.51 234.426 446.377 242.169 446.029 250.033C445.858 255.477 446.202 262.374 436.173 262.252C426.836 262.132 429.083 251.607 429.083 247.009C429.083 245.073 428.22 231.159 429.083 231.159L445.166 226.562Z" fill="#C1946F"/>
<path d="M445.166 226.562C445.51 234.426 446.377 242.169 446.029 250.033C445.858 255.477 446.202 262.374 436.173 262.252C426.836 262.132 429.083 251.607 429.083 247.009C429.083 245.073 428.22 231.159 429.083 231.159L445.166 226.562Z" fill="#C1946F"/>
<path d="M427.701 234.224C430.931 234.073 440.195 235.203 448.487 233.092C448.487 233.092 448.381 230.831 448.056 230.003C446.873 227.29 439.009 206.792 430.717 212.595C430.393 212.821 430.176 213.122 429.856 213.349L427.701 234.224Z" fill="#C1946F"/>
<path d="M427.701 234.224C430.931 234.073 440.195 235.203 448.487 233.092C448.487 233.092 448.381 230.831 448.056 230.003C446.873 227.29 439.009 206.792 430.717 212.595C430.393 212.821 430.176 213.122 429.856 213.349L427.701 234.224Z" fill="#C1946F"/>
<path d="M417.328 205.752C416.809 205.147 416.809 203.817 415.597 203.333C413.523 202.487 410.582 204.18 408.853 204.906C407.989 200.672 402.283 203.938 399.171 204.906C397.615 205.389 393.984 205.753 392.945 206.72C390.871 208.414 393.983 208.777 395.885 207.931C392.253 211.318 406.431 208.173 407.815 207.81C408.507 210.592 410.581 213.738 413.348 215.795C414.385 216.642 422.168 220.149 422.339 217.488L417.328 205.752Z" fill="#C1946F"/>
<path d="M417.328 205.752C416.809 205.147 416.809 203.817 415.597 203.333C413.523 202.487 410.582 204.18 408.853 204.906C407.989 200.672 402.283 203.938 399.171 204.906C397.615 205.389 393.984 205.753 392.945 206.72C390.871 208.414 393.983 208.777 395.885 207.931C392.253 211.318 406.431 208.173 407.815 207.81C408.507 210.592 410.581 213.738 413.348 215.795C414.385 216.642 422.168 220.149 422.339 217.488L417.328 205.752Z" fill="#C1946F"/>
<path d="M439.114 262.979C433.236 263.099 428.739 261.528 427.355 257.292C426.665 254.75 427.355 251.849 427.184 249.306C427.009 246.041 426.492 242.773 426.147 239.627C425.801 235.998 424.935 232.49 424.589 228.981C424.416 227.287 424.416 225.715 424.243 224.021C424.072 222.086 423.725 222.207 421.305 221.601C416.981 220.633 416.462 219.061 416.117 215.795C415.944 214.221 414.215 208.294 412.141 207.568C411.103 207.205 406.952 209.14 405.914 209.383C404.705 209.746 401.937 210.472 400.554 210.109C396.231 208.658 406.78 206.478 408.853 206.116C411.965 205.511 415.943 203.939 418.017 205.753C421.13 208.295 422.86 211.924 425.626 214.707C428.22 217.248 429.95 219.184 430.64 222.209C431.678 226.08 432.717 229.831 433.926 233.703C435.827 239.147 438.595 244.712 441.015 250.156C441.878 252.333 446.721 259.473 442.916 261.166L439.114 262.979Z" fill="#C1946F"/>
<path d="M439.114 262.979C433.236 263.099 428.739 261.528 427.355 257.292C426.665 254.75 427.355 251.849 427.184 249.306C427.009 246.041 426.492 242.773 426.147 239.627C425.801 235.998 424.935 232.49 424.589 228.981C424.416 227.287 424.416 225.715 424.243 224.021C424.072 222.086 423.725 222.207 421.305 221.601C416.981 220.633 416.462 219.061 416.117 215.795C415.944 214.221 414.215 208.294 412.141 207.568C411.103 207.205 406.952 209.14 405.914 209.383C404.705 209.746 401.937 210.472 400.554 210.109C396.231 208.658 406.78 206.478 408.853 206.116C411.965 205.511 415.943 203.939 418.017 205.753C421.13 208.295 422.86 211.924 425.626 214.707C428.22 217.248 429.95 219.184 430.64 222.209C431.678 226.08 432.717 229.831 433.926 233.703C435.827 239.147 438.595 244.712 441.015 250.156C441.878 252.333 446.721 259.473 442.916 261.166L439.114 262.979Z" fill="#C1946F"/>
<path d="M445.166 226.562C445.51 234.426 446.377 242.169 446.029 250.033C445.858 255.477 446.202 262.374 436.173 262.252C426.836 262.132 429.083 251.607 429.083 247.009C429.083 245.073 428.22 231.159 429.083 231.159L445.166 226.562Z" fill="#99785F"/>
<path d="M427.701 234.224C430.931 234.073 440.195 235.203 448.487 233.092C448.487 233.092 448.381 230.831 448.056 230.003C446.873 227.29 439.009 206.792 430.717 212.595C430.393 212.821 430.176 213.122 429.856 213.349L427.701 234.224Z" fill="#AAD9E8"/>
<path d="M417.328 205.752C416.809 205.147 416.809 203.817 415.597 203.333C413.523 202.487 410.582 204.18 408.853 204.906C407.989 200.672 402.283 203.938 399.171 204.906C397.615 205.389 393.984 205.753 392.945 206.72C390.871 208.414 393.983 208.777 395.885 207.931C392.253 211.318 406.431 208.173 407.815 207.81C408.507 210.592 410.581 213.738 413.348 215.795C414.385 216.642 422.168 220.149 422.339 217.488L417.328 205.752Z" fill="#99785F"/>
<path d="M439.114 262.979C433.236 263.099 428.739 261.528 427.355 257.292C426.665 254.75 427.355 251.849 427.184 249.306C427.009 246.041 426.492 242.773 426.147 239.627C425.801 235.998 424.935 232.49 424.589 228.981C424.416 227.287 424.416 225.715 424.243 224.021C424.072 222.086 423.725 222.207 421.305 221.601C416.981 220.633 416.462 219.061 416.117 215.795C415.944 214.221 414.215 208.294 412.141 207.568C411.103 207.205 406.952 209.14 405.914 209.383C404.705 209.746 401.937 210.472 400.554 210.109C396.231 208.658 406.78 206.478 408.853 206.116C411.965 205.511 415.943 203.939 418.017 205.753C421.13 208.295 422.86 211.924 425.626 214.707C428.22 217.248 429.95 219.184 430.64 222.209C431.678 226.08 432.717 229.831 433.926 233.703C435.827 239.147 438.595 244.712 441.015 250.156C441.878 252.333 446.721 259.473 442.916 261.166L439.114 262.979Z" fill="#C1946F"/>
<path d="M384.162 234.224C380.931 234.073 371.668 235.203 363.374 233.092C363.374 233.092 363.481 230.831 363.805 230.003C364.989 227.29 372.855 206.792 381.147 212.595C381.469 212.821 381.684 213.122 382.009 213.349L384.162 234.224Z" fill="#AAD9E8"/>
<path d="M248.814 0.990295C241.966 1.39897 235.153 2.05762 228.879 3.72308C225.761 4.5811 222.768 5.59783 220.028 6.94289C217.239 8.21753 214.766 9.74114 212.673 11.4979C210.573 13.2526 209 15.292 207.806 17.4425C206.568 19.5881 205.77 21.8735 205.186 24.2016C204.001 28.8577 203.577 33.6795 202.501 38.4408V38.4348L202.385 39.4268L202.269 38.4348V38.4279C202.28 33.62 202.097 28.8141 202.931 23.9635C203.315 21.5412 204.073 19.1179 205.263 16.773C206.51 14.4508 208.173 12.1813 210.487 10.2441C212.826 8.33855 215.558 6.66218 218.586 5.3806C221.548 4.05141 224.814 3.00293 228.17 2.27882C234.915 0.816707 241.973 0.593522 248.814 0.990295Z" fill="#375E97"/>
<path d="M381.724 147.301C387.855 147.013 393.675 145.57 398.298 143.009C402.928 140.457 406.42 137.003 408.931 133.254C411.488 129.504 413.096 125.43 414.02 121.283C414.906 117.127 415.089 112.878 414.331 108.615C416.25 112.708 416.721 117.131 416.218 121.463C415.715 125.804 414.159 130.11 411.493 134.101C408.789 138.055 404.893 141.758 399.595 144.255C394.353 146.79 387.813 147.848 381.724 147.301Z" fill="#375E97"/>
<path d="M437.368 74.3934C435.257 73.837 433.19 73.217 431.132 72.5971L424.982 70.7421C422.933 70.138 420.875 69.5707 418.809 69.037C416.734 68.5222 414.648 68.048 412.539 67.6413L411.354 67.4132L411.545 66.5413C411.955 64.6774 412.207 62.7769 412.346 60.8625C412.465 58.947 412.567 57.0187 412.581 55.0825L412.733 49.2509C412.824 47.3017 412.926 45.3437 413.266 43.3965C413.945 47.2809 414.602 51.1356 414.936 55.0477C415.069 57.0019 415.193 58.9659 415.091 60.9398C415.004 62.9118 414.806 64.8986 414.28 66.8726L413.286 65.7725C417.695 66.6494 421.893 67.9459 425.869 69.4427C427.866 70.1847 429.801 70.9931 431.713 71.8184C433.626 72.6466 435.51 73.5007 437.368 74.3934Z" fill="#375E97"/>
<path d="M406.66 116.994C406.66 129.82 391.798 140.218 373.467 140.218H248.605C230.274 140.218 215.412 129.82 215.412 116.994V29.6294C215.412 16.8037 230.274 6.40527 248.605 6.40527H373.467C391.798 6.40527 406.66 16.8037 406.66 29.6294V116.994Z" fill="#375E97"/>
<path d="M263.568 111.723C263.568 111.723 278.718 131.271 267.182 162.523C267.182 162.523 290.988 143.799 274.832 106.107L263.568 111.723Z" fill="#375E97"/>
<path d="M402.619 80.6851C402.619 80.6851 434.4 80.6008 468.284 102.503C468.284 102.503 455.98 78.9681 400.88 71.0862L402.619 80.6851Z" fill="#375E97"/>
<path d="M172.657 102.511C172.264 103.984 169.976 104.921 167.548 104.603C165.12 104.285 163.472 102.834 163.864 101.36C164.257 99.8871 166.545 98.9507 168.974 99.2681C171.402 99.5865 173.051 101.038 172.657 102.511Z" fill="#375E97"/>
<path d="M195.325 97.5571C194.684 99.9527 190.215 101.378 185.341 100.741C180.467 100.103 177.036 97.6444 177.677 95.2479C178.318 92.8514 182.788 91.426 187.66 92.0638C192.533 92.7016 195.964 95.1606 195.325 97.5571Z" fill="#375E97"/>
<path d="M226.287 91.4886C225.485 94.4922 219.343 96.2082 212.571 95.3224C205.797 94.4376 200.959 91.2833 201.761 88.2797C202.563 85.2761 208.705 83.5591 215.477 84.4459C222.25 85.3317 227.09 88.485 226.287 91.4886Z" fill="#375E97"/>
<path d="M363.506 162.704C363.506 164.604 365.283 166.142 367.473 166.142C369.663 166.142 371.44 164.603 371.44 162.704C371.44 160.806 369.663 159.267 367.473 159.267C365.283 159.266 363.506 160.806 363.506 162.704Z" fill="#375E97"/>
<path d="M344.9 152.841C344.9 155.928 348.466 158.433 352.864 158.433C357.258 158.433 360.823 155.928 360.823 152.841C360.823 149.752 357.257 147.248 352.864 147.248C348.464 147.248 344.9 149.752 344.9 152.841Z" fill="#375E97"/>
<path d="M319.325 140.239C319.325 144.11 324.277 147.248 330.389 147.248C336.499 147.248 341.453 144.11 341.453 140.239C341.453 136.367 336.499 133.229 330.389 133.229C324.277 133.228 319.325 136.366 319.325 140.239Z" fill="#375E97"/>
<path d="M286.933 78.7234C286.933 77.0391 287.325 75.4669 288.107 74.0067C288.89 72.5476 289.882 71.3265 291.086 70.3435C292.29 69.3615 293.614 68.3577 295.058 67.333C296.503 66.3083 297.865 65.3819 299.151 64.5536C300.434 63.7263 301.588 62.7294 302.612 61.5639C303.635 60.3994 304.306 59.1853 304.628 57.9215C304.347 56.8264 303.644 56.0894 302.522 55.7105C301.398 55.3316 299.934 55.1421 298.129 55.1421C292.712 55.283 287.216 56.1251 281.64 57.6686L278.871 56.0686C278.871 54.3 278.891 51.7249 278.932 48.3414C278.972 44.9589 278.991 42.369 278.991 40.5726C278.991 39.4497 280.656 38.5242 283.986 37.7932C287.316 37.0631 290.706 36.5999 294.157 36.4035C297.607 36.2071 301.017 36.1089 304.388 36.1089C314.82 36.1932 322.684 37.204 327.98 39.1412L330.506 40.0677C333.916 41.5834 336.525 43.2955 338.329 45.2049V46.3833C339.132 47.5062 339.934 49.0368 340.737 50.973C341.539 52.9103 341.98 53.9627 342.062 54.1313C341.701 58.23 340.497 61.2058 338.45 63.0588C336.926 64.379 335.2 65.6209 333.275 66.7855C331.35 67.951 329.613 68.8844 328.069 69.5857C326.524 70.288 325.06 70.9903 323.676 71.6916C322.291 72.3929 321.198 73.1378 320.395 73.9234C319.593 74.709 319.152 75.5799 319.071 76.5342C319.192 76.9548 319.291 77.6223 319.372 78.5339C319.453 79.4465 319.553 80.128 319.674 80.5763C319.674 80.8015 319.592 81.0257 319.433 81.2498C319.273 81.475 319.111 81.5861 318.951 81.5861H309.923C305.188 81.5861 298.086 81.7547 288.619 82.092C287.495 82.092 286.933 80.9691 286.933 78.7234ZM286.573 99.8615V98.7664C286.573 98.0929 286.613 97.587 286.694 97.2507V93.04C286.613 92.7027 286.573 92.1135 286.573 91.2714C286.573 88.24 287.174 86.4148 288.379 85.7969C289.783 85.8256 292.692 85.8881 297.105 85.9863C301.519 86.0845 304.989 86.1331 307.517 86.1331C309.483 86.1897 310.988 86.2323 312.031 86.2601C313.073 86.2879 314.118 86.3514 315.161 86.4496C316.203 86.5488 316.925 86.6539 317.328 86.765C317.727 86.8771 318.11 87.0536 318.47 87.2917C318.832 87.5308 319.042 87.7966 319.102 88.0922C319.162 88.3868 319.193 88.7737 319.193 89.2498V93.4606C319.193 94.0498 319.213 94.9068 319.254 96.0297C319.292 97.1525 319.314 98.0086 319.314 98.5978V101.124C319.193 101.686 318.751 101.966 317.99 101.966C317.829 101.966 317.749 101.91 317.749 101.798C315.5 101.826 308.76 102.051 297.526 102.471H288.499L286.694 100.956C286.694 100.395 286.653 100.03 286.573 99.8615Z" fill="white"/>
</svg>
