<svg width="221" height="110" viewBox="0 0 221 110" fill="none" xmlns="http://www.w3.org/2000/svg">
<g clip-path="url(#clip0_1455_9976)">
<path d="M0.00537109 82.0081C0.00537109 81.7894 0.00537109 81.5707 0.224514 81.352C0.443656 81.1333 0.662799 81.1333 0.881942 81.1333H13.3731C14.6879 81.1333 16.0028 81.352 17.0985 81.7894C18.1942 82.2267 19.2899 82.8828 20.1665 83.7576C21.0431 84.6323 21.7005 85.5071 22.1388 86.8192C22.5771 87.9126 22.7962 89.2248 22.7962 90.3182C22.7962 91.1929 22.5771 92.0677 22.3579 92.9424C22.1388 93.5985 21.9196 94.4733 21.4814 95.1293C21.0431 95.7854 20.6048 96.4414 19.9474 96.8788C19.2899 97.5349 18.6325 97.9723 17.9751 98.4096L22.7962 107.595C22.7962 107.813 23.0154 108.032 23.2345 108.251C23.4536 108.469 23.4536 108.688 23.4536 108.907C23.4536 109.125 23.4536 109.344 23.2345 109.344C23.0154 109.344 23.0154 109.563 22.5771 109.563H16.0028C15.7836 109.563 15.5645 109.563 15.3454 109.344C15.3454 109.344 15.3454 109.125 15.3454 108.907L10.7434 100.159H7.45622V108.907C7.45622 109.344 7.23708 109.563 6.57965 109.563H0.881942C0.662799 109.563 0.443656 109.563 0.224514 109.344C0.00537109 109.344 0.00537109 108.907 0.00537109 108.688V82.0081ZM15.1262 90.5369C15.1262 90.0995 15.1262 89.6621 14.9071 89.4434C14.6879 88.7874 14.4688 88.5687 14.2496 88.35C14.0305 87.9126 13.8114 87.6939 13.3731 87.4752C12.9348 87.2566 12.7156 87.0379 12.2774 87.0379C11.8391 87.0379 11.6199 87.0379 11.1816 87.0379C10.9625 87.0379 10.5242 87.0379 10.0859 87.0379H7.45622V94.0359H10.9625C11.1816 94.0359 11.4008 94.0359 11.6199 94.0359C11.8391 94.0359 12.0582 94.0359 12.2774 94.0359C12.7156 94.0359 13.1539 93.8172 13.3731 93.5985C13.8114 93.3798 14.0305 93.1611 14.2496 92.7238C14.4688 92.5051 14.6879 92.0677 14.9071 91.6303C14.9071 91.1929 15.1262 90.7556 15.1262 90.5369Z" fill="#666865"/>
<path d="M44.7104 106.72C43.8339 107.595 42.519 108.469 40.985 109.125C39.6701 109.781 38.1361 110 36.6021 110C34.849 110 33.0959 109.781 31.5619 109.125C30.0279 108.469 28.713 107.376 27.3982 106.282C26.3024 105.189 25.4259 103.877 24.5493 102.346C23.8919 100.815 23.6727 99.0658 23.6727 97.3163C23.6727 96.2228 23.8919 95.1294 24.111 94.036C24.3302 92.9425 24.7684 91.8491 25.2067 90.9743C25.645 90.0996 26.3024 89.2248 26.9599 88.5688C27.8364 87.694 28.4939 87.038 29.3704 86.6006C30.247 85.9445 31.3427 85.5071 32.4384 85.2884C33.5341 85.0698 34.6299 84.8511 35.7256 84.8511C36.8213 84.8511 37.917 85.0698 38.7936 85.2884C39.8893 85.5071 40.7659 85.9445 41.6424 86.3819C42.519 86.8193 43.3956 87.4753 44.053 88.3501C44.7104 89.0061 45.3679 89.6622 45.8061 90.537C46.2444 91.4117 46.6827 92.2865 47.121 93.1612C47.5593 94.2547 47.5593 95.3481 47.5593 96.2228C47.5593 96.8789 47.5593 97.3163 47.5593 97.7537C47.5593 98.191 47.5593 98.6284 47.3401 98.8471C47.121 99.2845 46.6827 99.2845 46.4636 99.5032C46.0253 99.5032 45.3679 99.7218 44.7104 99.7218H30.6853C30.9044 100.597 31.1236 101.253 31.5619 101.69C31.781 102.127 32.2193 102.565 32.8767 103.002C33.315 103.44 33.9724 103.658 34.6299 103.658C35.0681 103.877 35.5064 103.877 36.1639 103.877C36.6021 103.877 37.0404 103.877 37.6979 103.658C38.1361 103.658 38.5744 103.44 39.0127 103.221C39.451 103.221 39.8893 103.002 40.1084 102.783C40.5467 102.565 40.7659 102.346 40.985 102.127C41.2041 101.909 41.4233 101.909 41.6424 101.69C41.8616 101.471 41.8616 101.471 42.0807 101.471C42.2999 101.471 42.519 101.471 42.519 101.69C42.7381 101.69 42.9573 101.909 43.1764 102.127L45.1487 104.533C45.3679 104.752 45.3679 104.97 45.587 104.97C45.587 105.189 45.587 105.189 45.587 105.408C45.587 105.626 45.587 105.845 45.3679 106.064C45.1487 106.282 44.9296 106.501 44.7104 106.72ZM35.5064 90.537C35.0681 90.537 34.6299 90.537 33.9724 90.7556C33.5341 91.193 33.0959 91.4117 32.8767 91.8491C32.4384 92.0678 32.0002 92.5051 31.781 92.9425C31.3427 93.3799 31.1236 93.8173 30.9044 94.2546H40.7659C40.5467 93.5986 40.1084 93.1612 39.8893 92.7238C39.451 92.2865 39.2319 92.0678 38.7936 91.6304C38.3553 91.4117 37.917 90.9743 37.4787 90.9743C36.8213 90.7556 36.383 90.537 35.5064 90.537Z" fill="#666865"/>
<path d="M74.9521 108.251C74.9521 108.469 74.9521 108.688 74.733 108.907C74.733 108.907 74.5138 109.125 74.2947 109.344C74.2947 109.344 74.0756 109.563 73.8564 109.563C73.6373 109.563 73.4181 109.563 73.4181 109.563H69.4736C69.2544 109.563 69.0353 109.563 68.8161 109.563C68.8161 109.344 68.597 109.344 68.3778 109.125C68.3778 108.907 68.1587 108.907 68.1587 108.688C68.1587 108.469 67.9396 108.251 67.9396 108.032L67.5013 106.72C67.063 106.939 66.6247 107.376 66.4056 107.813C65.9673 108.251 65.529 108.469 64.8716 108.907C64.4333 109.125 63.995 109.563 63.3376 109.781C62.6801 110 62.2418 110 61.5844 110C60.4887 110 59.1739 109.781 58.2973 109.563C56.9824 109.344 56.1059 108.907 55.2293 108.251C54.1336 107.813 53.257 107.157 52.5996 106.282C51.9421 105.626 51.2847 104.752 50.6273 103.877C50.189 103.002 49.7507 101.909 49.3124 100.815C49.0933 99.7219 48.8741 98.6284 48.8741 97.535C48.8741 95.7855 49.3124 94.036 49.9699 92.5051C50.6273 90.7556 51.5039 89.6622 52.5996 88.3501C53.6953 87.2566 55.0101 86.3819 56.5441 85.7258C58.0781 85.0698 59.6121 84.8511 61.3653 84.8511C62.0227 84.8511 62.8993 85.0698 63.5567 85.2884C64.4333 85.2884 64.8716 85.7258 65.529 86.1632C65.9673 86.3819 66.6247 86.8193 67.063 87.4753C67.5013 87.9127 67.9396 88.3501 68.1587 88.7875L68.8161 86.3819C69.0353 86.1632 69.0353 85.7258 69.0353 85.5071C69.0353 85.2884 69.2544 85.0698 69.2544 85.0698C69.2544 85.0698 69.4736 84.8511 69.6927 84.8511C69.9118 84.8511 70.131 84.8511 70.3501 84.8511H73.199C73.4181 84.8511 73.4181 84.8511 73.6373 84.8511C73.8564 84.8511 74.0756 85.0698 74.0756 85.0698C74.5138 85.5071 74.733 85.7258 74.733 85.9445C74.733 86.1632 74.9521 86.3819 74.9521 86.6006V108.251ZM55.8867 97.3163C55.8867 98.191 56.1059 98.8471 56.325 99.7218C56.5441 100.597 56.9824 101.034 57.4207 101.69C57.859 102.127 58.5164 102.565 59.1739 103.002C59.8313 103.44 60.7078 103.44 61.3653 103.44C62.2418 103.44 63.1184 103.221 63.7758 103.002C64.6524 102.565 65.3098 102.127 65.7481 101.69C66.4056 101.034 66.8438 100.597 67.063 99.7218C67.2821 99.0658 67.5013 98.191 67.5013 97.3163C67.5013 96.4415 67.2821 95.7855 67.063 94.9107C66.8438 94.2547 66.4056 93.5986 65.7481 93.1612C65.3098 92.5052 64.6524 92.0678 63.7758 91.8491C63.1184 91.4117 62.2418 91.193 61.3653 91.193C60.4887 91.193 59.8313 91.4117 59.1739 91.6304C58.5164 92.0678 57.859 92.5052 57.4207 93.1612C56.9824 93.5986 56.5441 94.2546 56.325 95.1294C56.1059 95.7855 55.8867 96.6602 55.8867 97.3163Z" fill="#666865"/>
<path d="M77.5819 79.3838C77.5819 78.9465 77.801 78.7278 77.801 78.2904C78.0202 78.0717 78.4584 77.853 78.8966 77.853H83.4982C83.7174 77.853 83.7174 77.853 83.9365 78.0717C84.1556 78.0717 84.1556 78.2904 84.3747 78.2904C84.3747 78.5091 84.5939 78.5091 84.5939 78.7278C84.5939 78.9465 84.813 79.1652 84.813 79.3838V108.032C84.813 108.469 84.5939 108.907 84.3747 109.125C84.1556 109.563 83.7174 109.563 83.2791 109.563H78.8966C78.4584 109.563 78.0202 109.563 77.801 109.125C77.5819 108.907 77.5819 108.469 77.5819 108.032V79.3838Z" fill="#666865"/>
<path d="M89.1964 82.0081C89.1964 81.7894 89.1964 81.5707 89.4155 81.352C89.6347 81.1333 89.8538 81.1333 90.073 81.1333H109.138C109.358 81.1333 109.577 81.1333 109.796 81.352C110.015 81.5707 110.015 81.7894 110.015 82.0081V86.8192C110.015 87.0379 110.015 87.2566 109.796 87.4752C109.796 87.4752 109.577 87.6939 109.138 87.6939H96.6473V92.5051H106.29C106.509 92.5051 106.728 92.5051 106.947 92.7238C107.166 92.7238 107.166 92.9424 107.166 93.3798V97.5349C107.166 97.7536 107.166 97.9723 106.947 98.1909C106.947 97.9723 106.728 97.9723 106.29 97.9723H96.6473V102.783H109.577C110.234 102.783 110.453 103.002 110.453 103.658V108.469C110.453 108.688 110.453 108.688 110.234 108.907C110.234 109.344 110.015 109.563 109.577 109.563H90.073C89.8538 109.563 89.6347 109.563 89.4155 109.344C89.4155 109.344 89.1964 108.907 89.1964 108.688V82.0081Z" fill="#1E87B8"/>
<path d="M116.151 101.909C116.589 102.346 117.028 102.565 117.247 102.783C117.685 103.002 118.123 103.221 118.342 103.44C118.781 103.658 119 103.658 119.219 103.877C119.438 103.877 119.657 103.877 119.876 103.877C120.096 103.877 120.534 103.877 120.753 103.877C121.191 103.877 121.41 103.877 121.849 103.658C122.287 103.658 122.506 103.44 122.725 103.221C122.944 103.002 123.164 102.783 123.164 102.346C123.164 101.909 123.164 101.69 122.944 101.471C122.944 101.253 122.506 101.034 122.287 100.815C122.287 100.815 121.849 100.597 121.63 100.378C121.191 100.378 120.753 100.159 120.315 100.159C118.781 99.5032 117.466 99.0658 116.37 98.6284C115.494 97.9723 114.617 97.3163 113.96 96.6602C113.302 96.0042 112.864 95.1294 112.645 94.4733C112.645 93.5986 112.426 92.7238 112.426 91.8491C112.426 90.7556 112.645 89.8809 113.083 89.0061C113.521 88.1314 114.179 87.4753 114.836 86.8193C115.713 86.1632 116.589 85.7258 117.685 85.2884C118.781 84.8511 120.096 84.8511 121.41 84.8511C122.287 84.8511 122.944 84.8511 123.602 85.0698C124.259 85.0698 124.917 85.2884 125.574 85.5071C126.232 85.7258 126.889 86.1632 127.327 86.6006C128.204 87.038 128.642 87.694 129.3 88.3501C129.519 88.5688 129.738 88.7875 129.738 89.0061C129.738 89.2248 129.519 89.4435 129.3 89.6622C128.861 90.0996 128.204 90.537 127.766 90.7556C127.327 91.193 126.889 91.8491 126.451 92.2865C126.451 92.5051 126.232 92.5051 126.012 92.5051C125.793 92.5051 125.793 92.5051 125.574 92.5051C125.355 92.5051 125.355 92.5051 125.136 92.2865C124.917 92.0678 124.917 92.0678 124.698 91.8491C124.259 91.4117 123.821 90.9743 123.164 90.9743C122.506 90.7556 122.068 90.537 121.63 90.537C120.972 90.537 120.534 90.7556 120.096 90.9743C119.657 91.193 119.438 91.6304 119.657 92.0678C119.657 92.5051 119.876 92.7238 120.096 92.9425C120.096 92.9425 120.534 93.1612 120.753 93.1612C120.972 93.3799 121.41 93.3799 121.849 93.3799C122.287 93.3799 122.506 93.5986 122.725 93.5986C123.821 94.036 124.917 94.4733 126.012 94.692C126.889 95.1294 127.766 95.7855 128.423 96.2228C129.3 97.0976 129.738 97.9723 130.176 98.8471C130.614 99.7218 130.833 100.815 130.833 102.127C130.833 103.44 130.614 104.533 129.957 105.408C129.519 106.282 128.861 107.157 127.766 108.032C126.889 108.688 126.012 109.125 124.698 109.563C123.602 110 122.287 110 120.753 110C119.876 110 119.219 110 118.342 109.781C117.685 109.781 116.808 109.563 115.932 109.125C115.055 108.907 114.398 108.469 113.74 108.032C113.083 107.376 112.426 106.939 111.987 106.282C111.768 106.064 111.768 105.845 111.549 105.626C111.549 105.408 111.549 105.189 111.549 104.97C111.549 104.752 111.549 104.533 111.549 104.533C111.549 104.314 111.768 104.096 111.768 104.096L114.179 101.69C114.617 101.471 114.836 101.471 115.055 101.471C115.494 101.471 115.932 101.69 116.151 101.909Z" fill="#1E87B8"/>
<path d="M134.34 81.3522C134.34 80.9148 134.559 80.6961 134.778 80.4774C134.997 80.2587 135.436 80.04 135.874 79.8213L140.257 78.2905C140.257 78.2905 140.257 78.2905 140.476 78.2905C140.476 78.2905 140.476 78.2905 140.695 78.2905C141.133 78.2905 141.572 78.5092 141.572 78.7279C141.791 78.9466 141.791 79.384 141.791 79.8213V85.9446H145.078C145.516 85.9446 145.735 86.1633 146.174 86.382C146.174 86.6007 146.393 86.8194 146.393 87.4754V91.1931C146.393 91.8492 146.174 92.0679 145.954 92.2865C145.735 92.5052 145.516 92.7239 145.078 92.7239H141.791V108.251C141.791 108.688 141.572 109.126 141.352 109.344C141.133 109.563 140.695 109.563 140.257 109.563H135.874C134.997 109.563 134.34 109.126 134.34 108.032V92.5052H133.025C131.929 92.7239 131.491 92.0679 131.491 90.9744V87.4754C131.491 86.6007 131.929 85.9446 133.025 85.9446H134.34V81.3522Z" fill="#1E87B8"/>
<path d="M172.69 108.251C172.69 108.469 172.69 108.688 172.471 108.907C172.471 109.125 172.251 109.344 172.032 109.344C172.032 109.344 171.813 109.563 171.594 109.563C171.375 109.563 171.375 109.563 171.156 109.563H167.43C167.211 109.563 166.992 109.563 166.773 109.563C166.554 109.344 166.335 109.344 166.335 109.125C166.335 108.907 166.115 108.907 166.115 108.688C166.115 108.469 165.896 108.251 165.896 108.032L165.239 106.72C165.02 106.939 164.581 107.376 164.143 107.813C163.705 108.251 163.267 108.469 162.828 108.907C162.39 109.125 161.733 109.563 161.294 109.781C160.637 110 159.979 110 159.322 110C158.226 110 157.131 109.781 156.035 109.563C154.939 109.344 153.844 108.907 152.967 108.251C152.09 107.813 151.214 107.157 150.556 106.282C149.68 105.626 149.022 104.752 148.584 103.877C147.927 103.002 147.488 101.909 147.269 100.815C147.05 99.7219 146.831 98.6284 146.831 97.3163C146.831 95.5668 147.269 93.8173 147.927 92.2865C148.365 90.7556 149.242 89.6622 150.556 88.3501C151.652 87.2566 152.967 86.3819 154.501 85.7258C156.035 85.0698 157.569 84.8511 159.322 84.8511C160.199 84.8511 160.856 85.0698 161.513 85.2884C162.171 85.2884 162.828 85.7258 163.486 86.1632C163.924 86.3819 164.362 86.8193 164.801 87.4753C165.239 87.9127 165.677 88.3501 165.896 89.0061L166.773 86.6006C166.992 86.3819 166.992 85.9445 166.992 85.7258C166.992 85.5071 167.211 85.2884 167.211 85.2884C167.211 85.2884 167.43 85.0698 167.649 85.0698C167.869 85.0698 168.088 85.0698 168.307 85.0698H171.156C171.375 85.0698 171.375 85.0698 171.594 85.0698C171.813 85.0698 172.032 85.2884 172.032 85.2884C172.251 85.5071 172.251 85.5071 172.471 85.7258C172.471 85.9445 172.69 86.1632 172.69 86.3819V108.251ZM153.844 97.3163C153.844 98.191 153.844 98.8471 154.282 99.7218C154.282 100.597 154.72 101.034 155.378 101.69C155.816 102.346 156.473 102.565 157.131 103.002C157.788 103.44 158.665 103.44 159.322 103.44C160.199 103.44 161.075 103.221 161.733 103.002C162.39 102.783 163.047 102.346 163.705 101.69C164.143 101.034 164.581 100.597 164.801 99.7218C165.02 99.0658 165.239 98.191 165.239 97.3163C165.239 96.4415 165.02 95.7855 164.801 94.9107C164.581 94.2547 164.143 93.5986 163.705 93.1612C163.047 92.5052 162.39 92.0678 161.733 91.8491C160.856 91.4117 160.199 91.193 159.322 91.193C158.445 91.193 157.788 91.4117 157.131 91.6304C156.254 92.0678 155.816 92.5052 155.378 93.1612C154.72 93.5986 154.282 94.2546 154.063 95.1294C153.844 95.7855 153.844 96.6602 153.844 97.3163Z" fill="#1E87B8"/>
<path d="M176.853 81.3522C176.853 80.9148 177.073 80.6961 177.292 80.4774C177.511 80.2587 177.949 80.04 178.387 79.8213L182.77 78.2905H182.989H183.209C183.647 78.2905 184.085 78.5092 184.085 78.7279C184.304 78.9466 184.304 79.384 184.304 79.8213V85.9446H187.591C188.03 85.9446 188.249 86.1633 188.468 86.382C188.687 86.6007 188.906 86.8194 188.906 87.4754V91.1931C188.906 91.8492 188.687 92.0679 188.468 92.2865C188.249 92.5052 188.03 92.7239 187.591 92.7239H184.304V108.251C184.304 108.688 184.085 109.126 183.866 109.344C183.647 109.563 183.209 109.563 182.77 109.563H178.387C177.292 109.563 176.853 109.126 176.853 108.032V92.7239H175.539C174.443 92.7239 174.005 92.2866 174.005 91.1931V87.4754C174.005 86.6007 174.443 85.9446 175.539 85.9446H176.853V81.3522Z" fill="#1E87B8"/>
<path d="M210.382 106.72C209.287 107.595 208.191 108.469 206.657 109.125C205.342 109.781 203.808 110 202.274 110C200.521 110 198.768 109.563 197.234 108.907C195.7 108.469 194.166 107.376 193.07 106.282C191.974 105.189 190.879 103.877 190.221 102.346C189.564 100.815 189.125 99.0658 189.125 97.3163C189.125 96.2228 189.125 95.1294 189.564 94.036C189.783 92.9425 190.221 91.8491 190.659 90.9743C191.098 90.0996 191.755 89.2248 192.632 88.3501C193.289 87.694 194.166 87.038 195.042 86.6006C195.919 85.9445 197.015 85.5071 198.11 85.2884C199.206 85.0698 200.302 84.8511 201.397 84.8511C202.493 84.8511 203.589 85.0698 204.465 85.2884C205.561 85.5071 206.438 85.9445 207.314 86.3819C208.191 86.8193 208.848 87.4753 209.725 88.3501C210.382 89.0061 211.04 89.6622 211.697 90.537C212.135 91.4117 212.574 92.2865 212.793 93.3799C213.012 94.2547 213.231 95.3481 213.231 96.2228C213.231 96.8789 213.231 97.3163 213.231 97.7537C213.231 98.191 213.231 98.6284 213.012 98.8471C212.793 99.2845 212.355 99.2845 211.916 99.5032C211.478 99.5032 211.04 99.7218 210.163 99.7218H196.357C196.576 100.597 196.795 101.253 197.234 101.69C197.672 102.346 198.11 102.565 198.549 103.002C198.987 103.221 199.425 103.44 200.083 103.658C200.74 103.877 201.178 103.877 201.617 103.877C202.055 103.877 202.493 103.877 202.931 103.658C203.37 103.658 203.808 103.44 204.465 103.221C204.904 103.221 205.342 103.002 205.78 102.783C206.219 102.565 206.438 102.346 206.657 102.127C206.876 101.909 207.095 101.909 207.095 101.69C207.314 101.471 207.314 101.471 207.533 101.471C207.753 101.471 207.753 101.471 207.972 101.69C208.191 101.69 208.41 101.909 208.629 102.127L210.601 104.533C211.04 104.752 211.04 104.97 211.04 104.97C211.04 105.189 211.04 105.189 211.04 105.408C211.04 105.626 211.04 105.845 210.821 106.064C210.821 106.282 210.601 106.501 210.382 106.72ZM201.178 90.537C200.74 90.537 200.083 90.537 199.644 90.7556C199.206 91.193 198.768 91.4117 198.549 91.8491C198.11 92.0678 197.672 92.5051 197.234 92.9425C197.015 93.3799 196.795 93.8173 196.576 94.2546H206.438C205.999 93.5986 205.78 93.1612 205.561 92.7238C205.123 92.2865 204.904 92.0678 204.465 91.6304C204.027 91.4117 203.589 90.9743 202.931 90.9743C202.493 90.7556 201.836 90.537 201.178 90.537Z" fill="#1E87B8"/>
<path d="M77.362 46.1431H70.3501V52.9224H77.362V46.1431Z" fill="#676766"/>
<path d="M86.3469 46.1431H79.1158V52.9224H86.3469V46.1431Z" fill="#676766"/>
<path d="M77.362 54.0161H70.3501V61.0141H77.362V54.0161Z" fill="#676766"/>
<path d="M86.3469 54.0161H79.1158V61.0141H86.3469V54.0161Z" fill="#676766"/>
<path fill-rule="evenodd" clip-rule="evenodd" d="M195.919 61.2328L161.952 30.1791L127.985 61.2328H116.151L161.952 19.4634L207.533 61.2328H195.919Z" fill="#1E87B8"/>
<path d="M161.294 43.3003H154.282V50.2983H161.294V43.3003Z" fill="#676766"/>
<path d="M170.059 43.3003H163.047V50.2983H170.059V43.3003Z" fill="#676766"/>
<path fill-rule="evenodd" clip-rule="evenodd" d="M154.282 51.3916H161.294V52.485C159.102 52.7037 156.692 53.1411 154.282 53.3598V51.3916Z" fill="#676766"/>
<path fill-rule="evenodd" clip-rule="evenodd" d="M163.047 51.3916H170.059V51.6103C167.868 51.6103 165.458 51.829 163.047 52.0477V51.3916Z" fill="#676766"/>
<path fill-rule="evenodd" clip-rule="evenodd" d="M157.35 33.2406L147.05 33.6779L121.629 10.7157L95.3323 34.9901L84.8135 33.8966L121.629 0L157.35 33.2406Z" fill="#1E87B8"/>
<path d="M121.191 24.0557H114.179V31.0537H121.191V24.0557Z" fill="#676766"/>
<path d="M129.956 24.0557H122.725V31.0537H129.956V24.0557Z" fill="#676766"/>
<path d="M121.191 31.9282H114.179V38.9262H121.191V31.9282Z" fill="#676766"/>
<path d="M129.956 31.9282H122.725V38.9262H129.956V31.9282Z" fill="#676766"/>
<path d="M216.299 73.0417C219.805 81.3519 220.244 94.0358 220.025 98.1908C220.025 92.7236 217.614 80.4771 208.848 72.823C168.526 37.1769 55.2293 89.2246 30.9044 81.5705C10.305 75.2286 69.9118 27.1173 78.8967 18.8071L125.793 61.2326C163.047 50.7356 203.589 43.9562 216.299 73.0417ZM116.37 64.0755L78.8967 29.5228L45.8061 59.9204C24.3302 82.0079 101.468 68.4493 116.37 64.0755Z" fill="#1E87B8"/>
</g>
<defs>
<clipPath id="clip0_1455_9976">
<rect width="220.019" height="110" fill="white" transform="translate(0.00537109)"/>
</clipPath>
</defs>
</svg>
