<svg width="221" height="110" viewBox="0 0 221 110" fill="none" xmlns="http://www.w3.org/2000/svg">
<g clip-path="url(#clip0_1455_9840)">
<path d="M93.6713 25.4486L108.978 10.7975L124.293 25.4486H135.574L108.978 0L82.3904 25.4486H93.6713Z" fill="#EF4A23"/>
<path d="M125.548 30.7227V45.5777H92.0923V30.7227H84.1191V53.2093H133.521V30.7227H125.548Z" fill="#EF4A23"/>
<path d="M97.0887 11.4702H89.0374V19.744H97.0887V11.4702Z" fill="#EF4A23"/>
<path d="M20.4999 69.5303V91.896H15.045V82.4359H5.55621V91.896H0.101318V69.5303H5.55621V78.877H15.0529V69.5303H20.4999Z" fill="#EF4A23"/>
<path d="M47.9638 80.713C47.9638 82.33 47.6718 83.8336 47.0876 85.2239C46.5034 86.6142 45.6824 87.8232 44.6246 88.8583C43.5668 89.886 42.2879 90.6944 40.7959 91.2763C39.3039 91.8581 37.6461 92.1527 35.8305 92.1527C34.0148 92.1527 32.357 91.8581 30.8571 91.2763C29.3572 90.6944 28.0784 89.886 27.0126 88.8583C25.9469 87.8307 25.1259 86.6218 24.5418 85.2239C23.9576 83.8336 23.6655 82.33 23.6655 80.713C23.6655 79.096 23.9576 77.5924 24.5418 76.2021C25.1259 74.8118 25.9469 73.6028 27.0126 72.5827C28.0784 71.5627 29.3572 70.7542 30.8571 70.1724C32.357 69.5906 34.0148 69.2959 35.8305 69.2959C37.6461 69.2959 39.3039 69.5906 40.7959 70.1799C42.2879 70.7693 43.5589 71.5778 44.6246 72.5979C45.6824 73.6179 46.5034 74.8269 47.0876 76.2172C47.6718 77.5999 47.9638 79.1036 47.9638 80.713ZM42.4142 80.713C42.4142 79.6098 42.2642 78.6124 41.9643 77.7284C41.6643 76.8443 41.238 76.0963 40.6696 75.4767C40.1091 74.8647 39.4223 74.3886 38.6092 74.0637C37.7961 73.7388 36.8725 73.5726 35.8384 73.5726C34.7884 73.5726 33.8569 73.7388 33.0359 74.0637C32.2149 74.3886 31.5281 74.8647 30.9676 75.4767C30.4071 76.0887 29.973 76.8443 29.673 77.7284C29.373 78.6124 29.223 79.6098 29.223 80.713C29.223 81.8313 29.373 82.8287 29.673 83.7127C29.973 84.5968 30.3992 85.3448 30.9676 85.9644C31.5281 86.5764 32.2149 87.0449 33.0359 87.3698C33.8569 87.6947 34.7884 87.8534 35.8384 87.8534C36.8725 87.8534 37.804 87.6947 38.6092 87.3698C39.4223 87.0449 40.1091 86.5764 40.6696 85.9644C41.2301 85.3524 41.6643 84.6043 41.9643 83.7127C42.2642 82.8287 42.4142 81.8237 42.4142 80.713Z" fill="#EF4A23"/>
<path d="M60.9024 87.8006C61.6287 87.8006 62.276 87.6873 62.8523 87.4531C63.4207 87.2264 63.9101 86.8939 64.3048 86.4632C64.6996 86.0325 64.9995 85.5112 65.2127 84.8916C65.4179 84.272 65.5284 83.5693 65.5284 82.7835V69.5303H70.9518V82.7759C70.9518 84.1511 70.7228 85.4054 70.2571 86.5539C69.7913 87.7024 69.1282 88.6847 68.2598 89.5159C67.3915 90.347 66.3415 90.9893 65.1022 91.4502C63.8628 91.9111 62.4655 92.1378 60.9182 92.1378C59.3552 92.1378 57.9579 91.9111 56.7185 91.4502C55.4791 90.9893 54.4213 90.347 53.5608 89.5159C52.6925 88.6847 52.0294 87.7024 51.5715 86.5539C51.1136 85.4054 50.8847 84.1511 50.8847 82.7759V69.5303H56.308V82.7608C56.308 83.5466 56.4106 84.2493 56.6238 84.8689C56.829 85.4885 57.1369 86.0174 57.5316 86.4481C57.9263 86.8864 58.4079 87.2188 58.9841 87.4455C59.5288 87.6873 60.1762 87.8006 60.9024 87.8006Z" fill="#EF4A23"/>
<path d="M88.0901 74.0786C87.9322 74.328 87.7585 74.5093 87.5848 74.6302C87.4112 74.7511 87.1822 74.8115 86.9059 74.8115C86.6612 74.8115 86.3928 74.736 86.1086 74.5924C85.8244 74.4413 85.5008 74.2751 85.1455 74.0937C84.7903 73.9124 84.3798 73.7461 83.9219 73.595C83.4641 73.4439 82.9352 73.3759 82.351 73.3759C81.3326 73.3759 80.5748 73.5799 80.0774 73.9955C79.5801 74.4111 79.3354 74.9702 79.3354 75.6805C79.3354 76.1338 79.4854 76.5041 79.7854 76.7988C80.0853 77.0934 80.4801 77.3503 80.9616 77.5695C81.451 77.781 82.0036 77.985 82.6273 78.1588C83.2509 78.3402 83.8903 78.5366 84.5456 78.7558C85.2008 78.9749 85.8402 79.2318 86.4639 79.534C87.0875 79.8287 87.648 80.2065 88.1295 80.6674C88.619 81.1283 89.0058 81.6875 89.3058 82.3449C89.6057 83.0022 89.7557 83.8032 89.7557 84.7325C89.7557 85.7677 89.5663 86.7349 89.1953 87.634C88.8242 88.5332 88.2795 89.319 87.569 89.9915C86.8586 90.664 85.9823 91.1854 84.9403 91.5707C83.8982 91.9561 82.7141 92.145 81.3879 92.145C80.6616 92.145 79.9196 92.0694 79.1696 91.9334C78.4197 91.7898 77.6855 91.5858 76.9829 91.3289C76.2803 91.0645 75.6172 90.7622 74.9936 90.3995C74.3699 90.0444 73.8331 89.6439 73.3753 89.2057L74.9778 86.7802C75.1041 86.6064 75.2778 86.4629 75.483 86.342C75.6883 86.2211 75.9172 86.1682 76.1619 86.1682C76.4856 86.1682 76.8093 86.2664 77.1329 86.4629C77.4566 86.6593 77.8276 86.8709 78.2381 87.1051C78.6486 87.3394 79.1223 87.5585 79.6591 87.7474C80.1959 87.9438 80.8274 88.0421 81.5537 88.0421C82.5404 88.0421 83.2983 87.838 83.8509 87.4225C84.3956 87.0069 84.6719 86.3495 84.6719 85.4504C84.6719 84.929 84.5219 84.5059 84.2219 84.1734C83.9219 83.8485 83.5272 83.5765 83.0457 83.3574C82.5562 83.1458 82.0036 82.9493 81.3879 82.7907C80.7642 82.6244 80.1327 82.4431 79.4775 82.2466C78.8223 82.0502 78.1907 81.8008 77.5671 81.5061C76.9435 81.2115 76.3909 80.8337 75.9093 80.3576C75.4199 79.8816 75.0331 79.2847 74.7331 78.5744C74.4331 77.8641 74.2831 76.9877 74.2831 75.9449C74.2831 75.1062 74.4568 74.2902 74.812 73.4892C75.1673 72.6883 75.6804 71.978 76.3672 71.3585C77.054 70.7313 77.8908 70.2326 78.8854 69.8624C79.8801 69.4921 81.0169 69.3032 82.3036 69.3032C83.022 69.3032 83.7167 69.3561 84.3956 69.4619C85.0745 69.5677 85.7218 69.7264 86.3297 69.9379C86.9375 70.1495 87.5059 70.3988 88.0348 70.6935C88.5637 70.9882 89.0374 71.3131 89.4558 71.6834L88.0901 74.0786Z" fill="#EF4A23"/>
<path d="M98.4078 73.5272V78.7483H105.757V82.5868H98.4078V87.9137H107.999V91.9033H92.9529V69.5376H107.999V73.5272H98.4078Z" fill="#EF4A23"/>
<path d="M124.245 74.0786C124.088 74.328 123.914 74.5093 123.74 74.6302C123.567 74.7511 123.338 74.8115 123.061 74.8115C122.817 74.8115 122.548 74.736 122.264 74.5924C121.98 74.4413 121.656 74.2751 121.301 74.0937C120.946 73.9124 120.535 73.7461 120.077 73.595C119.619 73.4439 119.091 73.3759 118.506 73.3759C117.488 73.3759 116.73 73.5799 116.233 73.9955C115.736 74.4111 115.491 74.9702 115.491 75.6805C115.491 76.1338 115.641 76.5041 115.941 76.7988C116.241 77.0934 116.635 77.3503 117.117 77.5695C117.606 77.781 118.159 77.985 118.783 78.1588C119.406 78.3402 120.046 78.5366 120.701 78.7558C121.356 78.9749 121.996 79.2318 122.619 79.534C123.243 79.8287 123.803 80.2065 124.285 80.6674C124.774 81.1283 125.161 81.6875 125.461 82.3449C125.761 83.0022 125.911 83.8032 125.911 84.7325C125.911 85.7677 125.722 86.7349 125.351 87.634C124.98 88.5332 124.435 89.319 123.724 89.9915C123.014 90.664 122.138 91.1854 121.096 91.5707C120.054 91.9561 118.87 92.145 117.543 92.145C116.817 92.145 116.075 92.0694 115.325 91.9334C114.575 91.7898 113.841 91.5858 113.138 91.3289C112.436 91.0645 111.773 90.7622 111.149 90.3995C110.525 90.0444 109.989 89.6439 109.531 89.2057L111.133 86.7802C111.26 86.6064 111.433 86.4629 111.638 86.342C111.844 86.2211 112.073 86.1682 112.317 86.1682C112.641 86.1682 112.965 86.2664 113.288 86.4629C113.612 86.6593 113.983 86.8709 114.394 87.1051C114.804 87.3394 115.278 87.5585 115.814 87.7474C116.351 87.9438 116.983 88.0421 117.709 88.0421C118.696 88.0421 119.454 87.838 120.006 87.4225C120.551 87.0069 120.827 86.3495 120.827 85.4504C120.827 84.929 120.677 84.5059 120.377 84.1734C120.077 83.8485 119.683 83.5765 119.201 83.3574C118.712 83.1458 118.159 82.9493 117.543 82.7907C116.92 82.6244 116.288 82.4431 115.633 82.2466C114.978 82.0502 114.346 81.8008 113.723 81.5061C113.099 81.2115 112.546 80.8337 112.065 80.3576C111.575 79.8816 111.188 79.2847 110.889 78.5744C110.589 77.8641 110.439 76.9877 110.439 75.9449C110.439 75.1062 110.612 74.2902 110.967 73.4892C111.323 72.6883 111.836 71.978 112.523 71.3585C113.209 70.7313 114.046 70.2326 115.041 69.8624C116.036 69.4921 117.172 69.3032 118.459 69.3032C119.177 69.3032 119.872 69.3561 120.551 69.4619C121.23 69.5677 121.877 69.7264 122.485 69.9379C123.093 70.1495 123.661 70.3988 124.19 70.6935C124.719 70.9882 125.193 71.3131 125.611 71.6834L124.245 74.0786Z" fill="#666666"/>
<path d="M155.372 69.5303V91.896H150.596V79.0357C150.596 78.741 150.604 78.4161 150.62 78.0685C150.636 77.721 150.667 77.3658 150.707 77.0107L144.502 88.5109C144.313 88.866 144.052 89.1381 143.72 89.327C143.397 89.5083 143.026 89.6065 142.607 89.6065H141.873C141.455 89.6065 141.084 89.5159 140.76 89.327C140.437 89.1456 140.176 88.8736 139.979 88.5109L133.774 76.9805C133.805 77.3507 133.829 77.7058 133.853 78.061C133.876 78.4161 133.884 78.741 133.884 79.0357V91.9035H129.108V69.5378H133.245C133.482 69.5378 133.687 69.5454 133.861 69.5529C134.034 69.5605 134.192 69.5907 134.334 69.6436C134.476 69.6965 134.603 69.7721 134.713 69.8779C134.824 69.9836 134.934 70.1348 135.045 70.3312L141.06 81.6727C141.273 82.0656 141.479 82.4661 141.676 82.8893C141.873 83.3124 142.063 83.7355 142.244 84.1813C142.426 83.728 142.615 83.2897 142.813 82.859C143.01 82.4283 143.223 82.0203 143.444 81.635L149.444 70.3388C149.554 70.1423 149.657 69.9912 149.775 69.8854C149.886 69.7796 150.012 69.6965 150.154 69.6512C150.296 69.5983 150.454 69.5681 150.628 69.5605C150.802 69.5529 151.007 69.5454 151.244 69.5454H155.372V69.5303Z" fill="#666666"/>
<path d="M180.863 91.9033H176.663C176.189 91.9033 175.81 91.7975 175.526 91.586C175.234 91.3744 175.021 91.1099 174.871 90.7775L173.49 86.8786H164.601L163.219 90.7775C163.101 91.0646 162.888 91.3215 162.588 91.5557C162.28 91.7824 161.909 91.9033 161.459 91.9033H157.227L166.274 69.5376H171.824L180.863 91.9033ZM172.25 83.3499L170.087 77.222C169.929 76.8367 169.756 76.3758 169.574 75.8468C169.392 75.3179 169.211 74.7512 169.029 74.1316C168.871 74.7588 168.698 75.333 168.516 75.8695C168.335 76.3984 168.161 76.8593 168.003 77.2523L165.856 83.3499H172.25Z" fill="#666666"/>
<path d="M201.822 91.9036H196.912C196.004 91.9036 195.349 91.5787 194.954 90.9213L191.07 84.4307C190.888 84.1511 190.683 83.9547 190.462 83.8262C190.241 83.6978 189.917 83.6373 189.499 83.6373H188.117V91.9111H182.694V69.5454H190.296C191.986 69.5454 193.43 69.7116 194.622 70.0441C195.814 70.3766 196.785 70.8375 197.543 71.4344C198.293 72.0313 198.846 72.7265 199.185 73.535C199.525 74.3435 199.698 75.22 199.698 76.172C199.698 76.8974 199.596 77.585 199.39 78.2272C199.185 78.8695 198.885 79.4664 198.49 80.018C198.096 80.562 197.606 81.0532 197.022 81.4839C196.438 81.9145 195.767 82.2697 195.009 82.5417C195.364 82.7155 195.696 82.9346 196.004 83.1915C196.312 83.456 196.588 83.7658 196.841 84.1209L201.822 91.9036ZM190.304 80.0482C191.046 80.0482 191.67 79.9576 192.191 79.7762C192.712 79.5949 193.138 79.3455 193.47 79.0282C193.801 78.7108 194.038 78.3406 194.188 77.9174C194.338 77.4943 194.409 77.0334 194.409 76.5423C194.409 75.56 194.078 74.7893 193.407 74.2377C192.736 73.6861 191.701 73.4065 190.304 73.4065H188.125V80.0407H190.304V80.0482Z" fill="#666666"/>
<path d="M220.121 73.6481H213.545V91.9033H208.121V73.6481H201.546V69.5376H220.121V73.6481Z" fill="#666666"/>
<path d="M42.5086 103.698C42.477 103.751 42.4375 103.789 42.4059 103.811C42.3665 103.834 42.3191 103.849 42.2718 103.849C42.2086 103.849 42.1376 103.819 42.0586 103.759C41.9797 103.698 41.8692 103.638 41.7508 103.562C41.6245 103.494 41.4745 103.426 41.3009 103.366C41.1272 103.305 40.9141 103.275 40.6694 103.275C40.4326 103.275 40.2273 103.305 40.0537 103.366C39.88 103.426 39.7301 103.509 39.6038 103.607C39.4854 103.713 39.3906 103.834 39.3354 103.97C39.2722 104.106 39.2407 104.257 39.2407 104.424C39.2407 104.628 39.2959 104.801 39.3985 104.937C39.5011 105.073 39.6432 105.187 39.8169 105.285C39.9905 105.383 40.1879 105.466 40.4089 105.534C40.6299 105.602 40.8588 105.678 41.0877 105.753C41.3166 105.829 41.5456 105.912 41.7666 106.01C41.9876 106.101 42.1849 106.222 42.3586 106.365C42.5322 106.509 42.6743 106.683 42.7769 106.894C42.8796 107.106 42.9348 107.363 42.9348 107.665C42.9348 107.99 42.8796 108.292 42.7612 108.572C42.6428 108.859 42.477 109.101 42.256 109.312C42.035 109.524 41.7666 109.69 41.4429 109.803C41.1193 109.924 40.7562 109.985 40.3457 109.985C39.8406 109.985 39.3906 109.902 38.9802 109.728C38.5697 109.554 38.2224 109.32 37.9303 109.025L38.2303 108.549C38.2619 108.511 38.2934 108.481 38.3329 108.451C38.3724 108.428 38.4197 108.413 38.4671 108.413C38.5144 108.413 38.5697 108.428 38.625 108.466C38.6802 108.504 38.7513 108.549 38.8302 108.602C38.9091 108.655 38.9881 108.715 39.0907 108.783C39.1854 108.851 39.2959 108.912 39.4222 108.965C39.5485 109.018 39.6827 109.063 39.8406 109.101C39.9984 109.138 40.1721 109.154 40.3694 109.154C40.6141 109.154 40.8351 109.123 41.0325 109.055C41.2298 108.987 41.3877 108.897 41.5219 108.783C41.6561 108.662 41.7587 108.526 41.8297 108.36C41.9008 108.194 41.9402 108.013 41.9402 107.809C41.9402 107.589 41.885 107.401 41.7824 107.257C41.6797 107.113 41.5377 106.993 41.364 106.902C41.1903 106.804 40.993 106.728 40.772 106.66C40.551 106.592 40.3221 106.524 40.0932 106.456C39.8642 106.388 39.6353 106.305 39.4143 106.214C39.1933 106.124 38.996 106.003 38.8223 105.852C38.6486 105.7 38.5144 105.519 38.4039 105.3C38.3013 105.081 38.2461 104.809 38.2461 104.476C38.2461 104.212 38.3013 103.963 38.4039 103.721C38.5066 103.479 38.6644 103.26 38.8697 103.071C39.0749 102.882 39.3196 102.731 39.6195 102.618C39.9116 102.504 40.2589 102.444 40.6378 102.444C41.0641 102.444 41.4587 102.512 41.8139 102.64C42.1691 102.769 42.477 102.958 42.7454 103.207L42.5086 103.698Z" fill="#666666"/>
<path d="M52.0603 106.229C52.0603 106.781 51.9656 107.287 51.784 107.748C51.6025 108.209 51.342 108.61 51.0104 108.942C50.6789 109.274 50.2764 109.531 49.8106 109.72C49.3449 109.902 48.8239 109.992 48.2556 109.992C47.6873 109.992 47.1742 109.902 46.7085 109.72C46.2428 109.539 45.8402 109.282 45.5087 108.942C45.1771 108.61 44.9167 108.209 44.7351 107.748C44.5536 107.287 44.4588 106.781 44.4588 106.229C44.4588 105.678 44.5536 105.172 44.7351 104.711C44.9167 104.25 45.1771 103.849 45.5087 103.517C45.8402 103.184 46.2428 102.92 46.7085 102.739C47.1742 102.55 47.6873 102.459 48.2556 102.459C48.8239 102.459 49.337 102.55 49.8106 102.739C50.2764 102.927 50.6789 103.184 51.0104 103.517C51.342 103.849 51.6025 104.25 51.784 104.711C51.9735 105.172 52.0603 105.678 52.0603 106.229ZM50.9947 106.229C50.9947 105.776 50.9315 105.368 50.7973 105.013C50.671 104.65 50.4816 104.348 50.2527 104.099C50.0159 103.849 49.7317 103.66 49.3923 103.524C49.0529 103.388 48.6819 103.32 48.2635 103.32C47.853 103.32 47.4742 103.388 47.1426 103.524C46.8032 103.66 46.519 103.849 46.2822 104.099C46.0454 104.348 45.856 104.65 45.7297 105.013C45.6034 105.376 45.5323 105.784 45.5323 106.229C45.5323 106.683 45.5955 107.091 45.7297 107.446C45.856 107.801 46.0454 108.111 46.2822 108.36C46.519 108.61 46.8111 108.798 47.1426 108.934C47.482 109.063 47.853 109.131 48.2635 109.131C48.6819 109.131 49.0529 109.063 49.3923 108.934C49.7317 108.806 50.0159 108.61 50.2527 108.36C50.4895 108.111 50.671 107.809 50.7973 107.446C50.9236 107.091 50.9947 106.683 50.9947 106.229Z" fill="#666666"/>
<path d="M55.1317 103.358V105.935H58.297V106.751H55.1317V109.924H54.0898V102.55H58.8416V103.366H55.1317V103.358Z" fill="#666666"/>
<path d="M65.9226 103.381H63.4283V109.917H62.3863V103.381H59.8841V102.542H65.9147V103.381H65.9226Z" fill="#666666"/>
<path d="M77.5819 102.542L75.1744 109.917H74.2351L72.2854 104.287C72.2696 104.235 72.2538 104.174 72.238 104.114C72.2222 104.053 72.2065 103.985 72.1907 103.917C72.1749 103.985 72.1512 104.053 72.1354 104.114C72.1196 104.174 72.096 104.235 72.0802 104.287L70.1147 109.917H69.1754L66.7757 102.542H67.644C67.7387 102.542 67.8177 102.565 67.8808 102.61C67.944 102.655 67.9834 102.708 67.9992 102.776L69.5937 107.907C69.6174 107.997 69.6411 108.096 69.6648 108.209C69.6884 108.315 69.7121 108.428 69.7358 108.549C69.7595 108.428 69.7832 108.315 69.8147 108.209C69.8384 108.103 69.87 108.005 69.9016 107.914L71.7171 102.784C71.7407 102.723 71.7802 102.67 71.8434 102.625C71.9065 102.572 71.9854 102.55 72.0723 102.55H72.3722C72.4669 102.55 72.538 102.572 72.6011 102.618C72.6564 102.663 72.7038 102.716 72.7274 102.784L74.535 107.914C74.5666 108.005 74.5982 108.103 74.6219 108.201C74.6456 108.307 74.6771 108.413 74.7008 108.526C74.7166 108.413 74.7403 108.307 74.764 108.201C74.7876 108.096 74.8113 108.005 74.835 107.914L76.4295 102.784C76.4453 102.723 76.4847 102.67 76.5479 102.618C76.611 102.572 76.69 102.542 76.7768 102.542H77.5819Z" fill="#666666"/>
<path d="M85.0739 109.917H84.2687C84.174 109.917 84.103 109.894 84.0398 109.849C83.9846 109.803 83.9372 109.75 83.9135 109.675L83.1952 107.892H79.7378L79.0195 109.675C78.9959 109.735 78.9564 109.788 78.8932 109.841C78.8301 109.886 78.759 109.917 78.6643 109.917H77.8592L80.9377 102.542H81.9875L85.0739 109.917ZM82.9031 107.181L81.6954 104.182C81.656 104.091 81.6244 103.985 81.5849 103.872C81.5455 103.751 81.506 103.63 81.4744 103.494C81.3955 103.774 81.3244 104 81.2455 104.189L80.0378 107.181H82.9031Z" fill="#666666"/>
<path d="M92.3288 109.917H91.4052C91.2158 109.917 91.0737 109.849 90.9869 109.705L88.9898 107.068C88.9267 106.985 88.8635 106.924 88.7925 106.894C88.7214 106.856 88.6109 106.841 88.4688 106.841H87.6795V109.917H86.6375V102.542H88.8161C89.3055 102.542 89.7239 102.587 90.0791 102.686C90.4343 102.776 90.7264 102.92 90.9553 103.094C91.1842 103.275 91.3579 103.486 91.4684 103.743C91.5789 103.993 91.6341 104.28 91.6341 104.59C91.6341 104.854 91.5947 105.096 91.5078 105.323C91.421 105.549 91.2947 105.753 91.1368 105.935C90.9711 106.116 90.7737 106.267 90.5369 106.396C90.3001 106.524 90.0396 106.622 89.7397 106.683C89.8739 106.758 89.9844 106.856 90.087 107L92.3288 109.917ZM88.7688 106.116C89.0687 106.116 89.3371 106.078 89.566 106.01C89.7949 105.942 89.9923 105.836 90.1502 105.708C90.308 105.579 90.4264 105.428 90.5054 105.247C90.5843 105.066 90.6238 104.869 90.6238 104.658C90.6238 104.219 90.4738 103.887 90.1738 103.668C89.8739 103.449 89.4239 103.335 88.8161 103.335H87.6795V106.124H88.7688V106.116Z" fill="#666666"/>
<path d="M98.66 109.108L98.6521 109.924H93.9002V102.55H98.6521V103.366H94.95V105.814H97.9496V106.6H94.95V109.116H98.66V109.108Z" fill="#666666"/>
<path d="M108.836 103.381H106.341V109.917H105.299V103.381H102.797V102.542H108.828V103.381H108.836Z" fill="#666666"/>
<path d="M115.269 109.108L115.262 109.924H110.51V102.55H115.262V103.366H111.559V105.814H114.559V106.6H111.559V109.116H115.269V109.108Z" fill="#666666"/>
<path d="M122.508 108.398C122.564 108.398 122.619 108.421 122.658 108.466L123.069 108.897C122.753 109.244 122.374 109.516 121.924 109.713C121.474 109.909 120.93 110.007 120.29 110.007C119.738 110.007 119.24 109.917 118.783 109.735C118.333 109.554 117.946 109.297 117.63 108.965C117.314 108.632 117.062 108.239 116.888 107.771C116.714 107.31 116.628 106.796 116.628 106.245C116.628 105.685 116.722 105.179 116.904 104.718C117.085 104.257 117.346 103.857 117.677 103.524C118.009 103.192 118.404 102.935 118.869 102.746C119.335 102.565 119.84 102.474 120.401 102.474C120.953 102.474 121.435 102.557 121.853 102.723C122.271 102.89 122.642 103.116 122.958 103.411L122.611 103.872C122.587 103.91 122.564 103.932 122.524 103.955C122.493 103.978 122.445 103.985 122.39 103.985C122.327 103.985 122.248 103.955 122.153 103.887C122.058 103.819 121.94 103.744 121.79 103.66C121.64 103.577 121.451 103.502 121.222 103.434C120.993 103.366 120.716 103.336 120.385 103.336C119.99 103.336 119.619 103.404 119.296 103.532C118.964 103.66 118.68 103.857 118.443 104.106C118.206 104.356 118.017 104.665 117.883 105.02C117.748 105.383 117.685 105.791 117.685 106.237C117.685 106.698 117.756 107.106 117.891 107.469C118.025 107.831 118.214 108.134 118.459 108.383C118.696 108.632 118.98 108.821 119.304 108.95C119.627 109.078 119.974 109.146 120.353 109.146C120.582 109.146 120.787 109.131 120.977 109.108C121.158 109.086 121.332 109.04 121.49 108.987C121.648 108.934 121.79 108.866 121.924 108.776C122.058 108.693 122.193 108.594 122.327 108.474C122.39 108.421 122.453 108.398 122.508 108.398Z" fill="#666666"/>
<path d="M131.066 102.542V109.917H130.024V106.562H125.864V109.917H124.822V102.542H125.864V105.829H130.024V102.542H131.066Z" fill="#666666"/>
<path d="M139.82 102.542V109.917H139.299C139.22 109.917 139.149 109.902 139.094 109.879C139.039 109.849 138.984 109.803 138.928 109.743L134.468 104.182C134.476 104.265 134.484 104.348 134.484 104.431C134.484 104.514 134.492 104.59 134.492 104.665V109.924H133.576V102.55H134.113C134.161 102.55 134.2 102.55 134.232 102.557C134.263 102.565 134.295 102.572 134.318 102.58C134.342 102.595 134.366 102.61 134.397 102.633C134.421 102.655 134.453 102.686 134.476 102.716L138.936 108.269C138.928 108.179 138.92 108.096 138.92 108.013C138.912 107.929 138.912 107.846 138.912 107.771V102.542H139.82Z" fill="#666666"/>
<path d="M149.443 106.229C149.443 106.781 149.348 107.287 149.167 107.748C148.985 108.209 148.725 108.61 148.393 108.942C148.062 109.274 147.659 109.531 147.193 109.72C146.728 109.902 146.207 109.992 145.638 109.992C145.07 109.992 144.557 109.902 144.091 109.72C143.626 109.539 143.223 109.282 142.892 108.942C142.56 108.61 142.299 108.209 142.118 107.748C141.936 107.287 141.842 106.781 141.842 106.229C141.842 105.678 141.936 105.172 142.118 104.711C142.299 104.25 142.56 103.849 142.892 103.517C143.223 103.184 143.626 102.92 144.091 102.739C144.557 102.55 145.07 102.459 145.638 102.459C146.207 102.459 146.72 102.55 147.193 102.739C147.659 102.927 148.062 103.184 148.393 103.517C148.725 103.849 148.985 104.25 149.167 104.711C149.356 105.172 149.443 105.678 149.443 106.229ZM148.377 106.229C148.377 105.776 148.314 105.368 148.18 105.013C148.054 104.65 147.864 104.348 147.636 104.099C147.399 103.849 147.115 103.66 146.775 103.524C146.436 103.388 146.065 103.32 145.646 103.32C145.236 103.32 144.857 103.388 144.525 103.524C144.186 103.66 143.902 103.849 143.665 104.099C143.428 104.348 143.239 104.65 143.113 105.013C142.986 105.376 142.915 105.784 142.915 106.229C142.915 106.683 142.978 107.091 143.113 107.446C143.239 107.801 143.428 108.111 143.665 108.36C143.902 108.61 144.194 108.798 144.525 108.934C144.865 109.063 145.236 109.131 145.646 109.131C146.065 109.131 146.436 109.063 146.775 108.934C147.115 108.806 147.399 108.61 147.636 108.36C147.872 108.111 148.054 107.809 148.18 107.446C148.306 107.091 148.377 106.683 148.377 106.229Z" fill="#666666"/>
<path d="M155.846 109.078V109.917H151.473V102.542H152.507V109.078H155.846Z" fill="#666666"/>
<path d="M164.292 106.229C164.292 106.781 164.197 107.287 164.016 107.748C163.834 108.209 163.574 108.61 163.242 108.942C162.911 109.274 162.508 109.531 162.042 109.72C161.577 109.902 161.056 109.992 160.487 109.992C159.919 109.992 159.406 109.902 158.94 109.72C158.475 109.539 158.072 109.282 157.741 108.942C157.409 108.61 157.149 108.209 156.967 107.748C156.785 107.287 156.691 106.781 156.691 106.229C156.691 105.678 156.785 105.172 156.967 104.711C157.149 104.25 157.409 103.849 157.741 103.517C158.072 103.184 158.475 102.92 158.94 102.739C159.406 102.55 159.919 102.459 160.487 102.459C161.056 102.459 161.569 102.55 162.042 102.739C162.508 102.927 162.911 103.184 163.242 103.517C163.574 103.849 163.834 104.25 164.016 104.711C164.205 105.172 164.292 105.678 164.292 106.229ZM163.226 106.229C163.226 105.776 163.163 105.368 163.029 105.013C162.903 104.65 162.713 104.348 162.485 104.099C162.248 103.849 161.964 103.66 161.624 103.524C161.285 103.388 160.914 103.32 160.495 103.32C160.085 103.32 159.706 103.388 159.374 103.524C159.035 103.66 158.751 103.849 158.514 104.099C158.277 104.348 158.088 104.65 157.962 105.013C157.835 105.376 157.764 105.784 157.764 106.229C157.764 106.683 157.827 107.091 157.962 107.446C158.088 107.801 158.277 108.111 158.514 108.36C158.751 108.61 159.043 108.798 159.374 108.934C159.714 109.063 160.085 109.131 160.495 109.131C160.914 109.131 161.285 109.063 161.624 108.934C161.964 108.806 162.248 108.61 162.485 108.36C162.721 108.111 162.903 107.809 163.029 107.446C163.155 107.083 163.226 106.683 163.226 106.229Z" fill="#666666"/>
<path d="M172.581 106.373V109.206C172.194 109.471 171.784 109.675 171.342 109.803C170.9 109.932 170.418 110 169.897 110C169.274 110 168.721 109.909 168.216 109.728C167.719 109.546 167.292 109.29 166.937 108.957C166.582 108.625 166.314 108.232 166.124 107.763C165.935 107.302 165.84 106.789 165.84 106.237C165.84 105.67 165.935 105.164 166.116 104.696C166.298 104.235 166.566 103.834 166.906 103.502C167.245 103.169 167.663 102.912 168.145 102.731C168.634 102.55 169.179 102.459 169.779 102.459C170.087 102.459 170.363 102.482 170.631 102.527C170.892 102.572 171.137 102.633 171.358 102.716C171.579 102.799 171.784 102.897 171.973 103.011C172.163 103.124 172.344 103.252 172.502 103.396L172.21 103.849C172.163 103.917 172.1 103.963 172.029 103.978C171.958 104 171.871 103.978 171.784 103.932C171.697 103.887 171.602 103.827 171.492 103.759C171.381 103.691 171.247 103.623 171.089 103.562C170.931 103.502 170.742 103.441 170.521 103.403C170.308 103.358 170.047 103.335 169.747 103.335C169.313 103.335 168.919 103.403 168.571 103.539C168.216 103.675 167.924 103.872 167.671 104.121C167.427 104.371 167.237 104.68 167.103 105.036C166.969 105.391 166.906 105.799 166.906 106.245C166.906 106.705 166.977 107.121 167.111 107.491C167.245 107.854 167.442 108.164 167.703 108.421C167.956 108.678 168.271 108.874 168.634 109.002C168.997 109.138 169.408 109.206 169.866 109.206C170.221 109.206 170.545 109.169 170.821 109.093C171.097 109.018 171.373 108.912 171.634 108.768V107.144H170.434C170.363 107.144 170.308 107.121 170.268 107.083C170.229 107.045 170.205 107 170.205 106.947V106.381H172.581V106.373Z" fill="#666666"/>
<path d="M177.436 106.978V109.917H176.394V106.978L173.568 102.542H174.484C174.579 102.542 174.65 102.565 174.705 102.603C174.76 102.648 174.808 102.701 174.847 102.769L176.607 105.633C176.671 105.754 176.734 105.867 176.789 105.973C176.844 106.078 176.892 106.184 176.931 106.29C176.971 106.184 177.018 106.078 177.065 105.973C177.113 105.867 177.168 105.754 177.231 105.633L178.991 102.769C179.023 102.708 179.07 102.656 179.126 102.61C179.181 102.565 179.26 102.535 179.347 102.535H180.27L177.436 106.978Z" fill="#666666"/>
<path d="M115.718 32.7403C116.506 29.5566 114.448 26.3644 111.122 25.6103C107.796 24.8562 104.461 26.8257 103.673 30.0094C102.885 33.1931 104.943 36.3853 108.269 37.1394C111.595 37.8935 114.93 35.924 115.718 32.7403Z" fill="#EF4A23"/>
<path d="M133.529 29.8008H110.849V33.4277H133.529V29.8008Z" fill="#EF4A23"/>
</g>
<defs>
<clipPath id="clip0_1455_9840">
<rect width="220.019" height="110" fill="white" transform="translate(0.101318)"/>
</clipPath>
</defs>
</svg>
