<svg width="221" height="110" viewBox="0 0 221 110" fill="none" xmlns="http://www.w3.org/2000/svg">
<g clip-path="url(#clip0_1455_9957)">
<path d="M201.036 35.0378H139.755V35.0143L135.716 30.8945L141.775 31.1759C141.977 30.4958 141.81 29.7375 141.35 29.2372L126.74 13.4537C126.615 13.313 126.461 13.2113 126.294 13.1332L125.124 12.6172V8.87263H125.466V7.48893H125.124V6.75409C125.124 5.92543 124.498 5.24531 123.725 5.24531H121.078C120.306 5.24531 119.679 5.92543 119.679 6.75409V7.48893H119.15V8.87263H119.679V10.2251L96.5522 0.0701269C96.1483 -0.109675 95.6817 0.0466744 95.445 0.445367L78.2724 28.6665C78.1331 28.8932 78.1262 29.1825 78.2445 29.417C78.3629 29.6515 79.4911 29.6515 79.7417 29.6515L95.7444 2.67335C95.8976 2.43101 96.1413 2.27466 96.4129 2.25121C96.6845 2.22776 96.9491 2.3372 97.1372 2.55609L119.331 28.3226C119.574 28.604 119.916 28.776 120.271 28.7994L126.239 29.1434L119.212 30.0971L97.7082 5.37821C97.4784 5.11241 97.1511 4.9717 96.8168 4.99515C96.4826 5.0186 96.1692 5.20622 95.9742 5.49547L80.5008 29.7923L83.1609 30.5036L83.2793 35.0378H18.9762C8.51665 35.0378 0 44.5908 0 56.3405V88.6971C0 100.447 8.51665 110 18.9762 110H201.036C211.503 110 220.012 100.439 220.012 88.6971V56.3405C220.019 44.5908 211.503 35.0378 201.036 35.0378ZM121.009 6.75409C121.009 6.715 121.037 6.68373 121.078 6.68373H122.527V7.49675H121.009V6.75409ZM121.009 8.87263H122.527V11.4759L121.009 10.8114V8.87263ZM95.5842 20.1376L96.5801 18.2536H100.682C100.932 18.2536 101.141 18.4725 101.141 18.7461V29.5734C101.141 29.847 100.932 30.0659 100.682 30.0659H96.0369C95.7862 30.0659 95.5773 29.847 95.5773 29.5734V20.1376H95.5842ZM212.986 88.6971C212.986 96.0924 207.624 102.112 201.036 102.112H18.9762C12.3885 102.112 7.02641 96.0924 7.02641 88.6971V56.3405C7.02641 48.9451 12.3885 42.9256 18.9762 42.9256H83.5927V42.738L94.0662 22.9988V30.3629C94.0662 31.5434 94.9505 32.4971 96.0439 32.4971H101.392C102.478 32.4971 103.37 31.5356 103.37 30.3629V18.7461C103.37 17.5657 102.485 16.6119 101.392 16.6119H97.4575L99.6371 12.5078C99.7903 12.2576 100.041 12.0934 100.32 12.07C100.598 12.0465 100.87 12.1638 101.051 12.3905L118.209 33.06C118.328 33.2085 118.397 33.3961 118.397 33.5916V36.5778C118.397 37.1329 118.815 37.5785 119.324 37.5785H124.143C124.386 37.5785 124.623 37.469 124.797 37.2814L130.883 30.6678L135.124 30.8632L134.985 31.1369L130.765 38.1882C130.57 38.5166 130.236 38.712 129.874 38.712H119.317C118.801 38.712 118.39 39.1576 118.39 39.7127V51.736L120.159 41.1042L130.869 40.9713V50.4617C130.869 51.0246 131.141 51.5483 131.573 51.8298C132.012 52.1112 132.548 52.1112 132.98 51.8298L138.474 48.265C139.031 47.9054 139.379 47.2487 139.4 46.5295L139.505 42.9335H201.022C207.61 42.9335 212.972 48.9529 212.972 56.3483V88.6971H212.986Z" fill="#666666"/>
<path d="M109.769 23.4132H110.25C110.542 23.4132 110.779 23.1474 110.779 22.819V20.0516C110.779 19.7233 110.542 19.4575 110.25 19.4575H109.769C109.477 19.4575 109.24 19.7233 109.24 20.0516V22.819C109.24 23.1474 109.477 23.4132 109.769 23.4132Z" fill="#666666"/>
<path d="M109.769 23.4132H110.25C110.542 23.4132 110.779 23.1474 110.779 22.819V20.0516C110.779 19.7233 110.542 19.4575 110.25 19.4575H109.769C109.477 19.4575 109.24 19.7233 109.24 20.0516V22.819C109.24 23.1474 109.477 23.4132 109.769 23.4132Z" fill="#666666"/>
<path d="M108.648 28.9168H111.371C111.663 28.9168 111.9 28.6511 111.9 28.3227V25.1566C111.9 24.8283 111.663 24.5625 111.371 24.5625H108.648C108.356 24.5625 108.119 24.8283 108.119 25.1566V28.3227C108.119 28.6432 108.356 28.9168 108.648 28.9168Z" fill="#666666"/>
<path d="M23.4329 61.9849H23.9761C27.5833 62.024 29.3869 62.1568 29.3869 62.3836C30.0902 62.7119 30.6473 63.0715 31.0652 63.478C31.3019 63.5562 31.7615 64.0878 32.444 65.0571C31.866 65.8467 31.2602 66.7301 30.6334 67.6995C29.8744 68.4499 29.3312 69.0988 29.0109 69.646L28.6836 70.1307H28.6279C28.1752 69.2786 27.9245 68.8564 27.8688 68.8564L26.678 68.3718L25.0555 68.4343H24.0527C23.0987 68.9033 22.6182 69.2082 22.6182 69.3489C22.0402 70.076 21.7547 70.545 21.7547 70.7483L21.3508 71.7176L21.4065 73.4531L21.3786 74.8837C21.7407 75.8766 21.9566 76.4003 22.0262 76.4629C22.6042 77.2524 22.9455 77.6511 23.0569 77.6511C23.795 78.0967 24.2268 78.3156 24.3591 78.3156L25.6056 78.4094C26.5945 78.1045 27.0958 77.9326 27.0958 77.8935V76.5567V76.4316L25.5777 76.3378L24.7142 76.3691H24.0945L24.0666 76.3378H24.0248L24.1571 74.9385L24.0736 73.5079C24.0736 72.945 24.0945 72.4838 24.1293 72.1398L24.1014 71.8662V71.5926L24.0736 70.7405C24.0736 70.7014 24.561 70.631 25.536 70.5294L27.1028 70.6545L30.0276 70.6857L32.7643 70.6545C33.0011 71.5222 33.1195 73.1561 33.1195 75.5482L33.203 76.5801C33.203 77.2524 33.1125 78.2296 32.9315 79.5273L33.0638 80.9579L32.8479 82.5058C31.9844 83.1546 31.4551 83.4752 31.281 83.4752L29.171 84.4445L27.8688 84.6556L26.5387 84.4445L25.1878 84.5383L23.809 84.3585H22.458C21.302 84.1787 20.724 84.0224 20.724 83.9051C20.146 83.6002 19.387 83.1077 18.4538 82.4198C17.6948 81.9977 17.3188 81.7319 17.3188 81.6302C16.7408 80.8641 16.2533 80.0276 15.8564 79.1365C15.3341 78.2843 15.0695 77.7684 15.0695 77.5886C14.8884 76.8225 14.7979 76.1736 14.7979 75.642L14.7422 74.7899L14.7979 73.2733L14.6099 71.7255C14.9163 70.5685 15.0695 69.7711 15.0695 69.3255C15.0695 68.8564 15.153 68.5437 15.3132 68.3796C15.7658 67.6525 16.128 66.8943 16.3926 66.0969C16.3926 65.9952 16.8313 65.5027 17.7227 64.6115C18.3006 64.0643 18.816 63.6813 19.2686 63.4546C19.5193 63.2513 20.1321 62.9699 21.107 62.6024L22.2143 62.0239L23.4329 61.9849Z" fill="#666666"/>
<path d="M39.3729 62.5947C40.0763 62.7198 40.9607 62.798 42.0261 62.8371L43.4049 62.626L44.735 63.056H45.1389C46.6152 63.056 47.7364 63.1185 48.4954 63.2358C49.2196 63.5641 49.6166 63.7439 49.6862 63.783C50.4801 64.5569 50.9606 65.112 51.1208 65.4559C51.3714 65.7843 51.643 66.3002 51.9355 67.0038L52.1235 68.3406L52.0678 69.6774H52.04V69.7086L52.1723 71.1393C51.9564 72.1946 51.8102 72.7184 51.7405 72.7184C51.1625 73.3672 50.6124 74.0395 50.0901 74.7275L48.8715 75.1809C49.5539 76.1972 50.2503 77.4636 50.9536 78.9802C51.6012 79.7307 51.9425 80.2232 51.9843 80.4655L53.6068 83.6551C52.9174 83.8974 52.3603 84.0225 51.9285 84.0225L51.2531 84.1163C50.6054 84.0538 49.3868 83.9834 47.5971 83.9052L46.3227 83.6942C45.7239 82.1776 45.1389 80.9502 44.5609 80.0199C44.0386 79.0662 43.4815 77.8232 42.8826 76.2832H42.8548L42.6946 77.7998L42.7503 79.2851L42.6668 80.7782L42.7991 82.2636L42.7434 83.6942C42.1445 83.8192 41.3367 83.9052 40.3061 83.9678C39.2406 83.9678 38.1334 83.874 36.9774 83.6942L36.678 83.6003C36.6083 83.1782 36.5526 82.4668 36.5178 81.474C36.5178 80.9658 36.483 80.2388 36.4064 79.2851L36.5387 73.4532L36.5665 73.3594L36.4551 71.8428L36.5874 70.381C36.4969 69.4116 36.4551 68.8018 36.4551 68.5595V66.1282C36.4551 65.0572 36.5456 64.0097 36.7267 63.0012C37.0888 62.9934 37.9663 62.8605 39.3729 62.5947ZM42.6459 68.4031H42.618V68.4344L42.5066 70.0135L42.6946 71.6865L43.8854 71.7803L45.3757 71.2643L46.1347 69.9588L45.5637 68.4735H44.5331L42.7225 68.4109H42.6459V68.4031Z" fill="#666666"/>
<path d="M60.8909 62.5947L62.1374 62.7198L63.4396 62.5947L65.9814 62.8371L67.2836 62.6573L68.5022 62.9934L68.7738 64.3615L68.4187 68.5282C68.4187 68.6298 68.3978 68.6767 68.363 68.6767L67.1443 68.7393C66.1137 68.5751 65.2014 68.4969 64.4075 68.4969C63.6346 68.4969 62.7223 68.5907 61.6708 68.7706L61.7265 70.5295L61.8101 70.4982H63.0009L65.4939 70.5608L67.1443 70.4982H67.2557H68.0426L68.0705 70.5295V70.5608C68.0705 71.4285 68.154 72.6089 68.3142 74.0864L68.3699 74.6337C68.1889 75.5483 68.0705 76.0017 68.0148 76.0017L67.8267 76.033H67.2836C66.5106 76.033 65.9187 76.0096 65.5217 75.9705L64.2195 76.119C63.356 76.119 62.4577 76.0486 61.5385 75.9079V77.8545H61.5663C62.5204 77.8545 63.363 77.9248 64.0803 78.0656L65.2989 78.003L66.5176 78.1281L68.927 77.8545C68.9827 78.3783 69.0106 78.9567 69.0106 79.59V80.5359C69.0106 80.7157 69.0733 81.3098 69.1986 82.2948C68.9967 83.2251 68.8852 83.702 68.8434 83.7254L67.6248 84.0303L63.7251 83.9365L62.0468 83.999H61.4271L59.721 84.1241C57.7015 84.0459 56.6917 83.9599 56.6917 83.8818C56.0232 83.7176 55.689 83.616 55.689 83.5769C55.5984 82.2792 55.5566 81.1378 55.5566 80.145V80.1137C55.5566 78.9567 55.6193 77.6825 55.7447 76.2832L55.6124 74.8213L55.6402 73.3594L55.5566 71.8428C55.7029 69.5758 55.7725 68.1764 55.7725 67.6526L55.6611 65.9172C55.6611 64.7211 55.7447 63.7204 55.9048 62.9074L56.9842 62.6964L58.1472 62.7276H58.363C59.1708 62.7198 60.0065 62.6729 60.8909 62.5947Z" fill="#666666"/>
<path d="M82.7361 62.5947C83.6205 62.798 84.0592 62.9387 84.0592 63.0169L85.1943 65.7217C85.4101 66.7145 85.626 67.4103 85.8419 67.8168C86.0021 68.1999 86.2458 68.9347 86.5731 70.0057C87.0954 71.022 87.541 72.0617 87.8962 73.1327L89.1706 76.9007C89.3725 77.8154 89.6232 78.6206 89.9296 79.332C90.0201 79.4962 90.1733 80.0825 90.3892 81.0909C90.8419 82.0056 91.0647 82.6857 91.0647 83.1235L91.197 83.8192C90.6051 83.9834 89.7555 84.0616 88.6552 84.0616L88.5995 84.0928L84.4283 83.8192C84.3725 83.7176 84.2402 83.1391 84.0244 82.0837L83.509 80.6844L82.3182 80.9268L81.1274 80.8329L78.7458 80.9815L77.5829 80.6766C77.3322 81.8492 77.0606 82.8968 76.7681 83.8036L76.7403 83.8349C75.64 83.9365 74.3517 83.9834 72.8685 83.9834H72.1373H71.3225L69.9994 83.6472V83.616C70.4172 82.4433 70.9395 80.8329 71.5662 78.7848C72.0537 77.5261 72.4228 76.3535 72.6735 75.2591C73.0495 74.4304 73.4604 73.336 73.8921 71.9757C74.0941 71.491 74.3517 70.6858 74.679 69.5758L75.8977 66.9022L76.7403 64.1348L77.4158 62.8918C78.5509 62.7276 79.4213 62.6494 80.0132 62.6494L81.3433 62.7433L82.7361 62.5947ZM80.5982 70.2871C80.2918 70.9985 80.0411 71.7725 79.8392 72.6246C79.477 73.5783 79.296 74.1255 79.296 74.2662L79.1567 75.392H79.1846L80.4868 75.4232L82.1093 75.3294C81.8377 74.6024 81.6497 73.891 81.5383 73.2031C81.5383 72.9842 81.3224 72.3041 80.8907 71.1705L80.6191 70.2871H80.5982Z" fill="#666666"/>
<path d="M103.147 62.5947L104.553 62.7745L105.661 62.7433C106.545 62.9074 106.984 63.0012 106.984 63.0169L107.067 64.2286L107.04 66.996C107.005 68.2311 106.949 68.8487 106.879 68.8487L105.821 68.6377L104.303 68.7315H103.001L102.325 68.7627C102.485 70.0213 102.569 71.022 102.569 71.7725L102.457 73.2656C102.492 75.1105 102.541 76.6662 102.59 77.9483V78.5893C102.59 79.16 102.499 79.8558 102.318 80.6844L102.43 82.1776L102.297 83.6942C101.469 83.7723 100.675 83.9209 99.9156 84.1163C99.1008 83.9756 98.5925 83.9052 98.3697 83.9052H97.4922C96.6635 83.7801 96.2457 83.6942 96.2457 83.6316V83.4831V83.0297C96.2457 82.4043 96.197 81.6303 96.1134 80.7235L96.2248 79.2304L96.1134 77.745L96.2457 76.2597L95.9741 74.7666L96.0855 73.2812L96.0298 71.7881C96.0647 70.592 96.1204 69.6227 96.19 68.8722L92.7778 68.6611L91.7193 68.7549V68.7236L91.3641 67.3869C91.4198 66.2299 91.4477 65.2527 91.4477 64.4397C91.5731 63.4468 91.6636 62.9465 91.7193 62.9465L92.9101 62.6416L95.4031 62.7667L95.431 62.798H95.4588L96.761 62.6729L98.0633 62.798L103.147 62.5947Z" fill="#666666"/>
<path d="M111.893 62.5947C114.205 62.8214 115.494 62.9621 115.765 63.0169H115.793C115.682 63.8299 115.605 64.7367 115.549 65.753L115.633 70.0683H115.661C116.649 69.9275 117.617 69.8572 118.558 69.8572H119.317L120.64 69.9823L120.751 68.4031V66.1517L120.779 64.3928L120.591 63.0247C120.591 63.0012 121.03 62.884 121.921 62.6573L123.195 62.7511L124.47 62.6025C125.897 62.8058 126.691 62.9387 126.851 63.0012C127.067 64.2129 127.179 65.3778 127.179 66.4957V67.3165C127.179 67.6839 127.13 68.2155 127.046 68.9269L127.074 69.1067C127.074 70.5217 127.158 71.9757 127.318 73.4532V74.063C127.318 75.0558 127.227 77.3073 127.046 80.8095L127.102 82.3026C127.012 83.2564 126.942 83.7332 126.886 83.7332C126.287 83.9365 125.493 84.0694 124.505 84.1241C123.69 84.0225 123.168 83.9756 122.938 83.9756H122.046C121.183 83.8349 120.744 83.7411 120.744 83.702L120.856 82.1541L120.828 81.5443V81.302L120.911 79.0193L120.695 77.4402L120.779 75.8297L119.505 76.0721C118.766 75.9939 118.279 75.947 118.042 75.947L116.963 75.9783L115.744 75.9157V78.4642C115.744 79.074 115.723 79.7854 115.688 80.5906L115.744 82.3808L115.716 83.7176C114.992 83.8427 114.17 83.9443 113.251 84.0225L111.977 83.9287L110.702 84.0772C109.888 83.8349 109.484 83.6942 109.484 83.6551C109.393 82.5215 109.351 81.56 109.351 80.7704L109.407 79.3085L109.324 77.9405L109.351 75.9939V75.0245L109.136 73.3829L109.268 70.4044L109.184 68.9425L109.4 67.4259L109.317 65.9641C109.428 65.0103 109.498 64.0331 109.533 63.0169L111.893 62.5947Z" fill="#EF4A23"/>
<path d="M140.772 61.9849H141.747C142.812 62.2116 143.543 62.3523 143.94 62.407C144.393 62.407 144.95 62.5477 145.619 62.8292C145.8 62.8292 146.169 63.0793 146.726 63.5874C147.715 64.3379 148.272 64.7913 148.376 64.9555C149.01 65.6825 149.47 66.3314 149.755 66.9021C149.846 67.0271 150.124 67.7229 150.598 68.9972C150.883 69.646 151.029 70.0291 151.029 70.1541V71.3659L151.217 74.7665C151.057 75.9625 150.855 77.0257 150.619 77.956C150.222 78.9723 149.908 79.629 149.672 79.9338C149.56 80.2153 149.205 80.6765 148.592 81.3019L147.13 82.7638C146.371 83.0843 145.542 83.5221 144.637 84.0693C143.808 84.3116 143.244 84.4367 142.958 84.4367H140.737C140.521 84.4367 139.985 84.5305 139.142 84.7103C138.167 84.5071 136.775 84.1318 134.971 83.5846L132.617 81.7006C131.984 80.911 131.67 80.4732 131.67 80.3951C130.856 78.6518 130.452 77.7528 130.452 77.6902L130.048 74.7117L130.131 73.1639L130.076 71.4909L130.103 70.0916C130.535 68.8564 130.751 68.1841 130.751 68.0825C130.876 67.332 131.016 66.8942 131.155 66.777C131.573 66.0265 131.858 65.6122 132.018 65.534C132.471 65.2135 132.986 64.7054 133.564 64.0174C133.725 63.736 133.968 63.5327 134.296 63.4076C134.762 63.1028 135.326 62.8526 135.974 62.6493L137.84 62.0709H138.787L140.772 61.9849ZM140.528 68.7314L139.254 68.6376C138.55 69.1066 138.154 69.388 138.063 69.4897C137.541 70.2792 137.276 70.7326 137.276 70.8577C137.039 71.4284 136.921 71.8036 136.921 71.9834L136.865 73.1952C136.921 74.3287 136.977 74.8994 137.025 74.8994C137.241 75.6733 137.422 76.1423 137.569 76.33C137.91 76.9554 138.167 77.2759 138.328 77.2759C138.906 77.5808 139.268 77.7293 139.407 77.7293L140.514 77.8544C141.524 77.7918 142.032 77.7137 142.032 77.612C142.715 77.3462 143.063 77.1743 143.063 77.0961C143.53 76.2674 143.766 75.8062 143.766 75.728C143.982 75.0792 144.184 74.2271 144.358 73.1717C144.289 72.0772 144.177 71.3971 144.031 71.1392C143.885 70.5685 143.718 70.1932 143.516 70.0134C143.153 69.4897 142.847 69.1691 142.596 69.0675L141.809 68.6141L140.528 68.7314Z" fill="#EF4A23"/>
<path d="M169.031 62.5947C169.734 62.5947 170.563 62.7589 171.524 63.0794L171.552 63.1107V63.1419C171.552 64.0566 171.635 64.9478 171.795 65.8155C171.684 66.7302 171.635 67.7699 171.635 68.9425V69.9119L171.823 71.5536L171.74 72.9529L171.767 74.4148C171.607 75.2903 171.524 75.7828 171.524 75.9079V77.0962L171.552 77.3073L170.737 80.3795C170.305 81.0675 169.72 81.8649 168.975 82.7795L168 83.6942C167.206 83.9599 165.876 84.2883 164.024 84.6948L162.29 84.7261H161.83C160.89 84.7261 159.762 84.5228 158.446 84.1163C157.561 83.7489 157.039 83.4674 156.879 83.2642C156.482 83.0218 156.12 82.6857 155.8 82.2636C155.333 81.7398 155.089 81.3645 155.068 81.1378C154.379 79.5196 154.038 78.4955 154.038 78.0656L153.878 77.2447L153.822 75.6656L153.85 74.5711L153.69 72.9607L153.822 71.5614L153.578 70.0995L153.822 65.9093L153.85 65.8781V65.8468L153.662 64.4162C153.787 63.6266 153.878 63.1889 153.933 63.1107C155.124 62.8293 155.974 62.6885 156.475 62.6885C157.937 62.6885 159.191 62.8136 160.235 63.056V65.667L160.103 67.551L160.347 70.4982L160.319 70.8031V71.749C160.319 71.9288 160.256 72.5308 160.131 73.5392C160.277 75.2591 160.347 76.3066 160.347 76.6662C160.995 77.5183 161.336 77.9405 161.378 77.9405L162.728 78.0656C163.738 77.9874 164.247 77.917 164.247 77.8545L165.138 76.6662L165.194 74.5711V73.6565C165.194 73.3516 165.249 72.8122 165.354 72.0461V71.921L165.194 67.5119L165.277 65.9953L165.145 64.5335C165.256 63.5406 165.326 63.0481 165.361 63.0481C166.029 62.8449 166.419 62.7433 166.524 62.7433H167.603L169.031 62.5947Z" fill="#EF4A23"/>
<path d="M181.05 61.9849L182.352 62.1647L183.703 62.0709C184.532 62.235 185.444 62.3757 186.44 62.493C187.29 62.9386 187.756 63.2122 187.847 63.3138C188.369 63.7594 188.794 64.1816 189.121 64.5881L189.581 65.1979V65.2291L187.415 67.9965C186.816 68.7079 186.294 69.2317 185.848 69.5757L185.688 69.732C184.428 68.5985 183.675 68.0278 183.439 68.0278L182.331 67.9027C181.663 68.0434 181.329 68.1294 181.329 68.145L180.73 68.9346C181.976 69.8884 182.617 70.3652 182.652 70.3652C183.752 70.6076 184.685 70.8734 185.437 71.1548C186.287 71.6004 186.726 71.874 186.767 71.9756C187.506 72.6636 188.111 73.3671 188.578 74.0707L189.065 75.4388V76.8381C188.884 79.1052 188.731 80.2387 188.606 80.2387C188.606 80.3794 188.223 81.1612 187.471 82.5761C185.904 83.6862 184.936 84.2647 184.574 84.3116C184.233 84.4758 183.655 84.5931 182.84 84.6791L182.54 84.7103L180.806 84.6165H178.968C177.777 84.4914 177.178 84.3742 177.178 84.2491L174.985 83.2172C174.386 82.7716 173.954 82.3651 173.683 81.9977C173.376 81.6537 173.223 81.4504 173.223 81.3879C173.766 80.5358 174.079 80.0745 174.17 79.9886C174.838 79.4257 175.228 79.0661 175.333 78.9254C175.695 78.214 176.008 77.7293 176.28 77.4635C176.767 76.9554 177.039 76.7052 177.095 76.7052C177.944 77.4948 178.703 78.0655 179.365 78.4094C179.476 78.5736 179.845 78.6518 180.472 78.6518L181.203 78.683L182.638 77.7137C182.06 77.0023 181.733 76.6505 181.663 76.6505C180.848 76.3065 180.04 75.9235 179.226 75.4935C178.32 75.3137 177.826 75.173 177.735 75.0714C177.269 74.7039 176.565 74.2036 175.625 73.5548C174.992 72.5619 174.678 71.9913 174.678 71.8505C174.462 71.2799 174.351 70.9672 174.351 70.9046C174.462 69.7945 174.511 68.8174 174.511 67.9887C174.713 66.9177 174.943 66.0421 175.215 65.3777C175.215 65.2526 175.549 64.8304 176.217 64.1034C176.976 63.3373 177.45 62.9464 177.652 62.9464C178.139 62.6415 178.822 62.3523 179.706 62.063L181.05 61.9849Z" fill="#EF4A23"/>
<path d="M196.997 62.5947L198.244 62.7198L199.546 62.5947L202.088 62.8371L203.39 62.6573L204.608 62.9934L204.88 64.3615L204.525 68.5282C204.525 68.6298 204.504 68.6767 204.469 68.6767L203.25 68.7393C202.22 68.5751 201.308 68.4969 200.514 68.4969C199.741 68.4969 198.829 68.5907 197.777 68.7706L197.833 70.5295L197.916 70.4982H199.107L201.6 70.5608L203.25 70.4982H203.362H204.149L204.177 70.5295V70.5608C204.177 71.4285 204.26 72.6089 204.42 74.0864L204.476 74.6337C204.295 75.5483 204.177 76.0017 204.121 76.0017L203.933 76.033H203.39C202.617 76.033 202.025 76.0096 201.628 75.9705L200.326 76.119C199.462 76.119 198.564 76.0486 197.645 75.9079V77.8545H197.673C198.627 77.8545 199.469 77.9248 200.186 78.0656L201.405 78.003L202.624 78.1281L205.033 77.8545C205.089 78.3783 205.117 78.9567 205.117 79.59V80.5359C205.117 80.7157 205.179 81.3098 205.305 82.2948C205.103 83.2251 204.991 83.702 204.95 83.7254L203.731 84.0303L199.831 83.9365L198.153 83.999H197.533L195.827 84.1241C193.808 84.0459 192.798 83.9599 192.798 83.8818C192.129 83.7176 191.795 83.616 191.795 83.5769C191.705 82.2792 191.663 81.1378 191.663 80.145V80.1137C191.663 78.9567 191.726 77.6825 191.851 76.2832L191.719 74.8213L191.746 73.3594L191.663 71.8428C191.809 69.5758 191.879 68.1764 191.879 67.6526L191.767 65.9172C191.767 64.7211 191.851 63.7204 192.011 62.9074L193.09 62.6964L194.253 62.7276H194.469C195.27 62.7198 196.113 62.6729 196.997 62.5947Z" fill="#EF4A23"/>
</g>
<defs>
<clipPath id="clip0_1455_9957">
<rect width="220.019" height="110" fill="white"/>
</clipPath>
</defs>
</svg>
