<svg width="220" height="110" viewBox="0 0 220 110" fill="none" xmlns="http://www.w3.org/2000/svg">
<g clip-path="url(#clip0_1455_10010)">
<path d="M0 79.9033C0 79.6369 0 79.3706 0.25731 79.1042C0.51462 78.8379 0.77193 78.8379 1.02924 78.8379H13.8947C15.1813 78.8379 16.4678 79.1042 17.7544 79.6369C18.7836 80.436 19.8129 80.9686 20.5848 82.034C21.614 82.833 22.1287 83.8984 22.6433 85.2301C23.1579 86.2955 23.4152 87.6272 23.4152 88.959C23.4152 90.0243 23.1579 90.8234 22.9006 91.6224C22.9006 92.4214 22.6433 93.2205 22.1287 94.0195C21.614 94.8185 21.0994 95.3512 20.5848 96.1502C20.0702 96.6829 19.2982 97.2156 18.5263 97.482L23.6725 107.337C23.6725 107.603 23.9298 107.869 23.9298 108.136C24.1871 108.402 24.1871 108.668 24.1871 108.935C24.1871 109.201 24.1871 109.201 23.9298 109.467C23.6725 109.467 23.6725 109.734 23.4152 109.734H16.7251C16.4678 109.734 16.2105 109.734 16.2105 109.467C15.9532 109.201 15.6959 108.935 15.6959 108.935L10.807 99.3464H7.7193V108.668C7.7193 109.201 7.46199 109.467 6.69006 109.467H0.77193C0.51462 109.467 0.25731 109.467 0 109.201C0 109.201 0 108.935 0 108.668V79.9033ZM15.4386 89.2253C15.4386 88.6926 15.4386 88.4263 15.1813 87.8936C15.1813 87.3609 14.924 87.0945 14.6667 86.8282C14.4094 86.2955 14.152 86.0292 13.8947 85.7628C13.3801 85.4965 12.8655 85.4965 12.6082 85.4965C12.3509 85.4965 11.8363 85.4965 11.5789 85.4965C11.3216 85.4965 10.807 85.4965 10.5497 85.4965H7.7193V93.2205H11.3216C11.5789 93.2205 11.8363 93.2205 12.0936 93.2205C12.3509 93.2205 12.6082 93.2205 12.6082 93.2205C13.1228 93.2205 13.6374 92.9541 13.8947 92.6878C14.4094 92.4214 14.6667 92.1551 14.924 91.8887C14.924 91.0897 15.1813 90.8234 15.4386 90.2907C15.4386 90.0243 15.4386 89.4916 15.4386 89.2253Z" fill="#666865"/>
<path d="M46.3158 106.537C45.2866 107.603 43.7427 108.402 42.4562 109.201C40.9123 109.734 39.3684 110 37.5673 110C35.7661 110 33.9649 109.734 32.4211 108.934C30.8772 108.135 29.5907 107.336 28.3041 106.005C27.0176 104.939 26.2456 103.341 25.4737 101.743C24.7018 100.145 24.4445 98.2807 24.4445 96.4163C24.4445 95.0846 24.7018 94.0192 24.9591 92.9538C25.2164 91.8885 25.731 90.8231 26.2456 89.7577C26.7602 88.6923 27.2749 87.8933 28.0468 87.0943C28.8187 86.2952 29.5907 85.4962 30.6199 84.9635C31.1345 84.4308 32.1638 83.8982 33.4503 83.6318C34.4795 83.3655 35.7661 83.0991 36.7953 83.0991C37.8246 83.0991 38.8538 83.3655 39.8831 83.6318C41.1696 83.8982 41.9415 84.1645 42.9708 84.6972C43.7427 85.2299 44.5146 86.0289 45.5439 86.8279C46.3158 87.627 46.8304 88.426 47.345 89.4914C47.8597 90.2904 48.3743 91.3558 48.6316 92.4212C48.8889 93.2202 49.1462 94.2856 49.1462 95.3509C49.1462 96.15 49.1462 96.6827 49.1462 97.2153C49.1462 97.748 49.1462 98.0144 48.8889 98.2807C48.6316 98.5471 48.3743 98.5471 47.8597 98.8134C47.345 98.8134 46.8304 99.0798 46.0585 99.0798H31.6491C31.6491 99.8788 32.1638 100.678 32.4211 101.211C32.9357 101.743 33.193 102.276 33.7076 102.542C34.2222 102.809 34.7369 103.075 35.5088 103.341C36.0234 103.341 36.538 103.608 37.0526 103.608C37.5673 103.608 38.0819 103.608 38.5965 103.341C39.1111 103.341 39.6257 103.075 40.1404 102.809C40.655 102.542 41.1696 102.542 41.4269 102.276C41.6842 102.01 42.1988 101.743 42.4562 101.477C42.4562 101.477 42.7135 101.211 42.9708 101.211C42.9708 101.211 43.2281 101.211 43.4854 101.211C43.7427 101.211 43.7427 101.211 44 101.477C44.2573 101.743 44.2573 101.743 44.5146 102.01L46.5731 104.407C46.5731 104.673 46.8304 104.673 46.8304 104.939C46.8304 104.939 46.8304 105.206 46.8304 105.472C46.8304 105.738 46.8304 106.005 46.5731 106.271C46.5731 106.005 46.3158 106.271 46.3158 106.537ZM36.7953 89.225C36.2807 89.225 35.7661 89.225 35.2515 89.4914C34.7369 89.7577 34.2222 90.0241 33.7076 90.5568C33.4503 90.8231 32.9357 91.0894 32.6784 91.6221C32.4211 92.1548 32.1638 92.6875 31.9064 92.9538H41.9415C41.6842 92.4212 41.4269 92.1548 41.1696 91.6221C40.9123 91.0894 40.3977 90.8231 39.8831 90.2904C39.6257 90.0241 39.1111 89.7577 38.5965 89.4914C38.0819 89.4914 37.31 89.225 36.7953 89.225Z" fill="#666865"/>
<path d="M77.193 108.136C77.193 108.402 77.193 108.668 77.193 108.668C77.193 108.935 76.9357 108.935 76.6784 109.201C76.421 109.467 76.421 109.467 76.1637 109.467C75.9064 109.467 75.9064 109.467 75.6491 109.467H71.7895C71.5322 109.467 71.2748 109.467 71.0175 109.467C70.7602 109.467 70.7602 109.201 70.5029 109.201C70.5029 109.201 70.2456 108.935 70.2456 108.668C70.2456 108.402 69.9883 108.136 69.9883 108.136L69.4737 106.538C69.2164 106.804 68.9591 107.07 68.4444 107.603C67.9298 108.136 67.4152 108.402 66.9006 108.668C66.386 109.201 65.8713 109.467 65.3567 109.734C64.8421 110 64.0702 110 63.2982 110C62.0117 110 60.9824 109.734 59.9532 109.467C58.924 109.201 57.8947 108.935 56.8655 108.136C55.8362 107.603 55.0643 106.804 54.2924 106.005C53.5205 105.206 52.7485 104.141 52.2339 103.341C51.7193 102.276 51.2047 101.211 50.9474 100.145C50.69 99.08 50.4327 97.7483 50.4327 96.4165C50.4327 94.5521 50.69 92.6877 51.462 91.0897C52.2339 89.4916 53.0058 87.8935 54.2924 86.8282C55.3216 85.4964 56.8655 84.6974 58.4093 83.8984C59.9532 83.0994 61.4971 82.833 63.5555 82.833C64.3275 82.833 65.0994 82.833 65.8713 83.0994C66.386 83.632 66.9006 83.8984 67.6725 84.4311C68.1871 84.6974 68.7017 85.2301 69.2164 85.7628C69.4737 86.2955 69.9883 86.8282 70.2456 87.3609L71.0175 84.9638C71.2748 84.6974 71.2748 84.4311 71.2748 84.1647C71.2748 83.8984 71.5322 83.8984 71.5322 83.632L71.7895 83.3657C72.0468 83.3657 72.0468 83.3657 72.5614 83.3657H75.3918C75.6491 83.3657 75.6491 83.3657 75.9064 83.3657C76.1637 83.3657 76.421 83.3657 76.421 83.632C76.9357 83.8984 76.9357 83.8984 77.193 84.1647C77.193 84.4311 77.193 84.6974 77.193 84.9638V108.136ZM57.6374 96.4165C57.6374 97.2156 57.8947 98.281 58.152 98.8136C58.4093 99.879 58.6667 100.412 59.1813 101.211C59.6959 101.743 60.2105 102.276 60.9824 102.542C61.7544 102.809 62.5263 103.075 63.2982 103.075C64.0702 103.075 65.0994 102.809 65.8713 102.542C66.6433 102.01 67.1579 101.743 67.9298 101.211C68.4444 100.678 68.9591 99.879 69.2164 99.08C69.4737 98.281 69.731 97.4819 69.731 96.4165C69.731 95.6175 69.4737 94.5521 69.2164 94.0195C68.9591 93.2204 68.4444 92.4214 67.9298 91.8887C67.1579 91.356 66.6433 90.8233 65.8713 90.557C65.0994 90.0243 64.3275 90.0243 63.2982 90.0243C62.5263 90.0243 61.7544 90.2906 60.9824 90.557C60.2105 90.8233 59.6959 91.356 59.1813 91.8887C58.6667 92.4214 58.4093 93.2204 58.152 94.0195C57.8947 94.8185 57.6374 95.6175 57.6374 96.4165Z" fill="#666865"/>
<path d="M80.0234 77.2397C80.0234 76.707 80.0234 76.4406 80.2807 76.1743C80.538 75.9079 80.7953 75.6416 81.3099 75.6416H86.1988C86.4561 75.6416 86.4561 75.6416 86.7134 75.6416C86.9707 75.6416 86.9707 75.9079 87.2281 75.9079C87.2281 76.1743 87.4854 76.1743 87.4854 76.4406C87.4854 76.707 87.4854 76.9733 87.4854 77.2397V107.869C87.4854 108.402 87.4854 108.668 86.9708 108.935C86.7134 109.467 86.4561 109.467 85.9415 109.467H81.3099C80.7953 109.467 80.2807 109.467 80.2807 109.201C80.0234 108.935 80.0234 108.402 80.0234 107.869V77.2397Z" fill="#666865"/>
<path d="M92.117 79.903C92.117 79.6367 92.117 79.3703 92.3743 79.104C92.3743 79.104 92.6316 79.104 92.8889 79.104H112.702C112.959 79.104 113.216 79.104 113.474 79.3703C113.474 79.3703 113.474 79.6367 113.474 79.903V84.9636C113.474 85.2299 113.474 85.4963 113.216 85.7626C113.216 86.0289 112.959 86.0289 112.702 86.0289H99.8363V91.0895H109.614C109.871 91.0895 110.129 91.0895 110.386 91.3558C110.643 91.3558 110.643 91.6222 110.643 91.8885V96.4163C110.643 96.6827 110.643 96.6827 110.386 96.949C110.129 97.2154 110.129 97.2154 109.871 97.2154H99.8363V102.542H113.216C113.731 102.542 114.246 102.809 114.246 103.608V108.668C114.246 108.668 114.246 108.935 113.988 108.935C113.988 109.201 113.731 109.467 113.216 109.467H92.8889C92.6316 109.467 92.3743 109.467 92.117 109.201C91.8596 109.201 91.8596 108.935 91.8596 108.402V79.903H92.117Z" fill="#1E87B8"/>
<path d="M119.906 101.477C120.164 101.743 120.678 102.276 120.936 102.542C121.45 102.809 121.708 103.075 122.222 103.075C122.737 103.341 122.994 103.341 123.251 103.341C123.509 103.341 123.766 103.341 123.766 103.341C124.023 103.341 124.281 103.341 124.795 103.341C125.31 103.341 125.567 103.341 125.825 103.075C126.082 103.075 126.596 102.809 126.854 102.542C127.111 102.276 127.111 102.01 127.111 101.477C127.111 101.211 127.111 100.678 126.854 100.678C126.854 100.678 126.596 100.412 126.339 100.145C126.082 100.145 125.825 99.879 125.31 99.879C125.053 99.6127 124.538 99.6127 124.023 99.3463C122.48 98.8136 121.193 98.5473 120.164 97.7483C119.135 97.2156 118.363 96.4165 117.591 95.6175C117.076 95.0848 116.561 94.2858 116.304 93.2204C116.047 92.4214 116.047 91.356 116.047 90.557C116.047 89.4916 116.304 88.4262 116.561 87.3609C117.076 86.2955 117.591 85.4965 118.363 84.9638C119.135 84.1647 120.164 83.8984 121.193 83.3657C122.222 83.0994 123.509 82.833 125.053 82.833C125.825 82.833 126.596 82.833 127.368 83.0994C128.14 83.0994 128.655 83.3657 129.427 83.8984C130.199 84.1647 130.713 84.6974 131.485 84.9638C132 85.4965 132.772 86.0291 133.287 86.5618C133.544 87.0945 133.801 87.3609 133.801 87.6272C133.801 87.8935 133.544 87.8935 133.287 88.1599C132.772 88.6926 132.257 89.2253 131.743 89.4916C131.485 90.0243 130.971 90.557 130.456 91.0897C130.199 91.0897 130.199 91.356 129.942 91.356C129.684 91.356 129.684 91.356 129.427 91.356C129.427 91.356 129.17 91.356 128.912 91.0897C128.912 90.8233 128.912 90.8233 128.655 90.557C128.14 90.0243 127.626 89.7579 127.111 89.4916C126.597 89.4916 125.825 89.2253 125.567 89.2253C124.795 89.2253 124.538 89.2253 124.023 89.4916C123.509 90.0243 123.251 90.2906 123.251 90.8233C123.251 91.0897 123.509 91.356 123.766 91.6224C124.023 91.8887 124.281 91.8887 124.538 92.155C124.795 92.155 125.31 92.4214 125.567 92.4214C125.825 92.4214 126.339 92.6877 126.597 92.6877C127.883 93.2204 128.912 93.4868 129.942 94.0195C130.971 94.5521 131.743 95.0848 132.515 95.8839C133.287 96.4165 133.801 97.2156 134.316 98.0146C134.83 99.08 135.088 100.145 135.088 101.477C135.088 102.809 134.83 104.141 134.316 105.206C133.801 106.271 133.029 107.07 132.257 107.869C130.971 108.668 129.942 109.201 128.655 109.467C127.368 110 126.082 110 124.538 110C123.766 110 122.994 110 121.965 109.734C121.193 109.734 120.421 109.467 119.649 109.201C118.877 108.935 118.105 108.402 117.333 107.869C116.819 107.337 116.047 106.538 115.532 106.005C115.275 105.739 115.275 105.472 115.275 105.206C115.275 104.94 115.018 104.94 115.018 104.673C115.018 104.407 115.018 104.141 115.275 104.141C115.275 103.874 115.532 103.874 115.532 103.608L118.105 100.944C118.363 100.678 118.62 100.678 118.877 100.678C119.135 100.944 119.392 100.944 119.906 101.477Z" fill="#1E87B8"/>
<path d="M138.69 79.3704C138.69 78.8378 138.947 78.5714 139.205 78.3051C139.462 78.0387 139.977 78.0387 140.491 77.7724L145.123 76.1743H145.38C145.38 76.1743 145.38 76.1743 145.637 76.1743C146.152 76.1743 146.409 76.4407 146.667 76.707C146.152 76.9734 146.409 77.2397 146.409 77.7724V84.1646H149.754C150.269 84.1646 150.526 84.431 150.784 84.431C151.041 84.9637 151.041 85.23 151.041 85.7627V89.7579C151.041 90.2905 151.041 90.8232 150.784 91.0896C150.526 91.3559 150.012 91.3559 149.497 91.3559H146.409V107.869C146.409 108.402 146.152 108.668 145.895 108.935C145.637 109.467 145.123 109.467 144.608 109.467H140.234C139.205 109.467 138.69 108.935 138.69 107.869V91.3559H137.146C136.117 91.3559 135.602 90.8232 135.602 89.7579V85.7627C135.602 84.6973 136.117 84.1646 137.146 84.1646H138.69V79.3704Z" fill="#1E87B8"/>
<path d="M178.316 108.136C178.316 108.402 178.316 108.668 178.058 108.668C178.058 108.935 177.801 108.935 177.544 109.201C177.544 109.467 177.287 109.467 177.029 109.467C176.772 109.467 176.772 109.467 176.515 109.467H172.655C172.398 109.467 172.14 109.467 171.883 109.467C171.626 109.467 171.626 109.201 171.626 109.201C171.626 109.201 171.368 108.935 171.368 108.668C171.368 108.402 171.111 108.136 171.111 108.136L170.596 106.538C170.082 106.804 169.825 107.07 169.31 107.603C169.053 108.136 168.538 108.402 168.023 108.668C167.509 109.201 166.994 109.467 166.222 109.734C165.708 110 165.193 110 164.421 110C163.134 110 162.105 109.734 161.076 109.467C159.789 109.201 158.76 108.935 157.731 108.136C156.959 107.603 155.93 106.804 155.158 106.005C154.386 105.206 153.614 104.407 153.357 103.341C152.585 102.276 152.327 101.211 151.813 100.145C151.556 99.08 151.298 97.7483 151.298 96.4165C151.298 94.5521 151.556 92.6877 152.327 91.0897C153.099 89.4916 153.871 87.8935 155.158 86.8282C156.187 85.4964 157.731 84.6974 159.275 83.8984C160.819 83.0994 162.62 82.833 164.421 82.833C165.193 82.833 165.965 82.833 166.737 83.0994C167.509 83.3657 168.023 83.632 168.538 84.1647C169.053 84.6974 169.567 85.2301 170.082 85.7628C170.596 86.2955 170.854 86.8282 171.368 87.3609L172.14 84.9638C172.14 84.4311 172.398 84.1647 172.398 84.1647C172.398 83.8984 172.655 83.8984 172.655 83.632L172.912 83.3657C173.17 83.3657 173.17 83.3657 173.427 83.3657H176.515C176.772 83.3657 176.772 83.3657 177.029 83.3657C177.287 83.3657 177.544 83.3657 177.544 83.632C177.801 83.8984 177.801 83.8984 178.058 84.1647C178.058 84.4311 178.316 84.6974 178.316 84.9638V108.136ZM158.503 96.4165C158.503 97.2156 158.76 98.281 159.018 98.8136C159.275 99.879 159.789 100.412 160.047 101.211C160.561 101.743 161.333 102.01 162.105 102.542C162.877 102.809 163.649 103.075 164.421 103.075C165.45 103.075 166.222 102.809 166.994 102.542C167.509 102.01 168.281 101.743 168.795 101.211C169.31 100.412 169.825 99.879 170.082 99.08C170.339 98.281 170.596 97.4819 170.596 96.6829C170.596 95.8839 170.339 94.8185 170.082 94.2858C169.825 93.2204 169.31 92.4214 168.795 91.8887C168.281 91.356 167.509 90.8233 166.737 90.557C165.965 90.2906 165.193 90.0243 164.164 90.0243C163.392 90.0243 162.62 90.2906 161.848 90.557C161.333 90.8233 160.561 91.356 160.047 91.8887C159.789 92.4214 159.275 93.2204 159.018 94.0195C158.76 94.8185 158.503 95.6175 158.503 96.4165Z" fill="#1E87B8"/>
<path d="M182.433 79.3704C182.433 78.8378 182.69 78.5714 182.947 78.3051C183.205 78.0387 183.719 78.0387 183.977 77.7724L188.608 76.1743H188.866C188.866 76.1743 188.866 76.1743 189.123 76.1743C189.637 76.1743 189.895 76.4407 190.152 76.707C190.152 76.9734 190.152 77.2397 190.152 77.7724V84.1646H193.497C194.012 84.1646 194.269 84.431 194.526 84.431C194.784 84.9637 194.784 85.23 194.784 85.7627V89.7579C194.784 90.2905 194.526 90.8232 194.269 91.0896C194.269 91.3559 194.012 91.3559 193.497 91.3559H190.152V107.869C190.152 108.402 189.895 108.668 189.637 108.935C189.38 109.467 189.123 109.467 188.608 109.467H183.977C182.947 109.467 182.433 108.935 182.433 107.869V91.3559H181.146C180.117 91.3559 179.602 90.8232 179.602 89.7579V85.7627C179.602 84.6973 180.117 84.1646 181.146 84.1646H182.69V79.3704H182.433Z" fill="#1E87B8"/>
<path d="M217.17 106.537C216.14 107.603 214.596 108.402 213.31 109.201C211.766 109.734 210.222 110 208.678 110C206.877 110 205.076 109.734 203.532 108.934C201.731 108.135 200.444 107.336 199.158 106.005C198.129 104.939 197.099 103.341 196.327 101.743C195.556 100.145 195.298 98.2807 195.298 96.4163C195.298 95.0846 195.298 94.0192 195.813 92.9538C196.07 91.8885 196.585 90.8231 197.099 89.7577C197.357 88.6923 198.129 87.8933 198.643 87.0943C199.415 86.2952 200.187 85.4962 201.216 84.9635C202.246 84.4308 203.275 83.8982 204.304 83.6318C205.333 83.3655 206.62 83.0991 207.649 83.0991C208.678 83.0991 209.708 83.3655 210.737 83.6318C211.766 83.8982 212.795 84.4308 213.825 84.9635C214.597 85.4962 215.626 86.2952 216.398 86.8279C217.17 87.627 217.684 88.426 218.456 89.4914C218.713 90.2904 219.228 91.0894 219.485 92.1548C219.743 93.2202 220 94.2856 220 95.3509C220 96.15 220 96.6827 220 97.2153C220 97.748 219.743 98.0144 219.743 98.2807C219.485 98.5471 219.228 98.5471 218.713 98.8134C218.199 98.8134 217.684 99.0798 216.912 99.0798H202.503C202.76 99.8788 203.018 100.411 203.275 101.211C203.789 101.743 204.047 102.276 204.561 102.542C205.333 102.809 205.848 103.075 206.363 103.341C207.135 103.341 207.649 103.608 208.164 103.608C208.678 103.608 209.193 103.608 209.708 103.341C210.222 103.341 210.737 103.075 211.251 102.809C211.766 102.542 212.023 102.542 212.538 102.276C213.053 102.01 213.31 101.743 213.567 101.477C213.567 101.477 213.567 101.211 213.825 101.211C214.082 101.211 214.082 101.211 214.339 101.211C214.596 101.211 214.597 101.211 214.854 101.477C215.111 101.743 215.368 101.743 215.626 102.01L217.684 104.407C217.942 104.673 217.942 104.673 217.942 104.939C217.942 104.939 217.942 105.206 217.942 105.472C217.942 105.738 217.942 106.005 217.684 106.271C217.684 106.005 217.427 106.271 217.17 106.537ZM207.649 89.225C207.134 89.225 206.62 89.225 206.105 89.4914C205.591 89.7577 205.076 90.0241 204.819 90.5568C204.304 90.8231 204.047 91.0894 203.532 91.6221C203.275 92.1548 203.018 92.6875 202.76 92.9538H212.795C212.538 92.4212 212.281 92.1548 212.023 91.6221C211.766 91.0894 211.251 90.8231 210.994 90.2904C210.48 90.0241 209.965 89.7577 209.45 89.4914C208.936 89.4914 208.421 89.225 207.649 89.225Z" fill="#1E87B8"/>
<path fill-rule="evenodd" clip-rule="evenodd" d="M139.205 65.2542L102.409 28.7651L67.4152 66.8523L57.8947 56.9976L102.409 9.05566L148.725 55.1331L139.205 65.2542Z" fill="#1E87B8"/>
<path d="M102.409 46.8765H92.8889V56.7312H102.409V46.8765Z" fill="#1E87B8"/>
<path d="M113.731 46.8765H104.211V56.7312H113.731V46.8765Z" fill="#1E87B8"/>
<path d="M102.409 60.1938H92.8889V70.0486H102.409V60.1938Z" fill="#1E87B8"/>
<path d="M113.731 60.1938H104.211V70.0486H113.731V60.1938Z" fill="#1E87B8"/>
<path fill-rule="evenodd" clip-rule="evenodd" d="M32.1638 46.6103L47.0877 22.6394L69.9883 38.0873L73.848 31.6951L44.7719 12.252L25.9883 42.6151L32.1638 46.6103Z" fill="#1E87B8"/>
<path d="M54.158 31.1678L49.1538 32.4116L50.3555 37.5915L55.3596 36.3476L54.158 31.1678Z" fill="#1E87B8"/>
<path fill-rule="evenodd" clip-rule="evenodd" d="M49.6608 37.821L44.5146 38.8864L43.4854 33.8259L48.3743 32.4941L49.6608 37.821Z" fill="#1E87B8"/>
<path d="M55.9464 38.0398L50.9427 39.2842L52.1449 44.4635L57.1486 43.2191L55.9464 38.0398Z" fill="#1E87B8"/>
<path fill-rule="evenodd" clip-rule="evenodd" d="M51.2047 44.7458L46.0585 45.8112L45.0292 40.7507L49.9181 39.4189L51.2047 44.7458Z" fill="#1E87B8"/>
<path fill-rule="evenodd" clip-rule="evenodd" d="M177.801 46.6103L162.877 22.6394L139.977 38.0873L136.117 31.6951L165.193 12.252L183.977 42.6151L177.801 46.6103Z" fill="#1E87B8"/>
<path d="M155.696 31.1473L154.495 36.3271L159.499 37.571L160.7 32.3911L155.696 31.1473Z" fill="#1E87B8"/>
<path fill-rule="evenodd" clip-rule="evenodd" d="M160.304 37.821L165.193 38.8864L166.48 33.8259L161.591 32.4941L160.304 37.821Z" fill="#1E87B8"/>
<path d="M154.106 38.0487L152.904 43.228L157.907 44.4724L159.109 39.2931L154.106 38.0487Z" fill="#1E87B8"/>
<path fill-rule="evenodd" clip-rule="evenodd" d="M158.76 44.7458L163.649 45.8112L164.936 40.7507L159.789 39.4189L158.76 44.7458Z" fill="#1E87B8"/>
<path fill-rule="evenodd" clip-rule="evenodd" d="M133.287 26.6343L128.912 8.25654L111.158 13.0507L110.129 8.25654L132.515 2.39697L138.175 25.3025L133.287 26.6343Z" fill="#666865"/>
<path fill-rule="evenodd" clip-rule="evenodd" d="M120.678 15.1815L123.766 17.0459L125.567 13.8498L122.48 11.9854L120.678 15.1815Z" fill="#666865"/>
<path fill-rule="evenodd" clip-rule="evenodd" d="M124.281 17.3123L127.111 19.1767L128.912 15.9806L125.825 14.1162L124.281 17.3123Z" fill="#666865"/>
<path fill-rule="evenodd" clip-rule="evenodd" d="M118.363 19.1766L121.193 21.041L122.994 17.8449L120.164 15.9805L118.363 19.1766Z" fill="#666865"/>
<path d="M123.563 18.2675L121.798 21.2085L124.639 23.036L126.404 20.095L123.563 18.2675Z" fill="#666865"/>
<path fill-rule="evenodd" clip-rule="evenodd" d="M75.1345 24.5036L79.7661 6.12591L97.2632 10.9201L98.5497 5.85956L76.1638 0L70.2456 23.1719L75.1345 24.5036Z" fill="#666865"/>
<path fill-rule="evenodd" clip-rule="evenodd" d="M87.7427 12.7843L84.655 14.6487L82.8538 11.7189L85.9415 9.85449L87.7427 12.7843Z" fill="#666865"/>
<path d="M82.4265 11.8684L79.5749 13.6782L81.3233 16.63L84.175 14.8201L82.4265 11.8684Z" fill="#666865"/>
<path d="M88.0951 13.826L85.2525 15.6514L87.016 18.5938L89.8586 16.7684L88.0951 13.826Z" fill="#666865"/>
<path fill-rule="evenodd" clip-rule="evenodd" d="M86.7135 18.9102L83.883 21.041L82.0819 17.8449L84.9123 15.9805L86.7135 18.9102Z" fill="#666865"/>
</g>
<defs>
<clipPath id="clip0_1455_10010">
<rect width="220" height="110" fill="white"/>
</clipPath>
</defs>
</svg>
