<svg width="221" height="110" viewBox="0 0 221 110" fill="none" xmlns="http://www.w3.org/2000/svg">
<g clip-path="url(#clip0_1455_9834)">
<path d="M49.1733 59.0981L40.5327 109.353H29.5739L33.7888 84.7648H15.2431L11.0282 109.353H0.069397L6.81328 70.5295C7.02403 69.4511 7.02403 68.5883 7.02403 67.9413C7.02403 65.1374 5.5488 63.8432 2.38761 63.8432C1.75537 63.8432 1.54462 63.4119 1.75537 62.7648C1.75537 62.3334 2.17686 62.1178 2.59835 62.1178L19.6688 59.0981L15.8754 81.3138H34.4211L38.2145 59.0981H49.1733ZM81.4175 91.8825C80.5745 97.706 78.0456 102.235 74.2521 105.471C70.4587 108.49 65.8223 110 60.3429 110C55.7064 110 51.913 108.922 49.1733 106.333C46.4336 103.961 44.9584 100.51 44.9584 95.9805C44.9584 94.6864 45.1691 93.1766 45.3799 91.6668C46.4336 85.6276 48.9626 80.8825 52.9667 77.4315C56.7602 74.4119 61.1859 72.9021 66.876 72.9021C71.5124 72.9021 75.0951 74.1962 77.8348 76.5687C80.5745 78.9413 81.839 82.608 81.839 87.3531C81.839 88.8629 81.6283 90.3727 81.4175 91.8825ZM70.4587 91.8825C71.0909 88.0001 71.5124 84.9805 71.5124 83.0393C71.5124 78.2942 69.8265 75.9217 66.2438 75.9217C63.0826 75.9217 60.7644 77.6472 59.0784 81.3138C58.2354 83.4707 57.3924 86.9217 56.5494 91.8825C55.9172 95.3334 55.4957 97.706 55.4957 99.2158C55.4957 103.53 57.3924 105.686 60.9751 105.686C64.1363 105.686 66.4545 104.177 67.9297 101.157C68.9835 99.4315 69.8265 96.1962 70.4587 91.8825ZM142.955 87.5687L139.162 109.137H128.414L132.207 87.3531C132.629 84.9805 132.84 83.0393 132.84 81.9609C132.84 78.9413 131.575 77.2158 129.046 77.2158C126.517 77.2158 124.199 78.2942 122.513 80.2354C120.827 82.1766 119.773 84.5491 119.352 87.3531L115.348 109.353H104.389L108.182 87.5687C108.604 84.9805 108.815 83.255 108.815 82.1766C108.815 79.157 107.55 77.4315 104.81 77.4315C102.281 77.4315 99.9632 78.5099 98.0665 80.4511C96.5913 82.3923 95.5375 84.7648 94.9053 87.5687L91.3226 109.353H80.3638L84.5787 84.1178C84.7895 83.0393 85.0002 81.9609 85.0002 81.0981C85.0002 79.5883 84.5787 78.7256 83.9465 78.0785C83.3142 77.6472 82.0497 77.2158 80.153 77.2158C79.7315 77.2158 79.5208 76.7844 79.5208 76.353C79.5208 75.706 79.9423 75.4903 80.5745 75.4903L97.4342 72.4707L96.802 77.2158C99.7524 74.8432 103.757 73.7648 108.393 73.7648C113.872 73.7648 117.455 75.9217 118.509 80.2354C121.038 75.9217 125.464 73.7648 132.418 73.7648C136.212 73.7648 138.951 74.8432 140.848 77.0001C142.534 78.7256 143.377 81.3138 143.377 84.3334C143.377 85.4119 143.166 86.4903 142.955 87.5687ZM176.043 86.9217L154.125 91.4511C153.914 92.5295 153.914 93.3923 153.914 94.255C153.914 97.2746 154.547 99.6472 156.022 101.588C157.497 103.745 159.815 105.039 162.555 105.039C165.716 105.039 169.088 103.53 172.46 100.51L171.406 105.902C168.034 108.706 163.398 110 157.918 110C153.282 110 149.489 108.922 146.749 106.549C144.009 104.177 142.534 100.726 142.534 96.1962C142.534 94.9021 142.745 93.3923 142.955 91.8825C144.009 85.8432 146.538 81.0981 150.332 77.6472C154.125 74.4119 158.761 72.6864 164.03 72.6864C168.245 72.6864 171.195 74.1962 173.514 77.2158C175.41 80.0197 176.253 83.255 176.043 86.9217ZM168.877 85.4119C168.877 84.5491 168.877 83.6864 168.877 83.0393C168.877 78.0785 167.191 75.4903 163.819 75.4903C159.394 75.4903 156.443 79.804 154.547 88.4315L168.877 85.4119ZM205.126 74.8432L204.493 79.3727C200.068 78.0785 196.064 77.4315 192.902 77.4315C191.427 77.4315 190.163 77.8629 188.898 78.2942C187.634 78.9413 187.001 79.804 186.791 80.6668C186.58 81.7452 188.055 83.0393 191.006 84.9805C195.642 88.0001 198.593 89.7256 199.436 90.3727C202.386 92.7452 203.861 95.1178 203.861 97.2746C203.861 101.804 201.543 105.039 197.117 107.412C193.535 109.137 189.32 110 184.683 110C182.154 110 179.415 109.353 177.096 108.059C176.675 107.843 175.41 106.98 173.092 105.471L174.146 99.8629C177.939 103.745 181.733 105.902 185.526 105.902C190.373 105.902 192.902 104.824 193.324 102.667C193.535 101.373 192.27 100.079 189.109 98.353C183.84 95.1178 180.89 93.3923 180.679 93.1766C177.729 91.0197 176.253 88.6472 176.253 86.2746C176.253 81.9609 178.361 78.7256 182.576 76.353C185.948 74.4119 189.952 73.5491 194.378 73.5491C197.328 73.5491 200.911 73.9805 205.126 74.8432Z" fill="#4D4D4D"/>
<path fill-rule="evenodd" clip-rule="evenodd" d="M220.089 64.7059L217.56 100.941L213.766 64.9216H213.556C199.225 58.2353 189.952 46.3725 182.365 32.3529C172.881 69.6667 119.141 85.1961 52.3345 44.4314L52.1238 44.6471V44.2157L110.922 36.8824L129.257 59.7451L98.0665 9.4902L66.876 38.8235L59.4999 39.902L96.1698 5.82353L95.7483 5.60784L128.835 4.7451V11L132.207 12.5098L133.261 0.431373L143.166 0L141.691 1.5098L141.059 1.94118L140.848 5.39216L148.435 4.31373L162.555 26.5294L143.588 27.6078L185.948 27.1765C193.324 41.1961 202.175 56.2941 220.089 64.7059ZM95.3268 22.4314L90.6904 22.6471L90.0581 27.3922H94.9053L95.3268 22.4314ZM94.6945 29.1176H90.0581L89.4259 34.0784L94.2731 33.8627L94.6945 29.1176ZM101.228 28.6863L96.3805 28.902L95.959 33.8627L100.595 33.6471L101.228 28.6863ZM101.86 22.2157L97.2235 22.4314L96.5913 27.1765L101.438 26.9608L101.86 22.2157ZM181.944 51.549H175.41L174.778 58.451L181.311 58.2353L181.944 51.549ZM181.101 60.6078L174.567 60.8235L173.724 67.5098L180.468 67.2941L181.101 60.6078ZM190.163 60.1765L183.419 60.3922L182.787 67.2941L188.687 64.7059L190.163 60.1765ZM191.006 51.1176L184.473 51.3333L183.63 58.2353L190.373 58.0196L191.006 51.1176Z" fill="#0091C6"/>
</g>
<defs>
<clipPath id="clip0_1455_9834">
<rect width="220.019" height="110" fill="white" transform="translate(0.069397)"/>
</clipPath>
</defs>
</svg>
