<svg width="221" height="110" viewBox="0 0 221 110" fill="none" xmlns="http://www.w3.org/2000/svg">
<g clip-path="url(#clip0_1455_9882)">
<path d="M77.9338 60.2783C78.9758 57.7061 80.3651 55.2794 82.0848 53.0746C82.1864 53.7942 82.2881 54.4985 82.3813 55.1952C82.5931 56.8947 82.6185 58.5865 82.4999 60.2783H107.558C108.05 59.1071 108.965 58.043 110.405 57.3463C111.701 56.7186 113.005 56.0602 113.624 54.3837C112.887 54.5674 112.345 54.6823 111.819 54.8277C108.88 55.6468 110.93 53.6717 112.277 53.3196C113.099 53.1052 111.54 52.5387 111.54 52.5387C111.574 52.4775 112.573 52.2249 113.683 51.7962C114.446 51.5053 115.225 51.1761 115.86 50.7091C116.267 50.4029 116.428 49.8211 116.699 49.3694C116.631 49.3005 116.563 49.2316 116.496 49.1551C115.725 49.2469 114.945 49.3541 114.166 49.4307C112.844 49.5685 112.539 49.3312 112.412 48.1293C112.328 47.3101 111.404 46.8585 110.54 47.2795C109.956 47.5628 109.447 47.9838 108.888 48.313C107.592 49.0709 106.618 48.7647 106.11 47.4556C105.805 46.6747 105.381 46.5293 104.585 46.9656C104.187 47.18 103.856 47.5015 103.45 47.7082C102.78 48.045 102.111 48.3819 101.391 48.6115C100.696 48.8336 99.8578 48.9943 99.3834 48.3053C98.8751 47.5628 99.3241 46.8432 99.9594 46.3762C100.756 45.7944 101.679 45.3504 102.577 44.8987C103.856 44.248 105.212 43.7045 106.449 42.9925C107.355 42.4719 107.753 41.6145 107.457 40.6117C107.406 40.4356 107.33 40.2902 107.236 40.16C107.829 40.1217 108.431 40.0911 109.041 40.0835C110.108 40.9026 111.387 41.3849 112.734 41.7523C114.2 42.1428 114.403 41.959 114.606 40.5734C114.776 40.5351 114.954 40.4969 115.123 40.4509C117.893 40.849 120.562 41.5456 123.069 42.5179C123.103 42.5485 123.146 42.5791 123.18 42.6097C123.4 42.8088 123.264 43.4136 123.163 43.804C123.027 44.3322 122.705 44.8145 122.553 45.335C122.265 46.3532 122.993 47.1417 124.154 47.1341C124.518 47.1264 124.882 47.0575 125.255 47.0422C126.331 46.9963 126.712 47.3714 126.61 48.3513C126.466 49.7369 126.729 49.9053 128.279 49.668C128.72 49.5991 129.237 49.7828 129.694 49.9283C129.965 50.0125 130.177 50.2498 130.414 50.4106C131.854 51.3981 132.956 51.0306 133.379 49.4154C133.421 49.2393 133.421 49.0479 133.455 48.8718C133.464 48.8489 133.464 48.8336 133.472 48.8106C134.853 50.0278 136.124 51.3522 137.259 52.7684C136.751 53.6105 136.776 54.5368 136.988 55.4554C137.293 56.8258 136.895 58.02 136.302 59.2219C136.124 59.574 135.946 59.9338 135.768 60.286H152.423C147.323 43.337 130.152 30.8281 109.803 30.8281C89.4549 30.8281 72.2834 43.337 67.1836 60.286H77.9338V60.2783Z" fill="#666666"/>
<path d="M91.2509 44.3246C91.8185 41.0787 94.4022 38.0242 98.9768 37.6568C111.913 36.6156 125.958 37.5649 136.776 44.3246H141.029V38.3687L141.698 38.7209L143.147 36.4931L141.029 35.3678V31.9229L139.572 30.1698L138.174 31.9229V33.852L135.7 32.5353V28.8761L134.303 27.123L132.845 28.8761V31.0119L130.846 29.9478V21.5116L131.583 21.3279C131.803 21.2743 131.964 21.1212 132.024 20.9221C132.083 20.7231 132.015 20.5164 131.863 20.3786L130.846 19.4599V19.3222H130.694L111.328 1.82963C110.32 0.918644 108.693 0.918644 107.685 1.82963L99.0954 9.59218H97.3926C97.4435 6.23913 94.775 6.45348 94.775 4.97599C94.775 3.23822 96.4438 2.40379 96.4438 0C94.6733 2.31192 91.5558 2.25068 91.5558 5.198C91.5558 7.38743 94.614 8.02283 96.1897 9.59218H92.1743V15.8543L87.4557 20.1107C87.2778 20.2714 87.227 20.5164 87.3201 20.7231C87.4133 20.9298 87.6421 21.0676 87.8962 21.0676V29.8713L87.7606 29.8789L86.041 30.7976V28.8761L84.5754 27.123L83.1776 28.8761V32.321L80.4159 33.7908V31.9229L78.9504 30.1698L77.5526 31.9229V35.3066L75.3162 36.5008L76.7648 38.7285L77.5526 38.3075V44.3246H91.2509ZM135.7 35.5362L138.174 36.8529V38.6979C137.428 38.2156 136.607 37.7486 135.7 37.3123V35.5362ZM130.838 32.9487L132.837 34.0128V36.0951C132.193 35.8577 131.524 35.6281 130.838 35.4137V32.9487ZM86.041 33.7985L87.8962 32.8109V35.4597C87.2608 35.6664 86.6424 35.8731 86.041 36.0951V33.7985ZM80.4159 36.7917L83.1776 35.3219V37.3123C82.1526 37.8022 81.2377 38.3304 80.4159 38.8816V36.7917Z" fill="#666666"/>
<path d="M156.387 60.6306H64.2864V59.6354C64.2864 59.6354 81.3732 56.9561 110.54 56.9561C139.707 56.9561 156.387 59.6354 156.387 59.6354V60.6306Z" fill="#666666"/>
<path d="M112.988 33.4922H106.584V26.3956C106.584 25.8062 107.109 25.3315 107.762 25.3315H111.819C112.471 25.3315 112.996 25.8062 112.996 26.3956V33.4922H112.988Z" fill="white"/>
<path d="M107.846 14.6216C107.55 14.6216 107.287 14.7747 107.16 15.012C107.033 15.2493 107.075 15.5326 107.262 15.7393C107.804 16.3287 108.617 16.6962 109.532 16.6962C110.447 16.6962 111.26 16.3211 111.802 15.7393C111.988 15.5402 112.031 15.257 111.904 15.012C111.777 14.7747 111.514 14.6216 111.217 14.6216H107.846Z" fill="white"/>
<path d="M112.463 13.4658C112.183 12.2409 110.989 11.3223 109.549 11.3223C108.109 11.3223 106.914 12.2409 106.635 13.4658H112.463Z" fill="white"/>
<path d="M15.093 75.2526C14.932 75.4899 14.7541 75.666 14.5762 75.7885C14.3983 75.9109 14.1611 75.9645 13.8816 75.9645C13.6274 75.9645 13.3563 75.8956 13.0683 75.7502C12.7803 75.6047 12.4499 75.444 12.0856 75.2679C11.7213 75.0918 11.2978 74.9311 10.8318 74.7856C10.3574 74.6401 9.82375 74.5713 9.22228 74.5713C8.1803 74.5713 7.4094 74.7703 6.90112 75.176C6.39283 75.5741 6.13869 76.1176 6.13869 76.799C6.13869 77.2353 6.29118 77.5951 6.59615 77.886C6.90112 78.1769 7.30774 78.4219 7.80756 78.6286C8.30737 78.8353 8.87495 79.0267 9.51878 79.2027C10.1626 79.3788 10.8149 79.5702 11.4841 79.7846C12.1534 79.9989 12.8057 80.2439 13.4495 80.5348C14.0933 80.8257 14.6609 81.1855 15.1607 81.6372C15.6605 82.0812 16.0587 82.6247 16.3721 83.2601C16.6771 83.8955 16.8296 84.6687 16.8296 85.572C16.8296 86.5749 16.6348 87.5088 16.2535 88.3815C15.8723 89.2542 15.3132 90.0121 14.5847 90.6628C13.8561 91.3135 12.9582 91.8188 11.8908 92.1939C10.8234 92.569 9.61197 92.7528 8.24807 92.7528C7.50259 92.7528 6.74863 92.6839 5.96926 92.5461C5.19837 92.4083 4.45288 92.2092 3.72434 91.9566C3.00427 91.704 2.31809 91.4054 1.68273 91.0609C1.04738 90.7164 0.496737 90.326 0.0223389 89.905L1.66579 87.5624C1.80133 87.394 1.97076 87.2562 2.18255 87.1414C2.39433 87.0265 2.63153 86.9729 2.8772 86.9729C3.20759 86.9729 3.53797 87.0648 3.86836 87.2562C4.19874 87.4476 4.57995 87.6543 5.00352 87.8763C5.42709 88.1059 5.90996 88.3126 6.4606 88.4964C7.01125 88.6877 7.65507 88.7796 8.40056 88.7796C9.40865 88.7796 10.188 88.5806 10.7471 88.1748C11.3062 87.7768 11.5858 87.1414 11.5858 86.2687C11.5858 85.7634 11.4333 85.35 11.1283 85.0361C10.8234 84.7223 10.4167 84.4543 9.91694 84.2476C9.41712 84.0409 8.84954 83.8572 8.21418 83.6964C7.57883 83.5357 6.92653 83.3596 6.25729 83.1682C5.58805 82.9768 4.93575 82.7395 4.3004 82.4563C3.66504 82.173 3.09746 81.8056 2.59765 81.3463C2.09783 80.8869 1.69968 80.3128 1.38623 79.6238C1.08126 78.9348 0.928779 78.0851 0.928779 77.0746C0.928779 76.2631 1.10668 75.4746 1.47095 74.7014C1.83522 73.9282 2.36045 73.2392 3.06357 72.6344C3.7667 72.0297 4.62231 71.5474 5.64735 71.1876C6.66392 70.8278 7.83297 70.644 9.14604 70.644C9.88305 70.644 10.5946 70.6976 11.2893 70.7972C11.984 70.9043 12.6447 71.0574 13.2716 71.2565C13.8985 71.4632 14.483 71.7005 15.0252 71.9837C15.5674 72.267 16.0502 72.5885 16.4823 72.9407L15.093 75.2526Z" fill="#666666"/>
<path d="M46.9793 70.8582V92.4923H42.0828V80.0523C42.0828 79.7614 42.0913 79.4552 42.1083 79.1184C42.1252 78.7815 42.1591 78.4371 42.2014 78.0926L35.8394 89.2158C35.6446 89.5603 35.3735 89.8282 35.0431 90.0043C34.7127 90.1804 34.3315 90.2723 33.8995 90.2723H33.1455C32.7219 90.2723 32.3407 90.1804 32.0019 90.0043C31.6715 89.8282 31.4004 89.5603 31.2056 89.2158L24.8435 78.0619C24.8774 78.4217 24.9028 78.7662 24.9283 79.1107C24.9537 79.4552 24.9621 79.7691 24.9621 80.0523V92.4923H20.0657V70.8582H24.3014C24.5386 70.8582 24.7504 70.8659 24.9367 70.8736C25.1146 70.8812 25.2756 70.9118 25.4196 70.9654C25.5636 71.0113 25.6907 71.0956 25.8093 71.1951C25.9279 71.3023 26.038 71.4477 26.1481 71.6314L32.3068 82.6016C32.5271 82.9767 32.7389 83.3671 32.9422 83.7728C33.1455 84.1786 33.3404 84.592 33.5267 85.0207C33.7131 84.5843 33.9079 84.1633 34.1113 83.7422C34.3146 83.3288 34.5264 82.9308 34.7636 82.5556L40.9053 71.6238C41.0154 71.4324 41.1256 71.2869 41.2442 71.1874C41.3628 71.0802 41.4898 71.0037 41.6339 70.9578C41.7779 70.9118 41.9388 70.8812 42.1167 70.8659C42.2946 70.8582 42.5064 70.8506 42.7521 70.8506H46.9793V70.8582Z" fill="#666666"/>
<path d="M73.0966 92.4925H68.7931C68.3103 92.4925 67.9206 92.393 67.6241 92.1863C67.3276 91.9872 67.1073 91.7269 66.9464 91.4054L65.5317 87.6313H56.4334L55.0186 91.4054C54.9 91.681 54.6798 91.9336 54.3663 92.1556C54.0529 92.3776 53.6717 92.4925 53.2058 92.4925H48.8684L58.1361 70.8584H63.8204L73.0966 92.4925ZM64.2694 84.217L62.0499 78.2918C61.889 77.9166 61.7111 77.4726 61.5247 76.9597C61.3383 76.4468 61.1519 75.8956 60.9656 75.3062C60.8046 75.9109 60.6267 76.4698 60.4403 76.9827C60.254 77.4956 60.0761 77.9396 59.9151 78.3224L57.7126 84.217H64.2694Z" fill="#666666"/>
<path d="M89.4125 88.4811V92.4925H74.9857V70.8584H80.543V88.4811H89.4125Z" fill="#666666"/>
<path d="M106.66 88.4811V92.4925H92.2335V70.8584H97.7908V88.4811H106.66Z" fill="#666666"/>
<path d="M130.389 70.8584V92.4925H124.806V83.3443H115.081V92.4925H109.498V70.8584H115.081V79.8994H124.806V70.8584H130.389Z" fill="#EF4A23"/>
<path d="M158.522 81.6676C158.522 83.2293 158.226 84.6838 157.624 86.0312C157.023 87.3785 156.184 88.5498 155.1 89.545C154.015 90.5402 152.711 91.3211 151.178 91.8876C149.653 92.4541 147.95 92.7373 146.095 92.7373C144.231 92.7373 142.537 92.4541 141.003 91.8876C139.47 91.3211 138.157 90.5402 137.064 89.545C135.971 88.5498 135.133 87.3785 134.531 86.0312C133.938 84.6838 133.633 83.2293 133.633 81.6676C133.633 80.1059 133.93 78.6514 134.531 77.3041C135.124 75.9567 135.971 74.7931 137.064 73.7979C138.157 72.8104 139.462 72.0295 141.003 71.463C142.537 70.8965 144.231 70.6133 146.095 70.6133C147.958 70.6133 149.653 70.8965 151.178 71.4707C152.702 72.0372 154.015 72.818 155.1 73.8056C156.184 74.7931 157.023 75.9644 157.624 77.3117C158.226 78.6591 158.522 80.1136 158.522 81.6676ZM152.838 81.6676C152.838 80.5959 152.685 79.639 152.381 78.7816C152.076 77.9242 151.635 77.1969 151.059 76.6074C150.483 76.0103 149.78 75.5587 148.95 75.2371C148.119 74.9233 147.171 74.7625 146.103 74.7625C145.027 74.7625 144.07 74.9233 143.24 75.2371C142.401 75.551 141.698 76.0103 141.122 76.6074C140.546 77.2046 140.105 77.9242 139.8 78.7816C139.496 79.639 139.343 80.6035 139.343 81.6676C139.343 82.747 139.496 83.7116 139.8 84.569C140.105 85.4264 140.546 86.1537 141.122 86.7431C141.698 87.3403 142.401 87.7919 143.24 88.1058C144.079 88.4197 145.036 88.5728 146.103 88.5728C147.162 88.5728 148.111 88.4197 148.95 88.1058C149.78 87.7919 150.483 87.3403 151.059 86.7431C151.635 86.146 152.076 85.4264 152.381 84.569C152.685 83.7116 152.838 82.747 152.838 81.6676Z" fill="#EF4A23"/>
<path d="M171.78 88.527C172.526 88.527 173.195 88.4122 173.779 88.1902C174.364 87.9681 174.864 87.6466 175.27 87.2332C175.677 86.8198 175.982 86.3069 176.202 85.7098C176.414 85.1127 176.524 84.4314 176.524 83.6658V70.8584H182.081V83.6735C182.081 84.9979 181.844 86.2151 181.37 87.3251C180.895 88.4351 180.209 89.392 179.32 90.1882C178.43 90.992 177.354 91.6121 176.084 92.0561C174.813 92.5001 173.381 92.7221 171.797 92.7221C170.196 92.7221 168.764 92.5001 167.494 92.0561C166.223 91.6121 165.147 90.9844 164.257 90.1882C163.368 89.3844 162.69 88.4351 162.216 87.3251C161.741 86.2151 161.513 84.9979 161.513 83.6735V70.8584H167.07V83.6582C167.07 84.4237 167.18 85.0974 167.392 85.7022C167.604 86.2993 167.917 86.8122 168.324 87.2332C168.73 87.6543 169.222 87.9758 169.815 88.1978C170.374 88.4122 171.035 88.527 171.78 88.527Z" fill="#EF4A23"/>
<path d="M199.634 75.2526C199.473 75.4899 199.295 75.666 199.117 75.7885C198.939 75.9109 198.702 75.9645 198.423 75.9645C198.168 75.9645 197.897 75.8956 197.609 75.7502C197.321 75.6047 196.991 75.444 196.627 75.2679C196.262 75.0918 195.839 74.9311 195.373 74.7856C194.898 74.6401 194.365 74.5713 193.763 74.5713C192.721 74.5713 191.95 74.7703 191.442 75.176C190.934 75.5741 190.68 76.1176 190.68 76.799C190.68 77.2353 190.832 77.5951 191.137 77.886C191.442 78.1769 191.849 78.4219 192.349 78.6286C192.848 78.8353 193.416 79.0267 194.06 79.2027C194.704 79.3788 195.356 79.5702 196.025 79.7846C196.694 79.9989 197.347 80.2439 197.991 80.5348C198.634 80.8257 199.202 81.1855 199.702 81.6372C200.202 82.0812 200.6 82.6247 200.913 83.2601C201.218 83.8955 201.371 84.6687 201.371 85.572C201.371 86.5749 201.176 87.5088 200.795 88.3815C200.413 89.2542 199.854 90.0121 199.126 90.6628C198.397 91.3135 197.499 91.8188 196.432 92.1939C195.364 92.569 194.153 92.7528 192.789 92.7528C192.044 92.7528 191.29 92.6839 190.51 92.5461C189.739 92.4083 188.994 92.2092 188.265 91.9566C187.545 91.704 186.859 91.4054 186.224 91.0609C185.588 90.7164 185.038 90.326 184.563 89.905L186.207 87.5624C186.342 87.394 186.512 87.2562 186.724 87.1414C186.935 87.0265 187.173 86.9729 187.418 86.9729C187.749 86.9729 188.079 87.0648 188.409 87.2562C188.74 87.4476 189.121 87.6543 189.545 87.8763C189.968 88.1059 190.451 88.3126 191.002 88.4964C191.552 88.6877 192.196 88.7796 192.942 88.7796C193.95 88.7796 194.729 88.5806 195.288 88.1748C195.847 87.7768 196.127 87.1414 196.127 86.2687C196.127 85.7634 195.974 85.35 195.669 85.0361C195.364 84.7223 194.958 84.4543 194.458 84.2476C193.958 84.0409 193.391 83.8572 192.755 83.6964C192.12 83.5357 191.468 83.3596 190.798 83.1682C190.129 82.9768 189.477 82.7395 188.841 82.4563C188.206 82.173 187.638 81.8056 187.139 81.3463C186.639 80.8869 186.241 80.3128 185.927 79.6238C185.622 78.9348 185.47 78.0851 185.47 77.0746C185.47 76.2631 185.648 75.4746 186.012 74.7014C186.376 73.9282 186.901 73.2392 187.605 72.6344C188.308 72.0297 189.163 71.5474 190.188 71.1876C191.205 70.8278 192.374 70.644 193.687 70.644C194.424 70.644 195.136 70.6976 195.83 70.7972C196.525 70.9043 197.186 71.0574 197.813 71.2565C198.44 71.4632 199.024 71.7005 199.566 71.9837C200.108 72.267 200.591 72.5885 201.023 72.9407L199.634 75.2526Z" fill="#EF4A23"/>
<path d="M210.198 74.7167V79.7616H217.72V83.4744H210.198V88.6265H220.025V92.4848H204.615V70.8584H220.025V74.7167H210.198Z" fill="#EF4A23"/>
<path d="M75.8324 109.916H74.8837C74.6888 109.916 74.5448 109.847 74.4517 109.709L72.4018 107.16C72.3425 107.084 72.2747 107.022 72.1985 106.992C72.1307 106.961 72.0121 106.938 71.8681 106.938H71.0549V109.916H69.9961V102.781H72.2239C72.7236 102.781 73.1556 102.827 73.5199 102.919C73.8841 103.011 74.1806 103.141 74.4178 103.317C74.655 103.493 74.8328 103.7 74.943 103.945C75.0531 104.19 75.1124 104.465 75.1124 104.764C75.1124 105.017 75.07 105.254 74.9768 105.468C74.8921 105.69 74.7651 105.882 74.5957 106.058C74.4262 106.234 74.223 106.379 73.9858 106.502C73.7486 106.624 73.4691 106.716 73.1641 106.777C73.2996 106.846 73.4182 106.946 73.5199 107.084L75.8324 109.916ZM72.1815 106.241C72.4865 106.241 72.766 106.211 73.0032 106.142C73.2404 106.073 73.4352 105.981 73.5961 105.851C73.7571 105.729 73.8757 105.575 73.9604 105.407C74.0451 105.231 74.079 105.047 74.079 104.833C74.079 104.412 73.9265 104.09 73.6131 103.876C73.3081 103.662 72.8422 103.554 72.2239 103.554H71.0549V106.249H72.1815V106.241Z" fill="#666666"/>
<path d="M82.3216 109.135L82.3131 109.923H77.4509V102.789H82.3131V103.577H78.5182V105.95H81.5931V106.708H78.5182V109.143H82.3216V109.135Z" fill="#666666"/>
<path d="M90.759 102.781V109.916H90.2253C90.1406 109.916 90.0729 109.901 90.0136 109.878C89.9543 109.847 89.9035 109.809 89.8442 109.74L85.2785 104.366C85.287 104.45 85.2954 104.527 85.2954 104.611C85.2954 104.687 85.3039 104.764 85.3039 104.833V109.916H84.3636V102.781H84.9142C84.9651 102.781 84.9989 102.781 85.0328 102.789C85.0667 102.797 85.0921 102.804 85.1175 102.812C85.1429 102.827 85.1684 102.842 85.1938 102.865C85.2192 102.888 85.2446 102.911 85.2785 102.95L89.8442 108.324C89.8357 108.24 89.8272 108.155 89.8272 108.071C89.8188 107.987 89.8187 107.91 89.8187 107.841V102.789H90.759V102.781Z" fill="#666666"/>
<path d="M100.619 106.356C100.619 106.892 100.526 107.382 100.34 107.826C100.154 108.27 99.891 108.66 99.5437 108.982C99.2049 109.304 98.7898 109.556 98.3155 109.732C97.8327 109.908 97.3075 110 96.723 110C96.147 110 95.6133 109.908 95.139 109.732C94.6646 109.556 94.2496 109.304 93.9107 108.982C93.5719 108.66 93.3008 108.278 93.1145 107.826C92.9281 107.382 92.835 106.892 92.835 106.356C92.835 105.82 92.9281 105.33 93.1145 104.886C93.3008 104.442 93.5634 104.052 93.9107 103.73C94.2496 103.409 94.6646 103.156 95.139 102.973C95.6133 102.796 96.147 102.705 96.723 102.705C97.3075 102.705 97.8327 102.796 98.3155 102.973C98.7983 103.149 99.2049 103.401 99.5437 103.73C99.8825 104.052 100.154 104.442 100.34 104.886C100.526 105.33 100.619 105.82 100.619 106.356ZM99.5268 106.356C99.5268 105.92 99.459 105.522 99.332 105.177C99.1964 104.825 99.0101 104.534 98.7729 104.297C98.5272 104.06 98.2392 103.868 97.8919 103.738C97.5446 103.608 97.1635 103.547 96.7315 103.547C96.3079 103.547 95.9268 103.616 95.5795 103.738C95.2322 103.868 94.9357 104.052 94.6985 104.297C94.4529 104.534 94.2665 104.833 94.131 105.177C93.9954 105.529 93.9361 105.92 93.9361 106.356C93.9361 106.793 94.0039 107.191 94.131 107.535C94.2665 107.88 94.4529 108.178 94.6985 108.415C94.9442 108.653 95.2406 108.844 95.5795 108.967C95.9268 109.097 96.3079 109.158 96.7315 109.158C97.155 109.158 97.5446 109.097 97.8919 108.967C98.2392 108.837 98.5272 108.653 98.7729 108.415C99.0185 108.178 99.2049 107.88 99.332 107.535C99.459 107.183 99.5268 106.793 99.5268 106.356Z" fill="#666666"/>
<path d="M108.896 102.781L105.677 109.916H104.72L101.501 102.781H102.357C102.45 102.781 102.526 102.804 102.585 102.85C102.645 102.896 102.687 102.95 102.721 103.011L104.949 108.048C105 108.163 105.042 108.285 105.093 108.416C105.135 108.546 105.177 108.691 105.22 108.837C105.254 108.691 105.296 108.553 105.338 108.416C105.381 108.285 105.423 108.163 105.474 108.048L107.693 103.011C107.719 102.957 107.761 102.904 107.82 102.858C107.888 102.812 107.964 102.789 108.058 102.789H108.896V102.781Z" fill="#666666"/>
<path d="M116.317 109.916H115.487C115.394 109.916 115.318 109.893 115.258 109.854C115.199 109.809 115.157 109.755 115.123 109.694L114.386 107.971H110.845L110.108 109.694C110.083 109.755 110.04 109.809 109.981 109.854C109.922 109.9 109.846 109.923 109.752 109.923H108.922L112.082 102.789H113.158L116.317 109.916ZM114.089 107.267L112.853 104.366C112.819 104.281 112.776 104.182 112.734 104.067C112.692 103.952 112.658 103.83 112.615 103.7C112.539 103.968 112.463 104.19 112.378 104.373L111.142 107.275H114.089V107.267Z" fill="#666666"/>
<path d="M122.467 103.593H119.909V109.916H118.85V103.593H116.292V102.781H122.476V103.593H122.467Z" fill="#666666"/>
<path d="M125.255 109.916H124.188V102.781H125.255V109.916Z" fill="#666666"/>
<path d="M135.124 106.356C135.124 106.892 135.03 107.382 134.844 107.826C134.658 108.27 134.395 108.66 134.048 108.982C133.709 109.304 133.294 109.556 132.82 109.732C132.337 109.908 131.811 110 131.227 110C130.643 110 130.117 109.908 129.643 109.732C129.169 109.556 128.754 109.304 128.415 108.982C128.076 108.66 127.805 108.278 127.619 107.826C127.432 107.382 127.339 106.892 127.339 106.356C127.339 105.82 127.432 105.33 127.619 104.886C127.805 104.442 128.067 104.052 128.415 103.73C128.754 103.409 129.169 103.156 129.643 102.973C130.117 102.796 130.651 102.705 131.227 102.705C131.811 102.705 132.337 102.796 132.82 102.973C133.302 103.149 133.709 103.401 134.048 103.73C134.387 104.052 134.658 104.442 134.844 104.886C135.022 105.33 135.124 105.82 135.124 106.356ZM134.022 106.356C134.022 105.92 133.955 105.522 133.828 105.177C133.692 104.825 133.506 104.534 133.268 104.297C133.023 104.06 132.735 103.868 132.388 103.738C132.04 103.608 131.659 103.547 131.227 103.547C130.803 103.547 130.422 103.616 130.075 103.738C129.728 103.868 129.431 104.052 129.194 104.297C128.948 104.534 128.762 104.833 128.627 105.177C128.491 105.529 128.432 105.92 128.432 106.356C128.432 106.793 128.499 107.191 128.627 107.535C128.762 107.88 128.948 108.178 129.194 108.415C129.44 108.653 129.736 108.844 130.075 108.967C130.422 109.097 130.803 109.158 131.227 109.158C131.651 109.158 132.04 109.097 132.388 108.967C132.735 108.837 133.023 108.653 133.268 108.415C133.514 108.178 133.7 107.88 133.828 107.535C133.955 107.183 134.022 106.793 134.022 106.356Z" fill="#666666"/>
<path d="M143.595 102.781V109.916H143.061C142.977 109.916 142.909 109.901 142.85 109.878C142.79 109.847 142.74 109.809 142.68 109.74L138.115 104.366C138.123 104.45 138.131 104.527 138.131 104.611C138.131 104.687 138.14 104.764 138.14 104.833V109.916H137.2V102.781H137.75C137.801 102.781 137.835 102.781 137.869 102.789C137.903 102.797 137.928 102.804 137.954 102.812C137.979 102.827 138.004 102.842 138.03 102.865C138.055 102.888 138.081 102.911 138.115 102.95L142.68 108.324C142.672 108.24 142.663 108.155 142.663 108.071C142.655 107.987 142.655 107.91 142.655 107.841V102.789H143.595V102.781Z" fill="#666666"/>
<path d="M150.203 103.899C150.169 103.945 150.135 103.983 150.093 104.014C150.05 104.037 150.008 104.052 149.949 104.052C149.889 104.052 149.813 104.021 149.729 103.968C149.644 103.914 149.542 103.853 149.415 103.784C149.288 103.715 149.136 103.654 148.958 103.6C148.78 103.547 148.56 103.516 148.314 103.516C148.077 103.516 147.865 103.547 147.679 103.6C147.501 103.662 147.348 103.738 147.221 103.838C147.094 103.937 147.009 104.052 146.942 104.19C146.882 104.328 146.849 104.473 146.849 104.626C146.849 104.825 146.899 104.994 147.009 105.124C147.12 105.254 147.264 105.369 147.441 105.461C147.619 105.553 147.823 105.637 148.051 105.706C148.28 105.775 148.509 105.843 148.746 105.92C148.983 105.997 149.212 106.073 149.441 106.165C149.669 106.257 149.864 106.372 150.05 106.509C150.228 106.647 150.372 106.823 150.482 107.022C150.593 107.221 150.643 107.474 150.643 107.773C150.643 108.086 150.584 108.377 150.465 108.653C150.347 108.929 150.177 109.166 149.949 109.365C149.72 109.564 149.449 109.725 149.119 109.84C148.788 109.954 148.416 110.016 148.001 110.016C147.484 110.016 147.018 109.931 146.603 109.763C146.188 109.595 145.824 109.373 145.527 109.082L145.832 108.622C145.857 108.584 145.9 108.553 145.942 108.53C145.985 108.508 146.027 108.492 146.086 108.492C146.137 108.492 146.188 108.508 146.247 108.546C146.306 108.584 146.374 108.622 146.45 108.676C146.527 108.73 146.62 108.783 146.713 108.852C146.815 108.913 146.925 108.974 147.052 109.028C147.179 109.082 147.323 109.128 147.484 109.158C147.645 109.196 147.831 109.212 148.026 109.212C148.28 109.212 148.509 109.181 148.704 109.12C148.898 109.059 149.068 108.967 149.212 108.852C149.347 108.737 149.457 108.599 149.525 108.439C149.601 108.278 149.635 108.102 149.635 107.903C149.635 107.688 149.585 107.512 149.474 107.375C149.364 107.237 149.22 107.122 149.051 107.03C148.873 106.938 148.67 106.862 148.441 106.793C148.212 106.731 147.984 106.663 147.746 106.594C147.509 106.525 147.281 106.448 147.052 106.356C146.823 106.264 146.62 106.15 146.442 106.004C146.264 105.859 146.12 105.683 146.018 105.468C145.908 105.254 145.857 104.986 145.857 104.672C145.857 104.42 145.908 104.175 146.018 103.937C146.129 103.7 146.281 103.493 146.493 103.31C146.705 103.126 146.959 102.98 147.255 102.873C147.56 102.766 147.907 102.712 148.297 102.712C148.737 102.712 149.136 102.774 149.5 102.904C149.864 103.034 150.177 103.21 150.457 103.455L150.203 103.899Z" fill="#666666"/>
</g>
<defs>
<clipPath id="clip0_1455_9882">
<rect width="220.019" height="110" fill="white" transform="translate(0.00537109)"/>
</clipPath>
</defs>
</svg>
