<svg width="81" height="80" viewBox="0 0 81 80" fill="none" xmlns="http://www.w3.org/2000/svg">
<path d="M70.7566 21.6667V46.6667H64.0975V25L47.4499 13.3333L30.8023 25V30H24.1432V21.6667L47.4499 5L70.7566 21.6667ZM52.4442 23.3333H49.1146V26.6667H52.4442V23.3333ZM45.7851 23.3333H42.4556V26.6667H45.7851V23.3333ZM52.4442 30H49.1146V33.3333H52.4442V30ZM45.7851 30H42.4556V33.3333H45.7851V30ZM64.0975 53.3333H57.4385C57.4385 49.3333 54.9413 45.7333 51.2122 44.3333L30.7024 36.6667H4.16608V73.3333H24.1432V68.5333L47.4499 75L74.0861 66.6667V63.3333C74.0861 57.8 69.6245 53.3333 64.0975 53.3333ZM10.8251 66.6667V43.3333H17.4842V66.6667H10.8251ZM47.35 68.0333L24.1432 61.6V43.3333H29.5038L48.8816 50.5667C50.0136 51 50.7794 52.1 50.7794 53.3333C50.7794 53.3333 44.1537 53.1667 43.1215 52.8333L35.1972 50.2L33.0996 56.5333L41.0239 59.1667C42.722 59.7333 44.4866 60.0333 46.2845 60.0333H64.0975C65.396 60.0333 66.5614 60.8 67.0941 61.9L47.35 68.0333Z" fill="#9747FF"/>
</svg>
