<svg width="220" height="110" viewBox="0 0 220 110" fill="none" xmlns="http://www.w3.org/2000/svg">
<g clip-path="url(#clip0_1455_10058)">
<path fill-rule="evenodd" clip-rule="evenodd" d="M93.0201 33.1104V61.0702L87.325 49.6655V33.1104H93.0201Z" fill="#4D897B"/>
<path fill-rule="evenodd" clip-rule="evenodd" d="M102.512 17.6589V62.1739L98.2934 69.8997L95.9731 65.8528L96.8169 16.5552L102.512 17.6589Z" fill="#4D897B"/>
<path fill-rule="evenodd" clip-rule="evenodd" d="M112.848 0V44.5151L106.942 55.9197V0H112.848ZM112.848 59.5987V60.7023L106.942 71.0033L112.848 59.5987Z" fill="#4D897B"/>
<path fill-rule="evenodd" clip-rule="evenodd" d="M102.512 79.8327H93.8638L67.7085 34.214L42.186 78.729H33.5378L67.7085 19.1304L102.512 79.8327Z" fill="#676766"/>
<path fill-rule="evenodd" clip-rule="evenodd" d="M132.464 29.0634L102.512 79.8327H93.8638L128.035 21.7056L132.464 29.0634Z" fill="#4D897B"/>
<path fill-rule="evenodd" clip-rule="evenodd" d="M134.573 39.3644L120.652 16.5551L134.573 15.0835V39.3644Z" fill="#4D897B"/>
<path fill-rule="evenodd" clip-rule="evenodd" d="M166.635 79.8328H157.776L136.05 41.9398V26.4883L166.635 79.8328Z" fill="#676766"/>
<path d="M67.7085 50.4014H61.8025V60.7024H67.7085V50.4014Z" fill="#676766"/>
<path d="M74.2474 50.4014H69.1851V60.7024H74.2474V50.4014Z" fill="#676766"/>
<path d="M67.7085 63.2778H61.8025V73.5788H67.7085V63.2778Z" fill="#676766"/>
<path d="M74.2474 63.2778H69.1851V73.5788H74.2474V63.2778Z" fill="#676766"/>
<path d="M129.511 50.4014H124.449V60.7024H129.511V50.4014Z" fill="#676766"/>
<path d="M136.894 50.4014H130.988V60.7024H136.894V50.4014Z" fill="#676766"/>
<path d="M129.511 63.2778H124.449V73.5788H129.511V63.2778Z" fill="#676766"/>
<path d="M136.894 63.2778H130.988V73.5788H136.894V63.2778Z" fill="#676766"/>
<path d="M0 80.2008C0 79.833 0 79.833 0.21093 79.4651C0.21093 79.4651 0.42186 79.0972 0.63279 79.0972H8.22627C9.06999 79.0972 9.70278 79.4651 10.5465 79.833C11.1793 80.2008 11.8121 80.9366 12.4449 82.0403C12.6558 83.144 13.0777 83.8798 13.2886 85.3513C13.4995 86.455 13.7105 87.9266 13.7105 89.0303C13.7105 90.134 13.7105 90.8697 13.4995 91.6055C13.4995 92.7092 13.2886 93.445 13.0777 94.1808C12.6558 94.9166 12.4449 95.2845 12.023 96.0202C11.6012 96.756 11.3902 97.1239 10.9684 97.4918L13.9214 107.425C13.9214 107.425 14.1323 107.793 14.1323 108.161C14.1323 108.529 14.3432 108.529 14.3432 108.896C14.3432 109.264 14.3432 109.264 14.1323 109.264C14.1323 109.264 13.9214 109.264 13.7105 109.264H9.70278C9.49185 109.264 9.49185 109.264 9.28092 108.896C9.06999 108.896 9.06999 108.529 9.06999 108.529L6.3279 99.3313H4.42953V108.529C4.42953 109.264 4.2186 109.264 3.79674 109.264H0.42186C0.21093 109.264 0.21093 109.264 0 108.896C0 108.896 0 108.896 0 108.529V80.2008ZM9.06999 89.0303C9.06999 88.6624 9.06999 88.2945 8.85906 87.9266C8.85906 87.5587 8.64813 87.1908 8.4372 86.8229C8.4372 86.455 8.22627 86.0871 8.01534 86.0871C7.80441 85.7192 7.59348 85.7192 7.38255 85.3513C7.17162 85.3513 6.96069 85.3513 6.74976 85.3513C6.53883 85.3513 6.3279 85.3513 6.11697 85.3513H4.42953V92.7092H6.53883C6.74976 92.7092 6.74976 92.7092 6.96069 92.7092C6.96069 92.7092 7.17162 92.7092 7.38255 92.7092C7.59348 92.7092 8.01534 92.3413 8.22627 92.3413C8.22627 91.9734 8.4372 91.9734 8.64813 91.6055C8.85906 91.2376 8.85906 90.8697 9.06999 90.5018C9.06999 90.134 9.06999 89.3982 9.06999 89.0303Z" fill="#676766"/>
<path d="M27.21 106.321C26.3663 107.425 25.7335 108.161 24.8898 108.897C24.046 109.632 22.9914 109.632 22.1477 109.632C21.093 109.632 20.0384 109.632 18.9837 108.897C18.14 108.161 17.2963 107.057 16.6635 105.953C15.8198 104.85 15.3979 103.378 14.9761 101.539C14.5542 100.067 14.3433 98.2277 14.3433 96.3882C14.3433 95.2845 14.3433 94.1808 14.5542 93.0772C14.7651 91.9735 14.9761 90.8698 15.187 89.7661C15.3979 88.6624 15.8198 87.9266 16.2416 87.1909C16.8744 86.4551 17.2963 85.7193 17.7181 84.9835C18.3509 84.2477 18.9837 83.8798 19.6165 83.5119C20.2493 83.144 20.8821 83.144 21.7258 83.144C22.3586 83.144 22.9914 83.144 23.6242 83.5119C24.257 83.8798 24.8898 84.2477 25.3116 84.6156C25.9444 84.9835 26.3663 85.7193 26.7881 86.4551C27.21 87.5588 27.4209 88.2945 27.8428 89.3982C28.0537 90.134 28.4756 91.2377 28.4756 92.3414C28.6865 93.445 28.6865 94.5487 28.6865 95.6524C28.6865 96.3882 28.6865 96.7561 28.6865 97.4919C28.6865 97.8598 28.6865 98.2277 28.4756 98.5955C28.4756 98.9634 28.2646 98.9634 27.8428 99.3313C27.6319 99.3313 27.21 99.3313 26.7881 99.3313H18.3509C18.3509 100.067 18.5619 100.803 18.7728 101.539C18.9837 102.274 19.1947 102.642 19.6165 103.01C20.0384 102.642 20.4602 103.01 20.8821 103.01C21.304 103.01 21.5149 103.378 21.9367 103.378C22.1477 103.378 22.5695 103.378 22.7805 103.378C22.9914 103.378 23.4133 103.01 23.6242 103.01C23.8351 103.01 24.046 102.642 24.4679 102.274C24.6788 101.907 24.8898 101.907 25.1007 101.539C25.3116 101.539 25.3116 101.171 25.5226 101.171H25.7335C25.9444 101.171 25.9444 101.171 26.1553 101.171C26.1553 101.171 26.3663 101.539 26.5772 101.539L27.4209 104.114L27.6319 104.482V104.85C27.6319 105.218 27.6319 105.218 27.4209 105.586C27.4209 105.953 27.21 105.953 27.21 106.321ZM21.5149 89.3982C21.304 89.3982 20.8821 89.3982 20.6712 89.7661C20.2493 89.7661 20.0384 90.134 19.8274 90.5019C19.6165 90.8698 19.4056 91.2377 19.1947 91.6056C18.9837 91.9735 18.7728 92.7093 18.7728 93.0772H24.6788C24.4679 92.7093 24.257 91.9735 24.046 91.6056C23.8351 91.2377 23.6242 90.8698 23.4133 90.5019C23.2023 90.134 22.9914 89.7661 22.5695 89.7661C22.3586 89.3982 21.9367 89.3982 21.5149 89.3982Z" fill="#676766"/>
<path d="M45.35 107.793C45.35 108.16 45.35 108.16 45.35 108.528C45.35 108.896 45.139 108.896 45.139 108.896L44.9281 109.264C44.7172 109.264 44.7172 109.264 44.7172 109.264H42.186C41.9751 109.264 41.9751 109.264 41.7642 109.264C41.7642 109.264 41.5532 109.264 41.5532 108.896C41.5532 108.896 41.5532 108.528 41.3423 108.528C41.3423 108.16 41.3423 108.16 41.1314 107.793L40.9204 106.321C40.7095 106.689 40.2876 107.057 40.0767 107.425C39.8658 107.793 39.6549 108.16 39.233 108.528C39.0221 108.896 38.6002 109.264 38.3893 109.632C37.9674 109.632 37.5456 110 37.3346 110C36.7018 110 35.8581 110 35.2253 109.632C34.5925 108.896 33.9597 108.528 33.327 108.16C32.9051 107.425 32.2723 106.689 31.8504 105.953C31.4286 105.217 31.0067 104.114 30.5849 103.378C30.3739 102.274 30.163 101.171 29.9521 100.067C29.7411 98.9632 29.5302 97.8595 29.5302 96.3879C29.5302 94.5485 29.7411 92.709 30.163 91.2374C30.5849 89.7658 31.2177 88.2943 31.8504 86.8227C32.4832 85.719 33.327 84.6153 34.1707 83.8796C35.0144 83.1438 36.069 82.7759 37.1237 82.7759C37.5456 82.7759 37.9674 82.7759 38.3893 83.1438C38.8111 83.5117 39.4439 84.2474 39.6549 84.6153C40.0767 84.9832 40.2876 85.3511 40.4986 85.719C40.7095 86.0869 41.1314 86.8227 41.3423 87.1906L41.7642 84.6153C41.7642 84.2474 41.9751 83.8796 41.9751 83.8796C41.9751 83.5117 41.9751 83.5117 42.186 83.5117C42.186 83.5117 42.3969 83.5117 42.3969 83.1438C42.3969 83.1438 42.6079 83.1438 42.8188 83.1438H44.5062H44.7172C44.9281 83.1438 44.9281 83.1438 44.9281 83.5117L45.139 83.8796C45.139 83.8796 45.139 84.2474 45.139 84.6153V107.793H45.35ZM33.7488 96.3879C33.7488 97.1237 33.7488 98.2274 33.9597 98.9632C34.1707 99.699 34.3816 100.435 34.5925 101.171C35.0144 101.538 35.4363 101.906 35.8581 102.274C36.28 102.642 36.7018 103.01 37.1237 103.01C37.5456 103.01 38.1783 103.01 38.6002 102.642C39.0221 102.274 39.4439 101.906 39.8658 101.171C40.0767 100.435 40.2876 99.699 40.4986 98.9632C40.7095 98.2274 40.7095 97.4916 40.7095 96.3879C40.7095 95.6521 40.7095 94.5485 40.4986 93.8127C40.2876 93.0769 40.0767 92.709 39.8658 91.9732C39.4439 91.2374 39.0221 90.8695 38.6002 90.5016C38.1783 90.1337 37.7565 90.1337 37.1237 90.1337C36.7018 90.1337 36.069 90.1337 35.6472 90.5016C35.4363 90.8695 35.0144 91.2374 34.8035 91.9732C34.3816 92.709 34.1707 93.0769 34.1707 94.1806C33.9597 94.9163 33.7488 95.6521 33.7488 96.3879Z" fill="#676766"/>
<path d="M46.8265 77.2577C46.8265 76.8898 46.8265 76.5219 47.0374 76.154C47.2483 75.7861 47.4593 75.7861 47.6702 75.7861H50.6232H50.8341C50.8341 75.7861 51.0451 75.7861 51.0451 76.154L51.256 76.5219C51.256 76.5219 51.256 76.8898 51.256 77.2577V107.793C51.256 108.161 51.256 108.529 51.0451 108.897C51.0451 109.264 50.8341 109.264 50.4123 109.264H47.6702C47.4593 109.264 47.2483 109.264 47.0374 108.897C47.0374 108.897 46.8265 108.161 46.8265 107.793V77.2577Z" fill="#676766"/>
<path d="M132.253 80.2008C132.253 79.833 132.253 79.833 132.464 79.4651C132.464 79.4651 132.675 79.0972 132.886 79.0972H136.894C137.105 79.0972 137.315 79.4651 137.526 79.833L140.69 98.2276L143.854 79.833C143.854 79.4651 144.065 79.0972 144.487 79.0972H148.495C148.706 79.0972 148.706 79.0972 148.917 79.4651C149.128 79.4651 149.128 79.833 149.128 80.2008C149.338 84.9835 149.549 89.3982 149.76 94.1808C149.971 98.9634 150.393 103.746 150.604 108.529C150.604 108.896 150.393 109.264 150.182 109.264H146.807C146.385 109.264 146.175 108.896 146.175 108.529L145.331 92.7092L142.589 108.529C142.589 108.529 142.589 108.896 142.378 108.896C142.378 109.264 142.378 109.264 142.167 109.264H139.214C139.214 109.264 139.003 109.264 139.003 108.896C138.792 108.896 138.581 108.896 138.581 108.529L136.05 92.7092L134.995 108.529C134.995 109.264 134.784 109.264 134.362 109.264H131.198C130.777 109.264 130.777 108.896 130.777 108.529L132.253 80.2008Z" fill="#676766"/>
<path d="M167.268 107.793C167.268 108.161 167.268 108.161 167.268 108.529C167.268 108.897 167.057 108.897 167.057 108.897C167.057 108.897 166.846 109.264 166.635 109.264H166.424H164.104C163.893 109.264 163.893 109.264 163.682 109.264C163.682 109.264 163.471 109.264 163.471 108.897L163.26 108.529C163.26 108.161 163.26 108.161 163.049 107.793L162.838 106.321C162.627 106.689 162.416 107.057 162.205 107.425C161.994 107.793 161.572 108.161 161.361 108.529C161.151 108.897 160.729 109.264 160.307 109.632C160.096 109.632 159.674 110 159.252 110C158.619 110 157.776 110 157.143 109.632C156.51 108.897 155.877 108.529 155.455 108.161C154.823 107.425 154.401 106.689 153.768 105.953C153.346 105.218 152.924 104.114 152.713 103.378C152.291 102.274 152.081 101.171 151.87 100.067C151.659 98.9634 151.659 97.8598 151.659 96.3882C151.659 94.5487 151.87 92.7093 152.291 91.2377C152.713 89.7661 153.135 88.2945 153.768 86.823C154.401 85.7193 155.244 84.6156 156.299 83.8798C157.143 83.5119 158.198 83.144 159.252 83.144C159.674 83.144 160.096 83.144 160.518 83.5119C160.94 83.8798 161.361 84.2477 161.783 84.6156C161.994 84.9835 162.416 85.3514 162.627 85.7193C162.838 86.0872 163.049 86.823 163.26 87.1909L163.682 84.6156C163.682 84.2477 163.893 83.8798 163.893 83.8798C163.893 83.5119 163.893 83.5119 164.104 83.5119C164.104 83.5119 164.314 83.5119 164.314 83.144C164.314 83.144 164.525 83.144 164.736 83.144H166.424H166.635C166.846 83.144 166.846 83.144 167.057 83.5119L167.268 83.8798C167.268 83.8798 167.268 84.2477 167.268 84.6156V107.793ZM155.877 96.3882C155.877 97.124 155.877 98.2277 156.088 98.9634C156.299 99.6992 156.51 100.435 156.721 101.171C156.932 101.907 157.354 102.274 157.776 102.642C158.198 102.642 158.83 103.01 159.252 103.01C159.885 103.01 160.307 103.01 160.729 102.642C161.151 102.274 161.572 101.907 161.994 101.171C162.205 100.435 162.416 99.6992 162.627 98.9634C162.838 98.2277 162.838 97.4919 162.838 96.3882C162.838 95.6524 162.838 94.5487 162.627 93.8129C162.416 93.0772 162.205 92.7093 161.783 91.9735C161.572 91.2377 161.151 90.8698 160.729 90.5019C160.307 90.134 159.674 90.134 159.252 90.134C158.83 90.134 158.408 90.134 157.776 90.5019C157.354 90.8698 157.143 91.2377 156.721 91.9735C156.51 92.7093 156.299 93.0772 156.088 94.1808C155.877 94.9166 155.877 95.6524 155.877 96.3882Z" fill="#676766"/>
<path d="M168.955 84.9835C168.955 84.6156 168.955 84.6156 169.166 84.2477C169.166 83.8798 169.377 83.8798 169.377 83.8798C169.588 83.5119 169.799 83.5119 170.01 83.5119H171.697C171.908 83.5119 171.908 83.5119 172.119 83.5119L172.33 83.8798C172.33 83.8798 172.33 84.2477 172.541 84.2477C172.541 84.6156 172.752 84.6156 172.752 84.9835C172.752 84.9835 172.752 84.9835 172.752 85.3514C172.752 85.7193 172.963 85.7193 172.963 86.0872C172.963 86.4551 173.174 86.4551 173.174 86.823C173.174 87.1909 173.174 87.1909 173.384 87.1909C173.595 86.823 173.806 86.4551 174.017 85.7193C174.017 85.3514 174.228 84.9835 174.439 84.6156C174.65 84.2477 174.861 83.8798 175.283 83.5119C175.494 83.144 175.916 83.144 176.337 83.144C176.759 83.144 177.181 83.144 177.392 83.144C177.603 83.144 178.025 83.5119 178.236 83.5119C178.658 83.8798 178.869 84.2477 179.291 84.6156C179.501 84.9835 179.923 85.3514 180.134 85.7193C180.767 86.0872 180.767 86.823 180.345 87.9267L179.291 91.2377C179.291 91.6056 179.08 91.6056 178.869 91.9735C178.658 91.9735 178.447 91.9735 178.236 91.9735C177.814 91.2377 177.392 90.8698 176.97 90.5019C176.759 90.134 176.338 90.134 175.916 90.134C175.705 90.134 175.283 90.134 175.072 90.5019C174.861 90.5019 174.65 90.8698 174.439 91.2377C174.228 91.2377 174.017 91.6056 174.017 91.9735C173.806 92.3414 173.595 92.7093 173.384 93.0772V107.793C173.384 108.161 173.384 108.529 173.174 108.897C172.963 109.264 172.752 109.264 172.541 109.264H169.799C169.166 109.264 168.955 108.897 168.955 107.793V84.9835Z" fill="#676766"/>
<path d="M181.189 77.2577C181.189 76.8898 181.189 76.8898 181.189 76.5219C181.189 76.154 181.189 76.154 181.4 76.154L181.611 75.7861C181.822 75.7861 182.033 75.7861 182.244 75.7861H184.986C185.197 75.7861 185.197 75.7861 185.407 75.7861L185.618 76.154C185.618 76.154 185.618 76.5219 185.829 76.5219V76.8898V91.9734L189.837 84.2477C190.048 83.8798 190.259 83.5119 190.47 83.5119H194.056C194.477 83.5119 194.688 83.8798 194.688 84.2477V84.6156C194.688 84.6156 194.688 84.9835 194.477 84.9835L189.837 94.1808L195.954 107.793L196.165 108.161V108.529C196.165 108.897 196.165 108.897 195.954 109.264C195.954 109.264 195.743 109.264 195.532 109.264H191.524C191.314 109.264 191.314 109.264 191.103 108.897C190.892 108.897 190.892 108.529 190.681 108.161L187.095 98.9634L185.618 101.171V107.793V108.161C185.618 108.161 185.618 108.529 185.407 108.529L185.197 108.897C185.197 108.897 184.986 108.897 184.775 108.897H182.033C181.822 108.897 181.822 108.897 181.611 108.529C181.4 108.529 181.4 108.161 181.4 108.161C181.4 108.161 181.4 107.793 181.189 107.793V107.425V77.2577Z" fill="#676766"/>
<path d="M209.032 106.321C208.188 107.425 207.555 108.161 206.5 108.897C205.868 109.632 204.813 109.632 203.969 109.632C202.915 109.632 201.86 109.264 201.016 108.529C199.962 108.161 199.118 107.057 198.485 105.953C197.641 104.85 197.22 103.378 196.798 101.539C196.376 100.067 195.954 98.2277 195.954 96.3882C195.954 95.2845 195.954 94.1808 196.165 93.0772C196.587 91.9735 196.798 90.8698 197.009 89.7661C197.22 88.6624 197.641 87.9266 198.063 87.1909C198.485 86.4551 198.907 85.7193 199.54 84.9835C200.173 84.2477 200.594 83.8798 201.227 83.5119C201.86 83.144 202.493 83.144 203.337 83.144C203.969 83.144 204.602 83.144 205.235 83.5119C205.868 83.8798 206.29 84.2477 206.922 84.6156C207.555 84.9835 207.977 85.7193 208.399 86.4551C208.821 87.5588 209.243 88.2945 209.664 89.3982C209.875 90.134 210.297 91.2377 210.508 92.3414C210.719 93.445 210.719 94.5487 210.719 95.6524C210.719 96.3882 210.719 96.7561 210.719 97.4919C210.719 97.8598 210.719 98.2277 210.508 98.5955C210.508 98.9634 210.297 98.9634 209.875 99.3313C209.664 99.3313 209.243 99.3313 208.821 99.3313H200.384C200.384 100.067 200.594 100.803 200.805 101.539C201.016 102.274 201.227 102.642 201.649 103.01C201.86 102.642 202.282 103.01 202.704 103.01C203.126 103.01 203.337 103.378 203.758 103.378C203.969 103.378 204.391 103.378 204.602 103.378C204.813 103.378 205.235 103.01 205.446 103.01C205.657 103.01 205.868 102.642 206.29 102.274C206.29 101.907 206.5 101.907 206.711 101.539C206.922 101.539 206.922 101.171 207.133 101.171H207.344H207.555C207.555 101.171 207.766 101.539 207.977 101.539L209.243 104.114L209.454 104.482V104.85C209.454 105.218 209.454 105.218 209.243 105.586C209.243 105.953 209.032 105.953 209.032 106.321ZM203.337 89.3982C203.126 89.3982 202.704 89.3982 202.493 89.7661C202.071 89.7661 201.86 90.134 201.649 90.5019C201.438 90.8698 201.227 91.2377 201.016 91.6056C200.805 91.9735 200.594 92.7093 200.594 93.0772H206.5C206.29 92.7093 206.079 91.9735 205.868 91.6056C205.657 91.2377 205.446 90.8698 205.235 90.5019C205.024 90.134 204.813 89.7661 204.391 89.7661C204.18 89.3982 203.758 89.3982 203.337 89.3982Z" fill="#676766"/>
<path d="M212.828 79.4649C212.828 79.097 212.828 78.7291 213.039 78.3612C213.25 77.9933 213.461 77.9933 213.672 77.6254L216.203 76.1538C216.203 76.1538 216.203 76.1538 216.414 76.1538C216.625 76.1538 216.836 76.1538 217.047 76.5217C217.258 76.8896 217.258 77.2575 217.258 77.6254V83.8796H219.156C219.367 83.8796 219.578 83.8796 219.789 84.2475C220 84.6153 220 84.9832 220 85.3511V89.398C220 90.1337 220 90.5016 219.789 90.5016C219.578 90.8695 219.367 90.8695 219.156 90.8695H217.258V107.057C217.258 107.425 217.258 107.793 217.047 108.16C216.836 108.528 216.625 108.528 216.414 108.528H213.883C213.25 108.528 213.039 108.16 213.039 107.057V91.6053H212.196C211.352 91.6053 210.93 90.8695 210.93 89.7659V85.719C210.93 84.6153 211.141 84.2475 211.774 84.2475H212.617V79.4649H212.828Z" fill="#676766"/>
<path d="M53.9981 80.2008C53.9981 79.833 53.9981 79.833 54.209 79.4651C54.209 79.4651 54.42 79.0972 54.6309 79.0972H66.2321C66.443 79.0972 66.443 79.0972 66.6539 79.4651C66.6539 79.4651 66.8648 79.833 66.8648 80.2008V85.3513C66.8648 85.7192 66.8648 85.7192 66.6539 86.0871C66.6539 86.455 66.443 86.455 66.2321 86.455H58.6386V91.6055H64.5446C64.7555 91.6055 64.7555 91.6055 64.9665 91.6055C64.9665 91.6055 65.1774 91.9734 65.1774 92.3413V96.756C65.1774 97.1239 65.1774 97.1239 64.9665 97.1239C64.9665 97.1239 64.7555 97.4918 64.5446 97.4918H58.6386V102.642H66.443C66.8648 102.642 66.8648 103.01 66.8648 103.746V108.896V109.264C66.8648 109.632 66.6539 110 66.443 110H54.6309C54.42 110 54.42 110 54.209 109.632C54.209 109.632 53.9981 109.264 53.9981 108.896V80.2008Z" fill="#4D897B"/>
<path d="M70.4506 101.171C70.6616 101.539 70.8725 101.907 71.0834 101.907C71.2944 102.642 71.5053 102.642 71.7162 103.01C71.9272 103.01 72.1381 103.378 72.349 103.378C72.5599 103.378 72.5599 103.378 72.7709 103.378C72.9818 103.378 73.1927 103.378 73.4037 103.378C73.6146 103.378 73.8255 103.378 74.0364 103.378C74.2474 103.378 74.4583 103.01 74.6692 103.01C74.8802 102.642 74.8802 102.274 74.8802 101.907C74.8802 101.539 74.8802 101.171 74.6692 101.171C74.6692 100.803 74.4583 100.803 74.2474 100.435C74.0364 100.435 73.8255 100.067 73.6146 100.067C73.4037 100.067 73.1927 99.6992 72.7709 99.6992C71.9271 98.9634 71.0834 98.2277 70.4506 97.8598C69.8178 97.124 69.396 96.3882 68.9741 95.6524C68.7632 94.9166 68.3413 94.1808 68.3413 93.445C68.1304 92.3414 68.1304 91.6056 68.1304 90.5019C68.1304 89.3982 68.3413 88.2945 68.5523 87.5588C68.7632 86.4551 69.1851 85.7193 69.6069 84.9835C70.0288 84.2477 70.6616 83.8798 71.2944 83.5119C71.9272 83.144 72.7709 83.144 73.4037 83.144C73.8255 83.144 74.2474 83.144 74.8802 83.5119C75.302 83.5119 75.7239 83.8798 76.1457 84.2477C76.3567 84.2477 76.7785 84.6156 77.2004 84.9835C77.6223 85.7193 78.0441 86.0872 78.255 86.823C78.466 87.1909 78.466 87.1909 78.466 87.5588C78.466 87.9267 78.466 87.9267 78.255 88.2945C78.0441 88.6624 77.6223 89.0303 77.4113 89.7661C77.2004 90.134 76.7785 90.5019 76.5676 90.8698L76.3567 91.2377C76.1457 91.2377 76.1457 91.2377 76.1457 91.2377C76.1457 91.2377 75.9348 91.2377 75.9348 90.8698L75.7239 90.5019C75.302 90.134 74.8802 89.7661 74.6692 89.7661C74.2474 89.3982 73.8255 89.3982 73.6146 89.3982C73.1927 89.3982 72.9818 89.3982 72.7709 89.7661C72.5599 89.7661 72.349 90.134 72.349 90.8698C72.349 91.2377 72.349 91.6056 72.5599 91.6056C72.7709 91.9735 72.9818 91.9735 73.1927 91.9735C73.4037 91.9735 73.6146 92.3414 73.8255 92.3414C74.0364 92.3414 74.2474 92.3414 74.4583 92.7093C75.0911 93.0772 75.7239 93.445 76.3567 93.8129C76.7785 94.1808 77.4113 94.9166 77.8332 95.6524C78.255 96.3882 78.6769 97.124 78.8878 98.2277C79.0988 99.3313 79.3097 100.435 79.3097 101.539C79.3097 103.01 79.0988 104.114 78.8878 105.218C78.466 105.953 78.0441 107.057 77.4113 107.793C76.7785 108.529 76.3567 108.897 75.513 109.264C74.6692 109.632 74.0364 110 73.1927 110C72.7709 110 72.1381 110 71.7162 109.632C71.2944 109.632 70.6616 109.264 70.2397 108.897C69.8178 108.529 69.396 108.161 68.9741 107.793C68.5523 107.057 68.1304 106.689 67.7085 105.953C67.7085 105.953 67.4976 105.586 67.4976 105.218C67.4976 104.85 67.4976 104.85 67.4976 104.482C67.4976 104.114 67.4976 104.114 67.4976 103.746C67.4976 103.746 67.4976 103.378 67.7085 103.378L69.1851 100.803C69.396 100.803 69.6069 100.435 69.8178 100.803C70.0288 100.803 70.0288 100.803 70.4506 101.171Z" fill="#4D897B"/>
<path d="M81.419 79.4651C81.419 79.0972 81.419 78.7293 81.6299 78.3614C81.8409 78.3614 82.0518 77.9935 82.2627 77.9935L85.0048 76.522C85.0048 76.522 85.0048 76.522 85.2157 76.522C85.4267 76.522 85.6376 76.522 85.8485 76.8899C85.8485 77.2578 86.0595 77.6257 86.0595 77.9935V84.2477H87.9578C88.1688 84.2477 88.3797 84.2477 88.5906 84.6156C88.5906 84.9835 88.5906 85.3514 88.5906 85.7193V89.7661C88.5906 90.5019 88.5906 90.8698 88.3797 90.8698C88.1688 91.2377 87.9578 91.6056 87.7469 91.6056H85.8485V107.793C85.8485 108.161 85.8485 108.529 85.6376 108.897C85.4267 109.264 85.2158 109.264 85.0048 109.264H82.2627C81.6299 109.264 81.419 108.897 81.419 107.793V91.6056H80.5753C79.9425 91.6056 79.7316 91.2377 79.7316 90.134V85.7193C79.7316 84.6156 79.9425 84.2477 80.5753 84.2477H81.419V79.4651Z" fill="#4D897B"/>
<path d="M104.621 107.793C104.621 108.161 104.621 108.161 104.621 108.529C104.621 108.897 104.41 108.897 104.41 108.897L104.199 109.265H103.989H101.246C101.036 109.265 101.036 109.265 100.825 109.265C100.825 109.265 100.614 109.265 100.614 108.897C100.614 108.897 100.614 108.529 100.403 108.529C100.403 108.161 100.403 108.161 100.192 107.793L99.9809 106.322C99.7699 106.689 99.559 107.057 99.3481 107.425C99.1372 107.793 98.9262 108.161 98.5044 108.529C98.2934 108.897 97.8716 109.265 97.6606 109.633C97.2388 109.633 96.8169 110 96.3951 110C95.7623 110 94.9186 110 94.2858 109.633C93.8639 108.897 93.2311 108.529 92.5983 108.161C92.1765 107.425 91.5437 106.689 91.1218 105.954C90.7 105.218 90.2781 104.114 89.8562 103.378C89.6453 102.275 89.2234 101.171 89.2234 100.067C89.0125 98.9637 89.0125 97.86 89.0125 96.3884C89.0125 94.5489 89.2234 92.7095 89.6453 91.2379C89.8562 89.7663 90.489 88.2948 91.1218 86.8232C91.7546 85.7195 92.5983 84.6158 93.653 83.88C94.4967 83.1443 95.5513 82.7764 96.606 82.7764C97.0279 82.7764 97.4497 82.7764 97.8716 83.1443C98.2934 83.88 98.5044 84.2479 98.9262 84.6158C99.1372 84.9837 99.559 85.3516 99.7699 85.7195C99.9809 86.0874 100.192 86.8232 100.403 87.1911L100.825 84.6158C100.825 84.2479 101.036 83.88 101.036 83.88C101.036 83.5122 101.036 83.5122 101.246 83.5122C101.246 83.5122 101.457 83.5122 101.457 83.1443C101.457 83.1443 101.668 83.1443 101.879 83.1443H103.567H103.778C103.989 83.1443 103.989 83.1443 103.989 83.5122L104.199 83.88C104.199 83.88 104.199 84.2479 104.199 84.6158V107.793H104.621ZM93.0202 96.3884C93.0202 97.1242 93.0202 98.2279 93.2311 98.9637C93.442 99.6994 93.653 100.435 93.8639 101.171C94.0748 101.907 94.4967 102.275 94.9186 102.643C95.5513 102.643 95.9732 103.01 96.3951 103.01C96.8169 103.01 97.4497 103.01 97.8716 102.643C98.2934 101.907 98.7153 101.539 99.1372 101.171C99.559 100.435 99.7699 100.067 99.9809 98.9637C100.192 98.2279 100.192 97.4921 100.192 96.3884C100.192 95.6526 100.192 94.5489 99.9809 93.8132C99.559 93.0774 99.3481 92.7095 99.1372 91.9737C98.7153 91.2379 98.2934 90.87 97.8716 90.5021C97.4497 90.1342 97.0279 90.1342 96.3951 90.1342C95.9732 90.1342 95.3404 90.1342 94.9186 90.5021C94.7076 90.87 94.2858 91.2379 94.0748 91.9737C93.653 92.7095 93.442 93.0774 93.2311 94.181C93.2311 94.9168 93.0202 95.6526 93.0202 96.3884Z" fill="#4D897B"/>
<path d="M107.152 79.4651C107.152 79.0972 107.152 78.7293 107.363 78.3614C107.574 78.3614 107.785 77.9935 107.996 77.9935L110.527 76.522C110.738 76.522 110.949 76.522 111.16 76.8899C111.16 77.2578 111.371 77.6257 111.371 77.9935V84.2477H113.269C113.48 84.2477 113.691 84.2477 113.902 84.6156C114.113 84.9835 114.113 85.3514 114.113 85.7193V89.7661C114.113 90.5019 114.113 90.8698 113.902 90.8698C113.902 91.2377 113.691 91.6056 113.48 91.6056H111.582V107.793C111.582 108.161 111.582 108.529 111.371 108.897C111.16 109.264 110.949 109.264 110.527 109.264H107.996C107.363 109.264 107.152 108.897 107.152 107.793V91.6056H106.309C105.676 91.6056 105.465 91.2377 105.465 90.134V85.7193C105.465 84.6156 105.676 84.2477 106.309 84.2477H107.152V79.4651Z" fill="#4D897B"/>
<path d="M127.402 106.321C126.769 107.425 125.925 108.161 125.082 108.897C124.238 109.632 123.394 109.632 122.339 109.632C121.285 109.632 120.23 109.264 119.386 108.529C118.543 108.161 117.699 107.057 116.855 105.953C116.222 104.85 115.59 103.378 115.168 101.539C114.746 100.067 114.535 98.2277 114.535 96.3882C114.535 95.2845 114.535 94.1808 114.746 93.0772C114.957 91.9735 115.168 90.8698 115.59 89.7661C116.012 88.6624 116.222 87.9266 116.644 87.1909C117.066 86.4551 117.488 85.7193 118.121 84.9835C118.754 84.2477 119.175 83.8798 119.808 83.5119C120.441 83.144 121.074 83.144 121.918 83.144C122.55 83.144 123.183 83.144 123.816 83.5119C124.449 83.8798 124.871 84.2477 125.503 84.9835C125.925 85.3514 126.558 86.0872 126.98 86.823C127.402 87.5588 127.824 88.2945 128.035 89.3982C128.456 90.134 128.667 91.2377 128.878 92.3414C129.089 93.445 129.089 94.5487 129.089 95.6524C129.089 96.3882 129.089 96.7561 129.089 97.4919C129.089 97.8598 129.089 98.2277 128.878 98.5955C128.878 98.9634 128.667 98.9634 128.245 99.3313C128.035 99.3313 127.613 99.3313 127.191 99.3313H118.754C118.754 100.067 118.965 100.803 119.175 101.539C119.597 101.539 119.808 101.907 120.23 102.274C120.441 102.642 120.863 103.01 121.074 103.01C121.496 103.01 121.707 103.378 122.129 103.378C122.339 103.378 122.761 103.378 122.972 103.378C123.394 103.378 123.605 103.01 123.816 103.01C124.027 103.01 124.449 102.642 124.66 102.274C124.871 101.907 125.082 101.907 125.292 101.539C125.503 101.539 125.503 101.171 125.714 101.171H125.925H126.136C126.347 101.171 126.347 101.539 126.558 101.539L127.824 104.114L128.035 104.482V104.85C128.035 105.218 128.035 105.218 127.824 105.586C127.613 105.953 127.613 105.953 127.402 106.321ZM121.918 89.3982C121.707 89.3982 121.285 89.3982 121.074 89.7661C120.652 89.7661 120.441 90.134 120.23 90.5019C119.808 90.8698 119.597 91.2377 119.386 91.6056C119.175 91.9735 119.175 92.7093 118.965 93.0772H124.871C124.871 92.7093 124.66 91.9735 124.449 91.6056C124.238 91.2377 124.027 90.8698 123.816 90.5019C123.605 90.134 123.183 89.7661 122.972 89.7661C122.55 89.3982 122.339 89.3982 121.918 89.3982Z" fill="#4D897B"/>
</g>
<defs>
<clipPath id="clip0_1455_10058">
<rect width="220" height="110" fill="white"/>
</clipPath>
</defs>
</svg>
