<svg width="221" height="110" viewBox="0 0 221 110" fill="none" xmlns="http://www.w3.org/2000/svg">
<g clip-path="url(#clip0_1455_9920)">
<path d="M94.0205 19.8086C94.0205 19.4845 93.7254 19.2236 93.3586 19.2236H92.9293C92.5625 19.2236 92.2673 19.4845 92.2673 19.8086V22.4961C92.2673 22.8202 92.5625 23.0811 92.9293 23.0811H93.3586C93.7254 23.0811 94.0205 22.8202 94.0205 22.4961V19.8086Z" fill="#EF3729"/>
<path d="M96.6593 19.8086C96.6593 19.4845 96.3641 19.2236 95.9974 19.2236H95.568C95.2013 19.2236 94.9061 19.4845 94.9061 19.8086V22.4961C94.9061 22.8202 95.2013 23.0811 95.568 23.0811H95.9974C96.3641 23.0811 96.6593 22.8202 96.6593 22.4961V19.8086Z" fill="#EF3729"/>
<path d="M96.6593 24.4404C96.6593 24.1163 96.3641 23.8555 95.9973 23.8555H92.9382C92.5714 23.8555 92.2762 24.1163 92.2762 24.4404V27.9026C92.2762 28.2267 92.5714 28.4875 92.9382 28.4875H95.9973C96.3641 28.4875 96.6593 28.2267 96.6593 27.9026V24.4404Z" fill="#EF3729"/>
<path d="M149.511 53.3164C110.839 41.3884 69.7869 51.5932 69.3754 51.6959L69.1875 50.9292C70.2341 50.6604 85.3255 43.7202 108.182 43.7202C125.688 43.7202 148.831 51.688 148.831 51.688L149.511 53.3164Z" fill="#EF3729"/>
<path d="M148.428 28.5984L130.224 13.1528C130.063 13.0185 130.108 12.9157 129.893 12.8446L128.667 12.3387V6.60786C128.667 5.79369 127.451 5.32732 126.485 5.32732H123.184C122.218 5.32732 121.654 5.79369 121.654 6.60786V7.64336H120.777V8.41801H121.654V10.0147L92.6967 0.0707848C92.1868 -0.103116 91.5606 0.047071 91.2565 0.434395L69.8137 28.0451C69.6437 28.2664 69.6169 28.551 69.76 28.7802C69.9121 29.0094 71.3076 29.0094 71.6117 29.0094L91.5696 2.61606C91.7574 2.37892 92.0616 2.22873 92.4015 2.20502C92.7415 2.1813 93.0725 2.29197 93.305 2.49749L120.983 27.7052C121.287 27.9818 121.708 28.1478 122.155 28.1715L129.598 28.5035L120.831 29.4363L94.0296 5.26409C93.7434 5.00324 93.3319 4.86886 92.9114 4.89257C92.491 4.91629 92.1063 5.09809 91.8648 5.38266L72.5779 29.1438L75.8967 30.037L76.1114 49.0949L78.7236 47.8302V37.9021L89.2169 22.504V29.7129C89.2169 30.867 90.6034 31.5784 91.9632 31.5784H97.7511C99.1108 31.5784 100.614 30.867 100.614 29.7129V18.3382C100.614 17.1842 99.1108 16.1329 97.7511 16.1329H93.7255L96.445 12.1727C96.6328 11.9276 96.9459 11.8012 97.2948 11.7775C97.6437 11.7537 97.9836 11.8881 98.2073 12.1015L119.632 32.3293C119.775 32.4716 119.901 32.7325 119.901 32.9222V35.7757C119.901 36.3132 120.357 36.9693 120.992 36.9693H127.003C127.317 36.9693 127.603 36.7559 127.826 36.5741L134.616 30.7405C135.126 30.2979 135.824 30.0607 136.54 30.0844L140.708 30.2109L135.269 37.2934C135.028 37.6096 134.607 37.7361 134.16 37.7361H121.001C120.366 37.7361 119.91 38.2973 119.91 38.8427V46.1307C120.232 46.1544 120.563 46.186 120.885 46.2256L122.226 40.2023L135.69 40.0679V48.842C138.463 49.0949 140.878 50.2885 143.356 51.3556L144.931 51.5533C145.628 51.1975 146.049 51.8773 146.076 51.1738L146.103 37.2855C146.103 37.0721 146.272 36.8903 146.505 36.8428L147.65 36.6136C148.151 36.5109 148.321 35.9575 147.945 35.6493L141.317 30.2109L148.947 30.4876C149.18 29.8236 149.01 29.0885 148.428 28.5984ZM125.161 11.232L123.407 10.5839V8.41801H125.161V11.232ZM125.161 7.64336H123.407V6.86871H125.161V7.64336ZM97.7511 17.6743C98.0642 17.6743 97.9836 18.0695 97.9836 18.3382V29.3019C97.9836 29.5232 97.7779 29.705 97.5274 29.705H91.4354C91.1849 29.705 90.9792 29.5232 90.9792 29.3019V19.6978L92.6431 17.6743H97.7511Z" fill="#EF3729"/>
<path d="M22.5268 93.1394H16.7568C15.6834 93.1394 14.923 92.7837 14.4578 92.0723L9.8955 85.0214C9.68081 84.721 9.43927 84.4997 9.17985 84.3653C8.91148 84.223 8.53576 84.1598 8.04375 84.1598H6.41563V93.1473H0.0373535V68.8486H8.98304C10.969 68.8486 12.6687 69.0304 14.0642 69.3941C15.4687 69.7577 16.6137 70.2556 17.4993 70.9038C18.385 71.552 19.0291 72.3108 19.4316 73.1882C19.8342 74.0656 20.031 75.0221 20.031 76.0576C20.031 76.8481 19.9147 77.5911 19.6731 78.2946C19.4316 78.9981 19.0827 79.6463 18.6176 80.2391C18.1524 80.832 17.5799 81.3616 16.891 81.8279C16.2022 82.2943 15.415 82.6816 14.5204 82.9741C14.9319 83.1638 15.3255 83.4009 15.6923 83.6855C16.0591 83.9701 16.3811 84.3021 16.6763 84.6973L22.5268 93.1394ZM8.98304 80.2628C9.85078 80.2628 10.5933 80.168 11.2016 79.9704C11.8099 79.7727 12.3108 79.504 12.7045 79.1641C13.0981 78.8163 13.3754 78.4132 13.5543 77.9547C13.7332 77.4962 13.8137 76.9982 13.8137 76.4607C13.8137 75.3936 13.4201 74.5636 12.6329 73.9629C11.8457 73.3621 10.6291 73.0618 8.98304 73.0618H6.41563V80.2628H8.98304Z" fill="#666666"/>
<path d="M31.2667 73.1803V78.8479H39.9083V83.0136H31.2667V88.7998H42.5472V93.1315H24.8527V68.8486H42.5562V73.1803H31.2667Z" fill="#666666"/>
<path d="M71.1377 93.1394H66.1907C65.6361 93.1394 65.1888 93.0287 64.8489 92.7995C64.509 92.5702 64.2495 92.2778 64.0706 91.9221L62.4514 87.6852H52.0029L50.3837 91.9221C50.2406 92.2304 49.999 92.5149 49.6412 92.7679C49.2834 93.0208 48.8361 93.1394 48.3083 93.1394H43.3256L53.9709 68.8486H60.5013L71.1377 93.1394ZM61.0022 83.8515L58.4527 77.1959C58.2649 76.7769 58.0591 76.2789 57.8534 75.7019C57.6387 75.1328 57.424 74.5083 57.2093 73.8443C57.0214 74.5241 56.8157 75.1486 56.6099 75.7256C56.3952 76.3026 56.1984 76.8006 56.0016 77.2275L53.47 83.8436H61.0022V83.8515Z" fill="#666666"/>
<path d="M89.87 88.6338V93.1394H73.3115V68.8486H79.6898V88.6417H89.87V88.6338Z" fill="#666666"/>
<path d="M117.119 68.8486V93.1394H110.705V82.8713H99.5314V93.1394H93.1173V68.8486H99.5314V79.006H110.705V68.8486H117.119Z" fill="#EF4A23"/>
<path d="M149.43 80.9823C149.43 82.7372 149.09 84.3734 148.402 85.8832C147.713 87.393 146.747 88.713 145.503 89.8276C144.26 90.9421 142.757 91.8195 141.003 92.4519C139.25 93.0842 137.3 93.4004 135.162 93.4004C133.024 93.4004 131.074 93.0842 129.311 92.4519C127.549 91.8195 126.046 90.9421 124.794 89.8276C123.542 88.713 122.575 87.393 121.887 85.8832C121.198 84.3734 120.858 82.7372 120.858 80.9823C120.858 79.2275 121.198 77.5913 121.887 76.0815C122.575 74.5717 123.542 73.2596 124.794 72.145C126.046 71.0305 127.549 70.161 129.311 69.5286C131.074 68.8963 133.024 68.5801 135.162 68.5801C137.3 68.5801 139.25 68.8963 141.003 69.5365C142.757 70.1768 144.26 71.0542 145.503 72.1608C146.747 73.2754 147.713 74.5875 148.402 76.0973C149.081 77.6071 149.43 79.2354 149.43 80.9823ZM142.9 80.9823C142.9 79.7808 142.721 78.6979 142.372 77.7415C142.023 76.7771 141.513 75.9629 140.851 75.299C140.189 74.635 139.384 74.1212 138.427 73.7655C137.47 73.4098 136.379 73.2359 135.162 73.2359C133.927 73.2359 132.827 73.4177 131.87 73.7655C130.904 74.1212 130.099 74.635 129.437 75.299C128.775 75.9629 128.274 76.7771 127.916 77.7415C127.567 78.7058 127.388 79.7808 127.388 80.9823C127.388 82.1917 127.567 83.2826 127.916 84.239C128.265 85.2034 128.775 86.0176 129.437 86.6815C130.099 87.3455 130.913 87.8593 131.87 88.2071C132.836 88.5549 133.927 88.7288 135.162 88.7288C136.379 88.7288 137.47 88.5549 138.427 88.2071C139.384 87.8593 140.189 87.3455 140.851 86.6815C141.513 86.0176 142.014 85.2034 142.372 84.239C142.721 83.2826 142.9 82.1917 142.9 80.9823Z" fill="#EF4A23"/>
<path d="M164.656 88.6891C165.515 88.6891 166.275 88.5626 166.946 88.3176C167.617 88.0646 168.19 87.7089 168.655 87.2426C169.12 86.7762 169.478 86.2071 169.719 85.5352C169.961 84.8633 170.086 84.0965 170.086 83.2429V68.8486H176.464V83.235C176.464 84.721 176.187 86.0885 175.641 87.3374C175.096 88.5784 174.308 89.6535 173.289 90.5546C172.269 91.4557 171.034 92.1513 169.567 92.6572C168.109 93.1552 166.463 93.4081 164.638 93.4081C162.804 93.4081 161.149 93.1552 159.691 92.6572C158.233 92.1592 156.99 91.4557 155.97 90.5546C154.95 89.6535 154.172 88.5784 153.626 87.3374C153.08 86.0885 152.812 84.7289 152.812 83.235V68.8486H159.19V83.2191C159.19 84.0728 159.315 84.8396 159.557 85.5115C159.798 86.1834 160.156 86.7604 160.621 87.2268C161.087 87.701 161.659 88.0567 162.33 88.3097C163.037 88.5626 163.797 88.6891 164.656 88.6891Z" fill="#EF4A23"/>
<path d="M196.637 73.7811C196.449 74.0498 196.252 74.2474 196.046 74.3818C195.841 74.5162 195.572 74.5794 195.241 74.5794C194.955 74.5794 194.642 74.5004 194.311 74.3344C193.98 74.1763 193.604 73.9945 193.175 73.789C192.754 73.5914 192.271 73.4096 191.735 73.2436C191.198 73.0855 190.581 72.9985 189.883 72.9985C188.684 72.9985 187.798 73.2198 187.208 73.6704C186.627 74.121 186.331 74.7296 186.331 75.4964C186.331 75.9864 186.51 76.3896 186.859 76.7137C187.208 77.0378 187.673 77.3144 188.246 77.5436C188.818 77.7808 189.471 77.9942 190.205 78.1839C190.938 78.3815 191.69 78.595 192.459 78.8321C193.228 79.0692 193.98 79.3538 194.713 79.6779C195.447 80.002 196.1 80.413 196.673 80.911C197.245 81.409 197.71 82.0176 198.059 82.7369C198.408 83.4563 198.587 84.3179 198.587 85.3296C198.587 86.4521 198.363 87.5034 197.925 88.4836C197.487 89.4637 196.843 90.3174 196.011 91.0447C195.179 91.7719 194.141 92.341 192.915 92.7599C191.69 93.1789 190.294 93.3844 188.738 93.3844C187.879 93.3844 187.011 93.3054 186.126 93.1473C185.24 92.9892 184.381 92.7758 183.549 92.4912C182.717 92.2066 181.939 91.8746 181.205 91.4794C180.472 91.0921 179.837 90.6573 179.3 90.1751L181.188 87.5429C181.34 87.3532 181.536 87.1951 181.778 87.0687C182.02 86.9422 182.288 86.8789 182.583 86.8789C182.959 86.8789 183.343 86.9817 183.728 87.1951C184.113 87.4085 184.542 87.6378 185.034 87.8986C185.517 88.1516 186.072 88.3887 186.707 88.6021C187.333 88.8156 188.076 88.9183 188.935 88.9183C190.089 88.9183 190.992 88.697 191.636 88.2464C192.28 87.7959 192.602 87.0845 192.602 86.1043C192.602 85.5352 192.423 85.0767 192.074 84.721C191.726 84.3653 191.26 84.0728 190.688 83.8357C190.115 83.5985 189.462 83.393 188.738 83.2191C188.004 83.0373 187.262 82.8476 186.492 82.6263C185.723 82.4129 184.972 82.1441 184.247 81.8279C183.513 81.5117 182.869 81.0928 182.297 80.579C181.724 80.0652 181.259 79.417 180.91 78.6424C180.561 77.8677 180.382 76.9192 180.382 75.7809C180.382 74.8719 180.588 73.9787 181.009 73.1092C181.42 72.2397 182.037 71.4729 182.843 70.7931C183.648 70.1133 184.632 69.5758 185.804 69.1648C186.975 68.7617 188.317 68.5562 189.82 68.5562C190.661 68.5562 191.484 68.6115 192.28 68.73C193.076 68.8486 193.837 69.0225 194.552 69.2438C195.268 69.4731 195.939 69.7418 196.565 70.058C197.191 70.3742 197.746 70.7299 198.238 71.133L196.637 73.7811Z" fill="#EF4A23"/>
<path d="M208.767 73.1803V78.8479H217.409V83.0136H208.767V88.7998H220.048V93.1315H202.344V68.8486H220.048V73.1803H208.767Z" fill="#EF4A23"/>
<path d="M47.1625 109.913H46.2143C46.107 109.913 46.0175 109.889 45.9459 109.841C45.8744 109.794 45.8297 109.731 45.7939 109.66L44.9441 107.723H40.8742L40.0244 109.66C39.9976 109.723 39.9529 109.786 39.8813 109.841C39.8097 109.897 39.7203 109.921 39.613 109.921H38.6648L42.2875 101.905H43.5308L47.1625 109.913ZM44.6042 106.933L43.182 103.676C43.1372 103.581 43.0925 103.462 43.0478 103.336C43.0031 103.21 42.9584 103.067 42.9136 102.925C42.8242 103.225 42.7347 103.478 42.6453 103.684L41.223 106.94H44.6042V106.933Z" fill="#666666"/>
<path d="M56.3408 101.897V109.913H55.7236C55.6252 109.913 55.5447 109.897 55.4821 109.865C55.4195 109.834 55.348 109.786 55.2853 109.715L50.0436 103.676C50.0526 103.771 50.0615 103.858 50.0615 103.953C50.0615 104.04 50.0705 104.127 50.0705 104.206V109.913H48.9971V101.897H49.6322C49.6858 101.897 49.7306 101.897 49.7753 101.905C49.8111 101.913 49.8468 101.921 49.8737 101.937C49.9005 101.953 49.9363 101.969 49.9631 101.992C49.99 102.016 50.0257 102.048 50.0615 102.087L55.3032 108.118C55.2943 108.023 55.2853 107.929 55.2853 107.834C55.2764 107.739 55.2764 107.652 55.2764 107.573V101.897H56.3408Z" fill="#666666"/>
<path d="M68.7487 109.027L68.7397 109.913H63.1492V101.897H68.7397V102.783H64.3836V105.447H67.9168V106.3H64.3836V109.035H68.7487V109.027Z" fill="#666666"/>
<path d="M75.7352 103.154C75.6994 103.21 75.6547 103.249 75.61 103.281C75.5653 103.312 75.5116 103.32 75.449 103.32C75.3774 103.32 75.2969 103.289 75.1985 103.225C75.1001 103.162 74.9838 103.091 74.8318 103.012C74.6887 102.933 74.5098 102.862 74.304 102.799C74.0983 102.735 73.8478 102.704 73.5616 102.704C73.2843 102.704 73.0428 102.735 72.8371 102.799C72.6313 102.862 72.4524 102.949 72.3093 103.067C72.1662 103.178 72.0589 103.312 71.9873 103.463C71.9157 103.613 71.88 103.779 71.88 103.953C71.88 104.174 71.9426 104.364 72.0678 104.506C72.193 104.656 72.354 104.783 72.5598 104.885C72.7655 104.988 72.9981 105.083 73.2575 105.154C73.5169 105.233 73.7852 105.312 74.0536 105.391C74.3219 105.47 74.5903 105.565 74.8497 105.668C75.1091 105.771 75.3416 105.897 75.5474 106.055C75.7531 106.213 75.9141 106.403 76.0393 106.632C76.1646 106.862 76.2272 107.138 76.2272 107.47C76.2272 107.818 76.1556 108.15 76.0215 108.458C75.8873 108.767 75.6905 109.035 75.4311 109.265C75.1717 109.494 74.8497 109.668 74.474 109.802C74.0983 109.929 73.6689 110 73.1859 110C72.5955 110 72.0589 109.905 71.5758 109.715C71.0928 109.525 70.6813 109.272 70.3414 108.948L70.6992 108.435C70.735 108.395 70.7708 108.356 70.8245 108.332C70.8692 108.3 70.9229 108.292 70.9855 108.292C71.0391 108.292 71.1017 108.308 71.1733 108.348C71.2449 108.387 71.3254 108.435 71.4148 108.498C71.5043 108.561 71.6027 108.624 71.7189 108.695C71.8352 108.767 71.9605 108.83 72.1125 108.893C72.2556 108.956 72.4256 109.004 72.6045 109.043C72.7923 109.083 72.9981 109.099 73.2306 109.099C73.5258 109.099 73.7852 109.067 74.0088 108.996C74.2325 108.925 74.4293 108.822 74.5903 108.695C74.7513 108.569 74.8676 108.411 74.957 108.237C75.0375 108.055 75.0822 107.858 75.0822 107.636C75.0822 107.391 75.0196 107.194 74.8944 107.043C74.7692 106.885 74.6082 106.759 74.4024 106.656C74.1967 106.553 73.9641 106.466 73.7047 106.387C73.4453 106.316 73.177 106.237 72.9086 106.166C72.6403 106.087 72.3719 106 72.1125 105.897C71.8531 105.794 71.6206 105.668 71.4148 105.502C71.2091 105.344 71.0481 105.138 70.9229 104.901C70.7976 104.664 70.735 104.364 70.735 104.008C70.735 103.723 70.7976 103.447 70.9229 103.186C71.0481 102.925 71.227 102.688 71.4685 102.482C71.71 102.277 71.9962 102.111 72.3451 101.992C72.6939 101.866 73.0965 101.811 73.5437 101.811C74.0536 101.811 74.5098 101.882 74.9212 102.024C75.3327 102.166 75.6994 102.372 76.0215 102.641L75.7352 103.154Z" fill="#666666"/>
<path d="M84.7255 102.806H81.7916V109.905H80.5662V102.806H77.6233V101.897H84.7255V102.806Z" fill="#666666"/>
<path d="M93.188 109.913H92.2398C92.1325 109.913 92.043 109.889 91.9715 109.841C91.8999 109.794 91.8552 109.731 91.8194 109.66L90.9696 107.723H86.8997L86.0499 109.66C86.0231 109.723 85.9784 109.786 85.9068 109.841C85.8353 109.897 85.7458 109.921 85.6385 109.921H84.6903L88.313 101.905H89.5563L93.188 109.913ZM90.6297 106.933L89.2075 103.676C89.1628 103.581 89.118 103.462 89.0733 103.336C89.0286 103.21 88.9839 103.067 88.9391 102.925C88.8497 103.225 88.7602 103.478 88.6708 103.684L87.2486 106.94H90.6297V106.933Z" fill="#666666"/>
<path d="M100.255 102.806H97.3213V109.905H96.0958V102.806H93.153V101.897H100.255V102.806Z" fill="#666666"/>
<path d="M107.823 109.027L107.814 109.913H102.224V101.897H107.814V102.783H103.458V105.447H106.992V106.3H103.458V109.035H107.823V109.027Z" fill="#666666"/>
<path d="M120.41 108.253C120.481 108.253 120.535 108.277 120.589 108.324L121.072 108.79C120.696 109.17 120.249 109.47 119.721 109.676C119.193 109.889 118.549 109.992 117.798 109.992C117.145 109.992 116.555 109.889 116.027 109.692C115.499 109.494 115.043 109.209 114.667 108.854C114.292 108.49 113.996 108.063 113.791 107.557C113.585 107.051 113.478 106.498 113.478 105.897C113.478 105.297 113.585 104.743 113.8 104.237C114.014 103.731 114.318 103.305 114.712 102.941C115.106 102.577 115.571 102.301 116.116 102.103C116.662 101.905 117.261 101.803 117.923 101.803C118.567 101.803 119.14 101.898 119.632 102.079C120.124 102.261 120.562 102.506 120.938 102.822L120.535 103.32C120.508 103.36 120.481 103.392 120.437 103.415C120.401 103.439 120.347 103.455 120.276 103.455C120.204 103.455 120.106 103.415 119.998 103.344C119.891 103.273 119.748 103.194 119.569 103.099C119.39 103.012 119.167 102.925 118.907 102.854C118.639 102.783 118.317 102.743 117.923 102.743C117.458 102.743 117.029 102.815 116.635 102.957C116.25 103.099 115.911 103.305 115.633 103.581C115.356 103.85 115.132 104.182 114.98 104.577C114.828 104.972 114.748 105.407 114.748 105.905C114.748 106.403 114.828 106.854 114.989 107.241C115.15 107.636 115.374 107.96 115.651 108.237C115.928 108.506 116.259 108.711 116.644 108.854C117.029 108.996 117.44 109.067 117.878 109.067C118.147 109.067 118.388 109.051 118.612 109.028C118.827 108.996 119.032 108.956 119.211 108.893C119.399 108.83 119.569 108.759 119.721 108.664C119.882 108.569 120.034 108.466 120.195 108.34C120.267 108.284 120.338 108.253 120.41 108.253Z" fill="#666666"/>
<path d="M131.323 105.905C131.323 106.506 131.216 107.059 131.001 107.557C130.787 108.055 130.483 108.49 130.089 108.854C129.695 109.217 129.221 109.494 128.676 109.691C128.121 109.889 127.513 109.992 126.851 109.992C126.189 109.992 125.581 109.889 125.026 109.691C124.481 109.494 124.007 109.209 123.613 108.854C123.219 108.49 122.915 108.063 122.701 107.557C122.486 107.059 122.379 106.506 122.379 105.905C122.379 105.304 122.486 104.751 122.701 104.253C122.915 103.755 123.219 103.32 123.613 102.957C124.007 102.593 124.472 102.309 125.026 102.111C125.572 101.913 126.18 101.811 126.851 101.811C127.522 101.811 128.13 101.913 128.676 102.111C129.23 102.309 129.695 102.593 130.089 102.957C130.483 103.32 130.787 103.755 131.001 104.253C131.216 104.759 131.323 105.304 131.323 105.905ZM130.071 105.905C130.071 105.415 130 104.972 129.848 104.577C129.695 104.182 129.481 103.858 129.204 103.581C128.926 103.312 128.586 103.107 128.193 102.957C127.799 102.814 127.352 102.735 126.86 102.735C126.377 102.735 125.93 102.807 125.536 102.957C125.143 103.099 124.803 103.312 124.516 103.581C124.239 103.85 124.015 104.182 123.872 104.577C123.72 104.972 123.649 105.407 123.649 105.905C123.649 106.395 123.72 106.838 123.872 107.225C124.024 107.612 124.239 107.944 124.516 108.213C124.794 108.482 125.134 108.688 125.536 108.838C125.93 108.98 126.377 109.051 126.86 109.051C127.352 109.051 127.79 108.98 128.193 108.838C128.586 108.695 128.926 108.49 129.204 108.213C129.481 107.944 129.695 107.612 129.848 107.225C129.991 106.838 130.071 106.403 130.071 105.905Z" fill="#666666"/>
<path d="M143.15 101.898V109.913H142.076V104.024C142.076 103.945 142.076 103.858 142.085 103.771C142.094 103.684 142.103 103.589 142.103 103.494L138.99 108.506C138.892 108.672 138.749 108.759 138.543 108.759H138.364C138.167 108.759 138.015 108.672 137.917 108.506L134.741 103.471C134.768 103.668 134.777 103.85 134.777 104.016V109.905H133.704V101.89H134.607C134.715 101.89 134.804 101.898 134.858 101.921C134.92 101.937 134.974 101.992 135.028 102.079L138.158 107.012C138.212 107.099 138.257 107.194 138.31 107.289C138.355 107.383 138.4 107.486 138.445 107.581C138.489 107.478 138.534 107.383 138.579 107.281C138.624 107.186 138.677 107.091 138.731 106.996L141.808 102.072C141.862 101.985 141.915 101.937 141.978 101.913C142.041 101.898 142.121 101.882 142.237 101.882H143.15V101.898Z" fill="#666666"/>
<path d="M148.777 101.898C149.35 101.898 149.85 101.953 150.271 102.072C150.691 102.19 151.049 102.356 151.326 102.57C151.604 102.783 151.809 103.044 151.953 103.352C152.087 103.66 152.158 104 152.158 104.372C152.158 104.743 152.087 105.083 151.935 105.391C151.783 105.7 151.568 105.968 151.291 106.19C151.004 106.411 150.655 106.585 150.235 106.712C149.815 106.838 149.332 106.901 148.786 106.901H147.328V109.897H146.103V101.882H148.777V101.898ZM148.777 106.055C149.126 106.055 149.439 106.016 149.707 105.929C149.976 105.85 150.199 105.731 150.387 105.581C150.575 105.431 150.709 105.257 150.799 105.052C150.888 104.846 150.942 104.625 150.942 104.372C150.942 103.858 150.763 103.463 150.405 103.178C150.047 102.894 149.511 102.751 148.786 102.751H147.328V106.048H148.777V106.055Z" fill="#666666"/>
<path d="M161.068 109.913H160.12C160.012 109.913 159.923 109.889 159.851 109.841C159.78 109.794 159.735 109.731 159.699 109.66L158.85 107.723H154.78L153.93 109.66C153.903 109.723 153.858 109.786 153.787 109.841C153.715 109.897 153.626 109.921 153.518 109.921H152.57L156.193 101.905H157.436L161.068 109.913ZM158.51 106.933L157.087 103.676C157.043 103.581 156.998 103.462 156.953 103.336C156.909 103.21 156.864 103.067 156.819 102.925C156.73 103.225 156.64 103.478 156.551 103.684L155.129 106.94H158.51V106.933Z" fill="#666666"/>
<path d="M170.237 101.897V109.913H169.62C169.522 109.913 169.441 109.897 169.379 109.865C169.316 109.834 169.244 109.786 169.182 109.715L163.94 103.676C163.949 103.771 163.958 103.858 163.958 103.953C163.958 104.04 163.967 104.127 163.967 104.206V109.913H162.894V101.897H163.529C163.582 101.897 163.627 101.897 163.672 101.905C163.708 101.913 163.743 101.921 163.77 101.937C163.797 101.953 163.833 101.969 163.86 101.992C163.886 102.016 163.922 102.048 163.958 102.087L169.2 108.118C169.191 108.023 169.182 107.929 169.182 107.834C169.173 107.739 169.173 107.652 169.173 107.573V101.897H170.237Z" fill="#666666"/>
<path d="M176.598 106.719V109.913H175.373V106.719L172.054 101.897H173.127C173.235 101.897 173.324 101.921 173.387 101.969C173.449 102.016 173.503 102.079 173.548 102.15L175.623 105.265C175.695 105.399 175.766 105.518 175.829 105.628C175.891 105.739 175.945 105.858 175.99 105.976C176.034 105.858 176.088 105.747 176.151 105.628C176.213 105.518 176.276 105.391 176.348 105.265L178.414 102.15C178.45 102.087 178.503 102.032 178.575 101.976C178.646 101.921 178.727 101.897 178.834 101.897H179.917L176.598 106.719Z" fill="#666666"/>
</g>
<defs>
<clipPath id="clip0_1455_9920">
<rect width="220.019" height="110" fill="white" transform="translate(0.0373535)"/>
</clipPath>
</defs>
</svg>
