<svg width="81" height="80" viewBox="0 0 81 80" fill="none" xmlns="http://www.w3.org/2000/svg">
<path d="M25.1523 45.7789H22.4625C22.4625 46.4931 22.7459 47.1781 23.2503 47.6831C23.7547 48.1881 24.4389 48.4718 25.1523 48.4718V45.7789ZM46.6707 45.7789V48.4718C47.3841 48.4718 48.0682 48.1881 48.5727 47.6831C49.0771 47.1781 49.3605 46.4931 49.3605 45.7789H46.6707ZM46.6707 32.3145H49.3605C49.3611 31.9607 49.2921 31.6101 49.1573 31.283C49.0225 30.9559 48.8247 30.6585 48.5751 30.408L46.6707 32.3145ZM35.9115 21.543L37.8159 19.6365C37.566 19.3857 37.2692 19.1867 36.9424 19.051C36.6156 18.9152 36.2653 18.8453 35.9115 18.8453C35.5577 18.8453 35.2074 18.9152 34.8806 19.051C34.5538 19.1867 34.257 19.3857 34.0071 19.6365L35.9115 21.543ZM25.1523 32.3145L23.2479 30.408C22.9983 30.6585 22.8004 30.9559 22.6657 31.283C22.5309 31.6101 22.4619 31.9607 22.4625 32.3145H25.1523ZM80.8527 76.1869L59.3343 54.6439L55.5255 58.457L77.0439 80L80.8527 76.1869ZM35.9115 64.6291C28.0643 64.6291 20.5385 61.5082 14.9898 55.9531C9.44097 50.3979 6.32369 42.8636 6.32369 35.0074H0.944092C0.944092 44.2919 4.62815 53.1962 11.1858 59.7614C17.7435 66.3265 26.6376 70.0148 35.9115 70.0148V64.6291ZM65.4993 35.0074C65.4993 42.8636 62.382 50.3979 56.8332 55.9531C51.2844 61.5082 43.7587 64.6291 35.9115 64.6291V70.0148C45.1854 70.0148 54.0795 66.3265 60.6372 59.7614C67.1948 53.1962 70.8789 44.2919 70.8789 35.0074H65.4993ZM35.9115 5.38575C43.7587 5.38575 51.2844 8.5066 56.8332 14.0617C62.382 19.6169 65.4993 27.1513 65.4993 35.0074H70.8789C70.8789 25.7229 67.1948 16.8186 60.6372 10.2534C54.0795 3.68827 45.1854 0 35.9115 0V5.38575ZM35.9115 0C26.6376 0 17.7435 3.68827 11.1858 10.2534C4.62815 16.8186 0.944092 25.7229 0.944092 35.0074H6.32369C6.32369 27.1513 9.44097 19.6169 14.9898 14.0617C20.5385 8.5066 28.0643 5.38575 35.9115 5.38575V0ZM25.1523 48.4718H46.6707V43.086H25.1523V48.4718ZM49.3605 45.7789V32.3145H43.9809V45.7789H49.3605ZM48.5751 30.408L37.8159 19.6365L34.0071 23.4496L44.7663 34.2211L48.5751 30.408ZM34.0071 19.6365L23.2479 30.408L27.0567 34.2211L37.8159 23.4496L34.0071 19.6365ZM22.4625 32.3145V45.7789H27.8421V32.3145H22.4625Z" fill="#9747FF"/>
</svg>
