<svg width="178" height="178" viewBox="0 0 178 178" fill="none" xmlns="http://www.w3.org/2000/svg">
<g filter="url(#filter0_d_1293_1424)">
<circle cx="89" cy="85" r="85" fill="url(#paint0_linear_1293_1424)" shape-rendering="crispEdges"/>
</g>
<path d="M71.1428 110C70.1956 110 69.2872 109.624 68.6175 108.954C67.9477 108.284 67.5714 107.376 67.5714 106.429V63.5715C67.5717 62.9629 67.7276 62.3646 68.0241 61.8332C68.3206 61.3017 68.748 60.8549 69.2657 60.5351C69.7834 60.2152 70.3742 60.033 70.9821 60.0056C71.5901 59.9782 72.1949 60.1066 72.7393 60.3786L115.596 81.8072C116.189 82.1041 116.687 82.56 117.035 83.1239C117.383 83.6878 117.568 84.3374 117.568 85C117.568 85.6627 117.383 86.3123 117.035 86.8762C116.687 87.4401 116.189 87.896 115.596 88.1929L72.7393 109.621C72.2437 109.87 71.6971 109.999 71.1428 110ZM74.7143 69.35V100.65L106.014 85L74.7143 69.35Z" fill="#3E348F"/>
<path d="M89 42.1429C97.4764 42.1429 105.762 44.6564 112.81 49.3656C119.858 54.0748 125.351 60.7682 128.595 68.5993C131.839 76.4304 132.687 85.0475 131.034 93.361C129.38 101.674 125.298 109.311 119.305 115.305C113.311 121.298 105.674 125.38 97.361 127.034C89.0476 128.687 80.4304 127.839 72.5993 124.595C64.7682 121.351 58.0748 115.858 53.3656 108.81C48.6564 101.762 46.1429 93.4763 46.1429 85C46.1429 73.6336 50.6582 62.7327 58.6954 54.6954C66.7327 46.6581 77.6336 42.1429 89 42.1429ZM89 35C79.111 35 69.444 37.9324 61.2215 43.4265C52.999 48.9206 46.5904 56.7295 42.806 65.8658C39.0217 75.0021 38.0315 85.0555 39.9608 94.7545C41.89 104.454 46.6521 113.363 53.6447 120.355C60.6373 127.348 69.5465 132.11 79.2455 134.039C88.9445 135.968 98.9979 134.978 108.134 131.194C117.27 127.41 125.079 121.001 130.573 112.778C136.068 104.556 139 94.8891 139 85C139 71.7392 133.732 59.0215 124.355 49.6447C114.979 40.2678 102.261 35 89 35Z" fill="#3E348F"/>
<defs>
<filter id="filter0_d_1293_1424" x="0" y="0" width="178" height="178" filterUnits="userSpaceOnUse" color-interpolation-filters="sRGB">
<feFlood flood-opacity="0" result="BackgroundImageFix"/>
<feColorMatrix in="SourceAlpha" type="matrix" values="0 0 0 0 0 0 0 0 0 0 0 0 0 0 0 0 0 0 127 0" result="hardAlpha"/>
<feOffset dy="4"/>
<feGaussianBlur stdDeviation="2"/>
<feComposite in2="hardAlpha" operator="out"/>
<feColorMatrix type="matrix" values="0 0 0 0 0 0 0 0 0 0 0 0 0 0 0 0 0 0 0.25 0"/>
<feBlend mode="normal" in2="BackgroundImageFix" result="effect1_dropShadow_1293_1424"/>
<feBlend mode="normal" in="SourceGraphic" in2="effect1_dropShadow_1293_1424" result="shape"/>
</filter>
<linearGradient id="paint0_linear_1293_1424" x1="89" y1="58" x2="89" y2="170" gradientUnits="userSpaceOnUse">
<stop stop-color="#D9D9D9"/>
<stop offset="1" stop-color="#D9D9D9" stop-opacity="0"/>
</linearGradient>
</defs>
</svg>
